<svg version="1.1" xmlns="http://www.w3.org/2000/svg" viewBox="0 0 809.29296875 489.3344362732769">
  <!-- svg-source:excalidraw -->
  <defs>
    <style>
      @font-face {
        font-family: "Virgil";
        src: url("https://excalidraw.com/FG_Virgil.woff2");
      }
      @font-face {
        font-family: "Cascadia";
        src: url("https://excalidraw.com/Cascadia.woff2");
      }
    </style>
  </defs>
  <rect x="0" y="0" width="809.29296875" height="489.3344362732769" fill="#ffffff"></rect><g transform="translate(707.236328125 21.32421875) rotate(0 25 11.5)"><text x="25" y="18" font-family="Virgil" font-size="20px" fill="#000000" text-anchor="middle" style="white-space: pre;" direction="ltr">kernel</text></g><g transform="translate(373.0390625 38.01953125) rotate(0 61.5 11.5)"><text x="61.5" y="18" font-family="Virgil" font-size="20px" fill="#000000" text-anchor="middle" style="white-space: pre;" direction="ltr">dbus::nonblock</text></g><g><g transform="translate(438.470703125 78.232421875) rotate(0 -1.2575864596199153 194.78748181669044)"><path d="M-1.1205091964453457 0.700578386709094 C-1.749907339736819 65.19298585566382, -2.863790537044406 323.61789778781434, -3.007257665321231 388.0863310288638 M0.4920847460813822 0.022778094392269743 C0.17905550749972482 65.2185848108741, -0.186778344195336 324.8134588052643, -0.7051680907420814 389.55218553898857" stroke="#000000" stroke-width="1" fill="none"></path></g></g><g><g transform="translate(732.880859375 63.916015625) rotate(0 0.20923503905532925 207.49855461567645)"><path d="M-0.1548671174794436 0.4093721497803926 C-0.03091642546157046 69.3278880028675, -0.2802596100916464 345.26166855779786, -0.17977045066654673 414.06854462511836 M-1.6953110834956169 -0.42131141692399976 C-1.108311473230521 68.62153714785974, 1.898965694407622 346.3563420419892, 2.113781161606312 415.4184206482768" stroke="#000000" stroke-width="1" fill="none"></path></g></g><g><g transform="translate(442.85400797218085 157.63585639148948) rotate(0 142.56610691305252 -0.791054793074693)"><path d="M0.5729138206690549 -0.07696248404681683 C48.074976373687385 -0.45241886116563895, 238.38449252881108 -1.145907384529691, 285.71765897892413 -1.5051471021026146 M-0.5854451528191567 -1.1629717335104943 C46.70947789147496 -1.419653737097975, 236.92422693625093 -0.0463258565962125, 284.8451781177521 -0.08879673957822432" stroke="#000000" stroke-width="1" fill="none"></path></g><g transform="translate(442.85400797218085 157.63585639148948) rotate(0 142.56610691305252 -0.791054793074693)"><path d="M256.48993001375254 10.311688933651212 C266.2976316630957 4.621993229844582, 275.21263753012977 4.205399160104785, 286.7545280342549 -1.858977231308795 M255.91339882984664 10.574910611975255 C264.1583370267148 7.010719456189403, 271.9374473027581 4.036994849779563, 285.8028521004692 -0.20797700259832252" stroke="#000000" stroke-width="1" fill="none"></path></g><g transform="translate(442.85400797218085 157.63585639148948) rotate(0 142.56610691305252 -0.791054793074693)"><path d="M256.56268167517646 -10.20939070611432 C266.4721267607914 -8.536316666705996, 275.36103124955673 -1.5904883301667248, 286.7545280342549 -1.858977231308795 M255.98615049127056 -9.946169027790276 C264.1649346008971 -7.746924125611935, 271.92361081342654 -4.956807239952669, 285.8028521004692 -0.20797700259832252" stroke="#000000" stroke-width="1" fill="none"></path></g></g><g transform="translate(526.771484375 114.251953125) rotate(0 38 11.5)"><text x="0" y="18" font-family="Cascadia" font-size="20px" fill="#000000" text-anchor="start" style="white-space: pre;" direction="ltr">connect()</text></g><g><g transform="translate(723.537109375 336.705078125) rotate(0 -142.27798392448574 0.5691817408800262)"><path d="M0.45319764129817486 0.303343104198575 C-46.760692573462926 0.40357803789277874, -236.89492866682508 0.2722820191333691, -284.2054859805852 0.5549811709672212 M-0.7680123263597489 -0.5830057114362717 C-48.03517517705759 -0.3361800799767176, -237.86818000773587 1.6168049142758054, -285.00916549026965 1.7213691931962969" stroke="#000000" stroke-width="1" fill="none"></path></g><g transform="translate(723.537109375 336.705078125) rotate(0 -142.27798392448574 0.5691817408800262)"><path d="M-256.38310825382325 -8.272039021402948 C-264.3458357878759 -4.50792375207697, -268.21345697090186 -5.169862458844479, -284.9877796436101 2.0375732959061863 M-255.97057215147618 -8.741842625700288 C-263.6246111712711 -5.79791657352359, -273.09401203474937 -2.3164720905192713, -285.93981871869414 2.1593799146637322" stroke="#000000" stroke-width="1" fill="none"></path></g><g transform="translate(723.537109375 336.705078125) rotate(0 -142.27798392448574 0.5691817408800262)"><path d="M-256.2438205671235 12.248696865162463 C-264.2296912439879 11.434041381787141, -268.1283951162776 6.192805881892714, -284.9877796436101 2.0375732959061863 M-255.83128446477645 11.778893260865123 C-263.61847389652803 9.091668566006327, -273.1260969859845 6.9419749141285445, -285.93981871869414 2.1593799146637322" stroke="#000000" stroke-width="1" fill="none"></path></g></g><g transform="translate(509.732421875 298.955078125) rotate(0 84.5 11.5)"><text x="0" y="18" font-family="Cascadia" font-size="20px" fill="#000000" text-anchor="start" style="white-space: pre;" direction="ltr">connect() succeeded!</text></g><g><g transform="translate(729.736328125 209.056640625) rotate(0 -142.65630955557342 2.0099585419427513)"><path d="M-0.27852065674960613 0.3293780397623778 C-48.247670742993556 0.9784034998466572, -239.27497531684736 3.930673169220487, -287.08873638026415 4.563219518586993 M1.7761172691173854 -0.5433024347014725 C-45.856449698091794 -0.31053804737205304, -236.34591521151984 1.7210174337836603, -284.68791922478005 2.728131892066449" stroke="#000000" stroke-width="1" fill="none"></path></g><g transform="translate(729.736328125 209.056640625) rotate(0 -142.65630955557342 2.0099585419427513)"><path d="M-256.104360066921 -8.939560912550334 C-265.7879744753436 -5.274943900505998, -276.62576867724033 -0.5797452089057202, -282.94804471096023 4.210788488294929 M-257.3229305107226 -8.553453658708278 C-266.23989840420535 -3.8928369074937983, -276.31820810811706 -0.6499819608790522, -283.95577847601845 1.8942153629846872" stroke="#000000" stroke-width="1" fill="none"></path></g><g transform="translate(729.736328125 209.056640625) rotate(0 -142.65630955557342 2.0099585419427513)"><path d="M-255.79826672721788 11.579364723389496 C-265.7066363968333 7.845917939444929, -276.6547814344683 5.143763279372976, -282.94804471096023 4.210788488294929 M-257.01683717101946 11.965471977231552 C-265.9945860070833 9.119579040653186, -276.18487317239385 4.856040004393956, -283.95577847601845 1.8942153629846872" stroke="#000000" stroke-width="1" fill="none"></path></g></g><g transform="translate(523.365234375 176.904296875) rotate(0 37 11.5)"><text x="0" y="18" font-family="Cascadia" font-size="20px" fill="#000000" text-anchor="start" style="white-space: pre;" direction="ltr">readings!</text></g><g><g transform="translate(728.5 224.294921875) rotate(0 -142.64238711561077 1.7978353053144929)"><path d="M0.6291519273072481 0.19268304817378512 C-47.00456000280877 0.7769429595520099, -237.78111269983154 2.5730591407666603, -285.49267535321417 3.2250562500208617 M-0.4996820401959121 -0.7517622968740763 C-48.23070581931 -0.007765371321390213, -238.3377747205707 3.3106560403915744, -285.9139261585288 4.347432907503098" stroke="#000000" stroke-width="1" fill="none"></path></g><g transform="translate(728.5 224.294921875) rotate(0 -142.64238711561077 1.7978353053144929)"><path d="M-257.60486473558825 -4.781877302555259 C-268.3873234533408 -1.3618708445579708, -276.0397642149009 0.20387537731869276, -284.0668718241714 3.507206672634929 M-257.85226073066127 -6.833955472325798 C-267.6232031753242 -2.490808429992379, -279.222317364036 1.1543390061124255, -285.7989772907086 5.044231456536799" stroke="#000000" stroke-width="1" fill="none"></path></g><g transform="translate(728.5 224.294921875) rotate(0 -142.64238711561077 1.7978353053144929)"><path d="M-257.2096125065235 15.735524532503163 C-268.0728842992071 12.473040203674866, -275.8540981127385 7.3542233578785385, -284.0668718241714 3.507206672634929 M-257.45700850159653 13.683446362732624 C-267.1782620193515 10.394831501234847, -278.92439850932163 6.408103866653113, -285.7989772907086 5.044231456536799" stroke="#000000" stroke-width="1" fill="none"></path></g></g><g><g transform="translate(728.79296875 244.267578125) rotate(0 -142.74394138540143 2.1610280048101913)"><path d="M0.2224769700318574 -0.8141795922070741 C-47.48782187414666 0.04315160823365061, -237.4718208602319 4.399448453510802, -285.359189177677 5.136235601827503 M-1.1198613500408827 1.3727721765451135 C-48.96768017310029 1.923202817918112, -237.8661046651813 3.0458997423263883, -285.7103597408347 3.601981419008225" stroke="#000000" stroke-width="1" fill="none"></path></g><g transform="translate(728.79296875 244.267578125) rotate(0 -142.74394138540143 2.1610280048101913)"><path d="M-258.96445259077495 -5.0021547888089115 C-266.28515595254356 -3.9148977513824623, -279.37931861226093 1.7291420802393098, -285.4629185961746 3.8334753074310717 M-257.1112874438802 -6.867349032187849 C-264.7158780166735 -5.604523892868526, -270.46267376469433 -2.9777003484900773, -285.18778567465023 2.7747302091307935" stroke="#000000" stroke-width="1" fill="none"></path></g><g transform="translate(728.79296875 244.267578125) rotate(0 -142.74394138540143 2.1610280048101913)"><path d="M-258.79066349159973 15.518317908837389 C-266.1752499218884 8.906267135233403, -279.33462120440015 6.850676955222998, -285.4629185961746 3.8334753074310717 M-256.937498344705 13.653123665458452 C-264.6904785823324 10.358144658924175, -270.4758684407939 8.427896480477262, -285.18778567465023 2.7747302091307935" stroke="#000000" stroke-width="1" fill="none"></path></g></g><g transform="translate(191.10937500000003 19.48046875) rotate(0 68.458984375 26.958984375)"><path d="M-0.7160695474594831 -1.3931254167109728 C53.826492564667205 1.88359177115879, 105.01349628140815 -0.3495491146711356, 135.22079989500344 -0.0377995390444994 M0.6849357774481177 0.5349131980910897 C37.61531286629434 0.49381816658675226, 74.03064383545062 -1.1087490591079041, 137.78540545608848 0.03723959717899561 M137.1037645060569 0.5469406228512526 C138.38252214454678 12.138414817043309, 138.2923569466975 29.752897357792982, 138.74434068985283 54.71787738613786 M136.8747344603762 -0.9623944303020835 C136.8608685379611 17.10208927930617, 136.40370666438207 34.66747421114343, 136.26499810721725 54.37207098398359 M137.788117678836 52.87691259197892 C95.44608776147179 51.36953953570415, 54.426844175284344 51.33661303586055, 1.4139557797461748 54.97741287760438 M137.38537111785263 53.897667364217355 C92.94787576723792 53.271430900005925, 48.42081037115203 53.00622596373998, -0.20083713624626398 53.308565006591394 M1.0594631154090166 55.26201265864076 C-1.752298425457957 40.354137989184174, -0.2174216616373087 29.06241131472271, 0.4931339342147112 0.06813847832381725 M-0.8753478536382318 54.001725778915 C-1.1984973433213963 35.427771025199405, -0.20105983640725755 15.559124231994069, 0.9509795596823096 0.7343254247680306" stroke="#000000" stroke-width="1" fill="none"></path></g><g transform="translate(205.42382812500003 35.185546875) rotate(0 53 11.5)"><text x="53" y="18" font-family="Cascadia" font-size="20px" fill="#000000" text-anchor="middle" style="white-space: pre;" direction="ltr">connect_all()</text></g><g><g transform="translate(246.20507812500003 73.970703125) rotate(0 -1.405251108808443 199.21760865561663)"><path d="M0.45287561304867263 -0.8412825275212525 C0.005460400258501308 65.82077775311966, -2.1595209212352833 332.5745954266439, -2.762167228385806 399.27649983875455 M-0.7685034194402396 1.331440200190991 C-1.2926707983824115 67.7296881576193, -2.7760777269614243 331.6010262201043, -3.2633778306655588 397.6395171928219" stroke="#000000" stroke-width="1" fill="none"></path></g></g><g><g transform="translate(251.8909102821723 145.02035971900455) rotate(0 91.24354051533155 -1.3163581320643516)"><path d="M0.4298822510987521 0.44614278785884376 C30.868313122261316 0.29384901234568583, 153.050576991681 -1.0424128840833191, 183.29064932707695 -1.3595866492205004 M-0.8035682964138686 -0.3652361938543618 C29.467955541424452 -0.8169355638356366, 151.78320128399878 -2.5651984126276557, 182.6358230489306 -3.0788590519875925" stroke="#000000" stroke-width="1" fill="none"></path></g><g transform="translate(251.8909102821723 145.02035971900455) rotate(0 91.24354051533155 -1.3163581320643516)"><path d="M155.34898024554028 8.542920837270705 C165.8763995065854 2.279948651563851, 175.66515765773192 1.4792057774219165, 183.7394472456537 -2.0352590310574215 M154.75805788709445 8.129756298939375 C161.81743586492507 5.080897741680929, 171.00753752439218 2.027439352954274, 181.7404908307828 -3.6603612651304047" stroke="#000000" stroke-width="1" fill="none"></path></g><g transform="translate(251.8909102821723 145.02035971900455) rotate(0 91.24354051533155 -1.3163581320643516)"><path d="M155.03485705016215 -11.975883440853424 C165.59756026251623 -10.955695802925913, 175.49783382596604 -4.47215355354722, 183.7394472456537 -2.0352590310574215 M154.44393469171632 -12.389047979184754 C161.73482834863134 -9.674826802485832, 171.0131453871485 -6.965978797791525, 181.7404908307828 -3.6603612651304047" stroke="#000000" stroke-width="1" fill="none"></path></g></g><g transform="translate(268.208984375 105.736328125) rotate(0 65.5 11.5)"><text x="0" y="18" font-family="Cascadia" font-size="20px" fill="#000000" text-anchor="start" style="white-space: pre;" direction="ltr">sensor.connect()</text></g><g><g transform="translate(434.8733132246323 357.21274247877295) rotate(0 -93.67226601179686 0.9809265207026101)"><path d="M-0.28778765313327315 -0.5978043962270021 C-31.868949695943535 -0.3261541102332292, -157.29475223033995 0.9381831611184187, -188.67506626594806 1.1439891020194182 M1.7619850996322932 1.702744350414723 C-29.962140905136852 2.200986919061351, -157.35227902357772 2.5823467804541598, -189.106517123226 2.5596574376322816" stroke="#000000" stroke-width="1" fill="none"></path></g><g transform="translate(434.8733132246323 357.21274247877295) rotate(0 -93.67226601179686 0.9809265207026101)"><path d="M-161.92898073814882 -6.1072822241950675 C-171.71928024287217 -2.2097612336852084, -182.9225847412817 -0.024520892308757425, -190.23048152046272 3.6742384246536086 M-161.64177656475528 -8.474628344262008 C-172.61568622694398 -3.612972509203326, -183.57277830761095 -0.7021237728382976, -188.21685762999573 3.3130551566355417" stroke="#000000" stroke-width="1" fill="none"></path></g><g transform="translate(434.8733132246323 357.21274247877295) rotate(0 -93.67226601179686 0.9809265207026101)"><path d="M-161.89525372966636 14.413898659826653 C-171.61485742825002 10.766545358295089, -182.8305619592245 5.406992292768604, -190.23048152046272 3.6742384246536086 M-161.60804955627282 12.046552539759713 C-172.6977221180329 8.762251553046198, -183.6682018387734 3.5273976042157678, -188.21685762999573 3.3130551566355417" stroke="#000000" stroke-width="1" fill="none"></path></g></g><g transform="translate(258.271484375 330.994140625) rotate(0 84.5 11.5)"><text x="0" y="18" font-family="Cascadia" font-size="20px" fill="#000000" text-anchor="start" style="white-space: pre;" direction="ltr">connect() succeeded!</text></g><g transform="translate(139.81347656250003 174.75) rotate(0 37 11.5)"><text x="0" y="18" font-family="Cascadia" font-size="20px" fill="#000000" text-anchor="start" style="white-space: pre;" direction="ltr">readings!</text></g><g><g transform="translate(437.7171343911439 251.86606990806763) rotate(0 -172.61903017726723 1.415774737233562)"><path d="M0.7171343911439181 -0.805805091932416 C-56.64793282899383 -0.5584344934733356, -287.3954053433301 1.8244414526663002, -344.89291313048443 2.633201592751357 M-0.36550878284499055 1.3855432894639672 C-57.84616704204428 2.2578673480203606, -288.54615931591627 3.549430742065536, -345.95519474567834 3.6373545663995173" stroke="#000000" stroke-width="1" fill="none"></path></g><g transform="translate(437.7171343911439 251.86606990806763) rotate(0 -172.61903017726723 1.415774737233562)"><path d="M-319.1491454408606 -7.09981411058676 C-326.1965323158667 -3.384919533917043, -330.63741029097844 -2.092155259766712, -345.3369388007558 3.4700719236028816 M-318.5910063578849 -7.168139791267333 C-327.62176078972624 -3.477766129543396, -337.1650219221082 0.8694315173388816, -346.294339572545 2.777416884582999" stroke="#000000" stroke-width="1" fill="none"></path></g><g transform="translate(437.7171343911439 251.86606990806763) rotate(0 -172.61903017726723 1.415774737233562)"><path d="M-319.06616473011957 13.421226715538147 C-326.33007312546647 12.181657654111312, -330.7909874168582 8.519462387486142, -345.3369388007558 3.4700719236028816 M-318.5080256471439 13.352901034857574 C-327.6048648415575 9.758769148822497, -337.17758225737595 6.821459473616475, -346.294339572545 2.777416884582999" stroke="#000000" stroke-width="1" fill="none"></path></g></g><g><g transform="translate(435.4360819410533 211.80668908245866) rotate(0 -171.73172700360416 0.5056648746216297)"><path d="M0.35795694105327125 -1.0604984175413847 C-57.00550068017095 -0.7133805815226955, -286.0159822447225 0.3708247508371263, -343.23083108603953 1.012357488589214 M-0.9132543942332269 0.9971359679102898 C-58.458273235149676 1.562618040283807, -286.7766151908412 2.087882654469648, -343.8214109482616 2.071828166784571" stroke="#000000" stroke-width="1" fill="none"></path></g><g transform="translate(435.4360819410533 211.80668908245866) rotate(0 -171.73172700360416 0.5056648746216297)"><path d="M-317.41187969686683 -7.09166407058796 C-327.9371445629718 -2.6034208596324104, -335.6601666155991 -1.1432883787136436, -344.1075352987647 2.5633050322698816 M-315.29494332334247 -8.455977675829438 C-324.5729250119828 -5.025630704412916, -332.1798092440712 -2.646260626232726, -344.23043827045706 1.913958469236122" stroke="#000000" stroke-width="1" fill="none"></path></g><g transform="translate(435.4360819410533 211.80668908245866) rotate(0 -171.73172700360416 0.5056648746216297)"><path d="M-317.38443011737365 13.4295261703904 C-327.73706236812615 10.137045934871086, -335.4704921910562 3.816373087919084, -344.1075352987647 2.5633050322698816 M-315.2674937438493 12.065212565148922 C-324.4269064381803 9.257565812499658, -332.04213503203675 5.39872610957874, -344.23043827045706 1.913958469236122" stroke="#000000" stroke-width="1" fill="none"></path></g></g><g><g transform="translate(433.6640161111951 230.5040472480655) rotate(0 -169.80073351323608 3.261332582831301)"><path d="M-0.8822550226002932 0.6678040612488985 C-57.39031693217655 1.5709502390771868, -283.33943598705036 4.283385759964468, -340.1230102104694 5.131630433276155 M0.8554223611950875 -0.02720275193452837 C-55.614268898566564 1.085580626726127, -283.2306365434329 5.941328618526342, -340.4568893876672 6.549867917597153" stroke="#000000" stroke-width="1" fill="none"></path></g><g transform="translate(433.6640161111951 230.5040472480655) rotate(0 -169.80073351323608 3.261332582831301)"><path d="M-311.3288844792926 -2.2316549533015415 C-318.7416186432475 -2.6137499106853284, -323.5945484165309 1.5595225647061701, -340.9753788695485 6.544088027253606 M-313.25576872535134 -4.861096455805592 C-322.47307820392547 0.6421607587837408, -331.8344954285121 3.1351580369689294, -339.5234577464685 6.228620219789304" stroke="#000000" stroke-width="1" fill="none"></path></g><g transform="translate(433.6640161111951 230.5040472480655) rotate(0 -169.80073351323608 3.261332582831301)"><path d="M-310.98522986113096 18.286675970271553 C-318.421169850617 13.584037940507606, -323.34642062848826 13.43929393529322, -340.9753788695485 6.544088027253606 M-312.9121141071897 15.657234467767502 C-322.099937513108 13.983439123618174, -331.5816151803172 9.296135517315346, -339.5234577464685 6.228620219789304" stroke="#000000" stroke-width="1" fill="none"></path></g></g><g transform="translate(366.0625 21.78125) rotate(0 68.458984375 26.958984375)"><path d="M-0.9401587527245283 1.5968472342938185 C30.892625652389327 -0.2881780515502397, 60.17594297071119 0.3073076953102645, 138.82684031315148 -0.8607751149684191 M-0.2525091180577874 -0.8676377674564719 C51.768778919938995 -1.679272040092437, 103.75722909019896 -0.49148644443699574, 137.2507821014151 -0.7667138418182731 M138.6857723314315 1.6466792803257704 C136.26453904826408 15.739471586009682, 138.07655166108376 31.33921999215746, 137.67546007223427 54.781584320589914 M136.54682955052704 0.7397022405639291 C136.57656963836246 15.28459820610988, 137.13186561237865 31.03910511068171, 137.32505267765373 54.26624052319677 M135.670302124694 55.802298603579416 C102.17757139469431 53.255460626344046, 71.13793705446514 55.97340197012838, -1.5799069087952375 54.23157429508866 M136.00443905498832 52.92606084141882 C108.78305958181336 53.72843893317373, 82.07345894012033 54.56688027528913, -0.945976466871798 54.6879363814369 M1.2573881465941668 53.30119299702348 C-0.3407817692121534 41.079104251243926, -1.5310465306600598 30.445392504365746, 1.7832125145941973 1.4512919764965773 M0.03300860431045294 53.27630741987379 C0.8396850969821026 39.56414110594379, 1.2169510569602062 26.24060184432092, 0.5369073143228889 -0.9470303198322654" stroke="#000000" stroke-width="1" fill="none"></path></g><g transform="translate(662.375 10) rotate(0 68.458984375 26.958984375)"><path d="M-0.8135594148188829 0.6734872777014971 C34.43837355326214 -0.5436857967763717, 65.38158879368203 -0.9105119138150986, 138.16807871870697 0.05829945392906666 M-0.22944103088229895 0.6519982805475593 C29.176527912852546 -0.41657612642931785, 57.90502283467577 -0.36306256971049156, 136.84083275590092 0.5684288432821631 M135.44251614622772 -1.572636691853404 C136.0059398154596 21.348393879328437, 138.20298424762285 38.44536019574954, 135.16066360287368 55.04121181555094 M136.89283447060734 0.7431994369253516 C137.55201781818974 16.890273628892107, 135.62496767470944 32.60616400585642, 136.3699543038383 54.71263807918878 M135.48595857433975 53.354779453948154 C101.20813593226666 55.23045876071888, 69.18739146096995 55.19936796472508, -0.5157445091754198 54.41476634331049 M136.64640517625958 53.27270072605462 C89.83466103248466 54.436989539200056, 41.90727148007937 54.552646421724546, 0.5637267688289285 53.57282689120622 M-0.33832246251404285 54.754380734637394 C-1.1135954159389438 41.31957523260681, 0.9156214100231228 23.31717520237799, 0.1458734255284071 1.4561236817389727 M-0.41803921665996313 54.74694135691972 C-0.5581580046946693 36.53181744555879, -0.12495767515250916 17.896923293414154, -0.526183589361608 0.5919579258188605" stroke="#000000" stroke-width="1" fill="none"></path></g><g transform="translate(10 19.2890625) rotate(0 85.59960937500003 26.958984375)"><path d="M0.41794627718627453 -1.3152539413422346 C51.25994336014958 -1.8822698736215175, 104.550363828733 -1.6769428992295803, 171.3220716696233 -1.7667168658226728 M0.5583472112193704 -0.02176722977310419 C40.448917844605255 1.2331626810012317, 83.1970181181889 0.8140609957156635, 171.58905400428927 -0.2624402055516839 M173.04516327194875 1.588018985465169 C170.54462491737178 12.961097789530692, 171.48644130693248 30.201213413054223, 172.0816109757871 55.87309971638025 M171.46763195190584 0.5736691942438483 C170.92904912128566 16.652010164254538, 171.1215716172707 32.42285506340341, 172.0271025160328 54.695238917134716 M171.72616559080785 54.16892138309778 C128.2809443432478 53.38276437368256, 81.26009862974536 54.73547217693192, -0.0750961322337389 52.95256969518961 M171.90185813698923 53.023818104527905 C126.95136704508445 54.620224741264735, 82.05890608165866 55.00881081537858, -0.29784087743610144 54.84097403194757 M-0.6609339732676744 53.974145146086826 C-0.014372648258758947 35.006064647298274, 0.6764862522882686 17.188834444530222, 1.7671725135296583 -0.8155994098633528 M0.6919889012351632 54.91422027256341 C0.3291080240045631 41.89795209946279, 1.0064537469183052 30.72817955471911, -0.3975864788517356 0.10307934787124395" stroke="#000000" stroke-width="1" fill="none"></path></g><g transform="translate(21.50195312500003 34.212890625) rotate(0 75 11.5)"><text x="75" y="18" font-family="Cascadia" font-size="20px" fill="#000000" text-anchor="middle" style="white-space: pre;" direction="ltr">publish_readings()</text></g><g><g transform="translate(93.73828125000003 75.974609375) rotate(0 -1.7755382245779074 199.01206262383613)"><path d="M-1.1160464096814393 0.12375826723873606 C-1.821175536389152 66.67747983423372, -3.0572706588854395 332.4970093159626, -3.2779633689671757 398.8809978354722 M0.4988904958963394 -0.856872587800026 C-0.41829060177008326 65.37615883131822, -3.535146076877912 330.26270740131537, -4.049966945052147 397.03637663781643" stroke="#000000" stroke-width="1" fill="none"></path></g></g><g transform="translate(232.69335937500003 137.126953125) rotate(0 10.51953125 117.16015625)"><path d="M0 0 C0 0, 0 0, 0 0 M0 0 C0 0, 0 0, 0 0 M0.49689141291660566 6.225531184722774 C1.9014923230632421 4.075990639183731, 3.0329179128899706 2.823175445439338, 4.888419894459195 1.056079879015427 M-0.5703900992544243 6.679657176931493 C1.289590596415227 4.364745104226229, 2.6544834131336055 2.259800247223709, 5.01412885222072 0.35317998564217623 M1.372777626765858 13.529000208198607 C3.7577720707215945 7.915159233566541, 5.7196111883120935 4.6836348082741335, 11.419527827155722 1.326355531354225 M0.04285589690316782 12.077178006290971 C2.798794480344028 9.134808930463064, 5.917362924645492 4.687909509613397, 11.166888001513612 -0.2506680388853191 M0.5313766980031271 18.24490618975895 C5.41569618268365 13.136223956366951, 10.683799684450277 5.209029360235768, 15.514736447020848 -1.119000519912226 M-0.8168685148051242 19.10023872265654 C3.642429134843336 13.97615438196094, 8.607259225936486 9.689581550172015, 14.741904878526409 -0.47164331498323175 M2.2146507540903304 25.366907881288885 C7.4675940583963145 18.719658495082868, 10.348182116832492 11.570455072648812, 20.026831703537965 0.990383276173425 M1.0005755370668385 24.742106940313338 C7.417569218382179 15.358739443025621, 15.818922660663164 7.753842280440274, 22.05002582846012 0.5939873935818198 M0.35727944695850766 31.376679608363858 C7.086867949592563 22.78459097259035, 16.735743658810033 15.124346960757247, 20.463066200849504 5.645941288648789 M0.9430293618281738 30.11082028201615 C7.60068430966958 21.757739755653486, 17.39852342772912 10.583344885377038, 20.886844963890404 5.870612035943811 M-0.8579447959643325 38.4673877673236 C4.157828068040198 31.06387910484191, 7.998933000510904 27.12552833794303, 21.21935737729803 10.377359941848647 M-1.18958814824936 37.71112961676096 C6.361923289683029 30.340664439498717, 11.836635902170908 23.308922326934486, 21.708765563003574 12.599892134093773 M-0.2833857972501761 42.80485500450783 C5.904899492814473 38.232552838316664, 9.464666975018233 31.7248194491568, 19.15875807334004 18.368496872781044 M-0.42352997589399877 41.905207688543726 C6.799365462901912 34.92214998412586, 12.873803325090678 27.200911007130316, 21.585810681099872 18.624926047696 M-1.399740716442544 50.4166889569246 C7.161667549569118 41.57363270503261, 13.356374784898707 31.872950444062873, 21.82734196640353 24.761737227785705 M0.23310193419448666 49.36427785702877 C6.46918540106213 39.78414437007841, 13.55635243400145 31.591275311338187, 20.855008585451053 25.257105270746468 M0.6513731528770776 53.53431519069086 C6.56516289966668 46.25741764003939, 15.726240512670667 36.54797903338275, 21.86102648391651 28.54712240320236 M1.19526987827836 53.97314703598927 C6.286100985911742 46.760611709088366, 14.334730580959329 40.07661442861876, 21.96471566832887 29.727743172241155 M-1.8060538488348215 62.25565384281467 C4.999944567209534 54.92604026462749, 13.287715435768467 47.59227217638438, 19.39239571633547 36.45147878603905 M-0.134971838342139 61.05538233508955 C6.726381497132873 54.389127130025706, 12.55618908719744 46.18615555526931, 20.318939360033568 37.63970373684435 M-0.015010544150236171 68.88715255963574 C8.54304175331168 56.928704155766965, 16.38546628409209 46.016766284671064, 23.018113620078925 43.28045069241274 M0.03643630160474487 68.27784399832557 C7.192073238937647 59.52151304550809, 14.06009647560281 51.328027909211755, 21.682251331827405 41.871934503329285 M1.6213579943588385 71.8329152374938 C4.805860606071996 64.15280383320253, 12.764094833285178 59.49883177319116, 20.92545178560335 47.58117700933146 M0.7398819403907666 72.1023141446933 C8.535993674478398 63.703425659788934, 15.019378303073744 53.95518851158223, 21.743815264010614 48.80464320636022 M-0.05342664285110743 79.4838307633969 C5.458363193702804 73.20119458460074, 11.362062729683775 67.49002559894714, 21.859702640336764 55.98432413313495 M-0.9135962416838339 80.23712550885705 C5.006110364812305 74.28388606168484, 8.234133170233786 68.57393880128015, 21.52230004885496 55.22383071493314 M2.018237000638436 86.55960595346198 C5.831593756880575 77.10028340187287, 16.45353441267598 68.4089270397467, 21.531002361707166 59.09321471016294 M-0.32739532335679655 84.54169437959001 C4.990595749617009 78.7672305121798, 10.911054622804366 72.80081396440629, 22.21020270363219 60.77291977304405 M0.2345580152839588 89.77144219469712 C7.220941056085067 85.49559326447238, 12.346111305172995 78.88659810383307, 21.021153790171052 67.37295637742346 M0.14467962567211856 91.2516972415565 C5.6882681770092605 85.20618751256539, 9.612030605029393 79.04451711298844, 20.018171283642555 66.40438374035722 M1.301766328513466 96.16406838344201 C8.35322147021039 87.79367433076533, 17.738416605102994 77.97451111944005, 19.75103963214692 71.49247470103347 M0.6033287476746665 97.88360371375248 C5.394430595410045 91.57577322358881, 11.683518786141665 84.15843177164831, 21.5799180851483 73.28427953064585 M0.6409356177549625 103.0048696660364 C5.028068140844793 97.51836034631893, 12.231556375017782 93.61242771068152, 22.607150228091268 77.98718981800101 M0.4480803099226023 103.68630529017392 C3.8465746425366554 98.86709767228018, 8.747190400973698 92.72100963820499, 21.516247413449673 79.01742425357423 M0.7948062234649385 109.67301617948831 C5.793939022251603 103.28721179537058, 13.792021843232032 94.13599259548671, 20.908996755432106 85.60104937466583 M-0.7783863822838342 110.09274408048512 C4.811576021006957 103.47688666018209, 11.780596803428896 97.35393476680247, 21.839968785818435 86.55192815313838 M0.3951983520619038 114.00149598991474 C6.569731177395711 109.78136542886998, 10.600360828363588 106.45122527686918, 22.81593414159743 93.17565726736765 M0.014672217317617253 115.62444574845931 C5.943779306230655 107.18012871080073, 13.070276145755267 100.69061805762121, 20.80021984452633 90.63082334833425 M1.2895398440023484 119.9397917343237 C9.704282080998365 112.47357122075725, 17.04966961889058 103.06616198759399, 19.733983977043735 99.53940238311449 M-0.9699083359728036 122.11669615376076 C6.6915087856221716 112.24796233680628, 15.760595300928165 103.401851474035, 21.726789269873606 98.24369257382611 M1.5082793767142775 129.89591355905492 C4.858003847155146 121.24982985690528, 14.099684299501053 112.93557178391724, 23.28324771818953 103.84949153802333 M-1.0122872748833416 127.62307429038543 C7.344644847290697 119.46961032903157, 15.147703898716086 112.53579089870715, 20.43502998312252 103.5312021183872 M1.671709377625703 132.62552786044813 C6.304980033854465 123.19415054267527, 17.061875533665177 115.97608926403876, 20.4244344554913 109.25462611910223 M-0.03129570714223462 134.86708102732933 C7.613214443659052 125.69827094510339, 14.741797819932545 119.05633992669357, 20.78988691457331 110.01027846668183 M-0.6032110628069063 139.1210860255114 C5.6832373783287515 131.454573072086, 14.687540409936696 121.45319764205632, 22.426274116377066 115.23703502269086 M0.2598862975507359 139.69376784925677 C4.459524733661141 135.79789832745763, 8.312813029550426 130.4464678301132, 20.11081020649774 115.47864123770592 M2.264557011834981 146.95385737036165 C9.144540836632206 137.56384328645333, 14.596173179174052 130.17701863836484, 23.272340378274805 121.501603395129 M-0.24135708954214863 145.9742697949409 C4.142836932433405 141.077819428369, 8.707587855804382 136.75049612682946, 22.016078126167542 122.46643192545548 M-1.0533398079921454 151.93660578200695 C4.8489913660976685 148.00811984282646, 9.090016508468947 141.60516532605666, 22.06787358164103 127.86500137342469 M-0.4630496881206483 151.83098209904608 C3.711728075995997 148.25018245008548, 8.04948920240989 141.1238268601227, 21.26711997888298 128.68784263959483 M0.17276590513969836 160.465622656787 C6.307469215035638 151.54308504979295, 12.572172557022839 145.56812306385382, 20.007193932894253 134.59771702369483 M-0.7537101059130293 158.54209313056822 C6.701014645147497 151.78334546366816, 14.412291076322893 143.25805227419204, 21.173429310906315 133.9456490438971 M1.1373853286585387 165.40985564104153 C6.420096036607332 158.11720249827277, 15.622158157445071 147.5557309495453, 19.500229272490934 142.08673298294758 M-0.03802882564751542 164.99321313350333 C4.593759884465729 158.3898883055631, 10.035813145952156 151.10717084353757, 21.156591677537754 140.35638699802672 M-0.09330369697914875 170.0000373717786 C5.930563895621764 165.36474978322704, 13.10186361505105 158.4080213646517, 21.13992827785912 147.17755939752254 M-0.9725452920238808 170.1290029675157 C4.624905111922295 164.42894532080263, 10.40564025345516 158.11531713299138, 20.1551978460491 147.25488549597952 M-1.6140434653548255 176.17071841511518 C6.195374060812614 169.58788300854758, 13.281002015006383 163.68456389892313, 22.109083376426796 151.0633626637595 M-0.5407347087798371 175.85770704637855 C9.30348829518464 167.62563662718713, 17.485301408686645 157.37500313537674, 21.46916670871208 151.64589540675155 M1.4460313639879558 184.2229439080593 C6.545332038138943 178.8600634266552, 8.982795854639221 173.12130885754203, 22.587153658650436 159.1740941686665 M-0.4889802706151869 183.27632997975618 C5.725948601781338 176.42618958854618, 12.069325007244771 168.9890906828198, 21.604068195826926 158.65571821500708 M-2.1091930315227785 189.16628649695068 C6.621122785649492 178.1219940282777, 18.309075570019104 169.17327083813407, 22.717678080948573 165.5185232283605 M0.07834003974184611 189.57516951164453 C4.37944723776834 183.59481574898277, 10.115363406489786 178.30013908739855, 21.676036478655917 164.43673895951935 M-1.135986724459002 196.60797507812907 C5.423456745207471 189.2222316546998, 10.892780665420748 179.58156811206445, 21.734803233777697 172.34691372984952 M-0.4568236354369617 194.48944526103963 C6.851513771079207 187.09289953911127, 13.097406883414013 179.3373589315809, 20.975797737499292 170.39260287495262 M0.25604687563573236 202.64202353860247 C7.585576340340276 195.62423126615994, 12.087905299664763 186.46144288270764, 18.93069654456579 178.49305706947337 M0.6181298841485869 200.75092746260572 C7.963247804839457 193.14133012179332, 16.04497843570715 183.68634963541592, 20.373583364628786 178.08274833030293 M-0.3286157748200367 206.19126369448787 C7.312913264133194 200.82506728322102, 12.403223436270997 196.41551681978675, 20.06236919074088 183.26340089357163 M-0.24863398023921945 206.99246990511602 C7.6437591068507285 196.70942557602092, 16.696407189356588 188.60468379584302, 21.163452877316175 183.67403556956614 M-0.4448905853698335 212.6700219327933 C4.204750015367175 209.04016897857426, 11.135546661529455 202.4278919918243, 19.758499012759444 190.32617783915248 M0.6906422016998448 213.97318657323484 C7.864998844496942 204.4692633168297, 15.384696120586938 195.48366890669163, 21.907616830861684 188.39237545240667 M0.16032737141436826 218.3261521498585 C2.7569174647900194 215.9448545513698, 8.863249951591099 207.27028836791837, 22.486843717040017 196.0534384723328 M-0.11177892776244391 219.48298458595815 C7.721701282025204 210.15306543537244, 16.606378436410154 200.64330069329537, 21.841350021527603 195.42726239259764 M1.9549867729605523 226.13016449202325 C6.054089921966487 220.94750323101073, 10.524103711060816 212.9783907044389, 21.68076864403905 201.18372793012065 M-0.6548066013543519 224.794192937282 C5.1064208219054015 220.5691803442901, 9.65883706328737 215.1434758749893, 20.43701925461413 202.15695099980337 M0.028702959725208643 233.66435409629548 C8.36573093282583 223.71026501756936, 16.75496162426367 215.41919136705042, 20.706659971184564 207.16411885885577 M-0.5441990137756392 231.11319123687053 C3.7853524382893458 226.39719653291525, 9.1712442237057 221.8000251282342, 20.808996547393036 207.05298901801984 M2.372289196107886 235.95541486834665 C7.927131713872031 227.3376638247756, 12.157742894557057 221.27504510602262, 23.27074762590459 212.0393401548779 M1.7244679392169928 234.9755234880515 C9.045763660331204 227.2215956709087, 15.408778074145232 218.47019001762038, 20.557982042136103 214.13184606624304 M5.660343467517578 236.382406544071 C11.851873227162582 230.21800964548282, 16.957398834910776 225.71937142064561, 19.825928198655575 218.34090570519507 M6.985887457876288 235.71636514937535 C10.934332076962697 229.4110543736846, 17.10152291415288 224.10219167656362, 20.615326919143527 219.40654237913728 M13.277902922065278 235.3341914558076 C14.434023075769487 232.78650915579075, 18.504039357964064 229.01711939046496, 20.805573492303882 225.39891570890566 M12.291794272729476 236.28357936732849 C14.74740092744785 233.1730991215193, 18.21238891551036 228.68029699297597, 20.88171140997896 225.6523398025917 M18.00896722583822 235.69845533729443 C18.699394759489326 233.8661644307269, 19.914842132110145 232.71633706685242, 21.478799746956142 232.083592315722 M17.987699928626185 235.60475161517883 C18.75535861321369 234.6848501778725, 19.563479664171723 233.66383574532918, 21.02986648597515 231.6261515021843" stroke="#be4bdb" stroke-width="0.5" fill="none"></path><path d="M-0.007850144058465958 1.0656961537897587 C3.0349298807981544 -0.8334001104971684, 8.829689733535634 -1.820995787872962, 20.006029035896063 -1.5583457611501217 M0.26615418680012226 -0.471248971298337 C7.801109257205098 -0.08229662598154391, 15.01784418906027 -0.5197226566173776, 20.14457626827061 0.2551081907004118 M22.66104390322908 1.4332149583235057 C21.485411434872265 77.92941497757596, 18.67309259935451 155.67127941428345, 19.882428759075488 234.20729855783847 M21.269162086003853 -0.5570271955988264 C19.998041788111355 58.2571852608859, 19.82120209389874 115.43653811700904, 20.697029231232953 233.87520806463925 M20.83998992666602 232.88812509551644 C13.823292509820021 233.56533883055397, 9.71555734272988 232.79395256479927, 1.285196926444769 236.06114891543984 M20.7102017570287 233.88338853232563 C14.060326736648857 234.71762243002698, 9.062568491781711 234.88553163498685, -0.38747708313167095 234.41403265111148 M0.7534359687087878 232.89317477940264 C-2.4493956006307656 165.82372828008963, -0.886989482862612 94.16908000056085, 0.7553242249646809 -1.2981615298845735 M0.11592342626104768 234.07450479703346 C0.8898038799349766 145.00984260822204, -0.3070008143323395 54.84065208072012, 0.3389048899173429 -0.552006262437207" stroke="#000000" stroke-width="1" fill="none"></path></g><g transform="translate(81.61132812500003 387.646484375) rotate(0 9.2265625 25.4765625)"><path d="M0 0 C0 0, 0 0, 0 0 M0 0 C0 0, 0 0, 0 0 M-0.43293231945949284 5.904145658065669 C2.0802724173195584 4.118419290427029, 4.015119188143462 1.7910725760174797, 4.547602204563565 0.6453709270653539 M-0.5704360425146171 6.0619300641614124 C1.579924289802805 4.56274438379411, 3.708923811421734 2.3449588437929574, 4.734045219751543 0.43615706598733 M-0.18949740146290184 12.15111257773596 C3.317727612752499 7.510532273544253, 5.7360097880454815 5.281022587579415, 10.1343859776379 1.4441374565556409 M0.6220318936835634 12.681718592762529 C3.3171243772364214 8.602128675654031, 5.370241373104154 6.928307442754808, 10.477834323001039 -0.7607835193082928 M0.3368451380589743 20.011976125557595 C4.123758414962876 11.362038630877075, 11.590248599281857 5.775237102682922, 16.802241477652867 0.03633311827899721 M-0.3306666920474033 18.548425060604387 C3.9931865988101025 13.514561978121202, 10.47067225557601 7.143465025471855, 16.40801736107417 0.44400174794019964 M-0.04200315082452555 22.426263736276983 C9.25936431960698 16.43516043674883, 15.617596317366168 7.584322210078039, 21.212435198405768 2.0168800018121456 M0.42192178426303606 24.546805347963332 C8.177820375576829 14.530012164557888, 15.693740594379191 7.07384693881842, 20.817253056371595 2.179701870246694 M-0.11396262323955142 32.05070907785391 C4.896063440902989 23.681847477989052, 11.517401028645622 19.495264410754015, 21.37419817661211 8.277641306379191 M-0.8303017438809022 29.645016599212042 C4.759355051130973 25.543993751819812, 7.860368337525895 19.985881307251912, 20.368932871793362 7.116112400525561 M0.8467278982419053 36.723009796628105 C6.881056995048503 30.527288883062994, 10.463510525342404 23.226366709683838, 18.821121455661928 11.891382607428774 M-1.0276527592074594 36.4942940583465 C8.059563712617749 27.86309941013896, 15.821310115162118 19.757420525114206, 20.56143056557325 14.352427136881694 M1.4056733410478586 43.378519788939286 C8.001723393501406 32.12756299797948, 13.928641307389702 24.637410883077187, 21.67740371298323 18.672364051300622 M0.6258813805551284 42.040794844362665 C6.092565978429534 36.798958729065156, 9.906486049496648 31.491955404466715, 19.317711904983025 19.989100073311068 M0.3751452956347876 49.93937794179551 C4.141148863468379 43.85419949116409, 7.301069082246858 39.02966334796727, 19.657087376004025 25.782502034334463 M-0.4930356442929096 47.977226691924855 C4.441594012037723 41.56179522530768, 11.95003072215093 35.72317179682495, 20.422070782294437 26.29650707880966 M3.7496723053927283 51.39241233064541 C4.385205099016611 46.4972649635596, 9.059598333430973 43.616807575974704, 18.470881535180798 33.62049794353834 M2.9460011744822125 51.383252149137945 C7.806960651746385 46.43361947155582, 12.42827080554633 39.77378331295898, 20.364452127807727 32.166574638041766 M9.109230802533382 54.37998224631978 C12.075522214529235 47.425995130819686, 12.37000333825822 45.168729799489604, 20.115212249297617 38.888537363648624 M7.169899193615818 52.00388818658052 C11.666284875019485 47.70728187943976, 15.874929288029213 43.91391613687917, 19.119412716858054 38.749306973662435 M11.57281767176807 53.921101513164814 C14.580708225766173 50.239980791876356, 16.444561445470715 46.91499058581248, 20.868755261025314 43.16329677750418 M12.538801223881245 53.31314556825417 C15.395860396878078 50.58650218913496, 16.872926891997164 47.237202411547784, 20.53836293051291 43.99511061322937" stroke="#be4bdb" stroke-width="0.5" fill="none"></path><path d="M0.09600860339996875 -0.9937052801105892 C5.262734291004017 -1.4002548179551375, 9.868029366401606 1.3934873703905033, 18.89845698032004 -1.2706029712076998 M0.8082678865248454 0.45696294081135425 C5.949280238004576 -0.7685644343926106, 13.202044677852244 -0.6385628690908197, 17.539337194345716 0.8988332620981965 M17.19788148626685 0.14034858718514442 C17.590073367900622 19.619535251348864, 19.814388176746142 36.079835349350475, 16.99497142061591 52.42169455066323 M19.203356044366956 0.40274263732135296 C19.083618629483098 19.313808140097535, 18.859090734032506 37.77859793181415, 18.61906679160893 51.12934775464237 M20.184133341847335 52.706794312797136 C11.595173010992585 50.41077773431985, 7.570524980223854 52.705482221774, -0.8935860814206534 52.68438874363492 M19.207392260858615 50.32713640617876 C13.494293653847125 50.68469521556108, 7.894121394389366 50.90253679257876, -0.007651382956828434 50.67571829093358 M-0.8110747076570988 51.56591168418527 C-0.13663961775921052 30.021643246136954, -0.49950590022228425 10.766349570051531, -1.79896554723382 -1.8659305237233639 M0.07714452035725117 50.7962671648711 C0.05237210012826832 32.04651164511742, -0.9484505035742768 11.80397162524168, 0.11318989284336567 -0.2106825578957796" stroke="#000000" stroke-width="1" fill="none"></path></g><g><g transform="translate(86.29882812500003 396.248046875) rotate(0 -18.652704998105765 0.3165314976925515)"><path d="M0.5353613533079624 -0.7721144713461399 C-5.661580570787192 -0.9067741351823011, -31.46642998084426 -0.5968136665721734, -37.84077134951949 -0.38006265535950656 M-0.6427126655448228 1.4369214858580381 C-6.4295469511020915 1.3880816842087855, -29.942307402240107 0.6041781341998527, -35.726081146644425 0.6707203267980366" stroke="#000000" stroke-width="1" fill="none"></path></g><g transform="translate(86.29882812500003 396.248046875) rotate(0 -18.652704998105765 0.3165314976925515)"><path d="M-19.573788650394658 -7.1036933855683175 C-24.036977294040085 -5.348528137616618, -26.89543609481369 -1.4299021441610693, -34.28466155267639 0.9402722588149435 M-19.135010044531054 -5.040061835710163 C-22.67021222873481 -3.960768352472984, -26.315453961489535 -3.4503076393871357, -35.56263309653296 0.2591262898107114" stroke="#000000" stroke-width="1" fill="none"></path></g><g transform="translate(86.29882812500003 396.248046875) rotate(0 -18.652704998105765 0.3165314976925515)"><path d="M-19.750139377741075 5.449669436967369 C-24.214871868751434 4.127553248044482, -27.03011180607204 4.969684565992518, -34.28466155267639 0.9402722588149435 M-19.31136077187747 7.513300986825523 C-22.828677591040353 5.621397737102069, -26.43216697475874 3.1597562420880436, -35.56263309653296 0.2591262898107115" stroke="#000000" stroke-width="1" fill="none"></path></g></g><g><g transform="translate(88.44335937500003 410.345703125) rotate(0 -19.886385540929627 0.14128255967511905)"><path d="M-0.2140898980200291 0.0665326751768589 C-6.841421019782624 0.43209990635514256, -32.290281911442676 1.1325819171965124, -38.819986537843945 1.2267067350447178 M-1.78562582382001 -0.9441416156943888 C-8.618686448320126 -0.8374010274466128, -33.148095658902704 -1.0148217255529017, -39.55868118383922 -0.5225501028355213" stroke="#000000" stroke-width="1" fill="none"></path></g><g transform="translate(88.44335937500003 410.345703125) rotate(0 -19.886385540929627 0.14128255967511905)"><path d="M-21.228854900032132 -7.122472338774658 C-27.1336359146434 -5.34437499743265, -35.00643448068877 -1.5648488136759724, -37.7277107848554 -0.9193903919834212 M-20.437940141955664 -7.706696920842689 C-26.278064790248347 -5.25148406926913, -31.969657577570356 -2.950383171446717, -39.80390901890319 -0.6736994380960095" stroke="#000000" stroke-width="1" fill="none"></path></g><g transform="translate(88.44335937500003 410.345703125) rotate(0 -19.886385540929627 0.14128255967511905)"><path d="M-20.830540263281783 6.286374671826632 C-26.778130697467642 2.986277770295536, -34.80175774569313 1.68832033734546, -37.7277107848554 -0.9193903919834212 M-20.039625505205315 5.702150089758601 C-25.91181804021176 3.9908146648789353, -31.727278019788653 2.1220556646842414, -39.80390901890319 -0.6736994380960095" stroke="#000000" stroke-width="1" fill="none"></path></g></g><g><g transform="translate(85.51367187500003 426.095703125) rotate(0 -18.486016847440045 -0.6215104259550799)"><path d="M1.1052697576582433 0.47647192105650893 C-5.259786129246154 0.13224474216500903, -31.005881826331215 -1.3791909175614516, -37.43171118125319 -1.7194927729666234 M0.22639765108935528 -0.31898426572792227 C-6.3126502715020125 -0.47276609033656614, -31.71917068535772 0.4842950139412038, -38.077303452538324 -0.0840199775528161" stroke="#000000" stroke-width="1" fill="none"></path></g><g transform="translate(85.51367187500003 426.095703125) rotate(0 -18.486016847440045 -0.6215104259550799)"><path d="M-19.331269263803815 -5.367153890109738 C-26.307286671571575 -2.9792535765738295, -32.597344893356684 -2.7160202914439697, -37.919989706765186 1.518462616479778 M-20.850417442049526 -6.860853378775735 C-27.058362948616836 -3.240608511522192, -34.06321808254534 -2.193599820573472, -37.3659519231248 0.010713284920795707" stroke="#000000" stroke-width="1" fill="none"></path></g><g transform="translate(85.51367187500003 426.095703125) rotate(0 -18.486016847440045 -0.6215104259550799)"><path d="M-19.557134532085097 7.64666308325518 C-26.48862256217056 5.305621645046282, -32.69664229972588 0.8419935288508054, -37.919989706765186 1.518462616479778 M-21.07628271033081 6.152963594589183 C-27.29304417402164 4.739231419761384, -34.210507712028 0.7509452068264131, -37.3659519231248 0.010713284920795707" stroke="#000000" stroke-width="1" fill="none"></path></g></g><g transform="translate(52.13476562500003 280.763671875) rotate(0 16 11.5)"><text x="0" y="18" font-family="Virgil" font-size="20px" fill="#000000" text-anchor="start" style="white-space: pre;" direction="ltr">hrm</text></g><g><g transform="translate(69.17600944987501 270.89076272621753) rotate(0 0.5209485728469261 -64.18589406423268)"><path d="M1.0632631503045558 0.7755283512175082 C1.2944618052880588 -20.62110032526156, 1.02454881699911 -107.53857156174881, 0.7135790454689412 -129.14731647968296 M0.16233757487498224 0.13707679026760156 C0.323247210214225 -20.990819134305543, -0.2794170465211695 -106.36476954916184, -0.06171956747770313 -127.626662027156" stroke="#000000" stroke-width="1" fill="none"></path></g><g transform="translate(69.17600944987501 270.89076272621753) rotate(0 0.5209485728469261 -64.18589406423268)"><path d="M11.476731576537041 -98.88213453192006 C7.812668417949064 -108.19430599775033, 5.7646705287039035 -114.92498602078362, -1.8009626911580563 -126.63148520148361 M10.268527417023925 -100.10511838953684 C7.134278394647916 -104.40029432842375, 6.489696249551972 -112.04199742711084, 0.16960792340338227 -127.21734970628286" stroke="#000000" stroke-width="1" fill="none"></path></g><g transform="translate(69.17600944987501 270.89076272621753) rotate(0 0.5209485728469261 -64.18589406423268)"><path d="M-9.044474233446497 -98.89283453833475 C-7.704189808265241 -108.38422532356907, -4.747771674322615 -115.11229598319333, -1.8009626911580563 -126.63148520148361 M-10.252678392959613 -100.11581839595154 C-9.097352631636904 -104.50651982712253, -5.452436344491192 -112.14598632913174, 0.16960792340338227 -127.21734970628286" stroke="#000000" stroke-width="1" fill="none"></path></g></g><g><g transform="translate(66.80696491375568 314.79648322314017) rotate(0 1.1041571393888425 30.645199400805836)"><path d="M0.9115369476377964 -0.80000057592988 C0.8704420577734706 9.302944729228807, -0.16558769680559746 50.688157227138646, -1.3322676295501878e-15 61.16624367609616 M-0.06904488419182608 1.3943951763678344 C0.24783155771903664 11.551496601648001, 1.9816970822494469 51.781726993170224, 2.2773591629695136 62.09039937754157" stroke="#000000" stroke-width="1" fill="none"></path></g><g transform="translate(66.80696491375568 314.79648322314017) rotate(0 1.1041571393888425 30.645199400805836)"><path d="M-10.343195989400467 32.91507277672257 C-7.211593383946653 44.9142660592142, -2.0897128409615577 51.30672048551807, 1.7238296955358225 62.669476885842116 M-8.101642822519263 34.927991299304026 C-5.667484550996551 44.41391371084444, -0.6117185779223231 52.444234502568705, 2.479482043115421 62.76394690063778" stroke="#000000" stroke-width="1" fill="none"></path></g><g transform="translate(66.80696491375568 314.79648322314017) rotate(0 1.1041571393888425 30.645199400805836)"><path d="M10.164217099110484 32.16273588210075 C6.725660093860823 44.55886603998033, 5.27394176915534 51.19248013558343, 1.7238296955358225 62.669476885842116 M12.405770265991688 34.175654404682206 C8.019339561643257 43.87405612440045, 6.255977278458216 52.15454409977676, 2.479482043115421 62.76394690063778" stroke="#000000" stroke-width="1" fill="none"></path></g></g><g transform="translate(509.896484375 440.431640625) rotate(0 20.7421875 12.447265625)"><path d="M0 0 C0 0, 0 0, 0 0 M0 0 C0 0, 0 0, 0 0 M-0.841984309968526 6.155511796523921 C1.1868637161372306 3.7586338959232877, 3.285023751515919 1.7206227058731587, 4.720724896671719 0.6508416797814184 M-0.2778721749456475 6.012381485899083 C1.816438325790074 4.602321367100208, 3.0867377737042965 1.9550761647743067, 4.862792253824419 -0.015761202216405257 M0.44371087337840676 11.347747442543088 C1.093956151398882 9.980629111060079, 5.835822960658348 7.396077118801902, 10.324717055213583 -1.4844168876216053 M-0.5830961084831847 12.747926001667558 C3.794570022807163 7.409512241843793, 8.224736617486595 2.5338683760475993, 10.000248435092104 0.09082122846392404 M0.4822907233098288 16.815821769554788 C4.548266519969126 13.072111150970029, 8.014397455083198 8.107550262639553, 14.31474486319669 2.087256704170721 M-0.6084657023241977 18.912399989460283 C5.5507709565465655 12.12505730186063, 9.26853103956311 6.855615577931609, 15.70627197018214 0.49223799881758 M1.7393600980005477 22.611647771387457 C3.369442935087984 18.5868007033782, 11.614133016749816 15.17261684828286, 20.273316102379823 -0.9612002285033938 M-0.7194293195196177 24.387674655481337 C7.3806638351968274 15.926053447345168, 12.976964530867424 8.75470364744752, 22.20335585651722 -0.012228262221860575 M3.7017243269967697 25.555092011311576 C9.771440276646562 18.06395114605246, 18.38289387198026 9.673439118037475, 24.467609165843935 1.8986206868675293 M2.7632743388551138 27.635714425438568 C9.547387268863934 20.416784146377708, 17.03803729746097 12.752565909543573, 26.695078421991678 0.06708419453471315 M9.993391116717012 25.361955055444103 C15.95868964721012 20.198175092932896, 19.64950682265986 10.672419569702223, 33.45522551000754 1.886426266400445 M9.246795069062264 26.424138713105183 C14.025527860903216 19.84863357136185, 20.234926402088078 13.43655464713446, 32.02804258786777 0.33959165786050605 M11.579739691655734 28.133370361684165 C21.31362478938783 21.29038040178653, 27.221753002275676 12.307899419969562, 35.13437422532712 0.2134178971034011 M13.251138560440042 28.22816544903656 C17.926913905162166 20.661331003593062, 24.926204886488662 15.843377764761179, 36.09844328444575 0.7909706124198159 M17.639465258231446 27.905450996148723 C23.89808048374302 21.693920181281115, 31.515809451520663 15.622985282603759, 43.71128523923068 0.4243244753161193 M19.71861085925071 26.34275779700591 C26.681424069944228 19.00710755472049, 32.9456810589678 10.456842234281712, 41.25698065399735 0.6876906772086144 M24.066870656900637 29.330804595845816 C27.793175499845752 23.495936624242372, 31.706856080228405 18.41205126927774, 40.85855999722218 6.3242077891605035 M22.953610020794503 27.12663911667752 C30.536809264789653 19.78384298842505, 37.16024014948502 12.527572450074532, 41.90471073187029 7.066319988005056 M31.017187873373743 27.25241742753994 C31.03863147076948 22.21303763689951, 34.73108602525408 19.893200166560906, 41.87391280463505 11.799712702949831 M28.72603463326302 26.194364042725528 C33.6804259944849 21.62837625095896, 39.547519516987876 15.526656751018686, 41.12851808906141 13.051397247837226 M34.46682549012966 26.849170291274643 C35.80876144227844 24.753516249283493, 39.569695994462265 23.137043259302008, 40.89867481002659 19.466613245377726 M34.02642438389502 26.84737123897285 C37.182524401264224 24.319918872548016, 39.60102355852633 21.32063923627299, 41.59293348584399 19.427153627103603" stroke="#be4bdb" stroke-width="0.5" fill="none"></path><path d="M-0.3689135052263737 0.17618921771645546 C11.40938427920628 0.14297148239129454, 19.976405055582294 0.2334893609237042, 41.689982917159796 0.8997692205011845 M-0.9062279891222715 -0.5312629211694002 C13.42933978473593 0.879984721254732, 27.419526775513077 0.5238327232116717, 41.04718913324177 0.6010257136076689 M40.75413944944739 -1.2002607248723507 C39.461609916559176 6.275659255716164, 42.93571873175235 16.73000712326757, 42.33967390283942 23.02787021175027 M41.62847604043782 -0.0986770261079073 C42.35122601573217 4.8797325822080895, 40.9177557069515 11.317506127902016, 42.33532829768956 25.26116402260959 M39.962332632392645 26.38740447536111 C28.64025137045246 23.726762951553972, 18.271688022330633 24.662640632332476, -0.8059880472719669 23.04550138488412 M41.50626059062779 25.333876444026828 C25.60236357843678 24.257069771371608, 10.507016447227212 24.88503718861175, 0.6655836272984743 25.281804574653506 M1.9386494420468807 25.441748294979334 C-1.424460281969732 15.691849115411603, 0.7871744731648505 9.868864150931765, -0.7866757847368717 -1.6268050335347652 M-0.9571394752711058 24.814920438453555 C-0.9924389990172494 17.43718321602573, 0.6159112183251273 8.026988641913338, -0.42560688965022564 -0.47017030604183674" stroke="#000000" stroke-width="1" fill="none"></path></g><g transform="translate(560.404296875 440.009765625) rotate(0 53 11.5)"><text x="0" y="18" font-family="Virgil" font-size="20px" fill="#000000" text-anchor="start" style="white-space: pre;" direction="ltr">= mutex held</text></g></svg>
