<svg version="1.1" xmlns="http://www.w3.org/2000/svg" viewBox="0 0 809.29296875 489.3344362732769">
  <!-- svg-source:excalidraw -->
  <defs>
    <style>
      @font-face {
        font-family: "Virgil";
        src: url("https://excalidraw.com/FG_Virgil.woff2");
      }
      @font-face {
        font-family: "Cascadia";
        src: url("https://excalidraw.com/Cascadia.woff2");
      }
    </style>
  </defs>
  <rect x="0" y="0" width="809.29296875" height="489.3344362732769" fill="#ffffff"></rect><g transform="translate(707.236328125 21.32421875) rotate(0 25 11.5)"><text x="25" y="18" font-family="Virgil" font-size="20px" fill="#000000" text-anchor="middle" style="white-space: pre;" direction="ltr">kernel</text></g><g transform="translate(373.0390625 38.01953125) rotate(0 61.5 11.5)"><text x="61.5" y="18" font-family="Virgil" font-size="20px" fill="#000000" text-anchor="middle" style="white-space: pre;" direction="ltr">dbus::nonblock</text></g><g><g transform="translate(438.470703125 78.232421875) rotate(0 -1.2575864596199153 194.78748181669044)"><path d="M-1.1205091964453457 0.700578386709094 C-1.749907339736819 65.19298585566382, -2.863790537044406 323.61789778781434, -3.007257665321231 388.0863310288638 M0.4920847460813822 0.022778094392269743 C0.17905550749972482 65.2185848108741, -0.186778344195336 324.8134588052643, -0.7051680907420814 389.55218553898857" stroke="#000000" stroke-width="1" fill="none"></path></g></g><g><g transform="translate(732.880859375 63.916015625) rotate(0 0.20923503905532925 207.49855461567645)"><path d="M-0.1548671174794436 0.4093721497803926 C-0.03091642546157046 69.3278880028675, -0.2802596100916464 345.26166855779786, -0.17977045066654673 414.06854462511836 M-1.6953110834956169 -0.42131141692399976 C-1.108311473230521 68.62153714785974, 1.898965694407622 346.3563420419892, 2.113781161606312 415.4184206482768" stroke="#000000" stroke-width="1" fill="none"></path></g></g><g><g transform="translate(442.85400797218085 157.63585639148948) rotate(0 142.56610691305252 -0.791054793074693)"><path d="M0.5729138206690549 -0.07696248404681683 C48.074976373687385 -0.45241886116563895, 238.38449252881108 -1.145907384529691, 285.71765897892413 -1.5051471021026146 M-0.5854451528191567 -1.1629717335104943 C46.70947789147496 -1.419653737097975, 236.92422693625093 -0.0463258565962125, 284.8451781177521 -0.08879673957822432" stroke="#000000" stroke-width="1" fill="none"></path></g><g transform="translate(442.85400797218085 157.63585639148948) rotate(0 142.56610691305252 -0.791054793074693)"><path d="M256.48993001375254 10.311688933651212 C266.2976316630957 4.621993229844582, 275.21263753012977 4.205399160104785, 286.7545280342549 -1.858977231308795 M255.91339882984664 10.574910611975255 C264.1583370267148 7.010719456189403, 271.9374473027581 4.036994849779563, 285.8028521004692 -0.20797700259832252" stroke="#000000" stroke-width="1" fill="none"></path></g><g transform="translate(442.85400797218085 157.63585639148948) rotate(0 142.56610691305252 -0.791054793074693)"><path d="M256.56268167517646 -10.20939070611432 C266.4721267607914 -8.536316666705996, 275.36103124955673 -1.5904883301667248, 286.7545280342549 -1.858977231308795 M255.98615049127056 -9.946169027790276 C264.1649346008971 -7.746924125611935, 271.92361081342654 -4.956807239952669, 285.8028521004692 -0.20797700259832252" stroke="#000000" stroke-width="1" fill="none"></path></g></g><g transform="translate(526.771484375 114.251953125) rotate(0 38 11.5)"><text x="0" y="18" font-family="Cascadia" font-size="20px" fill="#000000" text-anchor="start" style="white-space: pre;" direction="ltr">connect()</text></g><g><g transform="translate(723.537109375 336.705078125) rotate(0 -142.27798392448574 0.5691817408800262)"><path d="M0.45319764129817486 0.303343104198575 C-46.760692573462926 0.40357803789277874, -236.89492866682508 0.2722820191333691, -284.2054859805852 0.5549811709672212 M-0.7680123263597489 -0.5830057114362717 C-48.03517517705759 -0.3361800799767176, -237.86818000773587 1.6168049142758054, -285.00916549026965 1.7213691931962969" stroke="#000000" stroke-width="1" fill="none"></path></g><g transform="translate(723.537109375 336.705078125) rotate(0 -142.27798392448574 0.5691817408800262)"><path d="M-256.38310825382325 -8.272039021402948 C-264.3458357878759 -4.50792375207697, -268.21345697090186 -5.169862458844479, -284.9877796436101 2.0375732959061863 M-255.97057215147618 -8.741842625700288 C-263.6246111712711 -5.79791657352359, -273.09401203474937 -2.3164720905192713, -285.93981871869414 2.1593799146637322" stroke="#000000" stroke-width="1" fill="none"></path></g><g transform="translate(723.537109375 336.705078125) rotate(0 -142.27798392448574 0.5691817408800262)"><path d="M-256.2438205671235 12.248696865162463 C-264.2296912439879 11.434041381787141, -268.1283951162776 6.192805881892714, -284.9877796436101 2.0375732959061863 M-255.83128446477645 11.778893260865123 C-263.61847389652803 9.091668566006327, -273.1260969859845 6.9419749141285445, -285.93981871869414 2.1593799146637322" stroke="#000000" stroke-width="1" fill="none"></path></g></g><g transform="translate(509.732421875 298.955078125) rotate(0 84.5 11.5)"><text x="0" y="18" font-family="Cascadia" font-size="20px" fill="#000000" text-anchor="start" style="white-space: pre;" direction="ltr">connect() succeeded!</text></g><g><g transform="translate(729.736328125 209.056640625) rotate(0 -142.65630955557342 2.0099585419427513)"><path d="M-0.27852065674960613 0.3293780397623778 C-48.247670742993556 0.9784034998466572, -239.27497531684736 3.930673169220487, -287.08873638026415 4.563219518586993 M1.7761172691173854 -0.5433024347014725 C-45.856449698091794 -0.31053804737205304, -236.34591521151984 1.7210174337836603, -284.68791922478005 2.728131892066449" stroke="#000000" stroke-width="1" fill="none"></path></g><g transform="translate(729.736328125 209.056640625) rotate(0 -142.65630955557342 2.0099585419427513)"><path d="M-256.104360066921 -8.939560912550334 C-265.7879744753436 -5.274943900505998, -276.62576867724033 -0.5797452089057202, -282.94804471096023 4.210788488294929 M-257.3229305107226 -8.553453658708278 C-266.23989840420535 -3.8928369074937983, -276.31820810811706 -0.6499819608790522, -283.95577847601845 1.8942153629846872" stroke="#000000" stroke-width="1" fill="none"></path></g><g transform="translate(729.736328125 209.056640625) rotate(0 -142.65630955557342 2.0099585419427513)"><path d="M-255.79826672721788 11.579364723389496 C-265.7066363968333 7.845917939444929, -276.6547814344683 5.143763279372976, -282.94804471096023 4.210788488294929 M-257.01683717101946 11.965471977231552 C-265.9945860070833 9.119579040653186, -276.18487317239385 4.856040004393956, -283.95577847601845 1.8942153629846872" stroke="#000000" stroke-width="1" fill="none"></path></g></g><g transform="translate(523.365234375 176.904296875) rotate(0 37 11.5)"><text x="0" y="18" font-family="Cascadia" font-size="20px" fill="#000000" text-anchor="start" style="white-space: pre;" direction="ltr">readings!</text></g><g><g transform="translate(728.5 224.294921875) rotate(0 -142.64238711561077 1.7978353053144929)"><path d="M0.6291519273072481 0.19268304817378512 C-47.00456000280877 0.7769429595520099, -237.78111269983154 2.5730591407666603, -285.49267535321417 3.2250562500208617 M-0.4996820401959121 -0.7517622968740763 C-48.23070581931 -0.007765371321390213, -238.3377747205707 3.3106560403915744, -285.9139261585288 4.347432907503098" stroke="#000000" stroke-width="1" fill="none"></path></g><g transform="translate(728.5 224.294921875) rotate(0 -142.64238711561077 1.7978353053144929)"><path d="M-257.60486473558825 -4.781877302555259 C-268.3873234533408 -1.3618708445579708, -276.0397642149009 0.20387537731869276, -284.0668718241714 3.507206672634929 M-257.85226073066127 -6.833955472325798 C-267.6232031753242 -2.490808429992379, -279.222317364036 1.1543390061124255, -285.7989772907086 5.044231456536799" stroke="#000000" stroke-width="1" fill="none"></path></g><g transform="translate(728.5 224.294921875) rotate(0 -142.64238711561077 1.7978353053144929)"><path d="M-257.2096125065235 15.735524532503163 C-268.0728842992071 12.473040203674866, -275.8540981127385 7.3542233578785385, -284.0668718241714 3.507206672634929 M-257.45700850159653 13.683446362732624 C-267.1782620193515 10.394831501234847, -278.92439850932163 6.408103866653113, -285.7989772907086 5.044231456536799" stroke="#000000" stroke-width="1" fill="none"></path></g></g><g><g transform="translate(728.79296875 244.267578125) rotate(0 -142.74394138540143 2.1610280048101913)"><path d="M0.2224769700318574 -0.8141795922070741 C-47.48782187414666 0.04315160823365061, -237.4718208602319 4.399448453510802, -285.359189177677 5.136235601827503 M-1.1198613500408827 1.3727721765451135 C-48.96768017310029 1.923202817918112, -237.8661046651813 3.0458997423263883, -285.7103597408347 3.601981419008225" stroke="#000000" stroke-width="1" fill="none"></path></g><g transform="translate(728.79296875 244.267578125) rotate(0 -142.74394138540143 2.1610280048101913)"><path d="M-258.96445259077495 -5.0021547888089115 C-266.28515595254356 -3.9148977513824623, -279.37931861226093 1.7291420802393098, -285.4629185961746 3.8334753074310717 M-257.1112874438802 -6.867349032187849 C-264.7158780166735 -5.604523892868526, -270.46267376469433 -2.9777003484900773, -285.18778567465023 2.7747302091307935" stroke="#000000" stroke-width="1" fill="none"></path></g><g transform="translate(728.79296875 244.267578125) rotate(0 -142.74394138540143 2.1610280048101913)"><path d="M-258.79066349159973 15.518317908837389 C-266.1752499218884 8.906267135233403, -279.33462120440015 6.850676955222998, -285.4629185961746 3.8334753074310717 M-256.937498344705 13.653123665458452 C-264.6904785823324 10.358144658924175, -270.4758684407939 8.427896480477262, -285.18778567465023 2.7747302091307935" stroke="#000000" stroke-width="1" fill="none"></path></g></g><g transform="translate(191.10937500000003 19.48046875) rotate(0 68.458984375 26.958984375)"><path d="M-0.7160695474594831 -1.3931254167109728 C53.826492564667205 1.88359177115879, 105.01349628140815 -0.3495491146711356, 135.22079989500344 -0.0377995390444994 M0.6849357774481177 0.5349131980910897 C37.61531286629434 0.49381816658675226, 74.03064383545062 -1.1087490591079041, 137.78540545608848 0.03723959717899561 M137.1037645060569 0.5469406228512526 C138.38252214454678 12.138414817043309, 138.2923569466975 29.752897357792982, 138.74434068985283 54.71787738613786 M136.8747344603762 -0.9623944303020835 C136.8608685379611 17.10208927930617, 136.40370666438207 34.66747421114343, 136.26499810721725 54.37207098398359 M137.788117678836 52.87691259197892 C95.44608776147179 51.36953953570415, 54.426844175284344 51.33661303586055, 1.4139557797461748 54.97741287760438 M137.38537111785263 53.897667364217355 C92.94787576723792 53.271430900005925, 48.42081037115203 53.00622596373998, -0.20083713624626398 53.308565006591394 M1.0594631154090166 55.26201265864076 C-1.752298425457957 40.354137989184174, -0.2174216616373087 29.06241131472271, 0.4931339342147112 0.06813847832381725 M-0.8753478536382318 54.001725778915 C-1.1984973433213963 35.427771025199405, -0.20105983640725755 15.559124231994069, 0.9509795596823096 0.7343254247680306" stroke="#000000" stroke-width="1" fill="none"></path></g><g transform="translate(205.42382812500003 35.185546875) rotate(0 53 11.5)"><text x="53" y="18" font-family="Cascadia" font-size="20px" fill="#000000" text-anchor="middle" style="white-space: pre;" direction="ltr">connect_all()</text></g><g><g transform="translate(246.20507812500003 73.970703125) rotate(0 -1.405251108808443 199.21760865561663)"><path d="M0.45287561304867263 -0.8412825275212525 C0.005460400258501308 65.82077775311966, -2.1595209212352833 332.5745954266439, -2.762167228385806 399.27649983875455 M-0.7685034194402396 1.331440200190991 C-1.2926707983824115 67.7296881576193, -2.7760777269614243 331.6010262201043, -3.2633778306655588 397.6395171928219" stroke="#000000" stroke-width="1" fill="none"></path></g></g><g><g transform="translate(251.8909102821723 145.02035971900455) rotate(0 91.24354051533155 -1.3163581320643516)"><path d="M0.4298822510987521 0.44614278785884376 C30.868313122261316 0.29384901234568583, 153.050576991681 -1.0424128840833191, 183.29064932707695 -1.3595866492205004 M-0.8035682964138686 -0.3652361938543618 C29.467955541424452 -0.8169355638356366, 151.78320128399878 -2.5651984126276557, 182.6358230489306 -3.0788590519875925" stroke="#000000" stroke-width="1" fill="none"></path></g><g transform="translate(251.8909102821723 145.02035971900455) rotate(0 91.24354051533155 -1.3163581320643516)"><path d="M155.34898024554028 8.542920837270705 C165.8763995065854 2.279948651563851, 175.66515765773192 1.4792057774219165, 183.7394472456537 -2.0352590310574215 M154.75805788709445 8.129756298939375 C161.81743586492507 5.080897741680929, 171.00753752439218 2.027439352954274, 181.7404908307828 -3.6603612651304047" stroke="#000000" stroke-width="1" fill="none"></path></g><g transform="translate(251.8909102821723 145.02035971900455) rotate(0 91.24354051533155 -1.3163581320643516)"><path d="M155.03485705016215 -11.975883440853424 C165.59756026251623 -10.955695802925913, 175.49783382596604 -4.47215355354722, 183.7394472456537 -2.0352590310574215 M154.44393469171632 -12.389047979184754 C161.73482834863134 -9.674826802485832, 171.0131453871485 -6.965978797791525, 181.7404908307828 -3.6603612651304047" stroke="#000000" stroke-width="1" fill="none"></path></g></g><g transform="translate(268.208984375 105.736328125) rotate(0 65.5 11.5)"><text x="0" y="18" font-family="Cascadia" font-size="20px" fill="#000000" text-anchor="start" style="white-space: pre;" direction="ltr">sensor.connect()</text></g><g><g transform="translate(434.8733132246323 357.21274247877295) rotate(0 -93.67226601179686 0.9809265207026101)"><path d="M-0.28778765313327315 -0.5978043962270021 C-31.868949695943535 -0.3261541102332292, -157.29475223033995 0.9381831611184187, -188.67506626594806 1.1439891020194182 M1.7619850996322932 1.702744350414723 C-29.962140905136852 2.200986919061351, -157.35227902357772 2.5823467804541598, -189.106517123226 2.5596574376322816" stroke="#000000" stroke-width="1" fill="none"></path></g><g transform="translate(434.8733132246323 357.21274247877295) rotate(0 -93.67226601179686 0.9809265207026101)"><path d="M-161.92898073814882 -6.1072822241950675 C-171.71928024287217 -2.2097612336852084, -182.9225847412817 -0.024520892308757425, -190.23048152046272 3.6742384246536086 M-161.64177656475528 -8.474628344262008 C-172.61568622694398 -3.612972509203326, -183.57277830761095 -0.7021237728382976, -188.21685762999573 3.3130551566355417" stroke="#000000" stroke-width="1" fill="none"></path></g><g transform="translate(434.8733132246323 357.21274247877295) rotate(0 -93.67226601179686 0.9809265207026101)"><path d="M-161.89525372966636 14.413898659826653 C-171.61485742825002 10.766545358295089, -182.8305619592245 5.406992292768604, -190.23048152046272 3.6742384246536086 M-161.60804955627282 12.046552539759713 C-172.6977221180329 8.762251553046198, -183.6682018387734 3.5273976042157678, -188.21685762999573 3.3130551566355417" stroke="#000000" stroke-width="1" fill="none"></path></g></g><g transform="translate(258.271484375 330.994140625) rotate(0 84.5 11.5)"><text x="0" y="18" font-family="Cascadia" font-size="20px" fill="#000000" text-anchor="start" style="white-space: pre;" direction="ltr">connect() succeeded!</text></g><g transform="translate(139.81347656250003 174.75) rotate(0 37 11.5)"><text x="0" y="18" font-family="Cascadia" font-size="20px" fill="#000000" text-anchor="start" style="white-space: pre;" direction="ltr">readings!</text></g><g><g transform="translate(437.7171343911439 251.86606990806763) rotate(0 -172.61903017726723 1.415774737233562)"><path d="M0.7171343911439181 -0.805805091932416 C-56.64793282899383 -0.5584344934733356, -287.3954053433301 1.8244414526663002, -344.89291313048443 2.633201592751357 M-0.36550878284499055 1.3855432894639672 C-57.84616704204428 2.2578673480203606, -288.54615931591627 3.549430742065536, -345.95519474567834 3.6373545663995173" stroke="#000000" stroke-width="1" fill="none"></path></g><g transform="translate(437.7171343911439 251.86606990806763) rotate(0 -172.61903017726723 1.415774737233562)"><path d="M-319.1491454408606 -7.09981411058676 C-326.1965323158667 -3.384919533917043, -330.63741029097844 -2.092155259766712, -345.3369388007558 3.4700719236028816 M-318.5910063578849 -7.168139791267333 C-327.62176078972624 -3.477766129543396, -337.1650219221082 0.8694315173388816, -346.294339572545 2.777416884582999" stroke="#000000" stroke-width="1" fill="none"></path></g><g transform="translate(437.7171343911439 251.86606990806763) rotate(0 -172.61903017726723 1.415774737233562)"><path d="M-319.06616473011957 13.421226715538147 C-326.33007312546647 12.181657654111312, -330.7909874168582 8.519462387486142, -345.3369388007558 3.4700719236028816 M-318.5080256471439 13.352901034857574 C-327.6048648415575 9.758769148822497, -337.17758225737595 6.821459473616475, -346.294339572545 2.777416884582999" stroke="#000000" stroke-width="1" fill="none"></path></g></g><g><g transform="translate(435.4360819410533 211.80668908245866) rotate(0 -171.73172700360416 0.5056648746216297)"><path d="M0.35795694105327125 -1.0604984175413847 C-57.00550068017095 -0.7133805815226955, -286.0159822447225 0.3708247508371263, -343.23083108603953 1.012357488589214 M-0.9132543942332269 0.9971359679102898 C-58.458273235149676 1.562618040283807, -286.7766151908412 2.087882654469648, -343.8214109482616 2.071828166784571" stroke="#000000" stroke-width="1" fill="none"></path></g><g transform="translate(435.4360819410533 211.80668908245866) rotate(0 -171.73172700360416 0.5056648746216297)"><path d="M-317.41187969686683 -7.09166407058796 C-327.9371445629718 -2.6034208596324104, -335.6601666155991 -1.1432883787136436, -344.1075352987647 2.5633050322698816 M-315.29494332334247 -8.455977675829438 C-324.5729250119828 -5.025630704412916, -332.1798092440712 -2.646260626232726, -344.23043827045706 1.913958469236122" stroke="#000000" stroke-width="1" fill="none"></path></g><g transform="translate(435.4360819410533 211.80668908245866) rotate(0 -171.73172700360416 0.5056648746216297)"><path d="M-317.38443011737365 13.4295261703904 C-327.73706236812615 10.137045934871086, -335.4704921910562 3.816373087919084, -344.1075352987647 2.5633050322698816 M-315.2674937438493 12.065212565148922 C-324.4269064381803 9.257565812499658, -332.04213503203675 5.39872610957874, -344.23043827045706 1.913958469236122" stroke="#000000" stroke-width="1" fill="none"></path></g></g><g><g transform="translate(433.6640161111951 230.5040472480655) rotate(0 -169.80073351323608 3.261332582831301)"><path d="M-0.8822550226002932 0.6678040612488985 C-57.39031693217655 1.5709502390771868, -283.33943598705036 4.283385759964468, -340.1230102104694 5.131630433276155 M0.8554223611950875 -0.02720275193452837 C-55.614268898566564 1.085580626726127, -283.2306365434329 5.941328618526342, -340.4568893876672 6.549867917597153" stroke="#000000" stroke-width="1" fill="none"></path></g><g transform="translate(433.6640161111951 230.5040472480655) rotate(0 -169.80073351323608 3.261332582831301)"><path d="M-311.3288844792926 -2.2316549533015415 C-318.7416186432475 -2.6137499106853284, -323.5945484165309 1.5595225647061701, -340.9753788695485 6.544088027253606 M-313.25576872535134 -4.861096455805592 C-322.47307820392547 0.6421607587837408, -331.8344954285121 3.1351580369689294, -339.5234577464685 6.228620219789304" stroke="#000000" stroke-width="1" fill="none"></path></g><g transform="translate(433.6640161111951 230.5040472480655) rotate(0 -169.80073351323608 3.261332582831301)"><path d="M-310.98522986113096 18.286675970271553 C-318.421169850617 13.584037940507606, -323.34642062848826 13.43929393529322, -340.9753788695485 6.544088027253606 M-312.9121141071897 15.657234467767502 C-322.099937513108 13.983439123618174, -331.5816151803172 9.296135517315346, -339.5234577464685 6.228620219789304" stroke="#000000" stroke-width="1" fill="none"></path></g></g><g transform="translate(366.0625 21.78125) rotate(0 68.458984375 26.958984375)"><path d="M-0.9401587527245283 1.5968472342938185 C30.892625652389327 -0.2881780515502397, 60.17594297071119 0.3073076953102645, 138.82684031315148 -0.8607751149684191 M-0.2525091180577874 -0.8676377674564719 C51.768778919938995 -1.679272040092437, 103.75722909019896 -0.49148644443699574, 137.2507821014151 -0.7667138418182731 M138.6857723314315 1.6466792803257704 C136.26453904826408 15.739471586009682, 138.07655166108376 31.33921999215746, 137.67546007223427 54.781584320589914 M136.54682955052704 0.7397022405639291 C136.57656963836246 15.28459820610988, 137.13186561237865 31.03910511068171, 137.32505267765373 54.26624052319677 M135.670302124694 55.802298603579416 C102.17757139469431 53.255460626344046, 71.13793705446514 55.97340197012838, -1.5799069087952375 54.23157429508866 M136.00443905498832 52.92606084141882 C108.78305958181336 53.72843893317373, 82.07345894012033 54.56688027528913, -0.945976466871798 54.6879363814369 M1.2573881465941668 53.30119299702348 C-0.3407817692121534 41.079104251243926, -1.5310465306600598 30.445392504365746, 1.7832125145941973 1.4512919764965773 M0.03300860431045294 53.27630741987379 C0.8396850969821026 39.56414110594379, 1.2169510569602062 26.24060184432092, 0.5369073143228889 -0.9470303198322654" stroke="#000000" stroke-width="1" fill="none"></path></g><g transform="translate(662.375 10) rotate(0 68.458984375 26.958984375)"><path d="M-0.8135594148188829 0.6734872777014971 C34.43837355326214 -0.5436857967763717, 65.38158879368203 -0.9105119138150986, 138.16807871870697 0.05829945392906666 M-0.22944103088229895 0.6519982805475593 C29.176527912852546 -0.41657612642931785, 57.90502283467577 -0.36306256971049156, 136.84083275590092 0.5684288432821631 M135.44251614622772 -1.572636691853404 C136.0059398154596 21.348393879328437, 138.20298424762285 38.44536019574954, 135.16066360287368 55.04121181555094 M136.89283447060734 0.7431994369253516 C137.55201781818974 16.890273628892107, 135.62496767470944 32.60616400585642, 136.3699543038383 54.71263807918878 M135.48595857433975 53.354779453948154 C101.20813593226666 55.23045876071888, 69.18739146096995 55.19936796472508, -0.5157445091754198 54.41476634331049 M136.64640517625958 53.27270072605462 C89.83466103248466 54.436989539200056, 41.90727148007937 54.552646421724546, 0.5637267688289285 53.57282689120622 M-0.33832246251404285 54.754380734637394 C-1.1135954159389438 41.31957523260681, 0.9156214100231228 23.31717520237799, 0.1458734255284071 1.4561236817389727 M-0.41803921665996313 54.74694135691972 C-0.5581580046946693 36.53181744555879, -0.12495767515250916 17.896923293414154, -0.526183589361608 0.5919579258188605" stroke="#000000" stroke-width="1" fill="none"></path></g><g transform="translate(10 19.2890625) rotate(0 85.59960937500003 26.958984375)"><path d="M0.41794627718627453 -1.3152539413422346 C51.25994336014958 -1.8822698736215175, 104.550363828733 -1.6769428992295803, 171.3220716696233 -1.7667168658226728 M0.5583472112193704 -0.02176722977310419 C40.448917844605255 1.2331626810012317, 83.1970181181889 0.8140609957156635, 171.58905400428927 -0.2624402055516839 M173.04516327194875 1.588018985465169 C170.54462491737178 12.961097789530692, 171.48644130693248 30.201213413054223, 172.0816109757871 55.87309971638025 M171.46763195190584 0.5736691942438483 C170.92904912128566 16.652010164254538, 171.1215716172707 32.42285506340341, 172.0271025160328 54.695238917134716 M171.72616559080785 54.16892138309778 C128.2809443432478 53.38276437368256, 81.26009862974536 54.73547217693192, -0.0750961322337389 52.95256969518961 M171.90185813698923 53.023818104527905 C126.95136704508445 54.620224741264735, 82.05890608165866 55.00881081537858, -0.29784087743610144 54.84097403194757 M-0.6609339732676744 53.974145146086826 C-0.014372648258758947 35.006064647298274, 0.6764862522882686 17.188834444530222, 1.7671725135296583 -0.8155994098633528 M0.6919889012351632 54.91422027256341 C0.3291080240045631 41.89795209946279, 1.0064537469183052 30.72817955471911, -0.3975864788517356 0.10307934787124395" stroke="#000000" stroke-width="1" fill="none"></path></g><g transform="translate(21.50195312500003 34.212890625) rotate(0 75 11.5)"><text x="75" y="18" font-family="Cascadia" font-size="20px" fill="#000000" text-anchor="middle" style="white-space: pre;" direction="ltr">publish_readings()</text></g><g><g transform="translate(93.73828125000003 75.974609375) rotate(0 -1.7755382245779074 199.01206262383613)"><path d="M-1.1160464096814393 0.12375826723873606 C-1.821175536389152 66.67747983423372, -3.0572706588854395 332.4970093159626, -3.2779633689671757 398.8809978354722 M0.4988904958963394 -0.856872587800026 C-0.41829060177008326 65.37615883131822, -3.535146076877912 330.26270740131537, -4.049966945052147 397.03637663781643" stroke="#000000" stroke-width="1" fill="none"></path></g></g><g transform="translate(236.59570312500003 137.126953125) rotate(0 8.568359375 9.453125)"><path d="M0 0 C0 0, 0 0, 0 0 M0 0 C0 0, 0 0, 0 0 M0.49689141291660566 6.225531184722774 C1.9014923230632421 4.075990639183731, 3.0329179128899706 2.823175445439338, 4.888419894459195 1.056079879015427 M-0.5703900992544243 6.679657176931493 C1.289590596415227 4.364745104226229, 2.6544834131336055 2.259800247223709, 5.01412885222072 0.35317998564217623 M1.372777626765858 13.529000208198607 C3.7577720707215945 7.915159233566541, 5.7196111883120935 4.6836348082741335, 11.419527827155722 1.326355531354225 M0.04285589690316782 12.077178006290971 C2.798794480344028 9.134808930463064, 5.917362924645492 4.687909509613397, 11.166888001513612 -0.2506680388853191 M0.5313766980031271 18.24490618975895 C5.41569618268365 13.136223956366951, 10.683799684450277 5.209029360235768, 15.514736447020848 -1.119000519912226 M-0.8168685148051242 19.10023872265654 C3.642429134843336 13.97615438196094, 8.607259225936486 9.689581550172015, 14.741904878526409 -0.47164331498323175 M4.838886870052358 22.348069560397796 C8.834493496068223 17.06184870633121, 10.492419980237866 11.319156531656485, 18.058654616566443 3.2545120168417405 M3.624811653028866 21.72326861942225 C8.409050564358758 14.1530712760907, 15.205133589689977 8.394826486210862, 20.0818487414886 2.8581161342501353 M8.194743243916122 22.230446777347602 C11.764063315770835 17.415366928873123, 17.92186749114867 13.427189539992444, 19.20451380932054 7.223645756009974 M8.72191816729882 21.09117338363466 C11.953339549355878 16.79923103416492, 17.93739732878875 10.002416756876306, 19.58591469605735 7.425849428575494 M13.250021863103482 21.74393002872279 C14.69858401992718 19.3308674222961, 15.628350538846103 18.477444141146215, 19.346862521477078 13.51846855156228 M13.10078235457522 21.403613860969603 C15.417199777801763 19.25839071728246, 16.832453829719555 17.30011460972001, 19.56709620504457 14.518608038072587" stroke="#be4bdb" stroke-width="0.5" fill="none"></path><path d="M-0.006726285543845689 0.9131267630225921 C2.396643856528682 -0.7101420128704194, 7.158009214404594 -1.5563494809656553, 16.251578553315635 -1.335246651204216 M0.22805047216643304 -0.40378305411832127 C6.368578750828238 -0.07144865730631866, 12.236444578744342 -0.4462510003530771, 16.37029080105531 0.2185858657427161 M18.9560541449755 1.6076008621894284 C18.724032674837513 6.246088584011885, 15.569525977518065 12.281806483952094, 15.839352023293035 18.77948512791772 M17.394815618652505 -0.6248032751173012 C16.461837800795916 5.129817729539353, 16.263481201714608 9.050658192179979, 16.753068708829236 18.406987645881596 M16.966146214996847 17.679100362603634 C11.212017362607007 18.26082736866148, 7.950391906638836 17.59987589446893, 1.1012029133424222 20.397861202057534 M16.85493904698924 18.531877842541505 C11.420377801679209 19.2468827389412, 7.401409582575071 19.39075337998787, -0.3320042897848908 18.986552793540245 M0.8451100135862362 17.305465821205868 C-1.706483426110935 14.40920790750533, 0.046027882417547517 6.369845470384458, 0.8472280227288138 -1.456114857428474 M0.13002836659143213 18.630533735020432 C0.9085290214163249 11.723191410084834, -0.4338964446331373 3.576927666363188, 0.38014101797307376 -0.6191714217566184" stroke="#000000" stroke-width="1" fill="none"></path></g><g><g transform="translate(88.22460937500003 215.134765625) rotate(0 -18.652704998105765 0.3165314976925515)"><path d="M0.5353613533079624 -0.7721144713461399 C-5.661580570787192 -0.9067741351823011, -31.46642998084426 -0.5968136665721734, -37.84077134951949 -0.38006265535950656 M-0.6427126655448228 1.4369214858580381 C-6.4295469511020915 1.3880816842087855, -29.942307402240107 0.6041781341998527, -35.726081146644425 0.6707203267980366" stroke="#000000" stroke-width="1" fill="none"></path></g><g transform="translate(88.22460937500003 215.134765625) rotate(0 -18.652704998105765 0.3165314976925515)"><path d="M-19.573788650394658 -7.1036933855683175 C-24.036977294040085 -5.348528137616618, -26.89543609481369 -1.4299021441610693, -34.28466155267639 0.9402722588149435 M-19.135010044531054 -5.040061835710163 C-22.67021222873481 -3.960768352472984, -26.315453961489535 -3.4503076393871357, -35.56263309653296 0.2591262898107114" stroke="#000000" stroke-width="1" fill="none"></path></g><g transform="translate(88.22460937500003 215.134765625) rotate(0 -18.652704998105765 0.3165314976925515)"><path d="M-19.750139377741075 5.449669436967369 C-24.214871868751434 4.127553248044482, -27.03011180607204 4.969684565992518, -34.28466155267639 0.9402722588149435 M-19.31136077187747 7.513300986825523 C-22.828677591040353 5.621397737102069, -26.43216697475874 3.1597562420880436, -35.56263309653296 0.2591262898107115" stroke="#000000" stroke-width="1" fill="none"></path></g></g><g><g transform="translate(90.78320312500003 237.412109375) rotate(0 -19.886385540929627 0.14128255967511905)"><path d="M-0.2140898980200291 0.0665326751768589 C-6.841421019782624 0.43209990635514256, -32.290281911442676 1.1325819171965124, -38.819986537843945 1.2267067350447178 M-1.78562582382001 -0.9441416156943888 C-8.618686448320126 -0.8374010274466128, -33.148095658902704 -1.0148217255529017, -39.55868118383922 -0.5225501028355213" stroke="#000000" stroke-width="1" fill="none"></path></g><g transform="translate(90.78320312500003 237.412109375) rotate(0 -19.886385540929627 0.14128255967511905)"><path d="M-21.228854900032132 -7.122472338774658 C-27.1336359146434 -5.34437499743265, -35.00643448068877 -1.5648488136759724, -37.7277107848554 -0.9193903919834212 M-20.437940141955664 -7.706696920842689 C-26.278064790248347 -5.25148406926913, -31.969657577570356 -2.950383171446717, -39.80390901890319 -0.6736994380960095" stroke="#000000" stroke-width="1" fill="none"></path></g><g transform="translate(90.78320312500003 237.412109375) rotate(0 -19.886385540929627 0.14128255967511905)"><path d="M-20.830540263281783 6.286374671826632 C-26.778130697467642 2.986277770295536, -34.80175774569313 1.68832033734546, -37.7277107848554 -0.9193903919834212 M-20.039625505205315 5.702150089758601 C-25.91181804021176 3.9908146648789353, -31.727278019788653 2.1220556646842414, -39.80390901890319 -0.6736994380960095" stroke="#000000" stroke-width="1" fill="none"></path></g></g><g><g transform="translate(85.67773437500003 254.4746093750001) rotate(0 -18.486016847440045 -0.6215104259550799)"><path d="M1.1052697576582433 0.47647192105650893 C-5.259786129246154 0.13224474216500903, -31.005881826331215 -1.3791909175614516, -37.43171118125319 -1.7194927729666234 M0.22639765108935528 -0.31898426572792227 C-6.3126502715020125 -0.47276609033656614, -31.71917068535772 0.4842950139412038, -38.077303452538324 -0.0840199775528161" stroke="#000000" stroke-width="1" fill="none"></path></g><g transform="translate(85.67773437500003 254.4746093750001) rotate(0 -18.486016847440045 -0.6215104259550799)"><path d="M-19.331269263803815 -5.367153890109738 C-26.307286671571575 -2.9792535765738295, -32.597344893356684 -2.7160202914439697, -37.919989706765186 1.518462616479778 M-20.850417442049526 -6.860853378775735 C-27.058362948616836 -3.240608511522192, -34.06321808254534 -2.193599820573472, -37.3659519231248 0.010713284920795707" stroke="#000000" stroke-width="1" fill="none"></path></g><g transform="translate(85.67773437500003 254.4746093750001) rotate(0 -18.486016847440045 -0.6215104259550799)"><path d="M-19.557134532085097 7.64666308325518 C-26.48862256217056 5.305621645046282, -32.69664229972588 0.8419935288508054, -37.919989706765186 1.518462616479778 M-21.07628271033081 6.152963594589183 C-27.29304417402164 4.739231419761384, -34.210507712028 0.7509452068264131, -37.3659519231248 0.010713284920795707" stroke="#000000" stroke-width="1" fill="none"></path></g></g><g transform="translate(509.896484375 440.431640625) rotate(0 20.7421875 12.447265625)"><path d="M0 0 C0 0, 0 0, 0 0 M0 0 C0 0, 0 0, 0 0 M-0.841984309968526 6.155511796523921 C1.1868637161372306 3.7586338959232877, 3.285023751515919 1.7206227058731587, 4.720724896671719 0.6508416797814184 M-0.2778721749456475 6.012381485899083 C1.816438325790074 4.602321367100208, 3.0867377737042965 1.9550761647743067, 4.862792253824419 -0.015761202216405257 M0.44371087337840676 11.347747442543088 C1.093956151398882 9.980629111060079, 5.835822960658348 7.396077118801902, 10.324717055213583 -1.4844168876216053 M-0.5830961084831847 12.747926001667558 C3.794570022807163 7.409512241843793, 8.224736617486595 2.5338683760475993, 10.000248435092104 0.09082122846392404 M0.4822907233098288 16.815821769554788 C4.548266519969126 13.072111150970029, 8.014397455083198 8.107550262639553, 14.31474486319669 2.087256704170721 M-0.6084657023241977 18.912399989460283 C5.5507709565465655 12.12505730186063, 9.26853103956311 6.855615577931609, 15.70627197018214 0.49223799881758 M1.7393600980005477 22.611647771387457 C3.369442935087984 18.5868007033782, 11.614133016749816 15.17261684828286, 20.273316102379823 -0.9612002285033938 M-0.7194293195196177 24.387674655481337 C7.3806638351968274 15.926053447345168, 12.976964530867424 8.75470364744752, 22.20335585651722 -0.012228262221860575 M3.7017243269967697 25.555092011311576 C9.771440276646562 18.06395114605246, 18.38289387198026 9.673439118037475, 24.467609165843935 1.8986206868675293 M2.7632743388551138 27.635714425438568 C9.547387268863934 20.416784146377708, 17.03803729746097 12.752565909543573, 26.695078421991678 0.06708419453471315 M9.993391116717012 25.361955055444103 C15.95868964721012 20.198175092932896, 19.64950682265986 10.672419569702223, 33.45522551000754 1.886426266400445 M9.246795069062264 26.424138713105183 C14.025527860903216 19.84863357136185, 20.234926402088078 13.43655464713446, 32.02804258786777 0.33959165786050605 M11.579739691655734 28.133370361684165 C21.31362478938783 21.29038040178653, 27.221753002275676 12.307899419969562, 35.13437422532712 0.2134178971034011 M13.251138560440042 28.22816544903656 C17.926913905162166 20.661331003593062, 24.926204886488662 15.843377764761179, 36.09844328444575 0.7909706124198159 M17.639465258231446 27.905450996148723 C23.89808048374302 21.693920181281115, 31.515809451520663 15.622985282603759, 43.71128523923068 0.4243244753161193 M19.71861085925071 26.34275779700591 C26.681424069944228 19.00710755472049, 32.9456810589678 10.456842234281712, 41.25698065399735 0.6876906772086144 M24.066870656900637 29.330804595845816 C27.793175499845752 23.495936624242372, 31.706856080228405 18.41205126927774, 40.85855999722218 6.3242077891605035 M22.953610020794503 27.12663911667752 C30.536809264789653 19.78384298842505, 37.16024014948502 12.527572450074532, 41.90471073187029 7.066319988005056 M31.017187873373743 27.25241742753994 C31.03863147076948 22.21303763689951, 34.73108602525408 19.893200166560906, 41.87391280463505 11.799712702949831 M28.72603463326302 26.194364042725528 C33.6804259944849 21.62837625095896, 39.547519516987876 15.526656751018686, 41.12851808906141 13.051397247837226 M34.46682549012966 26.849170291274643 C35.80876144227844 24.753516249283493, 39.569695994462265 23.137043259302008, 40.89867481002659 19.466613245377726 M34.02642438389502 26.84737123897285 C37.182524401264224 24.319918872548016, 39.60102355852633 21.32063923627299, 41.59293348584399 19.427153627103603" stroke="#be4bdb" stroke-width="0.5" fill="none"></path><path d="M-0.3689135052263737 0.17618921771645546 C11.40938427920628 0.14297148239129454, 19.976405055582294 0.2334893609237042, 41.689982917159796 0.8997692205011845 M-0.9062279891222715 -0.5312629211694002 C13.42933978473593 0.879984721254732, 27.419526775513077 0.5238327232116717, 41.04718913324177 0.6010257136076689 M40.75413944944739 -1.2002607248723507 C39.461609916559176 6.275659255716164, 42.93571873175235 16.73000712326757, 42.33967390283942 23.02787021175027 M41.62847604043782 -0.0986770261079073 C42.35122601573217 4.8797325822080895, 40.9177557069515 11.317506127902016, 42.33532829768956 25.26116402260959 M39.962332632392645 26.38740447536111 C28.64025137045246 23.726762951553972, 18.271688022330633 24.662640632332476, -0.8059880472719669 23.04550138488412 M41.50626059062779 25.333876444026828 C25.60236357843678 24.257069771371608, 10.507016447227212 24.88503718861175, 0.6655836272984743 25.281804574653506 M1.9386494420468807 25.441748294979334 C-1.424460281969732 15.691849115411603, 0.7871744731648505 9.868864150931765, -0.7866757847368717 -1.6268050335347652 M-0.9571394752711058 24.814920438453555 C-0.9924389990172494 17.43718321602573, 0.6159112183251273 8.026988641913338, -0.42560688965022564 -0.47017030604183674" stroke="#000000" stroke-width="1" fill="none"></path></g><g transform="translate(560.404296875 440.009765625) rotate(0 53 11.5)"><text x="0" y="18" font-family="Virgil" font-size="20px" fill="#000000" text-anchor="start" style="white-space: pre;" direction="ltr">= mutex held</text></g><g transform="translate(233.74218750000003 348.236328125) rotate(0 8.568359375 9.453125)"><path d="M0 0 C0 0, 0 0, 0 0 M0 0 C0 0, 0 0, 0 0 M-0.07955254536586498 6.299220931579463 C1.4640150928996132 5.174771564658739, 1.9857543383442726 4.253755971810273, 4.416904525043911 0.5376828338799291 M0.10994690063876417 6.426979021032445 C1.3251026065743643 4.264817009592946, 3.7030495195629713 1.8378210368361763, 4.652865815492815 0.22513409292672215 M-0.2536027214397085 12.12321197730261 C3.937276359436732 8.68753280967629, 6.812275503927507 3.9786252723031774, 11.77702809418453 0.6217452789738536 M0.8553640031348573 11.855973916172564 C3.844600195642595 7.503321894714405, 7.895240997107035 3.539712043417393, 11.210746815753115 0.05815411611346022 M0.6103931450703879 16.447822573502236 C6.096472572583211 14.191709752653956, 8.80385507939794 4.898958395362783, 16.470820460006077 2.0123902901005915 M-0.6645413348963718 18.08554009804564 C2.8019473948556612 13.584897028579658, 5.971504005002914 9.692296467285272, 14.799265170007427 0.36698676523985174 M4.725940121318837 22.295561444629364 C5.258704720997894 15.600956798425532, 10.672197081781626 11.724490754020058, 18.14967973062589 1.1277927804678392 M2.052136544119259 21.123086443785958 C6.727328242119662 16.63770570162947, 8.824695986832639 13.828044584930458, 20.127707720713758 2.516902311885328 M7.41473347352275 22.778820118907966 C10.712327634139092 18.124983008926964, 14.931663542269185 12.216524169485899, 19.51401133262834 6.978593346837916 M8.525749231999901 21.6204975694829 C10.065144587103266 17.998581029190092, 13.608849382669682 15.692150044154435, 19.21396794398597 8.184180190961817 M14.289527094483944 21.1009539950352 C15.323726283052514 19.213294912380096, 16.877949991526496 16.89450945299389, 18.877447083301874 14.565852396414728 M13.453070392113748 21.199473883276045 C15.375717899813022 19.150594104723332, 16.653361539296103 17.660557076234497, 19.059211398649992 14.411118565444946" stroke="#be4bdb" stroke-width="0.5" fill="none"></path><path d="M1.5780060301920462 -0.7857603497606762 C5.431291836115999 0.6719007182833595, 8.749705626474318 1.3480295916288019, 15.797030616892883 -0.9639982137865447 M0.340426043721891 0.3059471243952431 C4.978754617485175 0.5453261157139788, 9.507273957627698 0.60178212849336, 17.03524096171423 -0.7600995926110047 M15.525681912404256 -1.1716875843412706 C18.706657336946233 8.331170150137039, 16.623510095212264 14.64247670592158, 18.25959380200948 20.770385549432827 M17.591006822432977 -0.4198305879399412 C17.205150579492333 7.141302450283546, 16.378740881494018 14.659002045795203, 17.46900076234306 18.428767811725262 M16.86825806795751 18.827385876673358 C12.803661681847009 20.341577415131685, 7.5755819539532245 19.833614614685718, 0.3074428126368731 19.07982129449592 M17.62506197513831 18.451758151148166 C13.042523085576617 18.94798580800634, 9.241840778701228 18.457299594536742, 0.054574863133529994 19.3757964436274 M-1.39013485101168 17.76935681517352 C-1.524928358549368 11.50888743717223, 0.8821371382306097 6.047904249251584, -0.09641238258336671 0.796630318305688 M0.5046845195029162 19.829565925276253 C-0.11405124681768941 14.254379567471911, 0.11419874961720777 9.045987542529472, 0.07189557982201222 -0.7159664116479687" stroke="#000000" stroke-width="1" fill="none"></path></g><g transform="translate(83.76562500000003 205.017578125) rotate(0 8.568359375 9.453125)"><path d="M0 0 C0 0, 0 0, 0 0 M0 0 C0 0, 0 0, 0 0 M0.4347703077225139 5.9776623607176465 C1.3281494952207131 4.704732680348978, 2.8464171106205516 2.977089383410826, 5.670491294147915 0.4246142532524877 M-0.46599046584683157 6.15436139484226 C1.5981744709433268 4.249243642892075, 2.9354951726823635 2.0823417126629473, 4.926974225374407 0.512187487244349 M0.4405825355182993 10.739750597297727 C4.632393514372637 6.0870703504924295, 9.174657996612623 3.79663753335469, 10.820444308173787 1.365810754437721 M0.21085621352304096 12.820461564182818 C3.77312830967767 7.303240804633772, 6.640431902488117 3.2507602543721563, 10.677854016375672 -0.010164632360660897 M1.2382718109944602 16.77890539439457 C3.5641380414586123 11.774595298748423, 9.430947785789124 8.16001131274913, 14.514241728469212 0.00044027407886293446 M-0.21023497083692355 17.90803961167174 C3.6035820633876208 13.594966274552876, 8.035166926564116 7.777167120762115, 15.087182068734844 0.4036052363854816 M1.057813538219472 22.157268655170135 C8.564312269698512 12.327051062643765, 14.156569657611765 6.891054521058399, 21.26672465631559 4.003400747844548 M2.884303931127926 20.675024739150338 C6.61104255492747 17.202321054779866, 10.735086042568934 11.473405954809145, 18.917264939265394 1.2333990178942393 M9.435540215237229 19.941049418453254 C12.408638106908604 16.262986967483744, 15.104795456112868 15.48317823283806, 18.425700947877974 7.948011061910548 M8.138871480649499 21.644562134187794 C12.048064454428753 16.18676842827829, 15.670839256130572 11.341513433621516, 19.96186115821174 7.137524083059289 M13.899784743905636 21.447949229524642 C15.011626037773626 17.502147224510402, 17.866915019923873 15.465259022450777, 19.026041677303645 14.37549945585534 M13.750250031453195 21.257844437723218 C15.380691923804804 19.273672936438118, 16.812029065099534 16.87381820928524, 19.578695954371277 14.65010778749466" stroke="#be4bdb" stroke-width="0.5" fill="none"></path><path d="M-0.776022367699625 1.4914762714142855 C5.4411171566578584 -1.7032687476216966, 11.3597676267229 -1.1291584719983079, 17.526374057928482 -0.21113098441055622 M0.3820143032568014 -0.6106143659486407 C6.747770936206873 0.5658692397564301, 13.364150054362476 -0.6789642567010017, 17.93229889661125 0.0625383214635804 M16.402776825678306 -1.579378932685358 C16.52197838268767 3.671229095256421, 16.874277284104032 9.331981958908726, 16.67972148067202 19.003562268830134 M16.349713278483254 0.6776344149693612 C17.529399376938823 7.054475006370921, 17.514480512699816 13.954008024811626, 17.99012161420251 18.687782919252637 M16.399671420353847 20.150069400361822 C11.683324277350042 19.62194855711488, 7.13769779875802 20.452020526561608, 0.6329486384209304 17.20044396672965 M16.54549160203715 19.271996935057174 C11.74778726288969 18.12247314601656, 4.758743905918892 18.790135351319183, -0.45946104197246324 18.60369919723198 M-1.3011561543971761 17.36002109388937 C0.2340875312889693 12.817678478546437, 0.4894333386997459 10.992680177063447, 1.7350390818610317 1.1652705138840243 M-0.4877173132117604 18.36632395510969 C-0.3854688839870504 13.450976046515276, -0.6783048055018296 9.601482910846242, -0.792540862210444 0.05691523964924272" stroke="#000000" stroke-width="1" fill="none"></path></g><g transform="translate(83.04687500000003 225.845703125) rotate(0 8.568359375 9.453125)"><path d="M0 0 C0 0, 0 0, 0 0 M0 0 C0 0, 0 0, 0 0 M0.3495384343294551 6.949901804377429 C1.4003963584243821 5.276183500042756, 3.1814041392814345 1.9866097961327354, 4.565581400277561 -0.28087276259090366 M-0.3778616860182831 6.6186924987035916 C1.615901389135998 4.215667584132599, 2.7147775125386424 2.491077834722589, 4.965059660705275 0.5342363435623461 M-0.27756397341381445 10.68961793523985 C2.591949067890954 8.255668132715844, 4.124278599729326 6.313342162566054, 9.48599473680271 -1.0494488988921282 M-0.5561118013132704 11.307417400598109 C1.9834680681992056 9.413490173927233, 5.030572214929682 5.295257686936407, 10.104888057661189 -0.04995773927422742 M-0.5752693554898958 19.33325802804964 C5.9737432638275365 10.55092024823388, 12.078279336618909 5.207010792733897, 16.13613991020568 -1.3524291248130629 M-1.0842173444619636 17.904882357363277 C5.0450281705607525 12.88454212430382, 8.891444193392482 8.198457340314642, 15.826609095096071 1.2855947191757133 M3.2565835919041835 22.986530069876842 C7.231265184867363 17.14034960661224, 10.651816345603846 11.386352806643337, 18.479066687615656 0.9655936334222268 M3.8240187763978444 21.65032076338344 C8.880784388990758 15.142203334755795, 13.04256182356233 7.511127712789898, 19.059435662793064 1.9563944220483016 M7.1238783824575815 22.91271931216506 C11.794062999904925 18.855061102013025, 13.88058666842037 16.085144857338328, 18.057437519219725 8.3040462996699 M8.650688294818787 20.753998899873473 C11.023705492416196 17.150843654643843, 15.674299165673114 13.029283310533028, 19.213215151851088 7.846151048120119 M14.151630870000096 21.112301935226828 C15.963874304386266 19.175995517509275, 17.320290893711462 16.869527119956672, 19.421001571498845 13.884552152306885 M13.343147000883343 20.587455800426362 C15.56725088214956 18.376612296053167, 17.38118412988593 16.20989994947966, 19.067797174852373 13.955121630561651" stroke="#be4bdb" stroke-width="0.5" fill="none"></path><path d="M0.04496349505716357 0.9242761543406235 C3.300099710200449 1.1334285467860903, 10.15644470381449 0.5115203420396576, 17.812536320808434 0.9321479937680126 M-0.46103527004997896 0.8231200424703277 C6.319549135902708 0.570825578843651, 13.475376784312905 0.22445315297314675, 17.789065112751636 0.6905732590337722 M18.929360137350162 -1.3138412204862102 C15.643969966689479 7.177209338115062, 18.543056143107247 11.273712881287791, 16.795105261757275 18.912809035246024 M16.35739676303638 -0.8860077210556481 C16.419382255413804 3.8849509079445843, 17.109071899560515 8.536203874813507, 17.303503220653514 19.478182915612702 M16.05792448664652 19.48930116397459 C9.538916315445386 17.827578681789376, 2.794850777008832 17.20125790793732, -1.445396531074221 18.607017266299952 M16.656265213743975 18.055085760306607 C13.8802898203252 19.672600995514216, 10.003837669096903 18.813360565351463, -0.11871546204602057 18.91093157654213 M0.5788158132054377 19.26811923968489 C-1.7273408345616186 13.53920187335461, -1.0453093232325044 7.352770191180749, 1.3868417665653392 0.9889138755097515 M-0.1433459899999434 19.139466712731515 C0.781199109542649 11.376257452167916, 0.3218939800630324 4.584167610344592, 0.6532920158788327 -0.5661015128571306" stroke="#000000" stroke-width="1" fill="none"></path></g><g transform="translate(82.93359375000003 247.654296875) rotate(0 8.568359375 9.453125)"><path d="M0 0 C0 0, 0 0, 0 0 M0 0 C0 0, 0 0, 0 0 M-0.5612469546170781 5.628391966273181 C1.463106722169528 3.532904231253963, 3.0236995896344503 2.8458816362046835, 4.328376943948216 0.8228157635626608 M-0.5416576817305634 6.422183471222512 C1.0906274206484006 5.064692084793529, 2.467988903166866 3.7517081735656017, 5.085493706496901 0.40606075113986073 M0.6224900045524944 10.795188346921979 C4.3051561916390835 10.53363290103563, 6.451462715202773 6.648777403538095, 11.375984017503393 -1.3768801961943744 M-0.22161578004251847 12.164860161065638 C2.4231064550881003 9.228362661036114, 5.174277576160515 7.468966437114444, 11.038019943189752 -0.04071138993951062 M0.5541239836672087 20.279132480640584 C4.470417774499877 13.050969131659155, 10.832059072606517 2.7689765003377254, 15.986106674655755 0.39325764467241076 M-0.40330663794188304 18.1455967881723 C6.103185303109654 12.530227018345748, 11.548964038515704 6.125796769566795, 15.641190608500917 0.9498282845062187 M3.7347852196355067 22.257302288581066 C7.047673407706132 15.587406599209409, 9.191269636599184 11.921361785155517, 17.84068353751495 1.5725551221459817 M3.6443070769120656 20.78687488535457 C6.370821288894141 15.408890903263163, 12.565254513913695 10.346886174165313, 18.37142699675455 3.0900760769784164 M7.721190236820069 19.753241243813314 C11.01907591341467 19.713105717470555, 15.574271161179468 13.634546806213775, 20.883099440720887 9.030659082148233 M8.563081447532563 21.88387354653714 C11.091674652569885 17.605843225068888, 14.989875847437405 13.77211426816799, 20.428260663573653 8.10804740804062 M13.21923783172724 20.76795146611443 C15.333439383212593 18.251988678883293, 17.97682462247485 17.24214753380067, 19.500281125389073 13.987897987515778 M13.171890154693845 21.248233387124895 C14.486655427718848 19.685189996120627, 16.073913429232075 18.345948274209704, 19.178121635120394 14.127143228185476" stroke="#be4bdb" stroke-width="0.5" fill="none"></path><path d="M-1.4367259349244708 0.10317651088480484 C4.038799732748886 -0.9309837991420502, 5.369494645277884 0.9256447941714578, 18.568843106945135 0.5513965984959215 M-0.22030623463615484 0.6454041281696846 C4.602642500462754 0.26138444631680624, 9.873318279860907 -0.7192310513780105, 17.054560810137268 -0.4091963641480107 M18.498403481236895 0.4149115360050928 C16.18890742849035 4.203233310894574, 17.741836352119574 10.625231108075239, 16.143853116809627 19.63302026732708 M17.9443416234426 0.0762239475880051 C17.517301173770104 5.166222254789317, 17.456504056585256 9.840527770647894, 16.561442631049434 19.252712137080376 M16.879491535570562 19.55778852649164 C13.821600223732824 18.074974251122253, 8.455762035458612 19.079977007050108, -1.3935449626565972 19.573138853410633 M17.2386578407215 19.65614509244733 C13.938695790292334 19.622304939420573, 10.74203198262585 19.05113336332157, 0.8349899523153 19.143738211840898 M0.1128801713057328 18.96374909902806 C0.20110589249816258 14.165570932440456, 1.1437344540172485 11.817129808041498, -1.568970205233199 -1.1045268117741214 M-0.5212753375672036 18.752555293511247 C-0.17429939733119681 13.9804507195804, -0.7879628243972545 9.462518962522152, -0.5015855154633754 -0.6906669325981054" stroke="#000000" stroke-width="1" fill="none"></path></g></svg>
