<svg version="1.1" xmlns="http://www.w3.org/2000/svg" viewBox="0 0 821.1296452702702 377.1260909346847">
  <!-- svg-source:excalidraw -->
  
  <defs>
    <style>
      @font-face {
        font-family: "Virgil";
        src: url("https://excalidraw.com/FG_Virgil.woff2");
      }
      @font-face {
        font-family: "Cascadia";
        src: url("https://excalidraw.com/Cascadia.woff2");
      }
    </style>
  </defs>
  <rect x="0" y="0" width="821.1296452702702" height="377.1260909346847" fill="#ffffff"></rect><g transform="translate(49.44700168918911 88.28948479729729) rotate(0 63 12.5)"><text x="63" y="18" font-family="Virgil, Segoe UI Emoji" font-size="20px" fill="#000000" text-anchor="middle" style="white-space: pre;" direction="ltr">Raspberry Pi</text></g><g transform="translate(369.12573902027026 93.41015625) rotate(0 47 12.5)"><text x="47" y="18" font-family="Virgil, Segoe UI Emoji" font-size="20px" fill="#000000" text-anchor="middle" style="white-space: pre;" direction="ltr">Mosquitto</text></g><g transform="translate(602.4024493243242 292.864653716216) rotate(0 45.5 12.5)"><text x="45.5" y="18" font-family="Virgil, Segoe UI Emoji" font-size="20px" fill="#000000" text-anchor="middle" style="white-space: pre;" direction="ltr">InfluxDB</text></g><g transform="translate(537.0124577702702 88.16015625) rotate(0 40 12.5)"><text x="40" y="18" font-family="Virgil, Segoe UI Emoji" font-size="20px" fill="#000000" text-anchor="middle" style="white-space: pre;" direction="ltr">openHAB</text></g><g transform="translate(678.5710515202702 91.74609375) rotate(0 42.5 12.5)"><text x="42.5" y="18" font-family="Virgil, Segoe UI Emoji" font-size="20px" fill="#000000" text-anchor="middle" style="white-space: pre;" direction="ltr">Grafana</text></g><g transform="translate(315.70777027027026 10) rotate(0 247.7109375 178.56304546734236)"><path d="M0.5510661025112936 -0.4287558523436297 C132.79494084503514 0.2696417771765358, 265.8471673517247 0.7280091868142742, 494.98900627622504 0.026962335054616593 M0.02102282941066956 -0.043400205069541814 C182.0864674265276 -1.7711066081613998, 364.599501587583 -1.9456034318328097, 495.27054950568703 -0.2562543434335873 M496.2282341703379 1.1133819461632983 C495.64757923960934 102.64957609304702, 495.2227352073377 204.55185279836826, 496.3114444846141 357.5565989651389 M495.53787081682987 -0.5229345907055035 C494.3528185410572 112.97933562617327, 494.40924511647614 224.51594103897088, 495.1370140078725 357.14393157678523 M495.5665184805744 356.81106691652076 C364.1995661806081 359.2185308863143, 231.91304404812703 358.7955570994001, 0.0035514681119410666 357.381784291192 M495.35749370540947 357.46592754333136 C353.7944225561472 358.7157323504232, 212.8228971235399 358.3574120459073, -0.04975157731477079 356.9396144483835 M1.0558210595613613 358.23968426441104 C-0.8559450643354484 243.5188784084147, -1.7061205128946235 129.92895864093109, -1.2261789422996778 -0.9324777426912687 M-0.38528600269118557 357.6314545816704 C-2.74378833192816 226.52234895013072, -1.6555836007483355 97.55227337444117, 0.0023965291746714306 -0.4470143661076471" stroke="#000000" stroke-width="1" fill="none"></path></g><g transform="translate(41.60064752252248 72.10726351351354) rotate(0 71.44174056869366 55.347638654279194)"><path d="M0.8546817880123854 0.3445891458541155 C50.368046760875494 -1.7749165469811612, 98.28137320529622 0.6585712855650729, 142.64524470821758 0.08932754583656788 M-0.6828696271404624 -0.7997716972604394 C42.5851042023466 -1.9559903157125, 84.96237769156266 -1.1495423031220917, 143.16846925851692 0.6615950455889106 M143.71785413280864 0.018861981108784676 C141.30888387871838 30.61528561725245, 140.86964634371853 63.77759861191662, 142.53692131296535 109.90599263410766 M141.9755597793757 -0.2718725809827447 C142.28113119981543 35.395688119487275, 142.4441794373776 71.53816241706423, 142.2024669432341 111.4591113370632 M143.65697031275172 111.79126132230957 C114.08831374400705 113.15117936786169, 85.1377582952575 110.36071013864034, 1.5931037645787 111.40709728698928 M143.3411843561827 110.4873517793392 C97.37216461447778 109.35195406459601, 54.404351270783096 108.64589940689834, -0.9673204263672233 111.1709761363243 M1.2649868708103895 108.87651819687088 C-0.9595044447590668 70.54989746374517, 2.170857171852414 33.955792065702454, -0.8126172441989183 -1.8469947259873152 M-0.9562046369537711 109.74124691307296 C0.3340375455998641 78.136085615562, -0.1412599352217454 47.40592336437671, 0.1271497467532754 -0.354574472643435" stroke="#000000" stroke-width="1" fill="none"></path></g><g transform="translate(366.21167652027026 81.5859375) rotate(0 50.638671875 24.06640625)"><path d="M-0.2015626449137926 -1.6304326336830854 C23.80584531869645 0.41573899223734767, 45.64235293745806 -1.4911528901822386, 102.50262874178588 1.731838496401906 M0.40143020544201136 -0.5625531086698174 C39.36305211407343 -0.8120868925992182, 76.80778349688698 -0.5853727285805872, 101.07621716056019 -0.5815988490357995 M100.88763135485351 0.1929738838225603 C100.78365663129247 13.80019633004049, 101.43415794211782 26.86545901368518, 100.6809931974858 49.69529208727181 M101.68353198561817 -0.8876784751191735 C102.16894401017817 10.836574929078779, 102.27557192150744 20.58722508468054, 100.56051410827786 48.0491769304499 M102.16665804199874 48.22300157137215 C64.03089209382051 46.633916581249466, 25.641584199231147 46.7182775979998, -1.918888272717595 49.47700014896691 M101.68768824730068 47.872041701339185 C64.73502411665649 48.6001248087161, 27.58901682347569 49.5123953844779, 0.2748306253924966 48.481930821202695 M0.9374583344906569 48.18407669849694 C-1.3748761481872498 31.913836180394718, -1.1375637716880738 15.381543126281755, 1.510784624144435 -0.9154079239815474 M0.9548230627551675 48.396874754689634 C1.0008548590656574 32.28380869029861, -0.5170079675201122 18.259334201530145, -0.08268265333026648 0.8256410947069526" stroke="#000000" stroke-width="1" fill="none"></path></g><g transform="translate(530.5437077702702 78.8203125) rotate(0 47.431640625 24.62890625)"><path d="M0.09018907137215137 1.5166642051190138 C32.09333325510488 1.4686558128205434, 65.37318222704562 -2.3407046317252025, 96.20746889896691 1.2820032816380262 M-0.26077079866081476 0.3327778438106179 C25.988089020904226 -0.3273982267843166, 53.36915003523245 -0.11443562917575034, 95.2123995712027 0.2904827753081918 M94.91454544849694 -1.4258743543177843 C94.25474952246186 13.066879987320137, 93.56047551418779 30.021668554421925, 93.94787332601845 49.601913986727595 M95.12734350468963 0.5490961233153939 C94.49316474621409 9.18540089203816, 95.73666262452716 20.225652537286805, 95.68892234470695 49.7790950993076 M96.74398490972817 48.7041712384671 C57.69100504000562 48.351032526745804, 21.29229343505358 51.48834642912389, 0.41827538795769215 47.829064605757594 M94.88564270641655 48.66767518315464 C61.56771298199419 47.90223601997295, 28.73910115155377 47.63499498904148, -0.5616905400529504 49.8937536040321 M-1.4900350254029036 47.77710127644241 C0.7840432482433244 37.69742871511335, -1.299226884298332 23.78621127768565, -0.08072677068412304 -0.7619476933032274 M0.5830660155043006 48.43744690809399 C-0.17284675548544326 34.96416548803609, 0.3047304837895354 19.26134705778531, -0.8933514365926385 -0.9671957632526755" stroke="#000000" stroke-width="1" fill="none"></path></g><g transform="translate(675.0515202702702 81.6484375) rotate(0 45.615234375 23.208984375)"><path d="M-0.5536412615329027 -0.8173354547470808 C29.63451966582034 -1.7189936867360303, 64.00608933035619 -0.4396119943265149, 89.8017208557576 0.9103970248252153 M-0.5901373168453574 -0.5184214422479272 C34.74342679098663 -0.5902869084386111, 69.94105130073513 -0.5820910015610934, 91.8664098540321 -0.4869672665372491 M89.74975752644241 0.5885276515036821 C92.10857804565417 10.588212112195833, 90.57601012735354 24.085182415783493, 90.46852105669677 46.440865309908986 M90.41010315809399 0.13251310493797064 C91.88176361946604 17.413031501656587, 91.01268066195986 32.712530878294636, 90.26327298674732 46.91128078009933 M90.2511066775769 47.63137081451714 C57.925513330179456 44.32219441642792, 25.20459336840213 46.51677920331986, -0.35160386748611927 46.1476813275367 M90.38566349539906 46.82352390792221 C60.05431399011104 46.175918669451676, 27.752369125020778 46.37937557791611, -0.9513054927811027 45.95052671339363 M-1.2925747651606798 44.541479678824544 C-0.10791170679924106 33.10526853052615, -1.1397281297385415 15.879844201685774, -1.1770254988223314 -0.19785365276038647 M-0.6781962951645255 47.20460486318916 C-0.4830760654060214 28.47997905892953, -0.5459246631709902 11.525982183808082, -0.3848390122875571 -0.5639621326699853" stroke="#000000" stroke-width="1" fill="none"></path></g><g transform="translate(594.7618243243242 248.04824746621603) rotate(0 50.607421875 13.1328125)"><path d="M37.26947230581621 0.19053781720466745 C46.304244575125004 -0.6867398022988581, 59.53494824951131 0.25042884072869276, 69.05974895059003 1.2765607027145265 C78.58454965166875 2.30269256470036, 89.16054135460394 4.103932725021799, 94.41827651228854 6.34732898911967 C99.67601166997315 8.59072525321754, 101.93704331960313 12.180867672153978, 100.60615989669768 14.736938287301745 C99.27527647379222 17.29300890244951, 93.39711648579616 19.85588538011555, 86.43297597485576 21.683752680006272 C79.46883546391537 23.511619979896995, 68.72220732612877 25.173793059269, 58.821316831055285 25.70414208664608 C48.92042633598181 26.23449111402316, 35.926160398938194 25.906919406232625, 27.0276330044149 24.86584684426876 C18.129105609891603 23.824774282304894, 9.804693026450977 21.802503816564645, 5.430152463915505 19.45770671486289 C1.0556119013800318 17.112909613161136, -1.3199339449018908 13.662425771799686, 0.7803896292020625 10.797064234058233 C2.8807132033060157 7.93170269631678, 10.926000005345955 3.879248805673762, 18.032093908539224 2.265537488414168 C25.138187811732493 0.6518261711545739, 38.46148204755729 1.3711963030754541, 43.41695304836167 1.1147963305006687 C48.37242404916605 0.8583963579258833, 47.7871172037151 0.7975853599911046, 47.764919913365496 0.727137652965455 M32.65170847056939 -0.2863958206698065 C41.39623156601951 -1.435721201230754, 54.591280567916975 -1.5563656189435444, 64.28035579454898 -0.677482456682208 C73.96943102118098 0.20140070557912837, 84.5247693445516 2.8465377788731754, 90.78615983036141 4.986903152898211 C97.04755031617123 7.127268526923247, 101.75536832681232 9.642533452619867, 101.84869870940784 12.164709787468007 C101.94202909200337 14.686886122316148, 97.4600993014628 17.99413614558956, 91.34614212593455 20.119961161987057 C85.23218495040629 22.245786178384552, 75.03197310834815 23.948880306450388, 65.16495565623833 24.91965988585298 C55.29793820412852 25.89043946525557, 41.53775296084546 26.533829923764372, 32.14403741327567 25.944638638402616 C22.750321865705878 25.35544735304086, 14.05964879032673 23.47596717159753, 8.802662370819583 21.384512173682435 C3.545675951312435 19.293057175767338, -0.07784358264282665 16.13629906550141, 0.6021188962327813 13.395908650912023 C1.282081375108389 10.655518236322637, 7.5305785636263565 6.941913713974235, 12.88243724407323 4.942169686146116 C18.234295924520104 2.9424256583179966, 29.66476224983916 2.1853150515247033, 32.713270978914025 1.3974444839433087 C35.761779707988886 0.6095739163619142, 31.16729574851761 0.22768956129370999, 31.173489618522414 0.2149462806577489" stroke="#000000" stroke-width="1" fill="none"></path></g><g><g transform="translate(596.6817235007579 266.24592434650117) rotate(0 0.8699306707922005 35.4541097592562)"><path d="M-0.24806957356631754 -0.9663856197148561 C0.1341604358237229 11.20196429602801, 1.674701531371098 59.635454059764704, 1.987930915150787 71.8746051382273 M1.8225551709719001 1.1406579845957459 C2.1084688815195105 13.034946477394545, 1.4054721415881029 58.363579844813756, 1.2497545922175004 69.94532082555811" stroke="#000000" stroke-width="1" fill="none"></path></g></g><g><g transform="translate(696.052038644289 259.0057990433072) rotate(0 1.1122810486796766 39.996675992012)"><path d="M1.191397137567401 1.1312275160104035 C1.6558563926474488 13.994939921771472, 1.6952926842650946 65.02821434425803, 1.8668201919086187 78.18354624159625 M0.35774190545082085 0.6795180165767669 C0.8044739309356843 14.202130633195225, 1.0039672260514074 66.3770209113756, 1.2775730308331459 79.31383396744718" stroke="#000000" stroke-width="1" fill="none"></path></g></g><g transform="translate(597.4988914695946 324.67356418918894) rotate(0 50.607421875 13.1328125)"><path d="M26.878667043965418 2.197317373261498 C35.31321247214942 1.0057390381090159, 48.97990658428421 0.5821360651820265, 59.0116970358997 0.7230906957281196 C69.0434874875152 0.8640453262742126, 80.221578001755 1.1419240222081892, 87.06940975365836 3.0430451565380565 C93.91724150556172 4.944166290867924, 98.86175414770385 9.39510876292904, 100.09868754731988 12.129817501707324 C101.33562094693592 14.864526240485608, 99.55046248023304 17.43314913359264, 94.49101015135457 19.451297589207762 C89.43155782247611 21.469446044822885, 79.1786895110109 23.170117782065574, 69.74197357404911 24.238708235398057 C60.30525763708732 25.30729868873054, 47.67364485537637 26.440374909463838, 37.87071452958382 25.862840309202653 C28.067784203791277 25.28530570894147, 17.20719223756901 22.811607078115067, 10.924391619293836 20.773500633830945 C4.641591001018661 18.735394189546824, 0.47175169818806734 16.328087991290396, 0.1739108199327717 13.634201643497919 C-0.12393005832252396 10.940315295705442, 4.283936904535901 6.579037458129818, 9.137346349762062 4.6101825470760875 C13.990755794988223 2.641327636022357, 25.613453546823358 2.419205680712353, 29.294367491289737 1.8210721771755374 C32.975281435756116 1.2229386736387218, 31.001363085574006 0.8434294809347588, 31.222830016560327 1.021381525855194 M65.74826766479029 -0.5527092192180607 C75.2256402876959 0.10815356561916956, 87.89266572197621 4.025789603520895, 94.00300466033437 6.387209177625657 C100.11334359869252 8.748628751730418, 103.15152992920511 11.016031165223353, 102.4103012949392 13.61580822541051 C101.6690726606733 16.215585285597665, 96.3784412809555 19.737284300248135, 89.55563285473889 21.985871538748594 C82.73282442852228 24.234458777249053, 71.44470968847247 26.717592387152152, 61.473450737639574 27.10733165641326 C51.50219178680668 27.497070925674365, 39.06854857125954 25.404494050558366, 29.728079149741482 24.324307154315225 C20.387609728223424 23.244120258072083, 10.38075568857704 22.812582388109693, 5.43063420853121 20.626210278954407 C0.48051272848537874 18.43983816979912, -1.3991939336136408 13.85631471203042, 0.027350269466495547 11.206074499383515 C1.4538944725466318 8.55583428673661, 6.499416145882372 6.8155289370916705, 13.989899427012027 4.724769003072982 C21.480382708141683 2.6340090690542937, 35.99602464146092 -0.5902076832276061, 44.97024995624442 -1.3384851047286155 C53.944475271027926 -2.086762526229625, 64.37972021406038 -0.11037331627773828, 67.83525131571307 0.23510447406692592 C71.29078241736575 0.5805822644115901, 66.07144034060623 0.20370056058975639, 65.70343656616053 0.7343816373393697" stroke="#000000" stroke-width="1" fill="none"></path></g><g transform="translate(598.8462837837837 322.3946368243244) rotate(0 48.93581081081078 8.407939189189165)"><path d="M0 0 L97.87162162162156 0 L97.87162162162156 16.81587837837833 L0 16.81587837837833" stroke="none" stroke-width="0" fill="#fff"></path><path d="M0 0 C28.701296887690862 0, 57.402593775381725 0, 97.87162162162156 0 M0 0 C36.05118616060918 0, 72.10237232121835 0, 97.87162162162156 0 M97.87162162162156 0 C97.87162162162156 3.6977702884587065, 97.87162162162156 7.395540576917413, 97.87162162162156 16.81587837837833 M97.87162162162156 0 C97.87162162162156 6.239914103204247, 97.87162162162156 12.479828206408493, 97.87162162162156 16.81587837837833 M97.87162162162156 16.81587837837833 C77.8021785260423 16.81587837837833, 57.73273543046305 16.81587837837833, 0 16.81587837837833 M97.87162162162156 16.81587837837833 C73.03964279718201 16.81587837837833, 48.20766397274246 16.81587837837833, 0 16.81587837837833 M0 16.81587837837833 C0 11.055145310446417, 0 5.294412242514506, 0 0 M0 16.81587837837833 C0 11.86071702604402, 0 6.90555567370971, 0 0" stroke="#fff" stroke-width="1" fill="none"></path></g><g><g transform="translate(665.2213527848257 237.5499990082876) rotate(0 20.21259095373449 -53.85174926915715)"><path d="M-1.0015315186232328 0.6720645379275083 C5.912719460585704 -16.937564838368914, 34.29966375608738 -88.82406376073371, 41.42671342609221 -106.82808972821665 M0.6735257047601046 -0.020705524999648395 C7.472289385599636 -17.837714490972928, 33.91612949087094 -90.14658002350714, 40.70300586931179 -108.37556307624189" stroke="#000000" stroke-width="1" fill="none"></path></g><g transform="translate(665.2213527848257 237.5499990082876) rotate(0 20.21259095373449 -53.85174926915715)"><path d="M41.69545816911295 -77.66365084398299 C42.73131620581901 -85.95876902343898, 41.895651456454544 -95.60883636926296, 39.459880641100504 -107.27345406311659 M40.42433398218736 -78.09927792913973 C40.53659545004947 -87.30065768207888, 41.8500582318655 -97.08440434940842, 41.01509549040119 -107.49746346986947" stroke="#000000" stroke-width="1" fill="none"></path></g><g transform="translate(665.2213527848257 237.5499990082876) rotate(0 20.21259095373449 -53.85174926915715)"><path d="M22.441870117229428 -84.76430922995027 C29.09022413512365 -90.80332635770895, 33.93630533493131 -98.35798494584022, 39.459880641100504 -107.27345406311659 M21.170745930303838 -85.19993631510701 C26.90698102000102 -92.34412485740664, 33.904269125642195 -100.03169590067924, 41.01509549040119 -107.49746346986947" stroke="#000000" stroke-width="1" fill="none"></path></g></g><g><g transform="translate(579.0036951013512 130.6695523648649) rotate(0 17.220671387221444 57.861968473091565)"><path d="M-0.2721049915999174 0.41995048038661476 C5.697189080535058 19.43184299339473, 29.081110862486973 95.5911255369395, 34.71344776604285 114.54353356813608 M1.7859011584706606 -0.4051794627495111 C7.783720040085349 18.77779144550606, 29.158408748445083 96.84737862064168, 34.30596264211422 116.12911640893265" stroke="#000000" stroke-width="1" fill="none"></path></g><g transform="translate(579.0036951013512 130.6695523648649) rotate(0 17.220671387221444 57.861968473091565)"><path d="M17.715444939874992 93.32904646256866 C20.863711283079645 96.48516273119408, 23.780655761074062 102.00331542868695, 35.50604300891941 117.20850246253951 M17.59017176899402 92.2678148671046 C20.607062603141678 98.4105717889718, 25.757247386624144 104.25436415078916, 34.67745723241901 116.54448501154377" stroke="#000000" stroke-width="1" fill="none"></path></g><g transform="translate(579.0036951013512 130.6695523648649) rotate(0 17.220671387221444 57.861968473091565)"><path d="M37.51930583351276 87.95065487294971 C36.56675407624113 92.1813249826402, 35.3617174469269 98.81893759954906, 35.50604300891941 117.20850246253951 M37.39403266263179 86.88942327748566 C35.369729325982334 94.46818239199487, 35.52518863416093 101.66845719090409, 34.67745723241901 116.54448501154377" stroke="#000000" stroke-width="1" fill="none"></path></g></g><g><g transform="translate(469.5547930743243 109.85663006756761) rotate(0 29.976662957174938 -0.48932860524018906)"><path d="M-0.6687175322324037 0.33600160963833337 C9.37418305335885 0.3774293833588483, 50.54746523342757 0.2305862737769492, 60.6220434465823 0.18277416407461256 M1.181067034006119 -0.5332014906406404 C11.028238986193594 -0.7886367506916403, 49.4701148518893 -1.1196809601461282, 59.63918988024865 -1.3217263276190032" stroke="#000000" stroke-width="1" fill="none"></path></g><g transform="translate(469.5547930743243 109.85663006756761) rotate(0 29.976662957174938 -0.48932860524018906)"><path d="M32.15316287050595 9.217664645291778 C42.82717381699704 4.449886525236172, 51.87046590273475 0.9512042359730115, 57.98415253488396 0.37057557343835934 M32.44964890828928 8.895194484159264 C41.63412362544173 6.777315510434249, 51.73253829971833 2.13841910990993, 60.573898401950046 -2.0066752795562612" stroke="#000000" stroke-width="1" fill="none"></path></g><g transform="translate(469.5547930743243 109.85663006756761) rotate(0 29.976662957174938 -0.48932860524018906)"><path d="M31.869068173730522 -11.301577362860074 C42.62569012032574 -9.288488468617484, 51.76284330436339 -6.007886902787012, 57.98415253488396 0.37057557343835934 M32.16555421151385 -11.624047523992589 C41.311217157932276 -6.44995702187502, 51.510557409897814 -3.7993250471158806, 60.573898401950046 -2.0066752795562612" stroke="#000000" stroke-width="1" fill="none"></path></g></g><g transform="translate(67.8115146396396 252.1538569819818) rotate(0 39.47423986486487 20.07143862612611)"><path d="M-1.7393234986811876 1.1153951603919268 L80.18826700842664 1.7717299778014421 L78.12623818314358 41.721181991921185 L-1.6519114393740892 40.725787225590466" stroke="none" stroke-width="0" fill="#fff"></path><path d="M-0.625644413754344 -0.4814963359385729 C23.399981522753706 -0.6507020652102624, 43.93101097793851 -0.08661318419448483, 80.59463899305746 1.7538000922650099 M0.7441152622923255 -0.8121738871559501 C29.887300564652246 -0.2986026376293503, 59.857419727790976 0.7199601263000168, 79.18306215296224 -0.4718481441959739 M77.4249607818453 -1.7831333298236132 C77.10014134994705 9.99030565956392, 79.14688945165832 18.27540045644657, 79.55049561432287 40.051642447189806 M79.32044108400777 0.9465323546901345 C79.02630020684393 11.280695878000392, 78.61130790418775 23.239600955570904, 78.08135406861737 41.120089697131334 M78.9156532185404 39.574355631546496 C63.878522263087476 39.03309222194671, 45.78295205287381 40.293733379573816, -0.8305990975350142 38.29384013958406 M78.16432778726056 40.344462322482286 C51.51810972035487 39.74719112154167, 23.43289533844674 39.360806604587246, -0.39601212833076715 40.241430597790895 M-0.14593770913779736 39.583719461636065 C0.9685964819698645 31.26870406845545, -1.3051700952739405 21.175671631207454, 1.6860218364745378 1.9600684624165297 M0.38475364353507757 40.58600433398169 C0.20465148097007857 31.34046906822492, 0.4299275041195689 22.677988345009652, -0.7362627694383264 -0.1401435574516654" stroke="#000000" stroke-width="1" fill="none"></path></g><g transform="translate(73.19932432432432 261.67490146396403) rotate(0 39.47423986486487 20.07143862612611)"><path d="M-0.05762550048530102 -1.6405339259654284 L80.73533945253774 1.505679665133357 L79.6115953820078 41.39852836676073 L-0.46505155973136425 39.6390374595685" stroke="none" stroke-width="0" fill="#fff"></path><path d="M-0.0861389059573412 1.988870533183217 C31.109494245028667 1.4922827040264148, 61.05469824257229 0.9240005170413989, 79.77375610268399 0.9157988745719194 M0.5576975801959634 0.6198936393484473 C18.757726274944005 0.27546395660229384, 36.53287494192105 -0.13937098979167284, 79.23993471639886 0.8236615052446723 M80.65740068352505 -0.6766393464058638 C81.02256993751878 15.489278177845767, 78.45131335955018 30.277725685617906, 79.89291073477551 40.771921816693066 M79.04385140913263 -0.313663543201983 C78.40108523909358 13.225974535086376, 79.76637346689013 26.32158089798167, 78.97122854369417 40.250876129084645 M77.83961989081189 38.36959284864497 C63.25954841070131 40.03446610072245, 45.52218742558585 39.55082060196985, -0.5231930036097765 41.09340000473094 M78.97395962851778 40.083071649485646 C59.58334372174019 41.39299974210765, 42.722254525472856 40.717615250425595, -0.7332534631714225 39.26495650451761 M-0.509024741128087 41.00959825836253 C1.6226514964673533 29.181806908448756, 0.49990032011008395 17.26817151861799, -0.5334672350436449 1.0030972082167864 M0.7590634981170297 40.89699485939127 C-0.2223187524873249 26.75261720945407, 0.1589206319254406 14.501793293342551, 0.5057784775272012 0.4328887155279517" stroke="#000000" stroke-width="1" fill="none"></path></g><g transform="translate(77.01055743243234 271.72205799549556) rotate(0 39.47423986486487 20.07143862612611)"><path d="M1.5334942061454058 -0.7011751551181078 L80.52256702354833 -1.2322400826960802 L77.48744790724203 38.675773947910784 L1.456396134570241 41.840689092354296" stroke="none" stroke-width="0" fill="#fff"></path><path d="M-0.2570801991969347 -1.5182954352349043 C22.161552994445557 -1.2851511732621255, 47.82493525730192 1.5561144455389915, 77.90508569872662 -1.6732705514878035 M-0.5110356649383903 -0.20258224103599787 C28.984151550842775 -0.9534343065250731, 59.83958447127482 -1.1025383950699186, 79.72158885377183 0.7505266359075904 M80.06752361452862 1.3673631269484758 C78.74030244370941 14.852807377103948, 80.5572580697203 27.85525182562368, 79.68446715271756 38.991772297249554 M79.63378954308763 0.5900005986914039 C78.63967048679476 9.255762859903436, 79.32643183623438 19.974105954550527, 78.37031260507837 39.43760320585352 M80.13409073746487 38.77183163486552 C55.75907869195618 39.925309452503065, 37.803986614098854 41.0510408610991, 1.9291395526379347 41.63822263799739 M79.31067338960901 39.59303328435999 C48.57283714386231 40.84929985905094, 17.07738771604774 40.870005111936756, -0.692893042229116 39.50283581059557 M0.27971833758056164 38.42675060354304 C0.45175103982749953 26.27776805983115, -0.13691390911277757 12.542880441046016, -1.5506685990840197 -0.3239463847130537 M-0.11328817810863256 39.609231770449696 C0.0918569565365035 30.15515672071772, -0.7617659866264146 21.319763578639556, -0.9139336189255118 -0.4897191533818841" stroke="#000000" stroke-width="1" fill="none"></path></g><g transform="translate(80.92384572072064 284.81327421171136) rotate(0 39.47423986486487 20.07143862612611)"><path d="M-0.33729362674057484 -1.5006563942879438 L80.76367105639264 1.100529344752431 L78.60048027432248 41.86116528831553 L-0.5182111877948046 41.57063120924067" stroke="none" stroke-width="0" fill="#fff"></path><path d="M-0.20207270793616772 1.7483152132481337 C29.288311950154874 2.6171743192549126, 58.224651884735174 2.505150071608581, 80.92136697939321 1.2404285054653883 M0.21677288319915533 -0.1561550935730338 C26.781485936525392 -1.073287244844274, 52.44797415922419 0.17917558927552268, 79.94190408478215 -0.41295726504176855 M79.37250785997793 0.26187521032989025 C79.58230625681979 11.053629521126673, 78.28008203797442 23.992659756606074, 80.47846948078558 38.27815046854448 M78.56306292305425 -0.45467503275722265 C79.1157528551129 10.674158213955543, 78.24453992562567 23.942930768834813, 78.59789215217069 40.929920899161516 M80.40487586429998 41.840689092354296 C59.20344343769162 40.99037826062183, 42.11068601413501 38.57026761771183, -0.3578979056328535 40.053074448780535 M79.38974343429044 40.383160101660906 C51.5012168188338 39.72055962453138, 22.772753946968464 39.17781638870489, -0.6530889282003045 40.887224095353304 M-0.2028080504387617 38.39547452278566 C-0.6971213305515523 25.52431961966052, -0.2175653064769979 12.659205289655496, -0.3335369508713484 -0.1621555108577013 M0.3272770633921027 40.13400425244254 C-0.3789260809709695 27.74658298389471, 0.07530997940996614 12.945695261794643, 0.16071888711303473 0.06139983329921961" stroke="#000000" stroke-width="1" fill="none"></path></g><g transform="translate(87.08586711711695 297.24992961711723) rotate(0 39.47423986486487 20.07143862612611)"><path d="M0.7696988563984632 -1.8665027897804976 L76.99231423533246 1.935419948771596 L79.60482688343808 38.67633390747142 L0.48620408587157726 41.700306359158276" stroke="none" stroke-width="0" fill="#fff"></path><path d="M0.4805656988173723 1.3868476133793592 C23.64685217265671 -0.13707568152981486, 45.68707243861031 -1.6545488427503654, 80.43717341593191 0.7329266648739576 M-0.8737013647332788 -0.43857704009860754 C19.591560416473822 -0.11874209176587736, 40.05984248424098 -0.08671153914022123, 78.86740197430089 0.29566769395023584 M78.93073373011038 -0.6171476263552904 C80.50231104452781 13.03771034801549, 77.36005234081917 25.81420948144389, 79.07127939632818 39.805583625511645 M78.77448000202611 0.8591440180316567 C79.05370914891024 9.744706882484476, 78.8684436376359 17.8240420629163, 78.90230773578122 39.37455736328047 M79.04596458843633 41.83449187822771 C51.79371332541082 37.83582585680956, 23.531240581062065 37.969738956575334, -1.1292466204613447 38.27926096268129 M79.3677735198541 39.87342034507674 C48.86967933070068 40.35705681447664, 21.581331502326066 40.07898871903101, 0.25668477918952703 40.573853509911714 M-0.9825185816735029 40.98842129059267 C-0.4603504297251882 29.122790520732472, 1.915010953236085 19.534440558367397, -1.3711439054459333 1.5125402193516493 M-0.17038941476494074 39.27543713379782 C0.15950825201660895 27.73300049395482, -0.34557194126456475 17.30749290837207, 0.07025989796966314 -0.4844651063904166" stroke="#000000" stroke-width="1" fill="none"></path></g><g transform="translate(97.90558136261257 304.3268581081081) rotate(0 31.5 12.5)"><text x="31.5" y="18" font-family="Virgil, Segoe UI Emoji" font-size="20px" fill="#000000" text-anchor="middle" style="white-space: pre;" direction="ltr">Sensor</text></g><g><g transform="translate(93.953409926581 254.67517789262922) rotate(0 1.1245046578237066 -34.39124965906433)"><path d="M-0.37206630818545816 -0.8127624202519654 C0.18087298472353464 -12.563299529910445, 1.9488557065342187 -58.601915484966625, 2.62107562383286 -70.15743268190538 M1.6334601506777107 1.374933363776654 C2.084533217986461 -10.190179695193082, 1.3476957556855498 -56.86390290105894, 1.644266469326087 -68.55212987833312" stroke="#000000" stroke-width="1" fill="none"></path></g><g transform="translate(93.953409926581 254.67517789262922) rotate(0 1.1245046578237066 -34.39124965906433)"><path d="M10.475563301378106 -40.4255867164255 C9.499826974982795 -45.550943468556646, 7.054592887620762 -53.78748143741615, 1.578882113021084 -68.72039307714095 M11.589643697858964 -40.65076818891325 C8.192923629799676 -51.087489433385684, 3.8782940743634224 -62.990778645399445, 2.116230142224797 -68.39367538471362" stroke="#000000" stroke-width="1" fill="none"></path></g><g transform="translate(93.953409926581 254.67517789262922) rotate(0 1.1245046578237066 -34.39124965906433)"><path d="M-10.045573316458867 -40.47994016994943 C-6.055995838889594 -45.52851906058444, -3.5360727462819757 -53.751906030790884, 1.578882113021084 -68.72039307714095 M-8.931492919978009 -40.70512164243718 C-4.3583835843470995 -50.95067544276314, -0.7034959908486726 -62.832856136860485, 2.116230142224797 -68.39367538471362" stroke="#000000" stroke-width="1" fill="none"></path></g></g><g><g transform="translate(169.1735098071518 147.61821217931833) rotate(0 93.35920725882491 -19.030240031418884)"><path d="M0.26865593902766705 1.0908328045159579 C31.67825730268058 -5.438505349088921, 156.4389030503182 -32.29467330688841, 187.7678529399721 -39.15131286735364 M-1.0494384223222732 0.6179160815477371 C30.226647080296246 -5.735550063256634, 155.17803184208256 -31.108766048571532, 186.60471854099015 -37.771886124039966" stroke="#000000" stroke-width="1" fill="none"></path></g><g transform="translate(169.1735098071518 147.61821217931833) rotate(0 93.35920725882491 -19.030240031418884)"><path d="M162.89527140774769 -22.695690041190165 C166.76332818932258 -25.783887089065633, 171.45811523122958 -30.398457882844696, 184.78984454573074 -39.554511290739256 M160.95707947512162 -21.158469834147173 C167.8443594903445 -26.97920423997056, 173.5694058402756 -29.075609403920275, 187.52317973059544 -38.73180268681325" stroke="#000000" stroke-width="1" fill="none"></path></g><g transform="translate(169.1735098071518 147.61821217931833) rotate(0 93.35920725882491 -19.030240031418884)"><path d="M158.73787073347881 -42.79136176470884 C163.61832102261423 -41.01525612468843, 169.3213625244732 -40.75621664405445, 184.78984454573074 -39.554511290739256 M156.79967880085275 -41.25414155766585 C164.88782139562053 -42.17294664862076, 171.63155111337372 -39.34533121559964, 187.52317973059544 -38.73180268681325" stroke="#000000" stroke-width="1" fill="none"></path></g></g><g transform="translate(327.9838823198199 21.201506193693717) rotate(0 78.5 12.5)"><text x="78.5" y="18" font-family="Virgil, Segoe UI Emoji" font-size="20px" fill="#000000" text-anchor="middle" style="white-space: pre;" direction="ltr">Andrew's Server</text></g><g transform="translate(10 11.490005630630549) rotate(0 109.04244087837836 177.15723536036046)"><path d="M1.1775257511480572 -1.3130884841656667 C42.33003964203355 0.5679015097955471, 87.25989760275738 -1.152158431960804, 219.54889626662626 0.9662107407154045 M0.14646616149397976 0.08887352994991961 C61.27149213423321 1.9027971211411847, 122.82601713482431 1.6503161980003713, 218.94493609440497 0.4310087946759022 M217.771453263623 1.1257583127700235 C217.2371388580217 130.8440358521105, 216.7274193220094 263.03144028126695, 217.85355591021045 354.057117687529 M217.56880840724588 -0.4677705416880782 C220.50720425710088 123.30982297236984, 220.51176857166203 247.4134374992397, 218.55356960359154 354.38611543027383 M218.66913978044806 353.66175102138214 C143.81596829144257 354.1401762348558, 67.06129269610665 353.0694262405089, -0.7658089357646112 355.73139366028545 M218.8515525539038 354.48827309630934 C154.33343701348988 352.9406561566151, 91.60196572396511 353.5059951894394, 0.65621750750466 354.8561587754609 M-0.8452120467611375 355.08511102058634 C-2.3109503477925424 218.71861964227386, -0.9434339076686933 82.32262523712026, -0.5672652062920094 -0.7703002864651716 M0.29200167529450777 353.7426392166418 C0.5341068132147475 265.2102183366631, 0.14271758188336842 176.9481495128039, -0.0655114471798813 0.0891229772449139" stroke="#000000" stroke-width="1" fill="none"></path></g><g transform="translate(35.14428490990991 21.13795045045049) rotate(0 27 12.5)"><text x="27" y="18" font-family="Virgil, Segoe UI Emoji" font-size="20px" fill="#000000" text-anchor="middle" style="white-space: pre;" direction="ltr">House</text></g><g transform="translate(242.34448902027026 83.99609375) rotate(0 33.5 12.5)"><text x="33.5" y="18" font-family="Virgil, Segoe UI Emoji" font-size="20px" fill="#000000" text-anchor="middle" style="white-space: pre;" direction="ltr">MQTT</text></g><g transform="translate(112.58150337837836 210.815209740991) rotate(0 47.500000000000014 12.5)"><text x="47.5" y="18" font-family="Virgil, Segoe UI Emoji" font-size="20px" fill="#000000" text-anchor="middle" style="white-space: pre;" direction="ltr">Bluetooth</text></g><g transform="translate(62.90308277027026 126.56640625) rotate(0 50.99609375 22.06640625)"><path d="M0 0 C0 0, 0 0, 0 0 M0 0 C0 0, 0 0, 0 0 M-0.760752782938058 5.682553084244125 C1.148319309747254 5.0070121193666095, 2.8365354108073495 2.2046866758809376, 4.992497834148353 1.0023066144285018 M0.1182133712200572 6.2577804506319685 C1.2984460288509567 4.9874549542145505, 2.081726514339138 3.072285686596631, 5.157627556803173 -0.02085111477996765 M-1.1006117514241829 12.550325596749364 C4.6902736367183815 7.86966949832283, 8.558178371430394 4.0635034289847916, 9.492101640951764 -0.6630787198350071 M-0.6498391530383719 11.794422278225005 C3.6198515657645016 8.810864813244548, 6.97246601104883 5.619470561903918, 11.060443685901296 -0.8242269609973072 M-1.3762914641341428 17.195051661600047 C4.023108229762581 10.075271584116248, 12.51187543531448 4.968737018002722, 15.57731448067673 -0.4147379168379137 M0.14551361738236146 18.24814154477852 C3.714702251115405 13.722817047797852, 6.540349571538749 10.408652025429276, 16.462424296423276 0.7211779846739939 M0.46539731344201307 23.15407434636271 C8.879729229873286 14.60512617960729, 15.452500693098283 8.779996253784976, 23.025728969180847 0.7602931237011674 M1.0872691760025237 23.53075200477159 C5.1379609773279515 19.90924454511387, 9.863664586313163 13.986778324590842, 22.14094478105929 -0.6572516919881579 M0.8451570058753148 29.714326081562987 C8.426337788831601 22.474760067145567, 16.470253575348234 12.700686657542537, 27.571052263167115 0.20037157405286443 M0.48091782355209745 29.52475615753626 C6.740502562233533 22.521279688686572, 15.268438796545826 14.051533810844308, 26.99779878431222 0.6816937694337906 M0.18686890778127108 36.66968127135311 C6.547457810585779 26.879743444350915, 14.451660202653994 16.826094463299068, 31.832287186241544 1.0305997581466322 M0.3700918312090913 37.02341805566226 C8.150205638707963 26.14685773263242, 16.731524869368563 17.411674925301387, 30.900646356350578 -0.20389990869320584 M0.8909768137753957 42.4624518198853 C14.746178079549049 26.65419001022793, 27.520546033511412 10.238474289032297, 36.03076294604813 1.7933558208030185 M0.24764222015151915 42.05828300173931 C9.576391952171614 31.65916361999212, 21.708802776159644 19.47079351945128, 37.417130181380855 1.1261725668889007 M4.240546047463695 47.178677551089024 C14.783667144564467 33.52475918846174, 28.046811851658898 18.046580454823857, 43.488607366192866 -1.839382914048528 M1.5866977905478876 45.26946796813438 C12.91067901341636 32.61128630333853, 25.714753030049714 20.424581804256565, 42.93834780957155 0.5815594185470587 M9.339145403461682 45.807545369116504 C22.98416570752879 30.01190363989866, 39.17788333947308 11.808721757781832, 47.63027465431976 0.7216366984125422 M8.403547063576209 45.54008075743719 C18.283881229106225 32.82054900835692, 30.156144471676882 18.774913953883335, 47.305379425129175 -0.29597156046068207 M11.392670060422834 46.255517999011055 C27.99452547821442 27.742313858081193, 43.00083774529378 12.900502127990514, 53.481017634034814 0.6952669821156867 M13.16446119445246 46.38534874312855 C23.2336579374467 34.51688103260215, 32.50166354341469 25.227780786318394, 52.932760078222216 -0.2452096477673642 M17.239636725991133 45.32278608559322 C35.08070354145474 27.793071077115805, 48.013719848869954 8.394970040103992, 56.66841551298202 -0.282363918118552 M17.940989117383126 46.30407096846652 C32.79671297187152 30.821179445247793, 46.378722024893534 15.061192666730623, 57.43500745305718 -0.1228245501149452 M23.56936072377259 46.18913945279245 C36.410514122261 32.1840618382968, 48.15830684287105 17.301083459172645, 64.92084611476739 -0.4455286783607235 M24.253134632536714 46.63948940581803 C36.21242687746664 30.775698129906914, 49.685955063140305 16.346642859251826, 64.75009409980257 -0.8160430451364746 M27.923483761411205 44.20164374542931 C37.50912519985362 36.269558582352296, 48.7871203983656 23.90838585165557, 69.06901364703491 -0.11122415379028183 M29.695884174119726 45.741965598441155 C39.4888224118545 35.652190386399404, 49.6751122978047 22.851956558952903, 69.76597520266488 0.9200276604260935 M34.194446162512975 44.586963787433234 C47.716372944351264 31.089771274872838, 60.6126557845367 15.128937623204635, 72.54442093339058 0.0331519795222448 M35.06267904230066 45.05630401870283 C46.79319704768499 32.81884651959675, 58.838015219571275 18.540219304486588, 73.4440608118126 0.549723288939731 M39.6270146347219 44.23904022362478 C51.25669205940694 33.799712392146354, 58.26922689434441 25.916560916854987, 78.38089718147842 0.717477866397374 M38.971943171286014 45.28442870986111 C47.91139308560223 36.50259466905615, 56.854311831678864 27.378982388955173, 79.44574361145226 -0.08050086633754461 M44.316754501643985 45.43141287793338 C51.88630007262704 37.16148553221272, 60.48342644744473 26.08985300669255, 86.7130702149044 -2.198769169235419 M44.99055536124429 46.47270664428294 C55.66195107884069 31.211689140926836, 68.52547585254297 18.15010074330784, 85.25587115175233 -0.654746583038758 M50.21155747092322 45.60489739517961 C58.07956978374446 32.39591305222064, 70.74065266033645 21.796564383719854, 89.77789424131254 0.0611640174443977 M50.26037704638198 46.17462436522637 C58.422873797267584 34.91881381226397, 68.7782947672982 24.30211155804161, 90.80927361691931 -0.22499606790587734 M53.954054837175114 47.83461817951568 C62.866405981250026 37.296688767761, 72.77515630706947 26.82436126048628, 97.41312208430887 -1.0963702496337078 M55.965665497877104 46.29282092528113 C65.82544608147242 33.84342200548613, 75.04683028094048 22.72327540617426, 95.61423605712176 -1.1237885985719345 M61.16344039501517 46.84413713509383 C69.72204566321463 35.70494888890783, 79.22246023784045 21.092945659139094, 100.05883295153731 -1.8477438256491965 M61.23989673690765 45.46821662703695 C70.19289877229352 34.798789199626256, 80.36985315232712 24.495904414453616, 101.37902615656608 -0.8015438817788905 M64.71729335208738 47.019582406734585 C77.28628677753836 33.292455889009474, 88.94893358663111 20.14101165257581, 104.28772757963242 2.0243993539956975 M65.07258844768012 45.469141763751864 C75.2919727282885 35.81329160538438, 85.96868721964941 23.80790424116129, 105.16718937844934 2.5248900455085206 M69.59399153199774 44.87668131836742 C82.55682103144176 33.62193889156383, 91.80123779826873 20.795008638884564, 102.4308921182571 9.899981594567073 M70.776713180363 46.03336955779284 C83.57809279705275 32.018975648210755, 96.17059952174128 15.715197606411046, 104.64831284899694 9.016075136993898 M75.87423914239027 46.848437014812866 C87.77873797837432 33.55163723961073, 99.1477337062941 20.37265108370103, 106.01262453596999 13.50555731888052 M76.61522611916281 47.03079280241791 C86.49682760924215 34.256715240937304, 98.28031963953802 20.44441873616424, 105.15785176333 14.76904921393033 M80.23953900687096 46.997451820000386 C89.53943587337318 37.288593468981254, 94.30364407102248 31.01035287067637, 104.87925404041502 19.758504671756576 M80.92453731424806 46.550747219994044 C87.31218505716924 41.34076566503927, 91.8075623698968 34.491577560823885, 104.45094880565497 21.036517569575857 M86.97372033308378 44.803603878750515 C90.61922685317764 40.462602499152204, 95.82867113526049 37.365947840602885, 103.97790845519819 24.70580097712471 M86.7410394498252 47.06468810377927 C93.03252050015907 40.4265241094913, 97.82698281414302 33.340138025194406, 105.10620152614035 26.540628426297445 M93.36811912777432 46.78707884481932 C96.98946417710674 41.28005752261749, 97.74894073951302 39.74615830199573, 102.55599331895313 31.420397578749792 M92.88497134605953 45.56050768985237 C94.64142419420777 43.58691119421878, 96.99100510222088 39.27843559461041, 105.07072662787935 31.711952756542697 M97.35253661653046 45.54303303104995 C98.94515949979211 45.29987292875244, 101.97083695270193 41.9794375313511, 105.0449734535623 39.36061358513784 M97.15024878053013 45.90690145944415 C99.53973058605571 44.000365420561046, 101.46900439634997 41.520183148358925, 104.305494524594 38.97323335582864" stroke="#fab005" stroke-width="0.5" fill="none"></path><path d="M1.1391070857644081 1.8381369337439537 C28.59235064768291 1.154336962439993, 55.35160159485532 0.02759674523113076, 100.69792041927576 0.4337463602423668 M0.9961960427463055 -0.6208205930888653 C37.956103706601425 -1.717614648710878, 75.61402086142334 -0.19237816132226726, 101.12278569862247 -0.8943542949855328 M102.18724498897791 -0.37994954735040665 C101.77470455055969 15.599054609201266, 103.79051718598144 32.883745716436536, 100.29400906711817 43.3616788610816 M102.64754785224795 0.8995633609592915 C102.452485453166 15.46345337004459, 100.97425938753032 28.59477578269434, 102.38828469440341 44.14048354700208 M100.40631947666407 44.69745805114508 C68.45123610096925 43.84326628683048, 34.74014839177835 43.82420734403568, -0.15356530994176865 43.38173630088568 M102.77977658435702 43.845503497868776 C66.61796016538574 43.49515856032813, 32.38437784675625 43.40051437144721, -0.8146802075207233 44.704515267163515 M0.7282153144478798 43.814256213605404 C-0.6589852569243522 28.669121532366262, 1.6038824322083383 11.383873020560713, -1.939480446279049 -0.6606223359704018 M-0.8640757687389851 44.33137970045209 C-0.6243034314698889 31.983009396595293, -0.42759510989853877 22.038253136927956, 0.28427673503756523 0.3222769983112812" stroke="#000000" stroke-width="1" fill="none"></path></g><g transform="translate(73.89917652027026 136.1328125) rotate(0 40 12.5)"><text x="40" y="18" font-family="Virgil, Segoe UI Emoji" font-size="20px" fill="#000000" text-anchor="middle" style="white-space: pre;" direction="ltr">publisher</text></g></svg>
