<svg version="1.1" xmlns="http://www.w3.org/2000/svg" viewBox="0 0 821.1296452702702 462.47445486257743" width="821.1296452702702" height="462.47445486257743">
  <!-- svg-source:excalidraw -->
  
  <defs>
    <style>
      @font-face {
        font-family: "Virgil";
        src: url("https://excalidraw.com/Virgil.woff2");
      }
      @font-face {
        font-family: "Cascadia";
        src: url("https://excalidraw.com/Cascadia.woff2");
      }
    </style>
  </defs>
  <rect x="0" y="0" width="821.1296452702702" height="462.47445486257743" fill="#ffffff"></rect><g transform="translate(515.4864567937077 78.8203125) rotate(0 60.4541015625 24.62890625)"><path d="M0 0 C0 0, 0 0, 0 0 M0 0 C0 0, 0 0, 0 0 M0.2999627232877661 5.880754111011617 C0.31078677331289717 4.855371126152646, 2.831457379000164 2.9135679510228107, 4.303663689228243 -0.11070282423521938 M-0.4146807323815176 6.1265054990100785 C1.5333630640583007 4.508900906191853, 2.441866606730394 2.7321872934393454, 4.781688111233062 0.20617177037869033 M-0.6844129300583495 13.283631746887743 C2.0810565497452105 8.627302304995908, 5.861600866672708 6.7873790334614394, 9.686735644889009 -0.6850746651098369 M0.9241297722886908 11.248416740864098 C2.86871242349796 8.495635038881671, 7.634844800958585 4.3302154357674505, 10.443624509078395 0.697288620759523 M-1.5305729071190814 17.875517335627848 C7.473051456022225 11.484797826868848, 13.900061733734475 5.577855781009742, 17.075087407141407 -1.4178045404213497 M-0.4806441255426268 18.987732812669748 C3.3101912830349685 12.843945626707809, 9.082528741577589 9.55355476046984, 16.544515854216595 -0.6372357740136811 M0.7826220488361333 23.909276555939673 C7.658434210974215 16.962784528413735, 13.513061048216535 7.451747870842805, 20.422126375416184 -1.7405104903340813 M1.2522228725440119 24.010637758947073 C5.286160101519576 18.790553226614172, 7.930995625100467 13.372713850154698, 20.939855595396722 -0.43333280978952615 M1.994340571626033 29.9542284344772 C10.504217571341112 19.596598821882644, 19.097554917537686 7.130008727555879, 25.9531503363069 -1.5435398953023611 M0.69643864040723 30.93010657164102 C6.068644389724081 21.834475579485833, 13.05172532178589 14.249004815669371, 25.87207511221281 0.8743178587418736 M-1.6692289152276238 36.97166680898641 C7.983264558683967 26.496777480733066, 17.70269052671887 15.448047919362207, 32.88048486732582 -1.4191366228029842 M-0.6642095214780888 36.26282249279444 C9.147080227038774 24.396108206912423, 19.673566781595945 14.556860231616206, 30.98785667163024 -0.47477104409940196 M-0.35494486320307317 40.577182392213274 C10.624886085967107 33.010257455415946, 18.113951123888324 21.306550202583036, 37.23167255502318 -1.098909344421653 M-0.36253587513705554 42.15144532695018 C10.073877400042159 30.493506505857596, 19.159209756597935 20.91710090442469, 36.886794862152385 -0.6900219106021801 M0.7616103142499142 48.992291512572095 C13.967306279429677 30.987650147922754, 28.846471176436083 15.17357297098394, 44.410445226911236 0.1959918223648316 M-0.07238333206631609 49.284990181819424 C14.869700172325127 31.76118517526835, 29.623080796351665 13.715623352263663, 42.21361882574462 -0.8112188914463871 M4.005279560605633 52.43013073169498 C17.198477930489652 35.6123327297342, 31.489800858037007 22.3067841011971, 49.26075171954024 1.4800519559707688 M3.451775865661549 52.25327208583115 C18.76847051013336 33.451244720207654, 34.90314506221411 14.106518630709893, 47.25347002591032 -0.014581253920848525 M6.016886712414319 50.85831012799623 C20.803352366950378 35.97937588719282, 34.80579131224142 24.302963770257325, 52.62773011042243 -0.3467853110806338 M8.721645681549901 52.278509271696535 C26.60603050858606 30.961982721797256, 43.53759001065974 10.300611458569435, 53.024124479614855 0.005809976294518293 M14.314208731226206 49.64873665489014 C27.801579732714288 36.07888343677949, 37.9182446569838 21.745461362736982, 57.421735486108076 -0.7739411503750837 M12.607328516602099 50.833896534626746 C26.408301351889307 36.15095735506144, 38.56802888635741 21.99182710837897, 58.87127052536161 -0.2680613430891192 M16.60447570359153 51.265114140791 C26.99052927562328 40.75161605753203, 39.45597122253295 30.274813537647816, 65.17931217410941 -0.030378179389380477 M19.181075209321502 52.299855232332945 C33.36255234928629 34.94552763472953, 47.48177754310366 19.339662756567662, 63.56073105511595 -0.5595731127516856 M22.721106957022563 49.93160496822202 C35.40218412215604 39.02344088385411, 45.75813445413043 27.20520070248655, 68.1272215109767 -1.359423819709228 M24.18527115167351 50.601444964135226 C35.677708070324016 38.45593593529234, 46.963406327812294 25.22211489754279, 68.87374128238126 -0.10353834998200995 M28.687738828069527 53.35800671559749 C43.61174819375583 36.181185569662354, 57.254586936461386 22.276996358021492, 73.74341407422217 0.6310530611885952 M28.62771405716147 51.90229021274475 C46.62269926391624 32.46398609909596, 62.110645406060414 13.204631368719959, 74.69917097412291 -0.0276318304599954 M33.2791968942447 50.38957551544062 C48.087273390806615 35.81171841757243, 60.926187536276515 22.064828923845642, 80.8210574503961 1.693818791718357 M33.87383619275078 52.2231537024816 C47.298112804981514 37.775060146212006, 58.57421815131513 23.987001821027974, 78.62880221884427 -0.6584634464744994 M38.0855237420983 52.73220269616569 C53.385035222864374 34.83894078855244, 69.59062867254278 18.256468959654434, 84.02950846701071 -0.40790174559671755 M39.24198214694479 52.13586304105694 C51.62124040956357 39.8900033468454, 62.56947066483946 27.022560639992328, 85.04955165851072 0.09699515129457836 M44.07295119914261 50.60223814029593 C61.29404352362039 30.01179180449634, 79.81252616636706 11.96676714771126, 89.97834096061626 -0.17524847234234642 M45.0956310617089 52.381884077790865 C56.22673824530409 39.63912178756266, 66.22971054619532 27.149857068707835, 90.73874825662563 -0.5546628044416053 M51.64792810192786 50.451666926245615 C63.69521505926373 37.72127851849729, 77.37106665508895 20.553977455576888, 93.77831800872505 -0.7239027559953115 M50.438674400546475 52.566247545394525 C60.9545651831727 40.42950004744502, 70.83332213885981 29.531173656797126, 95.95635553015441 -0.6747058393629572 M57.218092527966306 50.61793268653797 C66.94112040323935 40.97224451636364, 73.95069239108201 29.527201243220826, 99.10541969788724 -0.0589107681413239 M56.00763818042289 50.776122418188024 C67.47419924928128 37.28966807955063, 80.30463093643067 22.440567066991463, 100.04024931760037 -0.8983375957583135 M61.2562995638082 51.04911424958726 C72.91984707004573 37.910312836658804, 82.81997989015161 24.771730280650907, 106.76181535561514 0.5751398737428204 M61.86696073984152 52.274742553882504 C78.33078329024205 31.837548682657378, 95.7695093701058 13.247222346530016, 106.49844001092893 -0.8161234743075951 M64.86159353696578 52.95374899791672 C77.93576260572556 34.70825154856533, 91.59806620505856 20.769889045566124, 110.73989131845899 -1.5807032519285897 M66.50121497076773 51.119980051798066 C76.44372351783886 41.030929486123775, 84.7524416693591 31.46758902967533, 110.60435032364346 -0.2800639922996382 M69.82323578398932 52.52600950994063 C82.03140117126121 41.311237544426454, 92.40387563441868 29.890868501282256, 118.12716413494053 1.604775567590444 M72.41038608670492 50.858271894645874 C88.33750723047433 31.260528293112774, 105.0745120008645 11.21921868439967, 115.83297849371883 0.9696881548084306 M79.18167688239106 52.595526918182195 C87.72026346405534 39.08739364937425, 97.28898811688371 27.732242480263878, 119.79454444959102 -0.1407014997313567 M77.20209385461845 52.14319330674601 C87.35806601295049 38.1261880166323, 98.59768632372969 25.87760484937367, 122.08041216763941 0.9799164142822079 M81.29258441872122 52.35256755105571 C96.60877748832431 35.44654881962711, 106.16284561507209 23.24688344617927, 121.77248282900813 6.722851650634183 M83.18687036301168 51.42938439580963 C95.79296046323512 37.124220652439334, 108.64174308443332 20.88163502580552, 121.57122422645601 5.768847857446744 M85.73175619150159 51.752565871307155 C97.59467731899765 39.812942895830346, 107.71310186708251 30.185871446601677, 119.6846503416662 12.140993455319176 M87.8143232248595 51.3458330913796 C99.27872166964141 38.78669954651791, 110.18963114369777 26.187289868197944, 120.82340336559609 12.888211575231026 M94.63944312425392 53.4677532166825 C101.69188226533001 44.978929380216016, 106.35942372046851 36.995783939531314, 122.90743506507746 16.98241754684681 M92.54870849063681 51.61625388549877 C101.34719633805241 41.48092721903305, 110.05119502367941 31.537739247554896, 121.33910060202501 17.909551541955118 M96.06467217852841 50.83878654059606 C104.40343496091559 44.52823550917495, 110.95885693413183 36.265436044073454, 119.88244208579216 24.72645275363142 M98.74450356134693 52.97946657337832 C107.02153828916538 43.48070696110606, 113.47915946425502 34.51898260909121, 122.44837927424614 25.080476615330227 M101.87015955683736 50.27928135057103 C109.01640987711176 44.77096996620582, 115.73592520498916 39.682027190490906, 122.02140670233207 29.867596038418952 M103.08257039145528 52.56267919183832 C110.07622863537878 44.759911600351366, 116.36684636046701 35.72582623053288, 121.74537824523436 31.697943474899176 M109.79633847073102 51.000988350021686 C111.55658401952509 48.429678589375044, 117.2118671046613 40.24277094920114, 123.05051733821892 35.86714123895538 M108.16543325696522 51.57541466108992 C111.9834466315724 46.39481607164765, 116.61514283899264 42.627795181743444, 121.96388481546455 37.02863536270481 M114.0947558566728 51.06588160393768 C116.6173758868322 50.821064803361644, 118.15527985900736 46.93271018615983, 120.82507194543055 43.172724238536034 M114.41769914471408 51.76133864450277 C116.21693030443024 49.85135041893238, 117.41066696453503 47.21782603806298, 121.09906499494596 43.79121739695285" stroke="#fab005" stroke-width="0.5" fill="none"></path><path d="M0.09018907137215137 1.5166642051190138 C41.20722726133226 1.3528452065334025, 83.60097023950037 -2.4565152380123436, 122.25239077396688 1.2820032816380262 M-0.26077079866081476 0.3327778438106179 C33.25515347423515 -0.4342721305246413, 67.9032789418943 -0.22130953291607502, 121.25732144620267 0.2904827753081918 M120.95946732349691 -1.4258743543177843 C120.29967139746184 13.066879987320137, 119.60539738918776 30.021668554421925, 119.99279520101842 49.601913986727595 M121.1722653796896 0.5490961233153939 C120.53808662121406 9.18540089203816, 121.78158449952713 20.225652537286805, 121.73384421970692 49.7790950993076 M122.78890678472814 48.7041712384671 C73.75459821475394 48.5412851497912, 27.374557909550262 51.67859905216928, 0.41827538795769215 47.829064605757594 M120.93056458141652 48.66767518315464 C78.6135973251539 47.7281321156287, 36.78594796287324 47.46089108469723, -0.5616905400529504 49.8937536040321 M-1.4900350254029036 47.77710127644241 C0.7840432482433244 37.69742871511335, -1.299226884298332 23.78621127768565, -0.08072677068412304 -0.7619476933032274 M0.5830660155043006 48.43744690809399 C-0.17284675548544326 34.96416548803609, 0.3047304837895354 19.26134705778531, -0.8933514365926385 -0.9671957632526755" stroke="#000000" stroke-width="1" fill="none"></path></g><g transform="translate(78.44700168918911 88.28948479729729) rotate(0 34 12.5)"><text x="34" y="18" font-family="Virgil, Segoe UI Emoji" font-size="20px" fill="#000000" text-anchor="middle" style="white-space: pre;" direction="ltr">Laptop</text></g><g transform="translate(369.12573902027026 93.41015625) rotate(0 47 12.5)"><text x="47" y="18" font-family="Virgil, Segoe UI Emoji" font-size="20px" fill="#000000" text-anchor="middle" style="white-space: pre;" direction="ltr">Mosquitto</text></g><g transform="translate(602.4024493243242 292.864653716216) rotate(0 45.5 12.5)"><text x="45.5" y="18" font-family="Virgil, Segoe UI Emoji" font-size="20px" fill="#000000" text-anchor="middle" style="white-space: pre;" direction="ltr">InfluxDB</text></g><g transform="translate(523.0124577702702 88.16015625) rotate(0 54 12.5)"><text x="54" y="18" font-family="Virgil, Segoe UI Emoji" font-size="20px" fill="#000000" text-anchor="middle" style="white-space: pre;" direction="ltr">homie-influx</text></g><g transform="translate(678.5710515202702 91.74609375) rotate(0 42.5 12.5)"><text x="42.5" y="18" font-family="Virgil, Segoe UI Emoji" font-size="20px" fill="#000000" text-anchor="middle" style="white-space: pre;" direction="ltr">Grafana</text></g><g transform="translate(315.70777027027026 10) rotate(0 247.7109375 178.56304546734236)"><path d="M0.5510661025112936 -0.4287558523436297 C132.79494084503514 0.2696417771765358, 265.8471673517247 0.7280091868142742, 494.98900627622504 0.026962335054616593 M0.02102282941066956 -0.043400205069541814 C182.0864674265276 -1.7711066081613998, 364.599501587583 -1.9456034318328097, 495.27054950568703 -0.2562543434335873 M496.2282341703379 1.1133819461632983 C495.64757923960934 102.64957609304702, 495.2227352073377 204.55185279836826, 496.3114444846141 357.5565989651389 M495.53787081682987 -0.5229345907055035 C494.3528185410572 112.97933562617327, 494.40924511647614 224.51594103897088, 495.1370140078725 357.14393157678523 M495.5665184805744 356.81106691652076 C364.1995661806081 359.2185308863143, 231.91304404812703 358.7955570994001, 0.0035514681119410666 357.381784291192 M495.35749370540947 357.46592754333136 C353.7944225561472 358.7157323504232, 212.8228971235399 358.3574120459073, -0.04975157731477079 356.9396144483835 M1.0558210595613613 358.23968426441104 C-0.8559450643354484 243.5188784084147, -1.7061205128946235 129.92895864093109, -1.2261789422996778 -0.9324777426912687 M-0.38528600269118557 357.6314545816704 C-2.74378833192816 226.52234895013072, -1.6555836007483355 97.55227337444117, 0.0023965291746714306 -0.4470143661076471" stroke="#000000" stroke-width="1" fill="none"></path></g><g transform="translate(41.35064752252248 71.85726351351354) rotate(0 71.44174056869366 71.3437324042792)"><path d="M0.8546817880123854 0.3445891458541155 C50.368046760875494 -1.7749165469811612, 98.28137320529622 0.6585712855650729, 142.64524470821758 0.08932754583656788 M-0.6828696271404624 -0.7997716972604394 C42.5851042023466 -1.9559903157125, 84.96237769156266 -1.1495423031220917, 143.16846925851692 0.6615950455889106 M143.71785413280864 0.018861981108784676 C141.29117113806478 39.74728157297832, 140.85193360306494 82.04159052336837, 142.53692131296535 141.89818013410766 M141.9755597793757 -0.2718725809827447 C141.9802723531372 45.69634003793279, 142.14332059069937 92.13946625395526, 142.2024669432341 143.4512988370632 M143.65697031275172 143.78344882230957 C114.08831374400705 145.1433668678617, 85.1377582952575 142.35289763864034, 1.5931037645787 143.39928478698928 M143.3411843561827 142.4795392793392 C97.37216461447778 141.34414156459601, 54.404351270783096 140.63808690689834, -0.9673204263672233 143.1631636363243 M1.2649868708103895 140.86870569687088 C-0.8550049407587255 91.47881833810638, 2.2753566758527555 43.821446314424875, -0.8126172441989183 -1.8469947259873152 M-0.9562046369537711 141.73343441307296 C0.43093090757793684 100.98237555988405, -0.04436657324367266 61.10631575302081, 0.1271497467532754 -0.354574472643435" stroke="#000000" stroke-width="1" fill="none"></path></g><g transform="translate(366.21167652027026 81.5859375) rotate(0 50.638671875 24.06640625)"><path d="M-0.2015626449137926 -1.6304326336830854 C23.80584531869645 0.41573899223734767, 45.64235293745806 -1.4911528901822386, 102.50262874178588 1.731838496401906 M0.40143020544201136 -0.5625531086698174 C39.36305211407343 -0.8120868925992182, 76.80778349688698 -0.5853727285805872, 101.07621716056019 -0.5815988490357995 M100.88763135485351 0.1929738838225603 C100.78365663129247 13.80019633004049, 101.43415794211782 26.86545901368518, 100.6809931974858 49.69529208727181 M101.68353198561817 -0.8876784751191735 C102.16894401017817 10.836574929078779, 102.27557192150744 20.58722508468054, 100.56051410827786 48.0491769304499 M102.16665804199874 48.22300157137215 C64.03089209382051 46.633916581249466, 25.641584199231147 46.7182775979998, -1.918888272717595 49.47700014896691 M101.68768824730068 47.872041701339185 C64.73502411665649 48.6001248087161, 27.58901682347569 49.5123953844779, 0.2748306253924966 48.481930821202695 M0.9374583344906569 48.18407669849694 C-1.3748761481872498 31.913836180394718, -1.1375637716880738 15.381543126281755, 1.510784624144435 -0.9154079239815474 M0.9548230627551675 48.396874754689634 C1.0008548590656574 32.28380869029861, -0.5170079675201122 18.259334201530145, -0.08268265333026648 0.8256410947069526" stroke="#000000" stroke-width="1" fill="none"></path></g><g transform="translate(675.0515202702702 81.6484375) rotate(0 45.615234375 23.208984375)"><path d="M-0.5536412615329027 -0.8173354547470808 C29.63451966582034 -1.7189936867360303, 64.00608933035619 -0.4396119943265149, 89.8017208557576 0.9103970248252153 M-0.5901373168453574 -0.5184214422479272 C34.74342679098663 -0.5902869084386111, 69.94105130073513 -0.5820910015610934, 91.8664098540321 -0.4869672665372491 M89.74975752644241 0.5885276515036821 C92.10857804565417 10.588212112195833, 90.57601012735354 24.085182415783493, 90.46852105669677 46.440865309908986 M90.41010315809399 0.13251310493797064 C91.88176361946604 17.413031501656587, 91.01268066195986 32.712530878294636, 90.26327298674732 46.91128078009933 M90.2511066775769 47.63137081451714 C57.925513330179456 44.32219441642792, 25.20459336840213 46.51677920331986, -0.35160386748611927 46.1476813275367 M90.38566349539906 46.82352390792221 C60.05431399011104 46.175918669451676, 27.752369125020778 46.37937557791611, -0.9513054927811027 45.95052671339363 M-1.2925747651606798 44.541479678824544 C-0.10791170679924106 33.10526853052615, -1.1397281297385415 15.879844201685774, -1.1770254988223314 -0.19785365276038647 M-0.6781962951645255 47.20460486318916 C-0.4830760654060214 28.47997905892953, -0.5459246631709902 11.525982183808082, -0.3848390122875571 -0.5639621326699853" stroke="#000000" stroke-width="1" fill="none"></path></g><g transform="translate(594.7618243243242 248.04824746621603) rotate(0 50.607421875 13.1328125)"><path d="M37.26947230581621 0.19053781720466745 C46.304244575125004 -0.6867398022988581, 59.53494824951131 0.25042884072869276, 69.05974895059003 1.2765607027145265 C78.58454965166875 2.30269256470036, 89.16054135460394 4.103932725021799, 94.41827651228854 6.34732898911967 C99.67601166997315 8.59072525321754, 101.93704331960313 12.180867672153978, 100.60615989669768 14.736938287301745 C99.27527647379222 17.29300890244951, 93.39711648579616 19.85588538011555, 86.43297597485576 21.683752680006272 C79.46883546391537 23.511619979896995, 68.72220732612877 25.173793059269, 58.821316831055285 25.70414208664608 C48.92042633598181 26.23449111402316, 35.926160398938194 25.906919406232625, 27.0276330044149 24.86584684426876 C18.129105609891603 23.824774282304894, 9.804693026450977 21.802503816564645, 5.430152463915505 19.45770671486289 C1.0556119013800318 17.112909613161136, -1.3199339449018908 13.662425771799686, 0.7803896292020625 10.797064234058233 C2.8807132033060157 7.93170269631678, 10.926000005345955 3.879248805673762, 18.032093908539224 2.265537488414168 C25.138187811732493 0.6518261711545739, 38.46148204755729 1.3711963030754541, 43.41695304836167 1.1147963305006687 C48.37242404916605 0.8583963579258833, 47.7871172037151 0.7975853599911046, 47.764919913365496 0.727137652965455 M32.65170847056939 -0.2863958206698065 C41.39623156601951 -1.435721201230754, 54.591280567916975 -1.5563656189435444, 64.28035579454898 -0.677482456682208 C73.96943102118098 0.20140070557912837, 84.5247693445516 2.8465377788731754, 90.78615983036141 4.986903152898211 C97.04755031617123 7.127268526923247, 101.75536832681232 9.642533452619867, 101.84869870940784 12.164709787468007 C101.94202909200337 14.686886122316148, 97.4600993014628 17.99413614558956, 91.34614212593455 20.119961161987057 C85.23218495040629 22.245786178384552, 75.03197310834815 23.948880306450388, 65.16495565623833 24.91965988585298 C55.29793820412852 25.89043946525557, 41.53775296084546 26.533829923764372, 32.14403741327567 25.944638638402616 C22.750321865705878 25.35544735304086, 14.05964879032673 23.47596717159753, 8.802662370819583 21.384512173682435 C3.545675951312435 19.293057175767338, -0.07784358264282665 16.13629906550141, 0.6021188962327813 13.395908650912023 C1.282081375108389 10.655518236322637, 7.5305785636263565 6.941913713974235, 12.88243724407323 4.942169686146116 C18.234295924520104 2.9424256583179966, 29.66476224983916 2.1853150515247033, 32.713270978914025 1.3974444839433087 C35.761779707988886 0.6095739163619142, 31.16729574851761 0.22768956129370999, 31.173489618522414 0.2149462806577489" stroke="#000000" stroke-width="1" fill="none"></path></g><g><g transform="translate(596.6817235007579 266.24592434650117) rotate(0 0.8699306707922005 35.4541097592562)"><path d="M-0.24806957356631754 -0.9663856197148561 C0.1341604358237229 11.20196429602801, 1.674701531371098 59.635454059764704, 1.987930915150787 71.8746051382273 M1.8225551709719001 1.1406579845957459 C2.1084688815195105 13.034946477394545, 1.4054721415881029 58.363579844813756, 1.2497545922175004 69.94532082555811" stroke="#000000" stroke-width="1" fill="none"></path></g></g><g><g transform="translate(696.052038644289 259.0057990433072) rotate(0 1.1122810486796766 39.996675992012)"><path d="M1.191397137567401 1.1312275160104035 C1.6558563926474488 13.994939921771472, 1.6952926842650946 65.02821434425803, 1.8668201919086187 78.18354624159625 M0.35774190545082085 0.6795180165767669 C0.8044739309356843 14.202130633195225, 1.0039672260514074 66.3770209113756, 1.2775730308331459 79.31383396744718" stroke="#000000" stroke-width="1" fill="none"></path></g></g><g transform="translate(597.4988914695946 324.67356418918894) rotate(0 50.607421875 13.1328125)"><path d="M26.878667043965418 2.197317373261498 C35.31321247214942 1.0057390381090159, 48.97990658428421 0.5821360651820265, 59.0116970358997 0.7230906957281196 C69.0434874875152 0.8640453262742126, 80.221578001755 1.1419240222081892, 87.06940975365836 3.0430451565380565 C93.91724150556172 4.944166290867924, 98.86175414770385 9.39510876292904, 100.09868754731988 12.129817501707324 C101.33562094693592 14.864526240485608, 99.55046248023304 17.43314913359264, 94.49101015135457 19.451297589207762 C89.43155782247611 21.469446044822885, 79.1786895110109 23.170117782065574, 69.74197357404911 24.238708235398057 C60.30525763708732 25.30729868873054, 47.67364485537637 26.440374909463838, 37.87071452958382 25.862840309202653 C28.067784203791277 25.28530570894147, 17.20719223756901 22.811607078115067, 10.924391619293836 20.773500633830945 C4.641591001018661 18.735394189546824, 0.47175169818806734 16.328087991290396, 0.1739108199327717 13.634201643497919 C-0.12393005832252396 10.940315295705442, 4.283936904535901 6.579037458129818, 9.137346349762062 4.6101825470760875 C13.990755794988223 2.641327636022357, 25.613453546823358 2.419205680712353, 29.294367491289737 1.8210721771755374 C32.975281435756116 1.2229386736387218, 31.001363085574006 0.8434294809347588, 31.222830016560327 1.021381525855194 M65.74826766479029 -0.5527092192180607 C75.2256402876959 0.10815356561916956, 87.89266572197621 4.025789603520895, 94.00300466033437 6.387209177625657 C100.11334359869252 8.748628751730418, 103.15152992920511 11.016031165223353, 102.4103012949392 13.61580822541051 C101.6690726606733 16.215585285597665, 96.3784412809555 19.737284300248135, 89.55563285473889 21.985871538748594 C82.73282442852228 24.234458777249053, 71.44470968847247 26.717592387152152, 61.473450737639574 27.10733165641326 C51.50219178680668 27.497070925674365, 39.06854857125954 25.404494050558366, 29.728079149741482 24.324307154315225 C20.387609728223424 23.244120258072083, 10.38075568857704 22.812582388109693, 5.43063420853121 20.626210278954407 C0.48051272848537874 18.43983816979912, -1.3991939336136408 13.85631471203042, 0.027350269466495547 11.206074499383515 C1.4538944725466318 8.55583428673661, 6.499416145882372 6.8155289370916705, 13.989899427012027 4.724769003072982 C21.480382708141683 2.6340090690542937, 35.99602464146092 -0.5902076832276061, 44.97024995624442 -1.3384851047286155 C53.944475271027926 -2.086762526229625, 64.37972021406038 -0.11037331627773828, 67.83525131571307 0.23510447406692592 C71.29078241736575 0.5805822644115901, 66.07144034060623 0.20370056058975639, 65.70343656616053 0.7343816373393697" stroke="#000000" stroke-width="1" fill="none"></path></g><g transform="translate(598.8462837837837 322.3946368243244) rotate(0 48.93581081081078 8.407939189189165)"><path d="M0 0 L97.87162162162156 0 L97.87162162162156 16.81587837837833 L0 16.81587837837833" stroke="none" stroke-width="0" fill="#fff"></path><path d="M0 0 C28.701296887690862 0, 57.402593775381725 0, 97.87162162162156 0 M0 0 C36.05118616060918 0, 72.10237232121835 0, 97.87162162162156 0 M97.87162162162156 0 C97.87162162162156 3.6977702884587065, 97.87162162162156 7.395540576917413, 97.87162162162156 16.81587837837833 M97.87162162162156 0 C97.87162162162156 6.239914103204247, 97.87162162162156 12.479828206408493, 97.87162162162156 16.81587837837833 M97.87162162162156 16.81587837837833 C77.8021785260423 16.81587837837833, 57.73273543046305 16.81587837837833, 0 16.81587837837833 M97.87162162162156 16.81587837837833 C73.03964279718201 16.81587837837833, 48.20766397274246 16.81587837837833, 0 16.81587837837833 M0 16.81587837837833 C0 11.055145310446417, 0 5.294412242514506, 0 0 M0 16.81587837837833 C0 11.86071702604402, 0 6.90555567370971, 0 0" stroke="#fff" stroke-width="1" fill="none"></path></g><g><g transform="translate(665.2213527848257 237.5499990082876) rotate(0 20.21259095373449 -53.85174926915715)"><path d="M-1.0015315186232328 0.6720645379275083 C5.912719460585704 -16.937564838368914, 34.29966375608738 -88.82406376073371, 41.42671342609221 -106.82808972821665 M0.6735257047601046 -0.020705524999648395 C7.472289385599636 -17.837714490972928, 33.91612949087094 -90.14658002350714, 40.70300586931179 -108.37556307624189" stroke="#000000" stroke-width="1" fill="none"></path></g><g transform="translate(665.2213527848257 237.5499990082876) rotate(0 20.21259095373449 -53.85174926915715)"><path d="M0.9186192540403568 -28.6050819144823 C1.0956628588498403 -19.205133789287192, -0.013766293598116208 -11.152392169957167, -2.2446567468345164 1.7741735510528087 M-0.3525049328852332 -29.04070899963904 C-1.0197579674088022 -20.530922617402382, 0.019840220508149264 -12.605381541297714, -0.6894418975338339 1.5501641442999243" stroke="#000000" stroke-width="1" fill="none"></path></g><g transform="translate(665.2213527848257 237.5499990082876) rotate(0 20.21259095373449 -53.85174926915715)"><path d="M20.008214628584362 -21.07465358522852 C14.625347974093913 -14.05626319379502, 7.882567214746901 -8.225755712848521, -2.2446567468345164 1.7741735510528087 M18.737090441658772 -21.51028067038526 C12.497898384804728 -15.18488934457529, 7.9020833022692685 -9.482395688085253, -0.6894418975338339 1.5501641442999243" stroke="#000000" stroke-width="1" fill="none"></path></g></g><g><g transform="translate(571.3859293914422 130.6695523648649) rotate(0 21.029554242175948 57.861968473091565)"><path d="M-0.2721049915999174 0.41995048038661476 C6.966816698853226 19.43184299339473, 35.42924895407781 95.5911255369395, 42.331213475951856 114.54353356813608 M1.7859011584706606 -0.4051794627495111 C9.053347658403517 18.77779144550606, 35.506546840035924 96.84737862064168, 41.923728352023225 116.12911640893265" stroke="#000000" stroke-width="1" fill="none"></path></g><g transform="translate(571.3859293914422 130.6695523648649) rotate(0 21.029554242175948 57.861968473091565)"><path d="M23.897749949606222 94.40716007583603 C27.34055129785583 97.34213244437703, 30.55627296471233 102.63588627493743, 43.12380871882842 117.20850246253951 M23.77247677872525 93.34592848037198 C27.160719480591837 99.21101080924073, 32.67294135201804 104.78289247857346, 42.29522294232802 116.54448501154377" stroke="#000000" stroke-width="1" fill="none"></path></g><g transform="translate(571.3859293914422 130.6695523648649) rotate(0 21.029554242175948 57.861968473091565)"><path d="M43.34444677829225 87.85384146317786 C42.76539338098473 92.10872719409221, 41.9334741682209 98.76649058100278, 43.12380871882842 117.20850246253951 M43.21917360741128 86.79260986771381 C41.646151137335494 94.38858821653565, 42.25372776900677 101.61328029481962, 42.29522294232802 116.54448501154377" stroke="#000000" stroke-width="1" fill="none"></path></g></g><g><g transform="translate(469.5547930743243 109.83439458621683) rotate(0 22.098322519569365 -0.3398112024449347)"><path d="M-0.6687175322324037 0.33600160963833337 C6.748069574156992 0.41540351646788926, 37.41689783741828 0.4204569393221542, 44.86536257137116 0.41061896272885856 M1.181067034006119 -0.5332014906406404 C8.402125506991737 -0.7506626175825993, 36.33954745588001 -0.9298102946009232, 43.882509005037505 -1.0938815289647572" stroke="#000000" stroke-width="1" fill="none"></path></g><g transform="translate(469.5547930743243 109.83439458621683) rotate(0 22.098322519569365 -0.3398112024449347)"><path d="M21.022969510143295 -7.410759938301551 C15.439293950335063 -6.411087179394425, 8.234925290539932 -3.868268593180159, -2.3237548775970938 2.0283035106956957 M21.31945554792662 -7.733230099434065 C12.908855342858143 -3.7774555301999584, 5.536724961324401 -1.9201359582947948, 0.2659909894689918 -0.3489473422989249" stroke="#000000" stroke-width="1" fill="none"></path></g><g transform="translate(469.5547930743243 109.83439458621683) rotate(0 22.098322519569365 -0.3398112024449347)"><path d="M20.98758760540993 7.958970315182835 C15.424028526997652 3.880886384678707, 8.23134957657025 1.3457511106482292, -2.3237548775970938 2.0283035106956957 M21.284073643193256 7.636500154050321 C12.99071182096407 6.132431397891781, 5.631150977740903 2.5296036232859604, 0.2659909894689918 -0.3489473422989249" stroke="#000000" stroke-width="1" fill="none"></path></g></g><g transform="translate(59.41789836711695 294.82414836711723) rotate(0 44.60509923986487 21.11050112612611)"><path d="M0.7696988563984632 -1.8665027897804976 L87.25403298533247 1.935419948771596 L89.8665456334381 40.754458907471424 L0.48620408587157726 43.77843135915828" stroke="none" stroke-width="0" fill="#fff"></path><path d="M0.4805656988173723 1.3868476133793592 C26.652730173711305 -0.1823569218376646, 51.698828440719495 -1.6998300830582151, 90.69889216593192 0.7329266648739576 M-0.8737013647332788 -0.43857704009860754 C22.209858546090057 -0.10833629589668547, 45.29643874347345 -0.07630574327102935, 89.1291207243009 0.29566769395023584 M89.19245248011039 -0.6171476263552904 C90.75817497074598 13.697567959506081, 87.61591626703733 27.13392470442507, 89.3329981463282 41.88370862551165 M89.03619875202612 0.8591440180316567 C89.33428887128886 10.212216804015496, 89.14902336001452 18.75906190597834, 89.16402648578124 41.45268236328048 M89.30768333843635 43.912616878227716 C58.535006363839756 39.844580032490846, 26.752107907919914 39.978493132256624, -1.1292466204613447 40.3573859626813 M89.62949226985411 41.951545345076745 C55.34580584596538 42.49085036699523, 24.271865782855457 42.2127822715496, 0.25668477918952703 42.65197850991172 M-0.9825185816735029 43.066546290592676 C-0.44568062087110116 30.649187156613, 1.9296807620901721 20.50910883012844, -1.3711439054459333 1.5125402193516493 M-0.17038941476494074 41.35356213379783 C0.17822070921691757 29.20546341034504, -0.32685948406425613 18.1742937411525, 0.07025989796966314 -0.4844651063904166" stroke="#000000" stroke-width="1" fill="none"></path></g><g transform="translate(66.19855011261257 303.0690456081081) rotate(0 39 12.5)"><text x="39" y="18" font-family="Virgil, Segoe UI Emoji" font-size="20px" fill="#000000" text-anchor="middle" style="white-space: pre;" direction="ltr">cloudbbq</text></g><g><g transform="translate(93.953409926581 290.0501778926292) rotate(0 1.1245046578237066 -34.39124965906433)"><path d="M-0.37206630818545816 -0.8127624202519654 C0.18087298472353464 -12.563299529910445, 1.9488557065342187 -58.601915484966625, 2.62107562383286 -70.15743268190538 M1.6334601506777107 1.374933363776654 C2.084533217986461 -10.190179695193082, 1.3476957556855498 -56.86390290105894, 1.644266469326087 -68.55212987833312" stroke="#000000" stroke-width="1" fill="none"></path></g><g transform="translate(93.953409926581 290.0501778926292) rotate(0 1.1245046578237066 -34.39124965906433)"><path d="M-10.799672044421184 -29.499191393338858 C-6.951941610246749 -20.818747553632882, -4.737420239319307 -15.30919817047431, -0.4374506644904613 -0.981025619059801 M-9.685591647940326 -29.724372865826606 C-5.276606960726108 -17.937807335504942, -2.1119161867892355 -7.777408548958352, 0.09989736471325161 -0.6543079266324638" stroke="#000000" stroke-width="1" fill="none"></path></g><g transform="translate(93.953409926581 290.0501778926292) rotate(0 1.1245046578237066 -34.39124965906433)"><path d="M9.703593170864037 -28.641218260009797 C8.588018149378382 -20.23193532188961, 5.841706385555912 -14.929975388696842, -0.4374506644904613 -0.981025619059801 M10.817673567344896 -28.866399732497545 C7.259152617734157 -17.582944485898608, 2.461266718391478 -7.755745157390219, 0.09989736471325161 -0.6543079266324638" stroke="#000000" stroke-width="1" fill="none"></path></g></g><g><g transform="translate(176.6022714154072 160.6970277739606) rotate(0 91.10624372613657 -24.102702012007057)"><path d="M0.26865593902766705 1.0908328045159579 C30.927269458451136 -7.129326009284978, 152.68396382917098 -40.7487766078687, 183.26192587459542 -49.296236828529985 M-1.0494384223222732 0.6179160815477371 C29.4756592360668 -7.426370723452692, 151.42309262093534 -39.56286934955182, 182.09879147561347 -47.91681008521631" stroke="#000000" stroke-width="1" fill="none"></path></g><g transform="translate(176.6022714154072 160.6970277739606) rotate(0 91.10624372613657 -24.102702012007057)"><path d="M159.33149706184835 -31.40775581650354 C162.97076747065535 -34.84134090871963, 167.43706326146685 -39.803409037868974, 180.28391748035406 -49.6994352519156 M157.39330512922228 -29.870535609460546 C164.0367407764425 -36.03735535889346, 169.53093246970798 -38.484852206505096, 183.01725266521876 -48.8767266479896" stroke="#000000" stroke-width="1" fill="none"></path></g><g transform="translate(176.6022714154072 160.6970277739606) rotate(0 91.10624372613657 -24.102702012007057)"><path d="M154.03265103511652 -51.233048580314815 C158.96108304177625 -49.870458864424876, 164.71245707200734 -50.0244891316759, 180.28391748035406 -49.6994352519156 M152.09445910249045 -49.69582837327182 C160.2159932971172 -51.03303479662449, 167.0085554720854 -48.622761709841, 183.01725266521876 -48.8767266479896" stroke="#000000" stroke-width="1" fill="none"></path></g></g><g transform="translate(337.68987597216363 23.020414885099967) rotate(0 17.5 12.5)"><text x="17.5" y="18" font-family="Virgil, Segoe UI Emoji" font-size="20px" fill="#000000" text-anchor="middle" style="white-space: pre;" direction="ltr">VPS</text></g><g transform="translate(10 11.490005630630549) rotate(0 109.04244087837836 177.15723536036046)"><path d="M1.1775257511480572 -1.3130884841656667 C42.33003964203355 0.5679015097955471, 87.25989760275738 -1.152158431960804, 219.54889626662626 0.9662107407154045 M0.14646616149397976 0.08887352994991961 C61.27149213423321 1.9027971211411847, 122.82601713482431 1.6503161980003713, 218.94493609440497 0.4310087946759022 M217.771453263623 1.1257583127700235 C217.2371388580217 130.8440358521105, 216.7274193220094 263.03144028126695, 217.85355591021045 354.057117687529 M217.56880840724588 -0.4677705416880782 C220.50720425710088 123.30982297236984, 220.51176857166203 247.4134374992397, 218.55356960359154 354.38611543027383 M218.66913978044806 353.66175102138214 C143.81596829144257 354.1401762348558, 67.06129269610665 353.0694262405089, -0.7658089357646112 355.73139366028545 M218.8515525539038 354.48827309630934 C154.33343701348988 352.9406561566151, 91.60196572396511 353.5059951894394, 0.65621750750466 354.8561587754609 M-0.8452120467611375 355.08511102058634 C-2.3109503477925424 218.71861964227386, -0.9434339076686933 82.32262523712026, -0.5672652062920094 -0.7703002864651716 M0.29200167529450777 353.7426392166418 C0.5341068132147475 265.2102183366631, 0.14271758188336842 176.9481495128039, -0.0655114471798813 0.0891229772449139" stroke="#000000" stroke-width="1" fill="none"></path></g><g transform="translate(35.14428490990991 21.13795045045049) rotate(0 27 12.5)"><text x="27" y="18" font-family="Virgil, Segoe UI Emoji" font-size="20px" fill="#000000" text-anchor="middle" style="white-space: pre;" direction="ltr">House</text></g><g transform="translate(242.34448902027026 83.99609375) rotate(0 33.5 12.5)"><text x="33.5" y="18" font-family="Virgil, Segoe UI Emoji" font-size="20px" fill="#000000" text-anchor="middle" style="white-space: pre;" direction="ltr">MQTT</text></g><g transform="translate(112.58150337837836 246.190209740991) rotate(0 47.500000000000014 12.5)"><text x="47.5" y="18" font-family="Virgil, Segoe UI Emoji" font-size="20px" fill="#000000" text-anchor="middle" style="white-space: pre;" direction="ltr">Bluetooth</text></g><g transform="translate(59.240515631598385 124.9385986328125) rotate(0 55.26908874511719 36.423828125)"><path d="M0 0 C0 0, 0 0, 0 0 M0 0 C0 0, 0 0, 0 0 M-0.760752782938058 5.682553084244125 C1.148319309747254 5.0070121193666095, 2.8365354108073495 2.2046866758809376, 4.992497834148353 1.0023066144285018 M0.1182133712200572 6.2577804506319685 C1.2984460288509567 4.9874549542145505, 2.081726514339138 3.072285686596631, 5.157627556803173 -0.02085111477996765 M-1.1006117514241829 12.550325596749364 C4.6902736367183815 7.86966949832283, 8.558178371430394 4.0635034289847916, 9.492101640951764 -0.6630787198350071 M-0.6498391530383719 11.794422278225005 C3.6198515657645016 8.810864813244548, 6.97246601104883 5.619470561903918, 11.060443685901296 -0.8242269609973072 M-1.3762914641341428 17.195051661600047 C4.023108229762581 10.075271584116248, 12.51187543531448 4.968737018002722, 15.57731448067673 -0.4147379168379137 M0.14551361738236146 18.24814154477852 C3.714702251115405 13.722817047797852, 6.540349571538749 10.408652025429276, 16.462424296423276 0.7211779846739939 M0.46539731344201307 23.15407434636271 C8.879729229873286 14.60512617960729, 15.452500693098283 8.779996253784976, 23.025728969180847 0.7602931237011674 M1.0872691760025237 23.53075200477159 C5.1379609773279515 19.90924454511387, 9.863664586313163 13.986778324590842, 22.14094478105929 -0.6572516919881579 M0.8451570058753148 29.714326081562987 C8.426337788831601 22.474760067145567, 16.470253575348234 12.700686657542537, 27.571052263167115 0.20037157405286443 M0.48091782355209745 29.52475615753626 C6.740502562233533 22.521279688686572, 15.268438796545826 14.051533810844308, 26.99779878431222 0.6816937694337906 M0.18686890778127108 36.66968127135311 C6.547457810585779 26.879743444350915, 14.451660202653994 16.826094463299068, 31.832287186241544 1.0305997581466322 M0.3700918312090913 37.02341805566226 C8.150205638707963 26.14685773263242, 16.731524869368563 17.411674925301387, 30.900646356350578 -0.20389990869320584 M0.8909768137753957 42.4624518198853 C14.746178079549049 26.65419001022793, 27.520546033511412 10.238474289032297, 36.03076294604813 1.7933558208030185 M0.24764222015151915 42.05828300173931 C9.576391952171614 31.65916361999212, 21.708802776159644 19.47079351945128, 37.417130181380855 1.1261725668889007 M1.616309931501668 50.197515871980116 C12.926258408517867 35.6318306847237, 26.985236170100823 19.238150747780022, 43.488607366192866 -1.839382914048528 M-1.0375383254141397 48.28830628902547 C11.025912288683086 34.78295841447124, 24.557823607794248 21.758972877021836, 42.93834780957155 0.5815594185470587 M2.1224960845661016 54.10935075156699 C18.57563056027001 35.14898428480001, 37.550917626301604 13.74597280321752, 47.63027465431976 0.7216366984125422 M1.1868977446806284 53.84188613988768 C13.169179603683693 38.73732838017592, 27.12764683483395 22.2917901662219, 47.305379425129175 -0.29597156046068207 M-1.7285105193873136 61.34970960346649 C19.794559016663335 37.164494385631436, 39.804472777504664 16.56669757479313, 53.481017634034814 0.6952669821156867 M0.04328061464231325 61.47954034758399 C13.125259726212706 46.16503247635223, 25.497802489734543 33.30457076497482, 52.932760078222216 -0.2452096477673642 M-1.1300160857430726 66.45465433183084 C23.942473534858852 40.62947764598323, 44.19524403962609 12.810962631714268, 56.66841551298202 -0.282363918118552 M-0.42866369435108 67.43593921470413 C20.792515606231024 44.957574557838285, 40.5906336191684 22.04677241599103, 57.43500745305718 -0.1228245501149452 M-0.048764319885670204 73.35868434081225 C19.78847861641154 51.40237584030896, 38.368133411342505 28.66023916839464, 64.92084611476739 -0.4455286783607235 M0.6350095888784537 73.80903429383783 C20.156553490773845 48.98594580126941, 41.2878983283633 25.74758018595943, 64.75009409980257 -0.8160430451364746 M4.305358717752945 71.3711886334491 C19.27003968687789 56.835328918878695, 36.18260196411936 37.992328232443995, 69.06901364703491 -0.11122415379028183 M6.077759130461466 72.91151048646094 C21.901000787036665 56.181473322930316, 37.939020726125676 36.64959411476722, 69.76597520266488 0.9200276604260935 M10.576321118854715 71.75650867545303 C32.391157887141176 48.60750756648767, 53.58120889584622 23.10578503693926, 72.54442093339058 0.0331519795222448 M11.444553998642398 72.22584890672263 C30.02474818044965 51.87767016429014, 49.12979483829601 29.477179151169686, 73.4440608118126 0.549723288939731 M16.008889591063642 71.40858511164457 C33.52051870538433 54.53568386488002, 46.18328774983365 40.15268146156686, 78.38089718147842 0.717477866397374 M15.353818127627754 72.4539735978809 C29.41218610594798 57.935329587312104, 43.468931233443726 42.92893299801325, 79.44574361145226 -0.08050086633754461 M20.698629457985724 72.60095776595318 C33.04244998632873 58.5550277378001, 46.59706216799663 41.78046016083288, 86.7130702149044 -2.198769169235419 M21.37243031758603 73.64225153230274 C38.87438295464112 50.3035840787383, 58.83846374567104 29.07374036508253, 85.25587115175233 -0.654746583038758 M26.593432427264958 72.7744422831994 C40.22615353487447 52.52650894639354, 58.85568010976468 35.061251207093164, 89.77789424131254 0.0611640174443977 M26.642252002723723 73.34416925324616 C40.01041466170423 55.85440815524183, 55.68527966066037 39.11838554616312, 90.80927361691931 -0.22499606790587734 M30.991988822507366 74.2494534873127 C45.24405947302646 57.756978081905324, 60.36764179877271 41.28567259294965, 97.41312208430887 -1.0963702496337078 M33.003599483209356 72.70765623307815 C48.7982685082572 53.62711406042891, 63.77276606469931 35.888767612092884, 95.61423605712176 -1.1237885985719345 M37.545315351356905 74.01368202311362 C52.205600809181064 55.95323498562041, 67.61019304432844 34.549252304567624, 100.05883295153731 -1.8477438256491965 M37.621771693249386 72.63776151505674 C52.39889835787861 55.384961616219925, 68.14261084176648 38.67825417773181, 101.37902615656608 -0.8015438817788905 M41.755227337419626 73.4344177145316 C61.241888407230014 51.5754889242183, 79.96343831303363 30.30370557569387, 106.25590466660393 -0.23972938667261445 M42.11052243301236 71.88397707154888 C58.81344907066271 55.147524070024595, 75.75013414748695 35.940864314151696, 107.13536646542084 0.26076130484020865 M45.97586648833948 72.0462262063872 C68.81194039343121 49.61452931731067, 87.94864372541971 25.40782512489273, 109.6475414371527 1.5981762121165772 M47.158588136704736 73.20291444581262 C72.20508263250014 45.3635709721113, 96.8540409486481 15.190431916307176, 111.86496216789253 0.7142697545434018 M52.91217312772251 73.2632723226099 C76.18413527441041 47.36457096742432, 98.68737066813706 21.377107261543372, 112.57321482587506 5.958461516652804 M53.65316010449506 73.44562811021494 C75.13441040861525 47.547773275316274, 98.31317917694884 20.626710419564155, 111.71844205323507 7.221953411702614 M56.62141396321269 74.16699670802018 C74.09736549555286 54.81047011323383, 87.12133266359413 39.030463744129705, 111.43984433032008 12.21140886952886 M57.30641227058979 73.72029210801384 C70.04431527160389 61.261512639268204, 81.04179482638745 46.9325115352707, 111.01153909556004 13.48942176734814 M64.01165431841602 71.21843918654754 C74.51221298353629 59.45580899381969, 86.42228347603742 48.65096563420816, 110.53849874510325 17.158705174896987 M63.77897343515743 73.4795234115763 C79.6199521039041 56.10765672036968, 93.86591577202302 38.14856207746935, 111.66679181604542 18.993532624069722 M69.8432859009765 74.04591540301251 C80.41095868942283 59.943005972787226, 88.06352541047592 50.406155674731565, 108.9186322778686 23.764603577577745 M69.3064550324045 72.68305856416035 C77.47980219607076 63.314113375301524, 86.28577883395593 51.40000499766275, 111.71278039889773 24.08855377512542 M74.22749903450016 71.15734018134457 C83.62037641454536 63.38414739838027, 96.03061249741316 49.42822059222901, 113.2304977522221 31.622956401500552 M73.82292336249951 71.88507703813296 C85.89550923875493 60.01439460534394, 96.83407380484968 46.90940224423989, 111.75153989428549 30.84819594288215 M77.62781042663094 71.72790416636423 C85.69981189776558 62.2629164887168, 96.10511518196529 56.26073576646971, 112.72667437580773 38.74489179148599 M79.58742735964891 72.39687787675217 C88.94075682353264 64.1770864346726, 96.97378017950399 53.191887740083, 111.58508798641512 37.228289420597996 M86.35853540097492 71.31239718200098 C93.2247041649376 65.4163455850424, 97.0158000283451 59.090448687734444, 112.10448094324104 44.02584665168628 M84.30747082402127 72.37420305238496 C93.8527806587085 61.61176749454507, 102.44781497927123 52.55631402672586, 110.6828381964647 43.90881701086268 M91.58631566517603 73.63288487307531 C95.07935194773032 64.56425496113114, 104.31777703865855 58.80511096205649, 109.78779874913752 49.25969538625362 M89.76554018982303 72.97991410828931 C94.93056931209837 66.56698558907482, 102.18297523214153 59.65878115522615, 112.08842279561222 48.68304276626589 M94.8285915428403 72.29103206351675 C98.05457788852448 66.62043073324801, 103.6873782090781 61.6529712656357, 112.20889450114113 57.152878640008595 M94.94257675722271 72.47131551683225 C100.66039972253864 67.31366297839503, 105.35433259559653 63.246797928281666, 110.32651571806413 54.84664073006573 M99.32423124659323 72.6545263609911 C102.43813469312207 69.28596194262471, 106.71333430457848 67.03593491765717, 110.78018316435981 61.62798117526611 M100.6757310216453 72.50016789949188 C102.4652121995524 70.29231897091302, 104.94225439738837 66.83697674578065, 111.75571295726466 60.22661448546489 M106.17868606197578 72.80217615015034 C107.24625323356754 71.26400599611385, 108.65180452102652 69.44114198588366, 111.46063382177503 67.04180355241616 M106.50740834205342 72.95535777772938 C108.04498122987438 70.86306914882589, 108.88919350226996 69.5145642863664, 111.29218471775653 67.0351034749495" stroke="#fab005" stroke-width="0.5" fill="none"></path><path d="M1.1391070857644081 1.8381369337439537 C30.928804019501804 1.2151215231339563, 60.024508338493106 0.08838130592509397, 109.24391040951015 0.4337463602423668 M0.9961960427463055 -0.6208205930888653 C41.105538280018386 -1.8018989836027404, 81.91289000825726 -0.2766624962141295, 109.66877568885685 -0.8943542949855328 M110.7332349792123 -0.37994954735040665 C110.53353208303061 26.004816509147354, 112.54934471845236 53.69526951632871, 108.83999905735256 72.07652261108161 M111.19353784248234 0.8995633609592915 C110.76248679869039 24.951003960806705, 109.28426073305471 47.56987696421857, 110.9342746846378 72.85532729700209 M108.95230946689846 73.41230180114509 C74.18635611659982 72.48099625911286, 37.664398432805115 72.46193731631806, -0.15356530994176865 72.09658005088569 M111.32576657459141 72.56034724786879 C72.2579749016407 72.17083495273963, 35.118417329031786 72.0761907638587, -0.8146802075207233 73.41935901716353 M0.7282153144478798 72.52909996360542 C-0.4172602661752898 46.862060463412504, 1.8456074229574007 19.054907132653177, -1.939480446279049 -0.6606223359704018 M-0.8640757687389851 73.0462234504521 C-0.40414849921289697 53.37668733409811, -0.20744017764154687 36.11076526193356, 0.28427673503756523 0.3222769983112812" stroke="#000000" stroke-width="1" fill="none"></path></g><g transform="translate(73.37573902027026 133.88671875) rotate(0 39 25)"><text x="39" y="18" font-family="Virgil, Segoe UI Emoji" font-size="20px" fill="#000000" text-anchor="middle" style="white-space: pre;" direction="ltr">cloudbbq</text><text x="39" y="43" font-family="Virgil, Segoe UI Emoji" font-size="20px" fill="#000000" text-anchor="middle" style="white-space: pre;" direction="ltr">-homie</text></g><g transform="translate(567.0521273226352 428.47836111257743) rotate(0 19.5712890625 7.974609375)"><path d="M0 0 C0 0, 0 0, 0 0 M0 0 C0 0, 0 0, 0 0 M-1.028707414087827 5.6445528537529635 C1.6690476559235248 5.602171251029855, 2.617883871781628 3.4453932752798795, 4.315544665934986 0.5959237869677357 M-0.5274980410607406 6.72219824423372 C1.5935048777735032 3.64801129733596, 4.126315696467853 2.0462988209703847, 4.748137291105932 0.6745334137079531 M-0.40926891182552705 11.560535863458693 C4.960578731657503 7.013589684468391, 5.849084650810643 4.644169088329919, 10.851882342946661 -1.0888127242133259 M-0.2797804540861739 12.497879399776041 C3.1030781425243417 8.825246439873672, 5.866295924273267 4.32943146714112, 10.62518131132139 -0.17431030766221267 M2.927984302700356 18.13039656764205 C6.811347036495308 11.584543062855019, 10.834006008106485 6.362585774780818, 17.46215986786731 -1.043052840332968 M1.267024986282781 15.963233774884898 C7.0784422104385225 11.81839200690303, 10.923926355370815 5.6767101606822905, 14.799859029709776 1.033188457314389 M7.037958966735147 18.856758630245032 C11.022698149558178 11.812308465102543, 14.847748823955868 10.643977644566677, 21.63565281992581 0.39449243379528554 M7.164624784308813 17.142438728704157 C10.71152985014472 10.974923019080656, 15.631033808835028 5.140246446115054, 20.643165912756587 0.058996468239975286 M13.574214369965523 17.200584421951408 C16.09152935710683 10.643189676209307, 19.366485043624966 6.856517472121951, 28.14218052351138 1.132626652159983 M11.833630519894689 17.477557652715678 C16.351925277109927 10.715076645135024, 21.465324425003608 6.943762451412706, 26.63612932772598 0.5353548949596227 M17.969871712222968 16.11550697039423 C20.183717670568054 14.116103605737033, 24.336516844778394 7.534062569366142, 31.121131544417537 0.8366132715030794 M17.64692169365314 16.99516058627126 C20.044585394553216 12.038077837088881, 25.8109163847216 7.249011955425139, 31.20359926619271 -0.36398891906596376 M24.083069559301 17.048039732315456 C27.20135325885712 11.718988699913298, 29.030056825864662 8.586405614409731, 35.01343958247577 -1.4227271805423776 M23.419973297158936 16.728369872831617 C27.536357370167153 11.98891005019906, 30.34718449082395 6.55272325228777, 37.40204897876953 1.1414413155150136 M29.073491611031102 17.850253235348116 C28.631148180310152 12.334383091709945, 34.36846164419214 9.300102859527321, 40.62293764549857 0.17772541321110324 M27.099883581024812 17.817036801748525 C29.581385896479784 13.07130944156296, 33.98644415815768 10.124084211710858, 40.79342914905017 1.973093352608796 M34.09513381949782 17.900554590401832 C34.95659508801487 13.170546088737682, 37.692534822245676 10.014062802127116, 41.57444528914141 7.983329984364618 M33.000438231669065 16.649834508550946 C36.118698849215654 13.383314231764134, 38.65052045895875 10.847069302136187, 40.45923119573938 7.483827375066984 M37.76414479056948 16.86849363007896 C38.98253551370907 16.141974871579556, 39.560421641350345 15.79684416946212, 40.747480699965664 14.35578416870783 M38.09800892847234 17.22429433883481 C38.543231971807835 16.420526148409568, 39.23987583677684 15.841388647192105, 40.50384836884767 13.97952877232681" stroke="#fab005" stroke-width="0.5" fill="none"></path><path d="M-0.7363643757998943 -1.0447842366993427 C12.657918354162778 2.276134266005429, 27.203068546283653 -1.2121988400355252, 38.142668832093534 1.3785221092402935 M0.12951490841805935 -0.18585575185716152 C9.639518988192517 -0.5630718815328504, 18.878013897434748 0.6521249067781543, 38.619726812467036 -0.5557072814553976 M40.614784420379934 1.5310217819009269 C37.476611898502874 3.3291879698532285, 37.609033580369854 6.92296456852564, 39.3457727487949 15.587372700876585 M38.78006440790237 0.5831744778228313 C39.29330917884063 6.447061777529962, 39.95609516219402 11.354955117556893, 39.60245697967808 16.638756663040475 M40.04659866169101 17.924545358866453 C25.114401268384647 18.111983991272684, 12.24347172786149 17.44323859275126, -1.8704115264117718 17.314427327364683 M38.58831987343734 15.349157566204667 C27.879207155211446 15.698895820661164, 15.886744446140824 15.396083423181153, -0.893136465921998 15.358872229233384 M0.06149728396485443 14.7400817674883 C1.6004661573818157 12.708846848574467, -1.2261539037316833 7.507587279116706, -1.2191168504483358 1.4378557583848306 M-0.7679733443041187 15.87705647088842 C0.0590209166964632 12.948376374654252, -0.5229572707458283 7.9283523536443665, -0.28754921875333816 0.31673968261129637" stroke="#000000" stroke-width="1" fill="none"></path></g><g transform="translate(623.3929476351352 427.47445486257743) rotate(0 58 12.5)"><text x="0" y="18" font-family="Virgil, Segoe UI Emoji" font-size="20px" fill="#000000" text-anchor="start" style="white-space: pre;" direction="ltr">= rust code</text></g></svg>