<svg version="1.1" xmlns="http://www.w3.org/2000/svg" viewBox="0 0 809.29296875 489.3344362732769">
  <!-- svg-source:excalidraw -->
  <defs>
    <style>
      @font-face {
        font-family: "Virgil";
        src: url("https://excalidraw.com/FG_Virgil.woff2");
      }
      @font-face {
        font-family: "Cascadia";
        src: url("https://excalidraw.com/Cascadia.woff2");
      }
    </style>
  </defs>
  <rect x="0" y="0" width="809.29296875" height="489.3344362732769" fill="#ffffff"></rect><g transform="translate(707.236328125 21.32421875) rotate(0 25 11.5)"><text x="25" y="18" font-family="Virgil" font-size="20px" fill="#000000" text-anchor="middle" style="white-space: pre;" direction="ltr">kernel</text></g><g transform="translate(373.0390625 38.01953125) rotate(0 61.5 11.5)"><text x="61.5" y="18" font-family="Virgil" font-size="20px" fill="#000000" text-anchor="middle" style="white-space: pre;" direction="ltr">dbus::nonblock</text></g><g><g transform="translate(438.470703125 78.232421875) rotate(0 -1.2575864596199153 194.78748181669044)"><path d="M-1.1205091964453457 0.700578386709094 C-1.749907339736819 65.19298585566382, -2.863790537044406 323.61789778781434, -3.007257665321231 388.0863310288638 M0.4920847460813822 0.022778094392269743 C0.17905550749972482 65.2185848108741, -0.186778344195336 324.8134588052643, -0.7051680907420814 389.55218553898857" stroke="#000000" stroke-width="1" fill="none"></path></g></g><g><g transform="translate(732.880859375 63.916015625) rotate(0 0.20923503905532925 207.49855461567645)"><path d="M-0.1548671174794436 0.4093721497803926 C-0.03091642546157046 69.3278880028675, -0.2802596100916464 345.26166855779786, -0.17977045066654673 414.06854462511836 M-1.6953110834956169 -0.42131141692399976 C-1.108311473230521 68.62153714785974, 1.898965694407622 346.3563420419892, 2.113781161606312 415.4184206482768" stroke="#000000" stroke-width="1" fill="none"></path></g></g><g><g transform="translate(442.85400797218085 157.63585639148948) rotate(0 142.56610691305252 -0.791054793074693)"><path d="M0.5729138206690549 -0.07696248404681683 C48.074976373687385 -0.45241886116563895, 238.38449252881108 -1.145907384529691, 285.71765897892413 -1.5051471021026146 M-0.5854451528191567 -1.1629717335104943 C46.70947789147496 -1.419653737097975, 236.92422693625093 -0.0463258565962125, 284.8451781177521 -0.08879673957822432" stroke="#000000" stroke-width="1" fill="none"></path></g><g transform="translate(442.85400797218085 157.63585639148948) rotate(0 142.56610691305252 -0.791054793074693)"><path d="M256.48993001375254 10.311688933651212 C266.2976316630957 4.621993229844582, 275.21263753012977 4.205399160104785, 286.7545280342549 -1.858977231308795 M255.91339882984664 10.574910611975255 C264.1583370267148 7.010719456189403, 271.9374473027581 4.036994849779563, 285.8028521004692 -0.20797700259832252" stroke="#000000" stroke-width="1" fill="none"></path></g><g transform="translate(442.85400797218085 157.63585639148948) rotate(0 142.56610691305252 -0.791054793074693)"><path d="M256.56268167517646 -10.20939070611432 C266.4721267607914 -8.536316666705996, 275.36103124955673 -1.5904883301667248, 286.7545280342549 -1.858977231308795 M255.98615049127056 -9.946169027790276 C264.1649346008971 -7.746924125611935, 271.92361081342654 -4.956807239952669, 285.8028521004692 -0.20797700259832252" stroke="#000000" stroke-width="1" fill="none"></path></g></g><g transform="translate(526.771484375 114.251953125) rotate(0 38 11.5)"><text x="0" y="18" font-family="Cascadia" font-size="20px" fill="#000000" text-anchor="start" style="white-space: pre;" direction="ltr">connect()</text></g><g><g transform="translate(723.537109375 336.705078125) rotate(0 -142.27798392448574 0.5691817408800262)"><path d="M0.45319764129817486 0.303343104198575 C-46.760692573462926 0.40357803789277874, -236.89492866682508 0.2722820191333691, -284.2054859805852 0.5549811709672212 M-0.7680123263597489 -0.5830057114362717 C-48.03517517705759 -0.3361800799767176, -237.86818000773587 1.6168049142758054, -285.00916549026965 1.7213691931962969" stroke="#000000" stroke-width="1" fill="none"></path></g><g transform="translate(723.537109375 336.705078125) rotate(0 -142.27798392448574 0.5691817408800262)"><path d="M-256.38310825382325 -8.272039021402948 C-264.3458357878759 -4.50792375207697, -268.21345697090186 -5.169862458844479, -284.9877796436101 2.0375732959061863 M-255.97057215147618 -8.741842625700288 C-263.6246111712711 -5.79791657352359, -273.09401203474937 -2.3164720905192713, -285.93981871869414 2.1593799146637322" stroke="#000000" stroke-width="1" fill="none"></path></g><g transform="translate(723.537109375 336.705078125) rotate(0 -142.27798392448574 0.5691817408800262)"><path d="M-256.2438205671235 12.248696865162463 C-264.2296912439879 11.434041381787141, -268.1283951162776 6.192805881892714, -284.9877796436101 2.0375732959061863 M-255.83128446477645 11.778893260865123 C-263.61847389652803 9.091668566006327, -273.1260969859845 6.9419749141285445, -285.93981871869414 2.1593799146637322" stroke="#000000" stroke-width="1" fill="none"></path></g></g><g transform="translate(509.732421875 298.955078125) rotate(0 84.5 11.5)"><text x="0" y="18" font-family="Cascadia" font-size="20px" fill="#000000" text-anchor="start" style="white-space: pre;" direction="ltr">connect() succeeded!</text></g><g><g transform="translate(729.736328125 209.056640625) rotate(0 -142.65630955557342 2.0099585419427513)"><path d="M-0.27852065674960613 0.3293780397623778 C-48.247670742993556 0.9784034998466572, -239.27497531684736 3.930673169220487, -287.08873638026415 4.563219518586993 M1.7761172691173854 -0.5433024347014725 C-45.856449698091794 -0.31053804737205304, -236.34591521151984 1.7210174337836603, -284.68791922478005 2.728131892066449" stroke="#000000" stroke-width="1" fill="none"></path></g><g transform="translate(729.736328125 209.056640625) rotate(0 -142.65630955557342 2.0099585419427513)"><path d="M-256.104360066921 -8.939560912550334 C-265.7879744753436 -5.274943900505998, -276.62576867724033 -0.5797452089057202, -282.94804471096023 4.210788488294929 M-257.3229305107226 -8.553453658708278 C-266.23989840420535 -3.8928369074937983, -276.31820810811706 -0.6499819608790522, -283.95577847601845 1.8942153629846872" stroke="#000000" stroke-width="1" fill="none"></path></g><g transform="translate(729.736328125 209.056640625) rotate(0 -142.65630955557342 2.0099585419427513)"><path d="M-255.79826672721788 11.579364723389496 C-265.7066363968333 7.845917939444929, -276.6547814344683 5.143763279372976, -282.94804471096023 4.210788488294929 M-257.01683717101946 11.965471977231552 C-265.9945860070833 9.119579040653186, -276.18487317239385 4.856040004393956, -283.95577847601845 1.8942153629846872" stroke="#000000" stroke-width="1" fill="none"></path></g></g><g transform="translate(523.365234375 176.904296875) rotate(0 37 11.5)"><text x="0" y="18" font-family="Cascadia" font-size="20px" fill="#000000" text-anchor="start" style="white-space: pre;" direction="ltr">readings!</text></g><g><g transform="translate(728.5 224.294921875) rotate(0 -142.64238711561077 1.7978353053144929)"><path d="M0.6291519273072481 0.19268304817378512 C-47.00456000280877 0.7769429595520099, -237.78111269983154 2.5730591407666603, -285.49267535321417 3.2250562500208617 M-0.4996820401959121 -0.7517622968740763 C-48.23070581931 -0.007765371321390213, -238.3377747205707 3.3106560403915744, -285.9139261585288 4.347432907503098" stroke="#000000" stroke-width="1" fill="none"></path></g><g transform="translate(728.5 224.294921875) rotate(0 -142.64238711561077 1.7978353053144929)"><path d="M-257.60486473558825 -4.781877302555259 C-268.3873234533408 -1.3618708445579708, -276.0397642149009 0.20387537731869276, -284.0668718241714 3.507206672634929 M-257.85226073066127 -6.833955472325798 C-267.6232031753242 -2.490808429992379, -279.222317364036 1.1543390061124255, -285.7989772907086 5.044231456536799" stroke="#000000" stroke-width="1" fill="none"></path></g><g transform="translate(728.5 224.294921875) rotate(0 -142.64238711561077 1.7978353053144929)"><path d="M-257.2096125065235 15.735524532503163 C-268.0728842992071 12.473040203674866, -275.8540981127385 7.3542233578785385, -284.0668718241714 3.507206672634929 M-257.45700850159653 13.683446362732624 C-267.1782620193515 10.394831501234847, -278.92439850932163 6.408103866653113, -285.7989772907086 5.044231456536799" stroke="#000000" stroke-width="1" fill="none"></path></g></g><g><g transform="translate(728.79296875 244.267578125) rotate(0 -142.74394138540143 2.1610280048101913)"><path d="M0.2224769700318574 -0.8141795922070741 C-47.48782187414666 0.04315160823365061, -237.4718208602319 4.399448453510802, -285.359189177677 5.136235601827503 M-1.1198613500408827 1.3727721765451135 C-48.96768017310029 1.923202817918112, -237.8661046651813 3.0458997423263883, -285.7103597408347 3.601981419008225" stroke="#000000" stroke-width="1" fill="none"></path></g><g transform="translate(728.79296875 244.267578125) rotate(0 -142.74394138540143 2.1610280048101913)"><path d="M-258.96445259077495 -5.0021547888089115 C-266.28515595254356 -3.9148977513824623, -279.37931861226093 1.7291420802393098, -285.4629185961746 3.8334753074310717 M-257.1112874438802 -6.867349032187849 C-264.7158780166735 -5.604523892868526, -270.46267376469433 -2.9777003484900773, -285.18778567465023 2.7747302091307935" stroke="#000000" stroke-width="1" fill="none"></path></g><g transform="translate(728.79296875 244.267578125) rotate(0 -142.74394138540143 2.1610280048101913)"><path d="M-258.79066349159973 15.518317908837389 C-266.1752499218884 8.906267135233403, -279.33462120440015 6.850676955222998, -285.4629185961746 3.8334753074310717 M-256.937498344705 13.653123665458452 C-264.6904785823324 10.358144658924175, -270.4758684407939 8.427896480477262, -285.18778567465023 2.7747302091307935" stroke="#000000" stroke-width="1" fill="none"></path></g></g><g transform="translate(191.10937500000003 19.48046875) rotate(0 68.458984375 26.958984375)"><path d="M-0.7160695474594831 -1.3931254167109728 C53.826492564667205 1.88359177115879, 105.01349628140815 -0.3495491146711356, 135.22079989500344 -0.0377995390444994 M0.6849357774481177 0.5349131980910897 C37.61531286629434 0.49381816658675226, 74.03064383545062 -1.1087490591079041, 137.78540545608848 0.03723959717899561 M137.1037645060569 0.5469406228512526 C138.38252214454678 12.138414817043309, 138.2923569466975 29.752897357792982, 138.74434068985283 54.71787738613786 M136.8747344603762 -0.9623944303020835 C136.8608685379611 17.10208927930617, 136.40370666438207 34.66747421114343, 136.26499810721725 54.37207098398359 M137.788117678836 52.87691259197892 C95.44608776147179 51.36953953570415, 54.426844175284344 51.33661303586055, 1.4139557797461748 54.97741287760438 M137.38537111785263 53.897667364217355 C92.94787576723792 53.271430900005925, 48.42081037115203 53.00622596373998, -0.20083713624626398 53.308565006591394 M1.0594631154090166 55.26201265864076 C-1.752298425457957 40.354137989184174, -0.2174216616373087 29.06241131472271, 0.4931339342147112 0.06813847832381725 M-0.8753478536382318 54.001725778915 C-1.1984973433213963 35.427771025199405, -0.20105983640725755 15.559124231994069, 0.9509795596823096 0.7343254247680306" stroke="#000000" stroke-width="1" fill="none"></path></g><g transform="translate(205.42382812500003 35.185546875) rotate(0 53 11.5)"><text x="53" y="18" font-family="Cascadia" font-size="20px" fill="#000000" text-anchor="middle" style="white-space: pre;" direction="ltr">connect_all()</text></g><g><g transform="translate(246.20507812500003 73.970703125) rotate(0 -1.405251108808443 199.21760865561663)"><path d="M0.45287561304867263 -0.8412825275212525 C0.005460400258501308 65.82077775311966, -2.1595209212352833 332.5745954266439, -2.762167228385806 399.27649983875455 M-0.7685034194402396 1.331440200190991 C-1.2926707983824115 67.7296881576193, -2.7760777269614243 331.6010262201043, -3.2633778306655588 397.6395171928219" stroke="#000000" stroke-width="1" fill="none"></path></g></g><g><g transform="translate(251.8909102821723 145.02035971900455) rotate(0 91.24354051533155 -1.3163581320643516)"><path d="M0.4298822510987521 0.44614278785884376 C30.868313122261316 0.29384901234568583, 153.050576991681 -1.0424128840833191, 183.29064932707695 -1.3595866492205004 M-0.8035682964138686 -0.3652361938543618 C29.467955541424452 -0.8169355638356366, 151.78320128399878 -2.5651984126276557, 182.6358230489306 -3.0788590519875925" stroke="#000000" stroke-width="1" fill="none"></path></g><g transform="translate(251.8909102821723 145.02035971900455) rotate(0 91.24354051533155 -1.3163581320643516)"><path d="M155.34898024554028 8.542920837270705 C165.8763995065854 2.279948651563851, 175.66515765773192 1.4792057774219165, 183.7394472456537 -2.0352590310574215 M154.75805788709445 8.129756298939375 C161.81743586492507 5.080897741680929, 171.00753752439218 2.027439352954274, 181.7404908307828 -3.6603612651304047" stroke="#000000" stroke-width="1" fill="none"></path></g><g transform="translate(251.8909102821723 145.02035971900455) rotate(0 91.24354051533155 -1.3163581320643516)"><path d="M155.03485705016215 -11.975883440853424 C165.59756026251623 -10.955695802925913, 175.49783382596604 -4.47215355354722, 183.7394472456537 -2.0352590310574215 M154.44393469171632 -12.389047979184754 C161.73482834863134 -9.674826802485832, 171.0131453871485 -6.965978797791525, 181.7404908307828 -3.6603612651304047" stroke="#000000" stroke-width="1" fill="none"></path></g></g><g transform="translate(268.208984375 105.736328125) rotate(0 65.5 11.5)"><text x="0" y="18" font-family="Cascadia" font-size="20px" fill="#000000" text-anchor="start" style="white-space: pre;" direction="ltr">sensor.connect()</text></g><g><g transform="translate(434.8733132246323 357.21274247877295) rotate(0 -93.67226601179686 0.9809265207026101)"><path d="M-0.28778765313327315 -0.5978043962270021 C-31.868949695943535 -0.3261541102332292, -157.29475223033995 0.9381831611184187, -188.67506626594806 1.1439891020194182 M1.7619850996322932 1.702744350414723 C-29.962140905136852 2.200986919061351, -157.35227902357772 2.5823467804541598, -189.106517123226 2.5596574376322816" stroke="#000000" stroke-width="1" fill="none"></path></g><g transform="translate(434.8733132246323 357.21274247877295) rotate(0 -93.67226601179686 0.9809265207026101)"><path d="M-161.92898073814882 -6.1072822241950675 C-171.71928024287217 -2.2097612336852084, -182.9225847412817 -0.024520892308757425, -190.23048152046272 3.6742384246536086 M-161.64177656475528 -8.474628344262008 C-172.61568622694398 -3.612972509203326, -183.57277830761095 -0.7021237728382976, -188.21685762999573 3.3130551566355417" stroke="#000000" stroke-width="1" fill="none"></path></g><g transform="translate(434.8733132246323 357.21274247877295) rotate(0 -93.67226601179686 0.9809265207026101)"><path d="M-161.89525372966636 14.413898659826653 C-171.61485742825002 10.766545358295089, -182.8305619592245 5.406992292768604, -190.23048152046272 3.6742384246536086 M-161.60804955627282 12.046552539759713 C-172.6977221180329 8.762251553046198, -183.6682018387734 3.5273976042157678, -188.21685762999573 3.3130551566355417" stroke="#000000" stroke-width="1" fill="none"></path></g></g><g transform="translate(258.271484375 330.994140625) rotate(0 84.5 11.5)"><text x="0" y="18" font-family="Cascadia" font-size="20px" fill="#000000" text-anchor="start" style="white-space: pre;" direction="ltr">connect() succeeded!</text></g><g transform="translate(139.81347656250003 174.75) rotate(0 37 11.5)"><text x="0" y="18" font-family="Cascadia" font-size="20px" fill="#000000" text-anchor="start" style="white-space: pre;" direction="ltr">readings!</text></g><g><g transform="translate(437.7171343911439 251.86606990806763) rotate(0 -172.61903017726723 1.415774737233562)"><path d="M0.7171343911439181 -0.805805091932416 C-56.64793282899383 -0.5584344934733356, -287.3954053433301 1.8244414526663002, -344.89291313048443 2.633201592751357 M-0.36550878284499055 1.3855432894639672 C-57.84616704204428 2.2578673480203606, -288.54615931591627 3.549430742065536, -345.95519474567834 3.6373545663995173" stroke="#000000" stroke-width="1" fill="none"></path></g><g transform="translate(437.7171343911439 251.86606990806763) rotate(0 -172.61903017726723 1.415774737233562)"><path d="M-319.1491454408606 -7.09981411058676 C-326.1965323158667 -3.384919533917043, -330.63741029097844 -2.092155259766712, -345.3369388007558 3.4700719236028816 M-318.5910063578849 -7.168139791267333 C-327.62176078972624 -3.477766129543396, -337.1650219221082 0.8694315173388816, -346.294339572545 2.777416884582999" stroke="#000000" stroke-width="1" fill="none"></path></g><g transform="translate(437.7171343911439 251.86606990806763) rotate(0 -172.61903017726723 1.415774737233562)"><path d="M-319.06616473011957 13.421226715538147 C-326.33007312546647 12.181657654111312, -330.7909874168582 8.519462387486142, -345.3369388007558 3.4700719236028816 M-318.5080256471439 13.352901034857574 C-327.6048648415575 9.758769148822497, -337.17758225737595 6.821459473616475, -346.294339572545 2.777416884582999" stroke="#000000" stroke-width="1" fill="none"></path></g></g><g><g transform="translate(435.4360819410533 211.80668908245866) rotate(0 -171.73172700360416 0.5056648746216297)"><path d="M0.35795694105327125 -1.0604984175413847 C-57.00550068017095 -0.7133805815226955, -286.0159822447225 0.3708247508371263, -343.23083108603953 1.012357488589214 M-0.9132543942332269 0.9971359679102898 C-58.458273235149676 1.562618040283807, -286.7766151908412 2.087882654469648, -343.8214109482616 2.071828166784571" stroke="#000000" stroke-width="1" fill="none"></path></g><g transform="translate(435.4360819410533 211.80668908245866) rotate(0 -171.73172700360416 0.5056648746216297)"><path d="M-317.41187969686683 -7.09166407058796 C-327.9371445629718 -2.6034208596324104, -335.6601666155991 -1.1432883787136436, -344.1075352987647 2.5633050322698816 M-315.29494332334247 -8.455977675829438 C-324.5729250119828 -5.025630704412916, -332.1798092440712 -2.646260626232726, -344.23043827045706 1.913958469236122" stroke="#000000" stroke-width="1" fill="none"></path></g><g transform="translate(435.4360819410533 211.80668908245866) rotate(0 -171.73172700360416 0.5056648746216297)"><path d="M-317.38443011737365 13.4295261703904 C-327.73706236812615 10.137045934871086, -335.4704921910562 3.816373087919084, -344.1075352987647 2.5633050322698816 M-315.2674937438493 12.065212565148922 C-324.4269064381803 9.257565812499658, -332.04213503203675 5.39872610957874, -344.23043827045706 1.913958469236122" stroke="#000000" stroke-width="1" fill="none"></path></g></g><g><g transform="translate(433.6640161111951 230.5040472480655) rotate(0 -169.80073351323608 3.261332582831301)"><path d="M-0.8822550226002932 0.6678040612488985 C-57.39031693217655 1.5709502390771868, -283.33943598705036 4.283385759964468, -340.1230102104694 5.131630433276155 M0.8554223611950875 -0.02720275193452837 C-55.614268898566564 1.085580626726127, -283.2306365434329 5.941328618526342, -340.4568893876672 6.549867917597153" stroke="#000000" stroke-width="1" fill="none"></path></g><g transform="translate(433.6640161111951 230.5040472480655) rotate(0 -169.80073351323608 3.261332582831301)"><path d="M-311.3288844792926 -2.2316549533015415 C-318.7416186432475 -2.6137499106853284, -323.5945484165309 1.5595225647061701, -340.9753788695485 6.544088027253606 M-313.25576872535134 -4.861096455805592 C-322.47307820392547 0.6421607587837408, -331.8344954285121 3.1351580369689294, -339.5234577464685 6.228620219789304" stroke="#000000" stroke-width="1" fill="none"></path></g><g transform="translate(433.6640161111951 230.5040472480655) rotate(0 -169.80073351323608 3.261332582831301)"><path d="M-310.98522986113096 18.286675970271553 C-318.421169850617 13.584037940507606, -323.34642062848826 13.43929393529322, -340.9753788695485 6.544088027253606 M-312.9121141071897 15.657234467767502 C-322.099937513108 13.983439123618174, -331.5816151803172 9.296135517315346, -339.5234577464685 6.228620219789304" stroke="#000000" stroke-width="1" fill="none"></path></g></g><g transform="translate(366.0625 21.78125) rotate(0 68.458984375 26.958984375)"><path d="M-0.9401587527245283 1.5968472342938185 C30.892625652389327 -0.2881780515502397, 60.17594297071119 0.3073076953102645, 138.82684031315148 -0.8607751149684191 M-0.2525091180577874 -0.8676377674564719 C51.768778919938995 -1.679272040092437, 103.75722909019896 -0.49148644443699574, 137.2507821014151 -0.7667138418182731 M138.6857723314315 1.6466792803257704 C136.26453904826408 15.739471586009682, 138.07655166108376 31.33921999215746, 137.67546007223427 54.781584320589914 M136.54682955052704 0.7397022405639291 C136.57656963836246 15.28459820610988, 137.13186561237865 31.03910511068171, 137.32505267765373 54.26624052319677 M135.670302124694 55.802298603579416 C102.17757139469431 53.255460626344046, 71.13793705446514 55.97340197012838, -1.5799069087952375 54.23157429508866 M136.00443905498832 52.92606084141882 C108.78305958181336 53.72843893317373, 82.07345894012033 54.56688027528913, -0.945976466871798 54.6879363814369 M1.2573881465941668 53.30119299702348 C-0.3407817692121534 41.079104251243926, -1.5310465306600598 30.445392504365746, 1.7832125145941973 1.4512919764965773 M0.03300860431045294 53.27630741987379 C0.8396850969821026 39.56414110594379, 1.2169510569602062 26.24060184432092, 0.5369073143228889 -0.9470303198322654" stroke="#000000" stroke-width="1" fill="none"></path></g><g transform="translate(662.375 10) rotate(0 68.458984375 26.958984375)"><path d="M-0.8135594148188829 0.6734872777014971 C34.43837355326214 -0.5436857967763717, 65.38158879368203 -0.9105119138150986, 138.16807871870697 0.05829945392906666 M-0.22944103088229895 0.6519982805475593 C29.176527912852546 -0.41657612642931785, 57.90502283467577 -0.36306256971049156, 136.84083275590092 0.5684288432821631 M135.44251614622772 -1.572636691853404 C136.0059398154596 21.348393879328437, 138.20298424762285 38.44536019574954, 135.16066360287368 55.04121181555094 M136.89283447060734 0.7431994369253516 C137.55201781818974 16.890273628892107, 135.62496767470944 32.60616400585642, 136.3699543038383 54.71263807918878 M135.48595857433975 53.354779453948154 C101.20813593226666 55.23045876071888, 69.18739146096995 55.19936796472508, -0.5157445091754198 54.41476634331049 M136.64640517625958 53.27270072605462 C89.83466103248466 54.436989539200056, 41.90727148007937 54.552646421724546, 0.5637267688289285 53.57282689120622 M-0.33832246251404285 54.754380734637394 C-1.1135954159389438 41.31957523260681, 0.9156214100231228 23.31717520237799, 0.1458734255284071 1.4561236817389727 M-0.41803921665996313 54.74694135691972 C-0.5581580046946693 36.53181744555879, -0.12495767515250916 17.896923293414154, -0.526183589361608 0.5919579258188605" stroke="#000000" stroke-width="1" fill="none"></path></g><g transform="translate(10 19.2890625) rotate(0 85.59960937500003 26.958984375)"><path d="M0.41794627718627453 -1.3152539413422346 C51.25994336014958 -1.8822698736215175, 104.550363828733 -1.6769428992295803, 171.3220716696233 -1.7667168658226728 M0.5583472112193704 -0.02176722977310419 C40.448917844605255 1.2331626810012317, 83.1970181181889 0.8140609957156635, 171.58905400428927 -0.2624402055516839 M173.04516327194875 1.588018985465169 C170.54462491737178 12.961097789530692, 171.48644130693248 30.201213413054223, 172.0816109757871 55.87309971638025 M171.46763195190584 0.5736691942438483 C170.92904912128566 16.652010164254538, 171.1215716172707 32.42285506340341, 172.0271025160328 54.695238917134716 M171.72616559080785 54.16892138309778 C128.2809443432478 53.38276437368256, 81.26009862974536 54.73547217693192, -0.0750961322337389 52.95256969518961 M171.90185813698923 53.023818104527905 C126.95136704508445 54.620224741264735, 82.05890608165866 55.00881081537858, -0.29784087743610144 54.84097403194757 M-0.6609339732676744 53.974145146086826 C-0.014372648258758947 35.006064647298274, 0.6764862522882686 17.188834444530222, 1.7671725135296583 -0.8155994098633528 M0.6919889012351632 54.91422027256341 C0.3291080240045631 41.89795209946279, 1.0064537469183052 30.72817955471911, -0.3975864788517356 0.10307934787124395" stroke="#000000" stroke-width="1" fill="none"></path></g><g transform="translate(21.50195312500003 34.212890625) rotate(0 75 11.5)"><text x="75" y="18" font-family="Cascadia" font-size="20px" fill="#000000" text-anchor="middle" style="white-space: pre;" direction="ltr">publish_readings()</text></g><g><g transform="translate(93.73828125000003 75.974609375) rotate(0 -1.7755382245779074 199.01206262383613)"><path d="M-1.1160464096814393 0.12375826723873606 C-1.821175536389152 66.67747983423372, -3.0572706588854395 332.4970093159626, -3.2779633689671757 398.8809978354722 M0.4988904958963394 -0.856872587800026 C-0.41829060177008326 65.37615883131822, -3.535146076877912 330.26270740131537, -4.049966945052147 397.03637663781643" stroke="#000000" stroke-width="1" fill="none"></path></g></g></svg>
