<svg version="1.1" xmlns="http://www.w3.org/2000/svg" viewBox="0 0 815.8203125 489.3344362732769" width="815.8203125" height="489.3344362732769">
  <!-- svg-source:excalidraw -->
  
  <defs>
    <style>
      @font-face {
        font-family: "Virgil";
        src: url("https://excalidraw.com/Virgil.woff2");
      }
      @font-face {
        font-family: "Cascadia";
        src: url("https://excalidraw.com/Cascadia.woff2");
      }
    </style>
  </defs>
  <rect x="0" y="0" width="815.8203125" height="489.3344362732769" fill="#ffffff"></rect><g transform="translate(264.552734375 330.994140625) rotate(0 85 12.5)"><text x="0" y="18" font-family="Virgil, Segoe UI Emoji" font-size="20px" fill="#000000" text-anchor="start" style="white-space: pre;" direction="ltr">connect() success</text></g><g transform="translate(713.763671875 21.32421875) rotate(0 28.5 12.5)"><text x="28.5" y="18" font-family="Virgil, Segoe UI Emoji" font-size="20px" fill="#000000" text-anchor="middle" style="white-space: pre;" direction="ltr">kernel</text></g><g transform="translate(379.56640625 38.01953125) rotate(0 64 12.5)"><text x="64" y="18" font-family="Virgil, Segoe UI Emoji" font-size="20px" fill="#000000" text-anchor="middle" style="white-space: pre;" direction="ltr">dbus::nonblock</text></g><g><g transform="translate(444.998046875 78.232421875) rotate(0 -1.2575864596199153 194.78748181669044)"><path d="M-1.1205091964453457 0.700578386709094 C-1.749907339736819 65.19298585566382, -2.863790537044406 323.61789778781434, -3.007257665321231 388.0863310288638 M0.4920847460813822 0.022778094392269743 C0.17905550749972482 65.2185848108741, -0.186778344195336 324.8134588052643, -0.7051680907420814 389.55218553898857" stroke="#000000" stroke-width="1" fill="none"></path></g></g><g><g transform="translate(739.408203125 63.916015625) rotate(0 0.20923503905532925 207.49855461567645)"><path d="M-0.1548671174794436 0.4093721497803926 C-0.03091642546157046 69.3278880028675, -0.2802596100916464 345.26166855779786, -0.17977045066654673 414.06854462511836 M-1.6953110834956169 -0.42131141692399976 C-1.108311473230521 68.62153714785974, 1.898965694407622 346.3563420419892, 2.113781161606312 415.4184206482768" stroke="#000000" stroke-width="1" fill="none"></path></g></g><g><g transform="translate(449.38135172218085 157.63585639148948) rotate(0 142.56610691305252 -0.791054793074693)"><path d="M0.5729138206690549 -0.07696248404681683 C48.074976373687385 -0.45241886116563895, 238.38449252881108 -1.145907384529691, 285.71765897892413 -1.5051471021026146 M-0.5854451528191567 -1.1629717335104943 C46.70947789147496 -1.419653737097975, 236.92422693625093 -0.0463258565962125, 284.8451781177521 -0.08879673957822432" stroke="#000000" stroke-width="1" fill="none"></path></g><g transform="translate(449.38135172218085 157.63585639148948) rotate(0 142.56610691305252 -0.791054793074693)"><path d="M256.48993001375254 10.311688933651212 C266.2976316630957 4.621993229844582, 275.21263753012977 4.205399160104785, 286.7545280342549 -1.858977231308795 M255.91339882984664 10.574910611975255 C264.1583370267148 7.010719456189403, 271.9374473027581 4.036994849779563, 285.8028521004692 -0.20797700259832252" stroke="#000000" stroke-width="1" fill="none"></path></g><g transform="translate(449.38135172218085 157.63585639148948) rotate(0 142.56610691305252 -0.791054793074693)"><path d="M256.56268167517646 -10.20939070611432 C266.4721267607914 -8.536316666705996, 275.36103124955673 -1.5904883301667248, 286.7545280342549 -1.858977231308795 M255.98615049127056 -9.946169027790276 C264.1649346008971 -7.746924125611935, 271.92361081342654 -4.956807239952669, 285.8028521004692 -0.20797700259832252" stroke="#000000" stroke-width="1" fill="none"></path></g></g><g transform="translate(533.298828125 114.251953125) rotate(0 43 12.5)"><text x="0" y="18" font-family="Virgil, Segoe UI Emoji" font-size="20px" fill="#000000" text-anchor="start" style="white-space: pre;" direction="ltr">connect()</text></g><g><g transform="translate(730.064453125 336.705078125) rotate(0 -141.97201979462056 0.8503761818285511)"><path d="M0.45319764129817486 0.303343104198575 C-46.65870453017453 0.49730951820895375, -236.3849884503831 0.7409394207142441, -283.59355772085485 1.1173700528642712 M-0.7680123263597489 -0.5830057114362717 C-47.933187133769195 -0.2424485996605426, -237.35823979129393 2.08546231585668, -284.3972372305393 2.283758075093347" stroke="#000000" stroke-width="1" fill="none"></path></g><g transform="translate(730.064453125 336.705078125) rotate(0 -141.97201979462056 0.8503761818285511)"><path d="M-255.79213551399982 -7.765859117835065 C-263.750208474657 -3.989279697529456, -267.6131533368317 -4.638675111715718, -284.37585138387976 2.5999621778032362 M-255.37959941165275 -8.235662722132405 C-263.0276279626071 -5.276310348958917, -272.49127837795635 -1.779441442427987, -285.3278904589638 2.721768796560782" stroke="#000000" stroke-width="1" fill="none"></path></g><g transform="translate(730.064453125 336.705078125) rotate(0 -141.97201979462056 0.8503761818285511)"><path d="M-255.61181473214737 12.754557223006367 C-263.60218768355446 11.952592166227921, -267.5053719592978 6.723971267015835, -284.37585138387976 2.5999621778032362 M-255.1992786298003 12.284753618709027 C-262.9917160921281 9.61303921661408, -272.5048487110793 7.478857675474621, -285.3278904589638 2.721768796560782" stroke="#000000" stroke-width="1" fill="none"></path></g></g><g transform="translate(516.259765625 298.955078125) rotate(0 85 12.5)"><text x="0" y="18" font-family="Virgil, Segoe UI Emoji" font-size="20px" fill="#000000" text-anchor="start" style="white-space: pre;" direction="ltr">connect() success</text></g><g><g transform="translate(736.263671875 209.056640625) rotate(0 -142.65630955557342 2.0099585419427513)"><path d="M-0.27852065674960613 0.3293780397623778 C-48.247670742993556 0.9784034998466572, -239.27497531684736 3.930673169220487, -287.08873638026415 4.563219518586993 M1.7761172691173854 -0.5433024347014725 C-45.856449698091794 -0.31053804737205304, -236.34591521151984 1.7210174337836603, -284.68791922478005 2.728131892066449" stroke="#000000" stroke-width="1" fill="none"></path></g><g transform="translate(736.263671875 209.056640625) rotate(0 -142.65630955557342 2.0099585419427513)"><path d="M-256.104360066921 -8.939560912550334 C-265.7879744753436 -5.274943900505998, -276.62576867724033 -0.5797452089057202, -282.94804471096023 4.210788488294929 M-257.3229305107226 -8.553453658708278 C-266.23989840420535 -3.8928369074937983, -276.31820810811706 -0.6499819608790522, -283.95577847601845 1.8942153629846872" stroke="#000000" stroke-width="1" fill="none"></path></g><g transform="translate(736.263671875 209.056640625) rotate(0 -142.65630955557342 2.0099585419427513)"><path d="M-255.79826672721788 11.579364723389496 C-265.7066363968333 7.845917939444929, -276.6547814344683 5.143763279372976, -282.94804471096023 4.210788488294929 M-257.01683717101946 11.965471977231552 C-265.9945860070833 9.119579040653186, -276.18487317239385 4.856040004393956, -283.95577847601845 1.8942153629846872" stroke="#000000" stroke-width="1" fill="none"></path></g></g><g transform="translate(529.892578125 176.904296875) rotate(0 42.5 12.5)"><text x="0" y="18" font-family="Virgil, Segoe UI Emoji" font-size="20px" fill="#000000" text-anchor="start" style="white-space: pre;" direction="ltr">readings!</text></g><g><g transform="translate(735.02734375 224.294921875) rotate(0 -142.64238711561077 1.7978353053144929)"><path d="M0.6291519273072481 0.19268304817378512 C-47.00456000280877 0.7769429595520099, -237.78111269983154 2.5730591407666603, -285.49267535321417 3.2250562500208617 M-0.4996820401959121 -0.7517622968740763 C-48.23070581931 -0.007765371321390213, -238.3377747205707 3.3106560403915744, -285.9139261585288 4.347432907503098" stroke="#000000" stroke-width="1" fill="none"></path></g><g transform="translate(735.02734375 224.294921875) rotate(0 -142.64238711561077 1.7978353053144929)"><path d="M-257.60486473558825 -4.781877302555259 C-268.3873234533408 -1.3618708445579708, -276.0397642149009 0.20387537731869276, -284.0668718241714 3.507206672634929 M-257.85226073066127 -6.833955472325798 C-267.6232031753242 -2.490808429992379, -279.222317364036 1.1543390061124255, -285.7989772907086 5.044231456536799" stroke="#000000" stroke-width="1" fill="none"></path></g><g transform="translate(735.02734375 224.294921875) rotate(0 -142.64238711561077 1.7978353053144929)"><path d="M-257.2096125065235 15.735524532503163 C-268.0728842992071 12.473040203674866, -275.8540981127385 7.3542233578785385, -284.0668718241714 3.507206672634929 M-257.45700850159653 13.683446362732624 C-267.1782620193515 10.394831501234847, -278.92439850932163 6.408103866653113, -285.7989772907086 5.044231456536799" stroke="#000000" stroke-width="1" fill="none"></path></g></g><g><g transform="translate(735.3203125 244.267578125) rotate(0 -142.74394138540143 2.1610280048101913)"><path d="M0.2224769700318574 -0.8141795922070741 C-47.48782187414666 0.04315160823365061, -237.4718208602319 4.399448453510802, -285.359189177677 5.136235601827503 M-1.1198613500408827 1.3727721765451135 C-48.96768017310029 1.923202817918112, -237.8661046651813 3.0458997423263883, -285.7103597408347 3.601981419008225" stroke="#000000" stroke-width="1" fill="none"></path></g><g transform="translate(735.3203125 244.267578125) rotate(0 -142.74394138540143 2.1610280048101913)"><path d="M-258.96445259077495 -5.0021547888089115 C-266.28515595254356 -3.9148977513824623, -279.37931861226093 1.7291420802393098, -285.4629185961746 3.8334753074310717 M-257.1112874438802 -6.867349032187849 C-264.7158780166735 -5.604523892868526, -270.46267376469433 -2.9777003484900773, -285.18778567465023 2.7747302091307935" stroke="#000000" stroke-width="1" fill="none"></path></g><g transform="translate(735.3203125 244.267578125) rotate(0 -142.74394138540143 2.1610280048101913)"><path d="M-258.79066349159973 15.518317908837389 C-266.1752499218884 8.906267135233403, -279.33462120440015 6.850676955222998, -285.4629185961746 3.8334753074310717 M-256.937498344705 13.653123665458452 C-264.6904785823324 10.358144658924175, -270.4758684407939 8.427896480477262, -285.18778567465023 2.7747302091307935" stroke="#000000" stroke-width="1" fill="none"></path></g></g><g><g transform="translate(252.732421875 73.970703125) rotate(0 -1.405251108808443 199.21760865561663)"><path d="M0.45287561304867263 -0.8412825275212525 C0.005460400258501308 65.82077775311966, -2.1595209212352833 332.5745954266439, -2.762167228385806 399.27649983875455 M-0.7685034194402396 1.331440200190991 C-1.2926707983824115 67.7296881576193, -2.7760777269614243 331.6010262201043, -3.2633778306655588 397.6395171928219" stroke="#000000" stroke-width="1" fill="none"></path></g></g><g><g transform="translate(258.4182540321723 145.02035971900455) rotate(0 91.24354051533155 -1.3163581320643516)"><path d="M0.4298822510987521 0.44614278785884376 C30.868313122261316 0.29384901234568583, 153.050576991681 -1.0424128840833191, 183.29064932707695 -1.3595866492205004 M-0.8035682964138686 -0.3652361938543618 C29.467955541424452 -0.8169355638356366, 151.78320128399878 -2.5651984126276557, 182.6358230489306 -3.0788590519875925" stroke="#000000" stroke-width="1" fill="none"></path></g><g transform="translate(258.4182540321723 145.02035971900455) rotate(0 91.24354051533155 -1.3163581320643516)"><path d="M155.34898024554028 8.542920837270705 C165.8763995065854 2.279948651563851, 175.66515765773192 1.4792057774219165, 183.7394472456537 -2.0352590310574215 M154.75805788709445 8.129756298939375 C161.81743586492507 5.080897741680929, 171.00753752439218 2.027439352954274, 181.7404908307828 -3.6603612651304047" stroke="#000000" stroke-width="1" fill="none"></path></g><g transform="translate(258.4182540321723 145.02035971900455) rotate(0 91.24354051533155 -1.3163581320643516)"><path d="M155.03485705016215 -11.975883440853424 C165.59756026251623 -10.955695802925913, 175.49783382596604 -4.47215355354722, 183.7394472456537 -2.0352590310574215 M154.44393469171632 -12.389047979184754 C161.73482834863134 -9.674826802485832, 171.0131453871485 -6.965978797791525, 181.7404908307828 -3.6603612651304047" stroke="#000000" stroke-width="1" fill="none"></path></g></g><g transform="translate(274.736328125 105.736328125) rotate(0 74.5 12.5)"><text x="0" y="18" font-family="Virgil, Segoe UI Emoji" font-size="20px" fill="#000000" text-anchor="start" style="white-space: pre;" direction="ltr">sensor.connect()</text></g><g><g transform="translate(439.88866958022726 357.9471518916823) rotate(0 -92.91627231459435 0.680770629071219)"><path d="M-0.28778765313327315 -0.5978043962270021 C-31.61695179687603 -0.4485556790514579, -156.03476273500243 0.3261753170272755, -187.16307887154304 0.4095796891100463 M1.7619850996322932 1.702744350414723 C-29.710143006069348 2.0785853502431224, -156.0922895282402 1.9703389363630164, -187.594529728821 1.8252480247229097" stroke="#000000" stroke-width="1" fill="none"></path></g><g transform="translate(439.88866958022726 357.9471518916823) rotate(0 -92.91627231459435 0.680770629071219)"><path d="M-160.37735732585787 -6.732694407797611 C-170.1817880032401 -2.8753422676734566, -181.39966503371352 -0.7301757203779857, -188.7184941260577 2.9398290117442367 M-160.09015315246432 -9.100040527864552 C-171.08033974524716 -4.2819488481515044, -182.0531649954207 -1.4143656055444307, -186.7048702355907 2.57864574372617" stroke="#000000" stroke-width="1" fill="none"></path></g><g transform="translate(439.88866958022726 357.9471518916823) rotate(0 -92.91627231459435 0.680770629071219)"><path d="M-160.42296545250105 13.78846350993753 C-170.12753215357773 10.101140065714613, -181.32864095345357 4.70152164986526, -188.7184941260577 2.9398290117442367 M-160.1357612791075 11.42111738987059 C-171.2102192711404 8.093859162713041, -182.16494077563948 2.8157488363905934, -186.7048702355907 2.57864574372617" stroke="#000000" stroke-width="1" fill="none"></path></g></g><g transform="translate(146.3408203125 174.75) rotate(0 42.5 12.5)"><text x="0" y="18" font-family="Virgil, Segoe UI Emoji" font-size="20px" fill="#000000" text-anchor="start" style="white-space: pre;" direction="ltr">readings!</text></g><g><g transform="translate(444.2444781411439 251.86606990806763) rotate(0 -172.61903017726723 1.415774737233562)"><path d="M0.7171343911439181 -0.805805091932416 C-56.64793282899383 -0.5584344934733356, -287.3954053433301 1.8244414526663002, -344.89291313048443 2.633201592751357 M-0.36550878284499055 1.3855432894639672 C-57.84616704204428 2.2578673480203606, -288.54615931591627 3.549430742065536, -345.95519474567834 3.6373545663995173" stroke="#000000" stroke-width="1" fill="none"></path></g><g transform="translate(444.2444781411439 251.86606990806763) rotate(0 -172.61903017726723 1.415774737233562)"><path d="M-319.1491454408606 -7.09981411058676 C-326.1965323158667 -3.384919533917043, -330.63741029097844 -2.092155259766712, -345.3369388007558 3.4700719236028816 M-318.5910063578849 -7.168139791267333 C-327.62176078972624 -3.477766129543396, -337.1650219221082 0.8694315173388816, -346.294339572545 2.777416884582999" stroke="#000000" stroke-width="1" fill="none"></path></g><g transform="translate(444.2444781411439 251.86606990806763) rotate(0 -172.61903017726723 1.415774737233562)"><path d="M-319.06616473011957 13.421226715538147 C-326.33007312546647 12.181657654111312, -330.7909874168582 8.519462387486142, -345.3369388007558 3.4700719236028816 M-318.5080256471439 13.352901034857574 C-327.6048648415575 9.758769148822497, -337.17758225737595 6.821459473616475, -346.294339572545 2.777416884582999" stroke="#000000" stroke-width="1" fill="none"></path></g></g><g><g transform="translate(441.9634256910533 211.80668908245866) rotate(0 -171.73172700360416 0.5056648746216297)"><path d="M0.35795694105327125 -1.0604984175413847 C-57.00550068017095 -0.7133805815226955, -286.0159822447225 0.3708247508371263, -343.23083108603953 1.012357488589214 M-0.9132543942332269 0.9971359679102898 C-58.458273235149676 1.562618040283807, -286.7766151908412 2.087882654469648, -343.8214109482616 2.071828166784571" stroke="#000000" stroke-width="1" fill="none"></path></g><g transform="translate(441.9634256910533 211.80668908245866) rotate(0 -171.73172700360416 0.5056648746216297)"><path d="M-317.41187969686683 -7.09166407058796 C-327.9371445629718 -2.6034208596324104, -335.6601666155991 -1.1432883787136436, -344.1075352987647 2.5633050322698816 M-315.29494332334247 -8.455977675829438 C-324.5729250119828 -5.025630704412916, -332.1798092440712 -2.646260626232726, -344.23043827045706 1.913958469236122" stroke="#000000" stroke-width="1" fill="none"></path></g><g transform="translate(441.9634256910533 211.80668908245866) rotate(0 -171.73172700360416 0.5056648746216297)"><path d="M-317.38443011737365 13.4295261703904 C-327.73706236812615 10.137045934871086, -335.4704921910562 3.816373087919084, -344.1075352987647 2.5633050322698816 M-315.2674937438493 12.065212565148922 C-324.4269064381803 9.257565812499658, -332.04213503203675 5.39872610957874, -344.23043827045706 1.913958469236122" stroke="#000000" stroke-width="1" fill="none"></path></g></g><g><g transform="translate(440.1913598611951 230.5040472480655) rotate(0 -169.80073351323608 3.261332582831301)"><path d="M-0.8822550226002932 0.6678040612488985 C-57.39031693217655 1.5709502390771868, -283.33943598705036 4.283385759964468, -340.1230102104694 5.131630433276155 M0.8554223611950875 -0.02720275193452837 C-55.614268898566564 1.085580626726127, -283.2306365434329 5.941328618526342, -340.4568893876672 6.549867917597153" stroke="#000000" stroke-width="1" fill="none"></path></g><g transform="translate(440.1913598611951 230.5040472480655) rotate(0 -169.80073351323608 3.261332582831301)"><path d="M-311.3288844792926 -2.2316549533015415 C-318.7416186432475 -2.6137499106853284, -323.5945484165309 1.5595225647061701, -340.9753788695485 6.544088027253606 M-313.25576872535134 -4.861096455805592 C-322.47307820392547 0.6421607587837408, -331.8344954285121 3.1351580369689294, -339.5234577464685 6.228620219789304" stroke="#000000" stroke-width="1" fill="none"></path></g><g transform="translate(440.1913598611951 230.5040472480655) rotate(0 -169.80073351323608 3.261332582831301)"><path d="M-310.98522986113096 18.286675970271553 C-318.421169850617 13.584037940507606, -323.34642062848826 13.43929393529322, -340.9753788695485 6.544088027253606 M-312.9121141071897 15.657234467767502 C-322.099937513108 13.983439123618174, -331.5816151803172 9.296135517315346, -339.5234577464685 6.228620219789304" stroke="#000000" stroke-width="1" fill="none"></path></g></g><g transform="translate(372.58984375 21.78125) rotate(0 68.458984375 26.958984375)"><path d="M-0.9401587527245283 1.5968472342938185 C30.892625652389327 -0.2881780515502397, 60.17594297071119 0.3073076953102645, 138.82684031315148 -0.8607751149684191 M-0.2525091180577874 -0.8676377674564719 C51.768778919938995 -1.679272040092437, 103.75722909019896 -0.49148644443699574, 137.2507821014151 -0.7667138418182731 M138.6857723314315 1.6466792803257704 C136.26453904826408 15.739471586009682, 138.07655166108376 31.33921999215746, 137.67546007223427 54.781584320589914 M136.54682955052704 0.7397022405639291 C136.57656963836246 15.28459820610988, 137.13186561237865 31.03910511068171, 137.32505267765373 54.26624052319677 M135.670302124694 55.802298603579416 C102.17757139469431 53.255460626344046, 71.13793705446514 55.97340197012838, -1.5799069087952375 54.23157429508866 M136.00443905498832 52.92606084141882 C108.78305958181336 53.72843893317373, 82.07345894012033 54.56688027528913, -0.945976466871798 54.6879363814369 M1.2573881465941668 53.30119299702348 C-0.3407817692121534 41.079104251243926, -1.5310465306600598 30.445392504365746, 1.7832125145941973 1.4512919764965773 M0.03300860431045294 53.27630741987379 C0.8396850969821026 39.56414110594379, 1.2169510569602062 26.24060184432092, 0.5369073143228889 -0.9470303198322654" stroke="#000000" stroke-width="1" fill="none"></path></g><g transform="translate(668.90234375 10) rotate(0 68.458984375 26.958984375)"><path d="M-0.8135594148188829 0.6734872777014971 C34.43837355326214 -0.5436857967763717, 65.38158879368203 -0.9105119138150986, 138.16807871870697 0.05829945392906666 M-0.22944103088229895 0.6519982805475593 C29.176527912852546 -0.41657612642931785, 57.90502283467577 -0.36306256971049156, 136.84083275590092 0.5684288432821631 M135.44251614622772 -1.572636691853404 C136.0059398154596 21.348393879328437, 138.20298424762285 38.44536019574954, 135.16066360287368 55.04121181555094 M136.89283447060734 0.7431994369253516 C137.55201781818974 16.890273628892107, 135.62496767470944 32.60616400585642, 136.3699543038383 54.71263807918878 M135.48595857433975 53.354779453948154 C101.20813593226666 55.23045876071888, 69.18739146096995 55.19936796472508, -0.5157445091754198 54.41476634331049 M136.64640517625958 53.27270072605462 C89.83466103248466 54.436989539200056, 41.90727148007937 54.552646421724546, 0.5637267688289285 53.57282689120622 M-0.33832246251404285 54.754380734637394 C-1.1135954159389438 41.31957523260681, 0.9156214100231228 23.31717520237799, 0.1458734255284071 1.4561236817389727 M-0.41803921665996313 54.74694135691972 C-0.5581580046946693 36.53181744555879, -0.12495767515250916 17.896923293414154, -0.526183589361608 0.5919579258188605" stroke="#000000" stroke-width="1" fill="none"></path></g><g><g transform="translate(100.265625 75.974609375) rotate(0 -1.7755382245779074 199.01206262383613)"><path d="M-1.1160464096814393 0.12375826723873606 C-1.821175536389152 66.67747983423372, -3.0572706588854395 332.4970093159626, -3.2779633689671757 398.8809978354722 M0.4988904958963394 -0.856872587800026 C-0.41829060177008326 65.37615883131822, -3.535146076877912 330.26270740131537, -4.049966945052147 397.03637663781643" stroke="#000000" stroke-width="1" fill="none"></path></g></g><g transform="translate(197.07031250000003 20.4111328125) rotate(0 68.45898437499999 26.958984375)"><path d="M1.4510145857930183 1.9250708147883415 C31.02720045155875 -1.0474828499015711, 59.68939248187526 0.3465965968910314, 138.34853775054216 -1.0037748292088509 M0.16295542940497398 0.021532807499170303 C32.16927584456717 -0.3173034545364499, 65.22310831417272 -0.49555388655091526, 136.29622318968177 -0.2799421213567257 M135.9894202426076 -1.9650003388524055 C136.89104310907467 19.981325835474134, 137.73288361467465 41.56710971243739, 138.33305699378252 53.642584376037135 M137.08083870634437 -0.10433730110526085 C135.9163511730563 13.658398733338986, 135.98198220504636 27.000148592246124, 137.15968981012702 54.03526214137675 M137.0063491538167 52.12844138592483 C99.35677115901345 55.25084161604945, 58.51829698501096 54.420754192724864, -0.978070430457592 53.480220131576075 M136.65124502405524 54.89699367061259 C86.52079826555709 53.84312208006669, 34.4151584833773 54.31687207529832, -0.2985636927187443 53.94995752349497 M-1.9930717274546623 54.35261278599502 C1.052111302995618 35.90677292289185, 1.182815944337781 20.273730606175384, 1.514032430946827 -0.14052576571702957 M0.21340778097510338 53.32496419921519 C-1.223077485702961 35.65863804448892, 0.05468886122849648 18.707312042350537, -0.5947726704180241 -0.2715737484395504" stroke="#000000" stroke-width="1" fill="none"></path></g><g transform="translate(201.29882812500003 35.6396484375) rotate(0 63.499999999999986 12.5)"><text x="63.5" y="18" font-family="Virgil, Segoe UI Emoji" font-size="20px" fill="#000000" text-anchor="middle" style="white-space: pre;" direction="ltr">connect_all()</text></g><g transform="translate(10 19.8759765625) rotate(0 90.70507812500003 27.595703125)"><path d="M1.093300648033619 -1.2844187691807747 C51.10534528540303 -1.636476308903512, 103.99807382169823 -2.7499118157241904, 180.19537550956017 1.3188782259821892 M-0.5898492075502872 -0.6110976599156857 C50.23526387869062 -0.8284107916594075, 100.43906577718738 -0.31900482108598216, 182.32401623949414 0.9355528689920902 M180.87879950553184 -1.1214122250676155 C181.4644005216602 16.319409054923746, 182.56900500431095 33.640166553176826, 180.33104068785912 53.20410614460707 M180.94429459795361 0.39219406619668007 C181.09981584920888 14.366625803046919, 181.7417675293923 27.915066481547548, 181.27945139631635 55.93741408362985 M183.13476497679954 55.77925758808851 C117.28784977197796 53.32597797111128, 51.84359112233216 53.13046543792341, 1.4364400580525398 53.589448504149914 M181.92209913954144 55.18662730231881 C127.23089169158924 57.43642793576015, 74.12223047776789 56.99944566170467, 0.13008537515997887 54.54255059733987 M0.7022615149617195 54.05699496716261 C1.3829683132805803 43.77240900477773, 2.0640345879235245 31.994224104404566, 0.6807630732655525 1.1143096014857292 M-0.9226709343492985 54.94273427501321 C0.23731265721507955 37.129991182136294, -0.7125554257851036 17.175680859034763, 0.8635890744626522 0.30821338668465614" stroke="#000000" stroke-width="1" fill="none"></path></g><g transform="translate(17.01757812500003 35.1435546875) rotate(0 85.5 12.5)"><text x="85.5" y="18" font-family="Virgil, Segoe UI Emoji" font-size="20px" fill="#000000" text-anchor="middle" style="white-space: pre;" direction="ltr">publish_readings()</text></g><g><g transform="translate(96.3289729073295 219.01063598247742) rotate(0 -19.95906907880678 -0.2024748076042897)"><path d="M0.5743820115923881 1.1940815761685373 C-6.197599923624656 1.0455914232783396, -33.177153879473906 -1.0373925399517625, -40.1281504020933 -1.5990311913771165 M-0.5832061616610735 0.7753704583179206 C-7.460007458743638 0.8514636948887635, -33.616316320472386 0.052418022433483535, -40.49252016920595 -0.3120594864638133" stroke="#000000" stroke-width="1" fill="none"></path></g><g transform="translate(96.3289729073295 219.01063598247742) rotate(0 -19.95906907880678 -0.2024748076042897)"><path d="M-18.854801546933587 -4.741622073426145 C-28.396149166955887 -4.171509834160216, -36.07639728791284 -4.039122414112859, -41.05175139833241 1.0372793505041318 M-20.543732911499674 -7.147521043046611 C-28.573366812328548 -2.9582618869874073, -36.822586126071585 -1.5077642947802756, -41.35532025698571 -0.5350967032761855" stroke="#000000" stroke-width="1" fill="none"></path></g><g transform="translate(96.3289729073295 219.01063598247742) rotate(0 -19.95906907880678 -0.2024748076042897)"><path d="M-19.413148692613333 9.357426713658153 C-28.68035863574402 5.103295788434435, -36.16966407413679 0.41411258196466516, -41.05175139833241 1.0372793505041318 M-21.10208005717942 6.951527744037687 C-28.934879250146476 5.541629652682481, -36.962574353950565 1.398330146406762, -41.35532025698571 -0.5350967032761855" stroke="#000000" stroke-width="1" fill="none"></path></g></g><g><g transform="translate(97.26250322622008 240.70313770997973) rotate(0 -20.860692720618097 0.04905146171239494)"><path d="M1.1940815761685373 1.1117632314562795 C-5.64073137940373 0.8470895115189627, -34.469006553362114 -0.45781379756685203, -41.71696800746954 -1.0136603080315125 M0.3618356743175535 0.6498349826317282 C-6.610782928806728 0.5487482794557144, -36.1963916481519 0.9362756045704721, -42.91546701740472 0.5806311106382327" stroke="#000000" stroke-width="1" fill="none"></path></g><g transform="translate(97.26250322622008 240.70313770997973) rotate(0 -20.860692720618097 0.04905146171239494)"><path d="M-21.582830129555926 -6.999640893673627 C-27.917224664606728 -6.131825553873467, -34.627777919529265 -3.299589922416875, -41.56612818043678 2.5156303903161006 M-23.988729099176393 -6.148803443199126 C-28.60055907146743 -4.389798406403043, -35.8276711790571 -2.6999308303222316, -43.138504234217095 0.3511383606193976" stroke="#000000" stroke-width="1" fill="none"></path></g><g transform="translate(97.26250322622008 240.70313770997973) rotate(0 -20.860692720618097 0.04905146171239494)"><path d="M-21.778783241246682 7.109098618192435 C-28.133486268685353 4.574864006700486, -34.796816297813606 4.006999553535493, -41.56612818043678 2.5156303903161006 M-24.184682210867148 7.959936068666936 C-28.86973913532587 5.238664312551488, -36.03463388305383 2.448845315498626, -43.138504234217095 0.3511383606193976" stroke="#000000" stroke-width="1" fill="none"></path></g></g><g><g transform="translate(99.15703447622008 259.8047002099797) rotate(0 -20.4555065944232 -1.3264023531517637)"><path d="M1.1117632314562795 -0.47705437391996386 C-5.839233291163108 -1.0386930253453177, -33.8894278109772 -2.0123401355480763, -41.131597124123935 -2.1757503323835863 M0.2363001986313611 -1.7731118655670435 C-6.913498344239777 -1.7170700892623139, -35.31253406601491 -1.4343770608508946, -42.02277642030268 -1.1915561764986797" stroke="#000000" stroke-width="1" fill="none"></path></g><g transform="translate(99.15703447622008 259.8047002099797) rotate(0 -20.4555065944232 -1.3264023531517637)"><path d="M-23.584349681294423 -8.46549960097148 C-31.162041937594893 -7.71024871146154, -36.65565471654827 -1.9321940681498129, -40.08777714062481 -0.8413268461377903 M-22.733512230819922 -7.690927746350308 C-30.78157912370248 -5.8873933539118735, -38.8625629402427 -3.071472693426423, -42.25226917032151 -1.036092335686235" stroke="#000000" stroke-width="1" fill="none"></path></g><g transform="translate(99.15703447622008 259.8047002099797) rotate(0 -20.4555065944232 -1.3264023531517637)"><path d="M-23.292496389433158 5.641581950210599 C-31.11208929147921 1.492174482434351, -36.70722766473006 2.362866837135969, -40.08777714062481 -0.8413268461377903 M-22.441658938958657 6.416153804831771 C-30.647790998745965 2.6316659436385215, -38.84434880423754 -0.13882181681386552, -42.25226917032151 -1.036092335686235" stroke="#000000" stroke-width="1" fill="none"></path></g></g></svg>
