<svg version="1.1" xmlns="http://www.w3.org/2000/svg" viewBox="0 0 815.7421875 489.3344362732769" width="815.7421875" height="489.3344362732769">
  <!-- svg-source:excalidraw -->
  
  <defs>
    <style>
      @font-face {
        font-family: "Virgil";
        src: url("https://excalidraw.com/Virgil.woff2");
      }
      @font-face {
        font-family: "Cascadia";
        src: url("https://excalidraw.com/Cascadia.woff2");
      }
    </style>
  </defs>
  <rect x="0" y="0" width="815.7421875" height="489.3344362732769" fill="#ffffff"></rect><g transform="translate(713.685546875 21.32421875) rotate(0 28.5 12.5)"><text x="28.5" y="18" font-family="Virgil, Segoe UI Emoji" font-size="20px" fill="#000000" text-anchor="middle" style="white-space: pre;" direction="ltr">kernel</text></g><g transform="translate(379.48828125 38.01953125) rotate(0 64 12.5)"><text x="64" y="18" font-family="Virgil, Segoe UI Emoji" font-size="20px" fill="#000000" text-anchor="middle" style="white-space: pre;" direction="ltr">dbus::nonblock</text></g><g><g transform="translate(444.669921875 78.232421875) rotate(0 -1.2575864596199153 194.78748181669044)"><path d="M-1.1205091964453457 0.700578386709094 C-1.749907339736819 65.19298585566382, -2.863790537044406 323.61789778781434, -3.007257665321231 388.0863310288638 M0.4920847460813822 0.022778094392269743 C0.17905550749972482 65.2185848108741, -0.186778344195336 324.8134588052643, -0.7051680907420814 389.55218553898857" stroke="#000000" stroke-width="1" fill="none"></path></g></g><g><g transform="translate(739.330078125 63.916015625) rotate(0 0.20923503905532925 207.49855461567645)"><path d="M-0.1548671174794436 0.4093721497803926 C-0.03091642546157046 69.3278880028675, -0.2802596100916464 345.26166855779786, -0.17977045066654673 414.06854462511836 M-1.6953110834956169 -0.42131141692399976 C-1.108311473230521 68.62153714785974, 1.898965694407622 346.3563420419892, 2.113781161606312 415.4184206482768" stroke="#000000" stroke-width="1" fill="none"></path></g></g><g><g transform="translate(449.30322672218085 157.63585639148948) rotate(0 142.56610691305252 -0.791054793074693)"><path d="M0.5729138206690549 -0.07696248404681683 C48.074976373687385 -0.45241886116563895, 238.38449252881108 -1.145907384529691, 285.71765897892413 -1.5051471021026146 M-0.5854451528191567 -1.1629717335104943 C46.70947789147496 -1.419653737097975, 236.92422693625093 -0.0463258565962125, 284.8451781177521 -0.08879673957822432" stroke="#000000" stroke-width="1" fill="none"></path></g><g transform="translate(449.30322672218085 157.63585639148948) rotate(0 142.56610691305252 -0.791054793074693)"><path d="M256.48993001375254 10.311688933651212 C266.2976316630957 4.621993229844582, 275.21263753012977 4.205399160104785, 286.7545280342549 -1.858977231308795 M255.91339882984664 10.574910611975255 C264.1583370267148 7.010719456189403, 271.9374473027581 4.036994849779563, 285.8028521004692 -0.20797700259832252" stroke="#000000" stroke-width="1" fill="none"></path></g><g transform="translate(449.30322672218085 157.63585639148948) rotate(0 142.56610691305252 -0.791054793074693)"><path d="M256.56268167517646 -10.20939070611432 C266.4721267607914 -8.536316666705996, 275.36103124955673 -1.5904883301667248, 286.7545280342549 -1.858977231308795 M255.98615049127056 -9.946169027790276 C264.1649346008971 -7.746924125611935, 271.92361081342654 -4.956807239952669, 285.8028521004692 -0.20797700259832252" stroke="#000000" stroke-width="1" fill="none"></path></g></g><g transform="translate(533.220703125 114.251953125) rotate(0 43 12.5)"><text x="0" y="18" font-family="Virgil, Segoe UI Emoji" font-size="20px" fill="#000000" text-anchor="start" style="white-space: pre;" direction="ltr">connect()</text></g><g><g transform="translate(729.986328125 336.705078125) rotate(0 -142.27798392448574 0.5691817408800262)"><path d="M0.45319764129817486 0.303343104198575 C-46.760692573462926 0.40357803789277874, -236.89492866682508 0.2722820191333691, -284.2054859805852 0.5549811709672212 M-0.7680123263597489 -0.5830057114362717 C-48.03517517705759 -0.3361800799767176, -237.86818000773587 1.6168049142758054, -285.00916549026965 1.7213691931962969" stroke="#000000" stroke-width="1" fill="none"></path></g><g transform="translate(729.986328125 336.705078125) rotate(0 -142.27798392448574 0.5691817408800262)"><path d="M-256.38310825382325 -8.272039021402948 C-264.3458357878759 -4.50792375207697, -268.21345697090186 -5.169862458844479, -284.9877796436101 2.0375732959061863 M-255.97057215147618 -8.741842625700288 C-263.6246111712711 -5.79791657352359, -273.09401203474937 -2.3164720905192713, -285.93981871869414 2.1593799146637322" stroke="#000000" stroke-width="1" fill="none"></path></g><g transform="translate(729.986328125 336.705078125) rotate(0 -142.27798392448574 0.5691817408800262)"><path d="M-256.2438205671235 12.248696865162463 C-264.2296912439879 11.434041381787141, -268.1283951162776 6.192805881892714, -284.9877796436101 2.0375732959061863 M-255.83128446477645 11.778893260865123 C-263.61847389652803 9.091668566006327, -273.1260969859845 6.9419749141285445, -285.93981871869414 2.1593799146637322" stroke="#000000" stroke-width="1" fill="none"></path></g></g><g transform="translate(516.181640625 298.955078125) rotate(0 85 12.5)"><text x="0" y="18" font-family="Virgil, Segoe UI Emoji" font-size="20px" fill="#000000" text-anchor="start" style="white-space: pre;" direction="ltr">connect() success</text></g><g><g transform="translate(736.185546875 209.056640625) rotate(0 -142.65630955557342 2.0099585419427513)"><path d="M-0.27852065674960613 0.3293780397623778 C-48.247670742993556 0.9784034998466572, -239.27497531684736 3.930673169220487, -287.08873638026415 4.563219518586993 M1.7761172691173854 -0.5433024347014725 C-45.856449698091794 -0.31053804737205304, -236.34591521151984 1.7210174337836603, -284.68791922478005 2.728131892066449" stroke="#000000" stroke-width="1" fill="none"></path></g><g transform="translate(736.185546875 209.056640625) rotate(0 -142.65630955557342 2.0099585419427513)"><path d="M-256.104360066921 -8.939560912550334 C-265.7879744753436 -5.274943900505998, -276.62576867724033 -0.5797452089057202, -282.94804471096023 4.210788488294929 M-257.3229305107226 -8.553453658708278 C-266.23989840420535 -3.8928369074937983, -276.31820810811706 -0.6499819608790522, -283.95577847601845 1.8942153629846872" stroke="#000000" stroke-width="1" fill="none"></path></g><g transform="translate(736.185546875 209.056640625) rotate(0 -142.65630955557342 2.0099585419427513)"><path d="M-255.79826672721788 11.579364723389496 C-265.7066363968333 7.845917939444929, -276.6547814344683 5.143763279372976, -282.94804471096023 4.210788488294929 M-257.01683717101946 11.965471977231552 C-265.9945860070833 9.119579040653186, -276.18487317239385 4.856040004393956, -283.95577847601845 1.8942153629846872" stroke="#000000" stroke-width="1" fill="none"></path></g></g><g transform="translate(529.814453125 176.904296875) rotate(0 42.5 12.5)"><text x="0" y="18" font-family="Virgil, Segoe UI Emoji" font-size="20px" fill="#000000" text-anchor="start" style="white-space: pre;" direction="ltr">readings!</text></g><g><g transform="translate(734.94921875 224.294921875) rotate(0 -142.64238711561077 1.7978353053144929)"><path d="M0.6291519273072481 0.19268304817378512 C-47.00456000280877 0.7769429595520099, -237.78111269983154 2.5730591407666603, -285.49267535321417 3.2250562500208617 M-0.4996820401959121 -0.7517622968740763 C-48.23070581931 -0.007765371321390213, -238.3377747205707 3.3106560403915744, -285.9139261585288 4.347432907503098" stroke="#000000" stroke-width="1" fill="none"></path></g><g transform="translate(734.94921875 224.294921875) rotate(0 -142.64238711561077 1.7978353053144929)"><path d="M-257.60486473558825 -4.781877302555259 C-268.3873234533408 -1.3618708445579708, -276.0397642149009 0.20387537731869276, -284.0668718241714 3.507206672634929 M-257.85226073066127 -6.833955472325798 C-267.6232031753242 -2.490808429992379, -279.222317364036 1.1543390061124255, -285.7989772907086 5.044231456536799" stroke="#000000" stroke-width="1" fill="none"></path></g><g transform="translate(734.94921875 224.294921875) rotate(0 -142.64238711561077 1.7978353053144929)"><path d="M-257.2096125065235 15.735524532503163 C-268.0728842992071 12.473040203674866, -275.8540981127385 7.3542233578785385, -284.0668718241714 3.507206672634929 M-257.45700850159653 13.683446362732624 C-267.1782620193515 10.394831501234847, -278.92439850932163 6.408103866653113, -285.7989772907086 5.044231456536799" stroke="#000000" stroke-width="1" fill="none"></path></g></g><g><g transform="translate(735.2421875 244.267578125) rotate(0 -142.74394138540143 2.1610280048101913)"><path d="M0.2224769700318574 -0.8141795922070741 C-47.48782187414666 0.04315160823365061, -237.4718208602319 4.399448453510802, -285.359189177677 5.136235601827503 M-1.1198613500408827 1.3727721765451135 C-48.96768017310029 1.923202817918112, -237.8661046651813 3.0458997423263883, -285.7103597408347 3.601981419008225" stroke="#000000" stroke-width="1" fill="none"></path></g><g transform="translate(735.2421875 244.267578125) rotate(0 -142.74394138540143 2.1610280048101913)"><path d="M-258.96445259077495 -5.0021547888089115 C-266.28515595254356 -3.9148977513824623, -279.37931861226093 1.7291420802393098, -285.4629185961746 3.8334753074310717 M-257.1112874438802 -6.867349032187849 C-264.7158780166735 -5.604523892868526, -270.46267376469433 -2.9777003484900773, -285.18778567465023 2.7747302091307935" stroke="#000000" stroke-width="1" fill="none"></path></g><g transform="translate(735.2421875 244.267578125) rotate(0 -142.74394138540143 2.1610280048101913)"><path d="M-258.79066349159973 15.518317908837389 C-266.1752499218884 8.906267135233403, -279.33462120440015 6.850676955222998, -285.4629185961746 3.8334753074310717 M-256.937498344705 13.653123665458452 C-264.6904785823324 10.358144658924175, -270.4758684407939 8.427896480477262, -285.18778567465023 2.7747302091307935" stroke="#000000" stroke-width="1" fill="none"></path></g></g><g transform="translate(197.55859375 19.48046875) rotate(0 68.458984375 26.958984375)"><path d="M-0.7160695474594831 -1.3931254167109728 C53.826492564667205 1.88359177115879, 105.01349628140815 -0.3495491146711356, 135.22079989500344 -0.0377995390444994 M0.6849357774481177 0.5349131980910897 C37.61531286629434 0.49381816658675226, 74.03064383545062 -1.1087490591079041, 137.78540545608848 0.03723959717899561 M137.1037645060569 0.5469406228512526 C138.38252214454678 12.138414817043309, 138.2923569466975 29.752897357792982, 138.74434068985283 54.71787738613786 M136.8747344603762 -0.9623944303020835 C136.8608685379611 17.10208927930617, 136.40370666438207 34.66747421114343, 136.26499810721725 54.37207098398359 M137.788117678836 52.87691259197892 C95.44608776147179 51.36953953570415, 54.426844175284344 51.33661303586055, 1.4139557797461748 54.97741287760438 M137.38537111785263 53.897667364217355 C92.94787576723792 53.271430900005925, 48.42081037115203 53.00622596373998, -0.20083713624626398 53.308565006591394 M1.0594631154090166 55.26201265864076 C-1.752298425457957 40.354137989184174, -0.2174216616373087 29.06241131472271, 0.4931339342147112 0.06813847832381725 M-0.8753478536382318 54.001725778915 C-1.1984973433213963 35.427771025199405, -0.20105983640725755 15.559124231994069, 0.9509795596823096 0.7343254247680306" stroke="#000000" stroke-width="1" fill="none"></path></g><g><g transform="translate(252.654296875 73.970703125) rotate(0 -1.405251108808443 199.21760865561663)"><path d="M0.45287561304867263 -0.8412825275212525 C0.005460400258501308 65.82077775311966, -2.1595209212352833 332.5745954266439, -2.762167228385806 399.27649983875455 M-0.7685034194402396 1.331440200190991 C-1.2926707983824115 67.7296881576193, -2.7760777269614243 331.6010262201043, -3.2633778306655588 397.6395171928219" stroke="#000000" stroke-width="1" fill="none"></path></g></g><g><g transform="translate(258.3401290321723 145.02035971900455) rotate(0 91.24354051533155 -1.3163581320643516)"><path d="M0.4298822510987521 0.44614278785884376 C30.868313122261316 0.29384901234568583, 153.050576991681 -1.0424128840833191, 183.29064932707695 -1.3595866492205004 M-0.8035682964138686 -0.3652361938543618 C29.467955541424452 -0.8169355638356366, 151.78320128399878 -2.5651984126276557, 182.6358230489306 -3.0788590519875925" stroke="#000000" stroke-width="1" fill="none"></path></g><g transform="translate(258.3401290321723 145.02035971900455) rotate(0 91.24354051533155 -1.3163581320643516)"><path d="M155.34898024554028 8.542920837270705 C165.8763995065854 2.279948651563851, 175.66515765773192 1.4792057774219165, 183.7394472456537 -2.0352590310574215 M154.75805788709445 8.129756298939375 C161.81743586492507 5.080897741680929, 171.00753752439218 2.027439352954274, 181.7404908307828 -3.6603612651304047" stroke="#000000" stroke-width="1" fill="none"></path></g><g transform="translate(258.3401290321723 145.02035971900455) rotate(0 91.24354051533155 -1.3163581320643516)"><path d="M155.03485705016215 -11.975883440853424 C165.59756026251623 -10.955695802925913, 175.49783382596604 -4.47215355354722, 183.7394472456537 -2.0352590310574215 M154.44393469171632 -12.389047979184754 C161.73482834863134 -9.674826802485832, 171.0131453871485 -6.965978797791525, 181.7404908307828 -3.6603612651304047" stroke="#000000" stroke-width="1" fill="none"></path></g></g><g transform="translate(274.658203125 105.736328125) rotate(0 74.5 12.5)"><text x="0" y="18" font-family="Virgil, Segoe UI Emoji" font-size="20px" fill="#000000" text-anchor="start" style="white-space: pre;" direction="ltr">sensor.connect()</text></g><g><g transform="translate(441.3225319746323 357.21274247877295) rotate(0 -93.67226601179686 0.9809265207026101)"><path d="M-0.28778765313327315 -0.5978043962270021 C-31.868949695943535 -0.3261541102332292, -157.29475223033995 0.9381831611184187, -188.67506626594806 1.1439891020194182 M1.7619850996322932 1.702744350414723 C-29.962140905136852 2.200986919061351, -157.35227902357772 2.5823467804541598, -189.106517123226 2.5596574376322816" stroke="#000000" stroke-width="1" fill="none"></path></g><g transform="translate(441.3225319746323 357.21274247877295) rotate(0 -93.67226601179686 0.9809265207026101)"><path d="M-161.92898073814882 -6.1072822241950675 C-171.71928024287217 -2.2097612336852084, -182.9225847412817 -0.024520892308757425, -190.23048152046272 3.6742384246536086 M-161.64177656475528 -8.474628344262008 C-172.61568622694398 -3.612972509203326, -183.57277830761095 -0.7021237728382976, -188.21685762999573 3.3130551566355417" stroke="#000000" stroke-width="1" fill="none"></path></g><g transform="translate(441.3225319746323 357.21274247877295) rotate(0 -93.67226601179686 0.9809265207026101)"><path d="M-161.89525372966636 14.413898659826653 C-171.61485742825002 10.766545358295089, -182.8305619592245 5.406992292768604, -190.23048152046272 3.6742384246536086 M-161.60804955627282 12.046552539759713 C-172.6977221180329 8.762251553046198, -183.6682018387734 3.5273976042157678, -188.21685762999573 3.3130551566355417" stroke="#000000" stroke-width="1" fill="none"></path></g></g><g transform="translate(264.720703125 330.994140625) rotate(0 85 12.5)"><text x="0" y="18" font-family="Virgil, Segoe UI Emoji" font-size="20px" fill="#000000" text-anchor="start" style="white-space: pre;" direction="ltr">connect() success</text></g><g transform="translate(146.2626953125 174.75) rotate(0 42.5 12.5)"><text x="0" y="18" font-family="Virgil, Segoe UI Emoji" font-size="20px" fill="#000000" text-anchor="start" style="white-space: pre;" direction="ltr">readings!</text></g><g><g transform="translate(444.1663531411439 251.86606990806763) rotate(0 -173.62595146625847 1.9301545659050703)"><path d="M0.7171343911439181 -0.805805091932416 C-56.98357325865758 -0.386974550582833, -289.0736074916488 2.681741167118814, -346.9067557084669 3.6619612500943735 M-0.36550878284499055 1.3855432894639672 C-58.18180747170803 2.429327290910863, -290.224361464235 4.4067304565180505, -347.9690373236608 4.666114223742534" stroke="#000000" stroke-width="1" fill="none"></path></g><g transform="translate(444.1663531411439 251.86606990806763) rotate(0 -173.62595146625847 1.9301545659050703)"><path d="M-321.1935904675159 -6.153713320764339 C-328.2327967077824 -2.419043023182451, -332.6662854916583 -1.1063201442166442, -347.35078137873825 4.4988315809458985 M-320.6354513845402 -6.222039001444912 C-329.6551950966062 -2.5023239577340273, -339.1875930489322 1.8742157254899325, -348.3081821505275 3.806176541926016" stroke="#000000" stroke-width="1" fill="none"></path></g><g transform="translate(444.1663531411439 251.86606990806763) rotate(0 -173.62595146625847 1.9301545659050703)"><path d="M-321.05031804798074 14.366995131909519 C-328.3206005124057 13.147642355944992, -332.78868349879406 9.505485948203127, -347.35078137873825 4.4988315809458985 M-320.49217896500505 14.298669451228946 C-329.5994090451252 10.733998221453561, -339.18266547963054 7.82614856767869, -348.3081821505275 3.806176541926016" stroke="#000000" stroke-width="1" fill="none"></path></g></g><g><g transform="translate(441.8853006910533 211.80668908245866) rotate(0 -171.73172700360416 0.5056648746216297)"><path d="M0.35795694105327125 -1.0604984175413847 C-57.00550068017095 -0.7133805815226955, -286.0159822447225 0.3708247508371263, -343.23083108603953 1.012357488589214 M-0.9132543942332269 0.9971359679102898 C-58.458273235149676 1.562618040283807, -286.7766151908412 2.087882654469648, -343.8214109482616 2.071828166784571" stroke="#000000" stroke-width="1" fill="none"></path></g><g transform="translate(441.8853006910533 211.80668908245866) rotate(0 -171.73172700360416 0.5056648746216297)"><path d="M-317.41187969686683 -7.09166407058796 C-327.9371445629718 -2.6034208596324104, -335.6601666155991 -1.1432883787136436, -344.1075352987647 2.5633050322698816 M-315.29494332334247 -8.455977675829438 C-324.5729250119828 -5.025630704412916, -332.1798092440712 -2.646260626232726, -344.23043827045706 1.913958469236122" stroke="#000000" stroke-width="1" fill="none"></path></g><g transform="translate(441.8853006910533 211.80668908245866) rotate(0 -171.73172700360416 0.5056648746216297)"><path d="M-317.38443011737365 13.4295261703904 C-327.73706236812615 10.137045934871086, -335.4704921910562 3.816373087919084, -344.1075352987647 2.5633050322698816 M-315.2674937438493 12.065212565148922 C-324.4269064381803 9.257565812499658, -332.04213503203675 5.39872610957874, -344.23043827045706 1.913958469236122" stroke="#000000" stroke-width="1" fill="none"></path></g></g><g><g transform="translate(440.1132348611951 230.5040472480655) rotate(0 -169.80073351323608 3.261332582831301)"><path d="M-0.8822550226002932 0.6678040612488985 C-57.39031693217655 1.5709502390771868, -283.33943598705036 4.283385759964468, -340.1230102104694 5.131630433276155 M0.8554223611950875 -0.02720275193452837 C-55.614268898566564 1.085580626726127, -283.2306365434329 5.941328618526342, -340.4568893876672 6.549867917597153" stroke="#000000" stroke-width="1" fill="none"></path></g><g transform="translate(440.1132348611951 230.5040472480655) rotate(0 -169.80073351323608 3.261332582831301)"><path d="M-311.3288844792926 -2.2316549533015415 C-318.7416186432475 -2.6137499106853284, -323.5945484165309 1.5595225647061701, -340.9753788695485 6.544088027253606 M-313.25576872535134 -4.861096455805592 C-322.47307820392547 0.6421607587837408, -331.8344954285121 3.1351580369689294, -339.5234577464685 6.228620219789304" stroke="#000000" stroke-width="1" fill="none"></path></g><g transform="translate(440.1132348611951 230.5040472480655) rotate(0 -169.80073351323608 3.261332582831301)"><path d="M-310.98522986113096 18.286675970271553 C-318.421169850617 13.584037940507606, -323.34642062848826 13.43929393529322, -340.9753788695485 6.544088027253606 M-312.9121141071897 15.657234467767502 C-322.099937513108 13.983439123618174, -331.5816151803172 9.296135517315346, -339.5234577464685 6.228620219789304" stroke="#000000" stroke-width="1" fill="none"></path></g></g><g transform="translate(372.51171875 21.78125) rotate(0 68.458984375 26.958984375)"><path d="M-0.9401587527245283 1.5968472342938185 C30.892625652389327 -0.2881780515502397, 60.17594297071119 0.3073076953102645, 138.82684031315148 -0.8607751149684191 M-0.2525091180577874 -0.8676377674564719 C51.768778919938995 -1.679272040092437, 103.75722909019896 -0.49148644443699574, 137.2507821014151 -0.7667138418182731 M138.6857723314315 1.6466792803257704 C136.26453904826408 15.739471586009682, 138.07655166108376 31.33921999215746, 137.67546007223427 54.781584320589914 M136.54682955052704 0.7397022405639291 C136.57656963836246 15.28459820610988, 137.13186561237865 31.03910511068171, 137.32505267765373 54.26624052319677 M135.670302124694 55.802298603579416 C102.17757139469431 53.255460626344046, 71.13793705446514 55.97340197012838, -1.5799069087952375 54.23157429508866 M136.00443905498832 52.92606084141882 C108.78305958181336 53.72843893317373, 82.07345894012033 54.56688027528913, -0.945976466871798 54.6879363814369 M1.2573881465941668 53.30119299702348 C-0.3407817692121534 41.079104251243926, -1.5310465306600598 30.445392504365746, 1.7832125145941973 1.4512919764965773 M0.03300860431045294 53.27630741987379 C0.8396850969821026 39.56414110594379, 1.2169510569602062 26.24060184432092, 0.5369073143228889 -0.9470303198322654" stroke="#000000" stroke-width="1" fill="none"></path></g><g transform="translate(668.82421875 10) rotate(0 68.458984375 26.958984375)"><path d="M-0.8135594148188829 0.6734872777014971 C34.43837355326214 -0.5436857967763717, 65.38158879368203 -0.9105119138150986, 138.16807871870697 0.05829945392906666 M-0.22944103088229895 0.6519982805475593 C29.176527912852546 -0.41657612642931785, 57.90502283467577 -0.36306256971049156, 136.84083275590092 0.5684288432821631 M135.44251614622772 -1.572636691853404 C136.0059398154596 21.348393879328437, 138.20298424762285 38.44536019574954, 135.16066360287368 55.04121181555094 M136.89283447060734 0.7431994369253516 C137.55201781818974 16.890273628892107, 135.62496767470944 32.60616400585642, 136.3699543038383 54.71263807918878 M135.48595857433975 53.354779453948154 C101.20813593226666 55.23045876071888, 69.18739146096995 55.19936796472508, -0.5157445091754198 54.41476634331049 M136.64640517625958 53.27270072605462 C89.83466103248466 54.436989539200056, 41.90727148007937 54.552646421724546, 0.5637267688289285 53.57282689120622 M-0.33832246251404285 54.754380734637394 C-1.1135954159389438 41.31957523260681, 0.9156214100231228 23.31717520237799, 0.1458734255284071 1.4561236817389727 M-0.41803921665996313 54.74694135691972 C-0.5581580046946693 36.53181744555879, -0.12495767515250916 17.896923293414154, -0.526183589361608 0.5919579258188605" stroke="#000000" stroke-width="1" fill="none"></path></g><g><g transform="translate(100.1875 75.974609375) rotate(0 -1.7755382245779074 199.01206262383613)"><path d="M-1.1160464096814393 0.12375826723873606 C-1.821175536389152 66.67747983423372, -3.0572706588854395 332.4970093159626, -3.2779633689671757 398.8809978354722 M0.4988904958963394 -0.856872587800026 C-0.41829060177008326 65.37615883131822, -3.535146076877912 330.26270740131537, -4.049966945052147 397.03637663781643" stroke="#000000" stroke-width="1" fill="none"></path></g></g><g transform="translate(239.142578125 137.126953125) rotate(0 10.51953125 117.16015625)"><path d="M0 0 C0 0, 0 0, 0 0 M0 0 C0 0, 0 0, 0 0 M0.49689141291660566 6.225531184722774 C1.9014923230632421 4.075990639183731, 3.0329179128899706 2.823175445439338, 4.888419894459195 1.056079879015427 M-0.5703900992544243 6.679657176931493 C1.289590596415227 4.364745104226229, 2.6544834131336055 2.259800247223709, 5.01412885222072 0.35317998564217623 M1.372777626765858 13.529000208198607 C3.7577720707215945 7.915159233566541, 5.7196111883120935 4.6836348082741335, 11.419527827155722 1.326355531354225 M0.04285589690316782 12.077178006290971 C2.798794480344028 9.134808930463064, 5.917362924645492 4.687909509613397, 11.166888001513612 -0.2506680388853191 M0.5313766980031271 18.24490618975895 C5.41569618268365 13.136223956366951, 10.683799684450277 5.209029360235768, 15.514736447020848 -1.119000519912226 M-0.8168685148051242 19.10023872265654 C3.642429134843336 13.97615438196094, 8.607259225936486 9.689581550172015, 14.741904878526409 -0.47164331498323175 M2.2146507540903304 25.366907881288885 C7.4675940583963145 18.719658495082868, 10.348182116832492 11.570455072648812, 20.026831703537965 0.990383276173425 M1.0005755370668385 24.742106940313338 C7.417569218382179 15.358739443025621, 15.818922660663164 7.753842280440274, 22.05002582846012 0.5939873935818198 M0.35727944695850766 31.376679608363858 C7.086867949592563 22.78459097259035, 16.735743658810033 15.124346960757247, 20.463066200849504 5.645941288648789 M0.9430293618281738 30.11082028201615 C7.60068430966958 21.757739755653486, 17.39852342772912 10.583344885377038, 20.886844963890404 5.870612035943811 M-0.8579447959643325 38.4673877673236 C4.157828068040198 31.06387910484191, 7.998933000510904 27.12552833794303, 21.21935737729803 10.377359941848647 M-1.18958814824936 37.71112961676096 C6.361923289683029 30.340664439498717, 11.836635902170908 23.308922326934486, 21.708765563003574 12.599892134093773 M-0.2833857972501761 42.80485500450783 C5.904899492814473 38.232552838316664, 9.464666975018233 31.7248194491568, 19.15875807334004 18.368496872781044 M-0.42352997589399877 41.905207688543726 C6.799365462901912 34.92214998412586, 12.873803325090678 27.200911007130316, 21.585810681099872 18.624926047696 M-1.399740716442544 50.4166889569246 C7.161667549569118 41.57363270503261, 13.356374784898707 31.872950444062873, 21.82734196640353 24.761737227785705 M0.23310193419448666 49.36427785702877 C6.46918540106213 39.78414437007841, 13.55635243400145 31.591275311338187, 20.855008585451053 25.257105270746468 M0.6513731528770776 53.53431519069086 C6.56516289966668 46.25741764003939, 15.726240512670667 36.54797903338275, 21.86102648391651 28.54712240320236 M1.19526987827836 53.97314703598927 C6.286100985911742 46.760611709088366, 14.334730580959329 40.07661442861876, 21.96471566832887 29.727743172241155 M-1.8060538488348215 62.25565384281467 C4.999944567209534 54.92604026462749, 13.287715435768467 47.59227217638438, 19.39239571633547 36.45147878603905 M-0.134971838342139 61.05538233508955 C6.726381497132873 54.389127130025706, 12.55618908719744 46.18615555526931, 20.318939360033568 37.63970373684435 M-0.015010544150236171 68.88715255963574 C8.54304175331168 56.928704155766965, 16.38546628409209 46.016766284671064, 23.018113620078925 43.28045069241274 M0.03643630160474487 68.27784399832557 C7.192073238937647 59.52151304550809, 14.06009647560281 51.328027909211755, 21.682251331827405 41.871934503329285 M1.6213579943588385 71.8329152374938 C4.805860606071996 64.15280383320253, 12.764094833285178 59.49883177319116, 20.92545178560335 47.58117700933146 M0.7398819403907666 72.1023141446933 C8.535993674478398 63.703425659788934, 15.019378303073744 53.95518851158223, 21.743815264010614 48.80464320636022 M-0.05342664285110743 79.4838307633969 C5.458363193702804 73.20119458460074, 11.362062729683775 67.49002559894714, 21.859702640336764 55.98432413313495 M-0.9135962416838339 80.23712550885705 C5.006110364812305 74.28388606168484, 8.234133170233786 68.57393880128015, 21.52230004885496 55.22383071493314 M2.018237000638436 86.55960595346198 C5.831593756880575 77.10028340187287, 16.45353441267598 68.4089270397467, 21.531002361707166 59.09321471016294 M-0.32739532335679655 84.54169437959001 C4.990595749617009 78.7672305121798, 10.911054622804366 72.80081396440629, 22.21020270363219 60.77291977304405 M0.2345580152839588 89.77144219469712 C7.220941056085067 85.49559326447238, 12.346111305172995 78.88659810383307, 21.021153790171052 67.37295637742346 M0.14467962567211856 91.2516972415565 C5.6882681770092605 85.20618751256539, 9.612030605029393 79.04451711298844, 20.018171283642555 66.40438374035722 M1.301766328513466 96.16406838344201 C8.35322147021039 87.79367433076533, 17.738416605102994 77.97451111944005, 19.75103963214692 71.49247470103347 M0.6033287476746665 97.88360371375248 C5.394430595410045 91.57577322358881, 11.683518786141665 84.15843177164831, 21.5799180851483 73.28427953064585 M0.6409356177549625 103.0048696660364 C5.028068140844793 97.51836034631893, 12.231556375017782 93.61242771068152, 22.607150228091268 77.98718981800101 M0.4480803099226023 103.68630529017392 C3.8465746425366554 98.86709767228018, 8.747190400973698 92.72100963820499, 21.516247413449673 79.01742425357423 M0.7948062234649385 109.67301617948831 C5.793939022251603 103.28721179537058, 13.792021843232032 94.13599259548671, 20.908996755432106 85.60104937466583 M-0.7783863822838342 110.09274408048512 C4.811576021006957 103.47688666018209, 11.780596803428896 97.35393476680247, 21.839968785818435 86.55192815313838 M0.3951983520619038 114.00149598991474 C6.569731177395711 109.78136542886998, 10.600360828363588 106.45122527686918, 22.81593414159743 93.17565726736765 M0.014672217317617253 115.62444574845931 C5.943779306230655 107.18012871080073, 13.070276145755267 100.69061805762121, 20.80021984452633 90.63082334833425 M1.2895398440023484 119.9397917343237 C9.704282080998365 112.47357122075725, 17.04966961889058 103.06616198759399, 19.733983977043735 99.53940238311449 M-0.9699083359728036 122.11669615376076 C6.6915087856221716 112.24796233680628, 15.760595300928165 103.401851474035, 21.726789269873606 98.24369257382611 M1.5082793767142775 129.89591355905492 C4.858003847155146 121.24982985690528, 14.099684299501053 112.93557178391724, 23.28324771818953 103.84949153802333 M-1.0122872748833416 127.62307429038543 C7.344644847290697 119.46961032903157, 15.147703898716086 112.53579089870715, 20.43502998312252 103.5312021183872 M1.671709377625703 132.62552786044813 C6.304980033854465 123.19415054267527, 17.061875533665177 115.97608926403876, 20.4244344554913 109.25462611910223 M-0.03129570714223462 134.86708102732933 C7.613214443659052 125.69827094510339, 14.741797819932545 119.05633992669357, 20.78988691457331 110.01027846668183 M-0.6032110628069063 139.1210860255114 C5.6832373783287515 131.454573072086, 14.687540409936696 121.45319764205632, 22.426274116377066 115.23703502269086 M0.2598862975507359 139.69376784925677 C4.459524733661141 135.79789832745763, 8.312813029550426 130.4464678301132, 20.11081020649774 115.47864123770592 M2.264557011834981 146.95385737036165 C9.144540836632206 137.56384328645333, 14.596173179174052 130.17701863836484, 23.272340378274805 121.501603395129 M-0.24135708954214863 145.9742697949409 C4.142836932433405 141.077819428369, 8.707587855804382 136.75049612682946, 22.016078126167542 122.46643192545548 M-1.0533398079921454 151.93660578200695 C4.8489913660976685 148.00811984282646, 9.090016508468947 141.60516532605666, 22.06787358164103 127.86500137342469 M-0.4630496881206483 151.83098209904608 C3.711728075995997 148.25018245008548, 8.04948920240989 141.1238268601227, 21.26711997888298 128.68784263959483 M0.17276590513969836 160.465622656787 C6.307469215035638 151.54308504979295, 12.572172557022839 145.56812306385382, 20.007193932894253 134.59771702369483 M-0.7537101059130293 158.54209313056822 C6.701014645147497 151.78334546366816, 14.412291076322893 143.25805227419204, 21.173429310906315 133.9456490438971 M1.1373853286585387 165.40985564104153 C6.420096036607332 158.11720249827277, 15.622158157445071 147.5557309495453, 19.500229272490934 142.08673298294758 M-0.03802882564751542 164.99321313350333 C4.593759884465729 158.3898883055631, 10.035813145952156 151.10717084353757, 21.156591677537754 140.35638699802672 M-0.09330369697914875 170.0000373717786 C5.930563895621764 165.36474978322704, 13.10186361505105 158.4080213646517, 21.13992827785912 147.17755939752254 M-0.9725452920238808 170.1290029675157 C4.624905111922295 164.42894532080263, 10.40564025345516 158.11531713299138, 20.1551978460491 147.25488549597952 M-1.6140434653548255 176.17071841511518 C6.195374060812614 169.58788300854758, 13.281002015006383 163.68456389892313, 22.109083376426796 151.0633626637595 M-0.5407347087798371 175.85770704637855 C9.30348829518464 167.62563662718713, 17.485301408686645 157.37500313537674, 21.46916670871208 151.64589540675155 M1.4460313639879558 184.2229439080593 C6.545332038138943 178.8600634266552, 8.982795854639221 173.12130885754203, 22.587153658650436 159.1740941686665 M-0.4889802706151869 183.27632997975618 C5.725948601781338 176.42618958854618, 12.069325007244771 168.9890906828198, 21.604068195826926 158.65571821500708 M-2.1091930315227785 189.16628649695068 C6.621122785649492 178.1219940282777, 18.309075570019104 169.17327083813407, 22.717678080948573 165.5185232283605 M0.07834003974184611 189.57516951164453 C4.37944723776834 183.59481574898277, 10.115363406489786 178.30013908739855, 21.676036478655917 164.43673895951935 M-1.135986724459002 196.60797507812907 C5.423456745207471 189.2222316546998, 10.892780665420748 179.58156811206445, 21.734803233777697 172.34691372984952 M-0.4568236354369617 194.48944526103963 C6.851513771079207 187.09289953911127, 13.097406883414013 179.3373589315809, 20.975797737499292 170.39260287495262 M0.25604687563573236 202.64202353860247 C7.585576340340276 195.62423126615994, 12.087905299664763 186.46144288270764, 18.93069654456579 178.49305706947337 M0.6181298841485869 200.75092746260572 C7.963247804839457 193.14133012179332, 16.04497843570715 183.68634963541592, 20.373583364628786 178.08274833030293 M-0.3286157748200367 206.19126369448787 C7.312913264133194 200.82506728322102, 12.403223436270997 196.41551681978675, 20.06236919074088 183.26340089357163 M-0.24863398023921945 206.99246990511602 C7.6437591068507285 196.70942557602092, 16.696407189356588 188.60468379584302, 21.163452877316175 183.67403556956614 M-0.4448905853698335 212.6700219327933 C4.204750015367175 209.04016897857426, 11.135546661529455 202.4278919918243, 19.758499012759444 190.32617783915248 M0.6906422016998448 213.97318657323484 C7.864998844496942 204.4692633168297, 15.384696120586938 195.48366890669163, 21.907616830861684 188.39237545240667 M0.16032737141436826 218.3261521498585 C2.7569174647900194 215.9448545513698, 8.863249951591099 207.27028836791837, 22.486843717040017 196.0534384723328 M-0.11177892776244391 219.48298458595815 C7.721701282025204 210.15306543537244, 16.606378436410154 200.64330069329537, 21.841350021527603 195.42726239259764 M1.9549867729605523 226.13016449202325 C6.054089921966487 220.94750323101073, 10.524103711060816 212.9783907044389, 21.68076864403905 201.18372793012065 M-0.6548066013543519 224.794192937282 C5.1064208219054015 220.5691803442901, 9.65883706328737 215.1434758749893, 20.43701925461413 202.15695099980337 M0.028702959725208643 233.66435409629548 C8.36573093282583 223.71026501756936, 16.75496162426367 215.41919136705042, 20.706659971184564 207.16411885885577 M-0.5441990137756392 231.11319123687053 C3.7853524382893458 226.39719653291525, 9.1712442237057 221.8000251282342, 20.808996547393036 207.05298901801984 M2.372289196107886 235.95541486834665 C7.927131713872031 227.3376638247756, 12.157742894557057 221.27504510602262, 23.27074762590459 212.0393401548779 M1.7244679392169928 234.9755234880515 C9.045763660331204 227.2215956709087, 15.408778074145232 218.47019001762038, 20.557982042136103 214.13184606624304 M5.660343467517578 236.382406544071 C11.851873227162582 230.21800964548282, 16.957398834910776 225.71937142064561, 19.825928198655575 218.34090570519507 M6.985887457876288 235.71636514937535 C10.934332076962697 229.4110543736846, 17.10152291415288 224.10219167656362, 20.615326919143527 219.40654237913728 M13.277902922065278 235.3341914558076 C14.434023075769487 232.78650915579075, 18.504039357964064 229.01711939046496, 20.805573492303882 225.39891570890566 M12.291794272729476 236.28357936732849 C14.74740092744785 233.1730991215193, 18.21238891551036 228.68029699297597, 20.88171140997896 225.6523398025917 M18.00896722583822 235.69845533729443 C18.699394759489326 233.8661644307269, 19.914842132110145 232.71633706685242, 21.478799746956142 232.083592315722 M17.987699928626185 235.60475161517883 C18.75535861321369 234.6848501778725, 19.563479664171723 233.66383574532918, 21.02986648597515 231.6261515021843" stroke="#be4bdb" stroke-width="0.5" fill="none"></path><path d="M-0.007850144058465958 1.0656961537897587 C3.0349298807981544 -0.8334001104971684, 8.829689733535634 -1.820995787872962, 20.006029035896063 -1.5583457611501217 M0.26615418680012226 -0.471248971298337 C7.801109257205098 -0.08229662598154391, 15.01784418906027 -0.5197226566173776, 20.14457626827061 0.2551081907004118 M22.66104390322908 1.4332149583235057 C21.485411434872265 77.92941497757596, 18.67309259935451 155.67127941428345, 19.882428759075488 234.20729855783847 M21.269162086003853 -0.5570271955988264 C19.998041788111355 58.2571852608859, 19.82120209389874 115.43653811700904, 20.697029231232953 233.87520806463925 M20.83998992666602 232.88812509551644 C13.823292509820021 233.56533883055397, 9.71555734272988 232.79395256479927, 1.285196926444769 236.06114891543984 M20.7102017570287 233.88338853232563 C14.060326736648857 234.71762243002698, 9.062568491781711 234.88553163498685, -0.38747708313167095 234.41403265111148 M0.7534359687087878 232.89317477940264 C-2.4493956006307656 165.82372828008963, -0.886989482862612 94.16908000056085, 0.7553242249646809 -1.2981615298845735 M0.11592342626104768 234.07450479703346 C0.8898038799349766 145.00984260822204, -0.3070008143323395 54.84065208072012, 0.3389048899173429 -0.552006262437207" stroke="#000000" stroke-width="1" fill="none"></path></g><g transform="translate(88.060546875 387.646484375) rotate(0 9.2265625 25.4765625)"><path d="M0 0 C0 0, 0 0, 0 0 M0 0 C0 0, 0 0, 0 0 M-0.43293231945949284 5.904145658065669 C2.0802724173195584 4.118419290427029, 4.015119188143462 1.7910725760174797, 4.547602204563565 0.6453709270653539 M-0.5704360425146171 6.0619300641614124 C1.579924289802805 4.56274438379411, 3.708923811421734 2.3449588437929574, 4.734045219751543 0.43615706598733 M-0.18949740146290184 12.15111257773596 C3.317727612752499 7.510532273544253, 5.7360097880454815 5.281022587579415, 10.1343859776379 1.4441374565556409 M0.6220318936835634 12.681718592762529 C3.3171243772364214 8.602128675654031, 5.370241373104154 6.928307442754808, 10.477834323001039 -0.7607835193082928 M0.3368451380589743 20.011976125557595 C4.123758414962876 11.362038630877075, 11.590248599281857 5.775237102682922, 16.802241477652867 0.03633311827899721 M-0.3306666920474033 18.548425060604387 C3.9931865988101025 13.514561978121202, 10.47067225557601 7.143465025471855, 16.40801736107417 0.44400174794019964 M-0.04200315082452555 22.426263736276983 C9.25936431960698 16.43516043674883, 15.617596317366168 7.584322210078039, 21.212435198405768 2.0168800018121456 M0.42192178426303606 24.546805347963332 C8.177820375576829 14.530012164557888, 15.693740594379191 7.07384693881842, 20.817253056371595 2.179701870246694 M-0.11396262323955142 32.05070907785391 C4.896063440902989 23.681847477989052, 11.517401028645622 19.495264410754015, 21.37419817661211 8.277641306379191 M-0.8303017438809022 29.645016599212042 C4.759355051130973 25.543993751819812, 7.860368337525895 19.985881307251912, 20.368932871793362 7.116112400525561 M0.8467278982419053 36.723009796628105 C6.881056995048503 30.527288883062994, 10.463510525342404 23.226366709683838, 18.821121455661928 11.891382607428774 M-1.0276527592074594 36.4942940583465 C8.059563712617749 27.86309941013896, 15.821310115162118 19.757420525114206, 20.56143056557325 14.352427136881694 M1.4056733410478586 43.378519788939286 C8.001723393501406 32.12756299797948, 13.928641307389702 24.637410883077187, 21.67740371298323 18.672364051300622 M0.6258813805551284 42.040794844362665 C6.092565978429534 36.798958729065156, 9.906486049496648 31.491955404466715, 19.317711904983025 19.989100073311068 M0.3751452956347876 49.93937794179551 C4.141148863468379 43.85419949116409, 7.301069082246858 39.02966334796727, 19.657087376004025 25.782502034334463 M-0.4930356442929096 47.977226691924855 C4.441594012037723 41.56179522530768, 11.95003072215093 35.72317179682495, 20.422070782294437 26.29650707880966 M3.7496723053927283 51.39241233064541 C4.385205099016611 46.4972649635596, 9.059598333430973 43.616807575974704, 18.470881535180798 33.62049794353834 M2.9460011744822125 51.383252149137945 C7.806960651746385 46.43361947155582, 12.42827080554633 39.77378331295898, 20.364452127807727 32.166574638041766 M9.109230802533382 54.37998224631978 C12.075522214529235 47.425995130819686, 12.37000333825822 45.168729799489604, 20.115212249297617 38.888537363648624 M7.169899193615818 52.00388818658052 C11.666284875019485 47.70728187943976, 15.874929288029213 43.91391613687917, 19.119412716858054 38.749306973662435 M11.57281767176807 53.921101513164814 C14.580708225766173 50.239980791876356, 16.444561445470715 46.91499058581248, 20.868755261025314 43.16329677750418 M12.538801223881245 53.31314556825417 C15.395860396878078 50.58650218913496, 16.872926891997164 47.237202411547784, 20.53836293051291 43.99511061322937" stroke="#be4bdb" stroke-width="0.5" fill="none"></path><path d="M0.09600860339996875 -0.9937052801105892 C5.262734291004017 -1.4002548179551375, 9.868029366401606 1.3934873703905033, 18.89845698032004 -1.2706029712076998 M0.8082678865248454 0.45696294081135425 C5.949280238004576 -0.7685644343926106, 13.202044677852244 -0.6385628690908197, 17.539337194345716 0.8988332620981965 M17.19788148626685 0.14034858718514442 C17.590073367900622 19.619535251348864, 19.814388176746142 36.079835349350475, 16.99497142061591 52.42169455066323 M19.203356044366956 0.40274263732135296 C19.083618629483098 19.313808140097535, 18.859090734032506 37.77859793181415, 18.61906679160893 51.12934775464237 M20.184133341847335 52.706794312797136 C11.595173010992585 50.41077773431985, 7.570524980223854 52.705482221774, -0.8935860814206534 52.68438874363492 M19.207392260858615 50.32713640617876 C13.494293653847125 50.68469521556108, 7.894121394389366 50.90253679257876, -0.007651382956828434 50.67571829093358 M-0.8110747076570988 51.56591168418527 C-0.13663961775921052 30.021643246136954, -0.49950590022228425 10.766349570051531, -1.79896554723382 -1.8659305237233639 M0.07714452035725117 50.7962671648711 C0.05237210012826832 32.04651164511742, -0.9484505035742768 11.80397162524168, 0.11318989284336567 -0.2106825578957796" stroke="#000000" stroke-width="1" fill="none"></path></g><g><g transform="translate(107.87294275384268 396.5290082366164) rotate(0 -26.215152937527105 0.28828525788247816)"><path d="M0.5353613533079624 -0.7721144713461399 C-8.182396550594305 -0.9536010287850331, -44.07050987987983 -0.8309481345858329, -52.96566722836217 -0.6610240169758981 M-0.6427126655448228 1.4369214858580381 C-8.950362930909204 1.3412547906060537, -42.54638730127567 0.37004366618619305, -50.850977025487104 0.3897589651816451" stroke="#000000" stroke-width="1" fill="none"></path></g><g transform="translate(107.87294275384268 396.5290082366164) rotate(0 -26.215152937527105 0.28828525788247816)"><path d="M-27.652601490455474 -9.993189328699309 C-33.881055756882134 -7.587238867399788, -38.367643401691325 -2.848726304516311, -49.28025560409633 0.6834909191303813 M-27.174462468090262 -7.744440737529594 C-32.34832157671985 -6.1445930321136135, -37.64572480685661 -5.135866318480725, -50.67286694937257 -0.05875691008335715" stroke="#000000" stroke-width="1" fill="none"></path></g><g transform="translate(107.87294275384268 396.5290082366164) rotate(0 -26.215152937527105 0.28828525788247816)"><path d="M-27.925802256826096 7.731165697245267 C-34.150503702172934 5.792130260289653, -38.570137120057765 6.186875767684738, -49.28025560409633 0.6834909191303813 M-27.447663234460883 9.979914288414982 C-32.59053831843117 7.384791595256773, -37.82325923097197 4.197145157371422, -50.67286694937257 -0.05875691008335715" stroke="#000000" stroke-width="1" fill="none"></path></g></g><g><g transform="translate(94.892578125 410.345703125) rotate(0 -19.886385540929627 0.14128255967511905)"><path d="M-0.2140898980200291 0.0665326751768589 C-6.841421019782624 0.43209990635514256, -32.290281911442676 1.1325819171965124, -38.819986537843945 1.2267067350447178 M-1.78562582382001 -0.9441416156943888 C-8.618686448320126 -0.8374010274466128, -33.148095658902704 -1.0148217255529017, -39.55868118383922 -0.5225501028355213" stroke="#000000" stroke-width="1" fill="none"></path></g><g transform="translate(94.892578125 410.345703125) rotate(0 -19.886385540929627 0.14128255967511905)"><path d="M-21.228854900032132 -7.122472338774658 C-27.1336359146434 -5.34437499743265, -35.00643448068877 -1.5648488136759724, -37.7277107848554 -0.9193903919834212 M-20.437940141955664 -7.706696920842689 C-26.278064790248347 -5.25148406926913, -31.969657577570356 -2.950383171446717, -39.80390901890319 -0.6736994380960095" stroke="#000000" stroke-width="1" fill="none"></path></g><g transform="translate(94.892578125 410.345703125) rotate(0 -19.886385540929627 0.14128255967511905)"><path d="M-20.830540263281783 6.286374671826632 C-26.778130697467642 2.986277770295536, -34.80175774569313 1.68832033734546, -37.7277107848554 -0.9193903919834212 M-20.039625505205315 5.702150089758601 C-25.91181804021176 3.9908146648789353, -31.727278019788653 2.1220556646842414, -39.80390901890319 -0.6736994380960095" stroke="#000000" stroke-width="1" fill="none"></path></g></g><g><g transform="translate(91.962890625 426.095703125) rotate(0 -18.486016847440045 -0.6215104259550799)"><path d="M1.1052697576582433 0.47647192105650893 C-5.259786129246154 0.13224474216500903, -31.005881826331215 -1.3791909175614516, -37.43171118125319 -1.7194927729666234 M0.22639765108935528 -0.31898426572792227 C-6.3126502715020125 -0.47276609033656614, -31.71917068535772 0.4842950139412038, -38.077303452538324 -0.0840199775528161" stroke="#000000" stroke-width="1" fill="none"></path></g><g transform="translate(91.962890625 426.095703125) rotate(0 -18.486016847440045 -0.6215104259550799)"><path d="M-19.331269263803815 -5.367153890109738 C-26.307286671571575 -2.9792535765738295, -32.597344893356684 -2.7160202914439697, -37.919989706765186 1.518462616479778 M-20.850417442049526 -6.860853378775735 C-27.058362948616836 -3.240608511522192, -34.06321808254534 -2.193599820573472, -37.3659519231248 0.010713284920795707" stroke="#000000" stroke-width="1" fill="none"></path></g><g transform="translate(91.962890625 426.095703125) rotate(0 -18.486016847440045 -0.6215104259550799)"><path d="M-19.557134532085097 7.64666308325518 C-26.48862256217056 5.305621645046282, -32.69664229972588 0.8419935288508054, -37.919989706765186 1.518462616479778 M-21.07628271033081 6.152963594589183 C-27.29304417402164 4.739231419761384, -34.210507712028 0.7509452068264131, -37.3659519231248 0.010713284920795707" stroke="#000000" stroke-width="1" fill="none"></path></g></g><g transform="translate(43.365234375 268.521484375) rotate(0 18 24.5)"><text x="0" y="36" font-family="Virgil, Segoe UI Emoji" font-size="36px" fill="#000000" text-anchor="start" style="white-space: pre;" direction="ltr">😞</text></g><g><g transform="translate(67.03941387882445 260.65248147621753) rotate(0 0.25351424950534707 -25.75850687846537)"><path d="M1.0632631503045558 0.7755283512175082 C1.209958628853803 -7.811971263339117, 0.6020329348278299 -43.492926252136606, 0.20655998686340515 -52.29254210814831 M0.16233757487498224 0.13707679026760156 C0.23874403377996894 -8.181690072383107, -0.7019329286924495 -42.31912423954964, -0.5687386260832392 -50.77188765562137" stroke="#000000" stroke-width="1" fill="none"></path></g><g transform="translate(67.03941387882445 260.65248147621753) rotate(0 0.25351424950534707 -25.75850687846537)"><path d="M9.872700394782466 -25.747087168492953 C6.4523686171615555 -34.16186530654341, 4.671894239816825 -39.98543189708038, -2.3079817497635924 -49.77671082994898 M8.66449623526935 -26.970071026109736 C5.7860956807424575 -30.492947465658343, 5.370819348665971 -37.35712494926283, -0.3374111352021538 -50.36257533474823" stroke="#000000" stroke-width="1" fill="none"></path></g><g transform="translate(67.03941387882445 260.65248147621753) rotate(0 0.25351424950534707 -25.75850687846537)"><path d="M-8.000858900796604 -25.592682171716604 C-7.061456936642189 -34.2034835172273, -4.4831851779934295 -40.06470417385974, -2.3079817497635924 -49.77671082994898 M-9.20906306030972 -26.815666029333386 C-8.35249816274946 -30.455966196699762, -5.031707263354318 -37.35241858645427, -0.3374111352021538 -50.36257533474823" stroke="#000000" stroke-width="1" fill="none"></path></g></g><g><g transform="translate(63.682304615480824 328.3597638972103) rotate(0 2.1412665143888425 22.481676152501905)"><path d="M0.9115369476377964 -0.80000057592988 C1.2161451827734706 6.581770313127498, 1.5629279281944024 37.08228514663209, 2.0742187499999987 44.839197179488295 M-0.06904488419182608 1.3943951763678344 C0.5935346827190368 8.83032218554669, 3.7102127072494473 38.17585491266367, 4.351577912969514 45.76335288093371" stroke="#000000" stroke-width="1" fill="none"></path></g><g transform="translate(63.682304615480824 328.3597638972103) rotate(0 2.1412665143888425 22.481676152501905)"><path d="M-6.909772528659454 23.582037976355164 C-4.2458321695498125 33.349643390734954, 0.44035877626749276 37.50018523798329, 3.798048445535823 46.34243038923425 M-4.668219361778251 25.59495649893662 C-2.6724446479409187 32.75273112731897, 1.9313583589097743 38.45740203933409, 4.553700793115421 46.43690040402991" stroke="#000000" stroke-width="1" fill="none"></path></g><g transform="translate(63.682304615480824 328.3597638972103) rotate(0 2.1412665143888425 22.481676152501905)"><path d="M8.783983004488672 22.06709312759892 C6.424255593482471 32.43952222592449, 6.079853301759151 37.07567577365478, 3.798048445535823 46.34243038923425 M11.025536171369875 24.080011650180378 C7.79987942227517 31.712694492413846, 7.185192347465046 37.92111510607299, 4.553700793115421 46.43690040402991" stroke="#000000" stroke-width="1" fill="none"></path></g></g><g transform="translate(516.345703125 440.431640625) rotate(0 20.7421875 12.447265625)"><path d="M0 0 C0 0, 0 0, 0 0 M0 0 C0 0, 0 0, 0 0 M-0.841984309968526 6.155511796523921 C1.1868637161372306 3.7586338959232877, 3.285023751515919 1.7206227058731587, 4.720724896671719 0.6508416797814184 M-0.2778721749456475 6.012381485899083 C1.816438325790074 4.602321367100208, 3.0867377737042965 1.9550761647743067, 4.862792253824419 -0.015761202216405257 M0.44371087337840676 11.347747442543088 C1.093956151398882 9.980629111060079, 5.835822960658348 7.396077118801902, 10.324717055213583 -1.4844168876216053 M-0.5830961084831847 12.747926001667558 C3.794570022807163 7.409512241843793, 8.224736617486595 2.5338683760475993, 10.000248435092104 0.09082122846392404 M0.4822907233098288 16.815821769554788 C4.548266519969126 13.072111150970029, 8.014397455083198 8.107550262639553, 14.31474486319669 2.087256704170721 M-0.6084657023241977 18.912399989460283 C5.5507709565465655 12.12505730186063, 9.26853103956311 6.855615577931609, 15.70627197018214 0.49223799881758 M1.7393600980005477 22.611647771387457 C3.369442935087984 18.5868007033782, 11.614133016749816 15.17261684828286, 20.273316102379823 -0.9612002285033938 M-0.7194293195196177 24.387674655481337 C7.3806638351968274 15.926053447345168, 12.976964530867424 8.75470364744752, 22.20335585651722 -0.012228262221860575 M3.7017243269967697 25.555092011311576 C9.771440276646562 18.06395114605246, 18.38289387198026 9.673439118037475, 24.467609165843935 1.8986206868675293 M2.7632743388551138 27.635714425438568 C9.547387268863934 20.416784146377708, 17.03803729746097 12.752565909543573, 26.695078421991678 0.06708419453471315 M9.993391116717012 25.361955055444103 C15.95868964721012 20.198175092932896, 19.64950682265986 10.672419569702223, 33.45522551000754 1.886426266400445 M9.246795069062264 26.424138713105183 C14.025527860903216 19.84863357136185, 20.234926402088078 13.43655464713446, 32.02804258786777 0.33959165786050605 M11.579739691655734 28.133370361684165 C21.31362478938783 21.29038040178653, 27.221753002275676 12.307899419969562, 35.13437422532712 0.2134178971034011 M13.251138560440042 28.22816544903656 C17.926913905162166 20.661331003593062, 24.926204886488662 15.843377764761179, 36.09844328444575 0.7909706124198159 M17.639465258231446 27.905450996148723 C23.89808048374302 21.693920181281115, 31.515809451520663 15.622985282603759, 43.71128523923068 0.4243244753161193 M19.71861085925071 26.34275779700591 C26.681424069944228 19.00710755472049, 32.9456810589678 10.456842234281712, 41.25698065399735 0.6876906772086144 M24.066870656900637 29.330804595845816 C27.793175499845752 23.495936624242372, 31.706856080228405 18.41205126927774, 40.85855999722218 6.3242077891605035 M22.953610020794503 27.12663911667752 C30.536809264789653 19.78384298842505, 37.16024014948502 12.527572450074532, 41.90471073187029 7.066319988005056 M31.017187873373743 27.25241742753994 C31.03863147076948 22.21303763689951, 34.73108602525408 19.893200166560906, 41.87391280463505 11.799712702949831 M28.72603463326302 26.194364042725528 C33.6804259944849 21.62837625095896, 39.547519516987876 15.526656751018686, 41.12851808906141 13.051397247837226 M34.46682549012966 26.849170291274643 C35.80876144227844 24.753516249283493, 39.569695994462265 23.137043259302008, 40.89867481002659 19.466613245377726 M34.02642438389502 26.84737123897285 C37.182524401264224 24.319918872548016, 39.60102355852633 21.32063923627299, 41.59293348584399 19.427153627103603" stroke="#be4bdb" stroke-width="0.5" fill="none"></path><path d="M-0.3689135052263737 0.17618921771645546 C11.40938427920628 0.14297148239129454, 19.976405055582294 0.2334893609237042, 41.689982917159796 0.8997692205011845 M-0.9062279891222715 -0.5312629211694002 C13.42933978473593 0.879984721254732, 27.419526775513077 0.5238327232116717, 41.04718913324177 0.6010257136076689 M40.75413944944739 -1.2002607248723507 C39.461609916559176 6.275659255716164, 42.93571873175235 16.73000712326757, 42.33967390283942 23.02787021175027 M41.62847604043782 -0.0986770261079073 C42.35122601573217 4.8797325822080895, 40.9177557069515 11.317506127902016, 42.33532829768956 25.26116402260959 M39.962332632392645 26.38740447536111 C28.64025137045246 23.726762951553972, 18.271688022330633 24.662640632332476, -0.8059880472719669 23.04550138488412 M41.50626059062779 25.333876444026828 C25.60236357843678 24.257069771371608, 10.507016447227212 24.88503718861175, 0.6655836272984743 25.281804574653506 M1.9386494420468807 25.441748294979334 C-1.424460281969732 15.691849115411603, 0.7871744731648505 9.868864150931765, -0.7866757847368717 -1.6268050335347652 M-0.9571394752711058 24.814920438453555 C-0.9924389990172494 17.43718321602573, 0.6159112183251273 8.026988641913338, -0.42560688965022564 -0.47017030604183674" stroke="#000000" stroke-width="1" fill="none"></path></g><g transform="translate(566.853515625 440.009765625) rotate(0 64.5 12.5)"><text x="0" y="18" font-family="Virgil, Segoe UI Emoji" font-size="20px" fill="#000000" text-anchor="start" style="white-space: pre;" direction="ltr">= mutex held</text></g><g transform="translate(201.29882812500003 34.7724609375) rotate(0 63.499999999999986 12.5)"><text x="63.5" y="18" font-family="Virgil, Segoe UI Emoji" font-size="20px" fill="#000000" text-anchor="middle" style="white-space: pre;" direction="ltr">connect_all()</text></g><g transform="translate(10 19.0087890625) rotate(0 90.70507812500003 27.595703125)"><path d="M0.23754752799868584 -1.3432759754359722 C46.44714759226555 1.6547584084056872, 96.35805304593671 1.99815209183922, 182.2811865918339 1.505630660802126 M-0.12394288741052151 -0.8471181932836771 C39.739356537974544 2.2207628048401244, 77.13460214561059 2.1927513040047057, 180.43827250041073 0.1995235737413168 M180.3495583646 -0.12052614614367485 C179.71620630037881 11.661710580785439, 181.43148075354196 25.830349437841505, 180.94032801315194 56.112585354596376 M180.9872699026019 0.8531247433274984 C180.84020212389746 11.97431891645756, 181.90047928787985 24.30438111632102, 181.98371418751782 55.40660816989839 M182.43109358474618 56.85749178007245 C126.38629940918985 55.91515856966762, 72.07772273241281 52.62866181120662, 1.4594967477023602 54.558914590626955 M181.15818461216992 54.268476551398635 C117.22147149702435 56.05665370234718, 54.043389134442265 55.348287129490274, -0.03119835816323757 55.215459352359176 M-1.5287110693752766 54.779376436024904 C-0.9975498765371594 44.86110002955174, 1.5081374794580187 33.485719893830534, 0.0661097876727581 -0.8144392482936382 M-0.03838381730020046 54.36616135202348 C0.8201515485278651 44.578600235222986, -0.5263133834370092 31.771269449843384, 0.6089279297739267 -0.43990188278257847" stroke="#000000" stroke-width="1" fill="none"></path></g><g transform="translate(17.01757812500003 34.2763671875) rotate(0 85.5 12.5)"><text x="85.5" y="18" font-family="Virgil, Segoe UI Emoji" font-size="20px" fill="#000000" text-anchor="middle" style="white-space: pre;" direction="ltr">publish_readings()</text></g><g transform="translate(516.8359374999995 389.5712890624998) rotate(0 20.74218749999997 12.447265625)"><path d="M0 0 C0 0, 0 0, 0 0 M0 0 C0 0, 0 0, 0 0 M-0.8592580221267292 5.936152207900874 C0.7985267416041697 5.586004226943758, 1.8512203732040038 3.8635976976720037, 4.495321301701016 0.19390884897087157 M-0.4669098794134209 6.573349122007482 C1.4521127827260993 4.317085737287485, 2.8588999625161264 2.984996616818075, 4.660827303262896 0.5341102424857431 M-0.01920569156299967 11.502241155921995 C3.824104252844733 9.24998504094308, 7.134855533955028 5.015676298738302, 9.318978224647177 0.896492841382301 M0.47840367789376836 12.404114203571856 C2.7967127029690286 8.774186711354202, 4.788673593314733 6.585767585346455, 10.661674979281557 -0.18846420244427908 M1.038105466351821 18.54928314955967 C4.878147021113536 14.369976344298955, 8.026186409235091 9.434893830995996, 15.721328649207432 -0.7068087712931463 M-0.9889579127123813 18.17291234145003 C5.645850285155138 13.969447236638807, 8.673427892396086 7.503524615395248, 16.01416476955958 0.7855567472917011 M-0.7129428347387101 23.49678151467359 C7.156371396483567 17.537092506845866, 13.393147047252345 8.062317131481372, 19.888579087609315 -0.601640215686011 M1.0921255892328237 23.95467504458046 C6.723258414100564 16.031072986798456, 13.178362412047026 7.570798654675359, 20.548022337535286 -0.6165230391383645 M2.286225593476262 26.01572624287896 C8.964744622828691 21.109853582196195, 15.751046557443445 12.100572620298479, 28.023973225292178 -0.8518656870338379 M3.07254042924818 28.219163789147064 C8.024708118444396 21.205125959724455, 15.344394243158172 14.508580200675297, 27.03843264715037 0.11888682972758424 M7.847118457415254 26.634417900292735 C15.999638474555532 17.27201926142597, 23.191940956171948 8.037286067586543, 30.87261251867453 0.5747216307803278 M7.765686403595955 27.827747988923054 C17.00269432693415 16.792449253647398, 27.481263094578836 6.845131218166891, 32.73824861966709 0.6949526426627521 M15.122614981572726 26.266489944814047 C20.138260298681903 19.236045614179204, 24.099566747691043 15.731168405981041, 38.520206058212864 1.701823124764534 M14.097819201614358 28.349395574463806 C21.02057236687303 18.02617312876572, 30.01540762693238 7.975154544532646, 36.94991518538569 0.19110088433143702 M19.47891037236719 27.760555442559856 C24.769211071842555 23.268280431615175, 29.92042422975318 15.577129079994764, 41.360483771335176 0.8866676912585021 M18.41749486956565 26.17281970954253 C23.35793389119889 21.027373644714366, 29.56312757709253 15.729368468440647, 42.43038248657792 -0.032448826270389475 M24.99780747025513 26.5817220305382 C27.33008420107072 21.08676615531685, 33.6458624461134 18.772361238800915, 43.25354710354542 6.746817118384136 M23.43536146275007 27.750493753823516 C30.449811599989296 20.720283934940994, 36.41043526790328 14.012885541759188, 42.98695655859148 6.154621646635427 M30.071795741568323 26.42882304811489 C32.757538966762006 20.75438078830037, 38.75884249889248 15.498784629753981, 43.594075482399944 11.97233109207947 M30.2474909225544 27.71090442701813 C32.8835837401021 21.705906089946364, 38.89988970213242 17.829245248287695, 42.063559278255134 12.024640818164984 M34.60360270036525 27.02188557371483 C37.852807638828835 24.439533437532695, 39.827121827631075 21.777114121707363, 42.044781243895 19.7702825073101 M34.281887554900266 27.31009883334846 C36.89424828706691 25.003766449986916, 38.80024523601067 21.681652178585132, 41.750055287220334 19.35362786454562 M-0.2507764080177335 24.676534644352994 C-0.2507764080177335 24.676534644352994, -0.2507764080177335 24.676534644352994, -0.2507764080177335 24.676534644352994 M-0.2507764080177335 24.676534644352994 C-0.2507764080177335 24.676534644352994, -0.2507764080177335 24.676534644352994, -0.2507764080177335 24.676534644352994 M5.825264035809769 25.253967195555344 C4.628635715957007 23.754192916058727, 3.0492507163676903 23.181576216291987, 0.31345156600940516 19.994940697655334 M6.022536666590704 24.601127622082608 C3.921080987990323 22.760731117274357, 1.2248979826583901 20.690665064257892, 0.11513510739672483 19.861167004958048 M13.287837115437814 26.148262474645623 C7.453238133043207 23.481242111051746, 6.0400570046903415 19.942582351620544, -0.0370646834861057 13.625020993573434 M12.739356349450626 24.53320750711183 C9.534854355185267 22.508456667886836, 5.855194825982493 18.927601636440883, -0.41374445758047873 14.115645684094943 M18.059472200590687 23.104714347125775 C13.938289572334392 19.673725530165893, 9.079339702549866 16.32077980076258, 0.5205555250229033 8.379977721277001 M18.660580027047114 25.180605225341207 C14.592825806461319 20.996815712559126, 11.060826220582356 18.17394982263577, -0.3997381134597866 8.88575452335489 M24.046423216529792 24.046373297690213 C14.54475736412722 17.277557511672224, 6.0693553186799605 10.86315037884217, -1.3919086422245759 2.022120211952265 M24.682978580885237 25.210366099371374 C18.658498800810477 20.173596947657437, 13.117767153534924 14.251503072890447, -0.03402746314516247 4.304515554317172 M31.483067575830116 25.065497541773908 C21.04313325348314 15.500041178740911, 11.922824025999635 7.615376298809352, 0.20473736049497304 0.061101372180809466 M30.494858914974227 25.245229367140524 C25.074662684514337 19.03017917180937, 18.696258953463918 13.016413977704657, 0.9651887276198882 -0.19095614104128888 M38.206339087374694 24.933799863920385 C29.317690973244126 21.574760427371046, 24.326338481559297 13.78938978378405, 6.845149832732911 0.2407173234776705 M37.06785942804087 25.382164160848433 C28.19845325544798 17.600130799574746, 19.12388409965419 10.35202070852552, 8.023130723230476 -1.443717468549207 M42.12417698915548 25.64641318271111 C33.98865835653046 14.888450634442691, 21.755011823464407 8.523007885960936, 12.71760428114456 0.24865306048128932 M41.46610832292087 24.013825371732818 C36.19579522851886 19.576983193216382, 28.289468072395998 13.33077717088423, 13.177622370185674 -0.21817083591189057 M40.83581636805059 17.39083152177505 C35.175610406320104 13.371387778062736, 26.27448352313698 4.075356699500139, 18.397315764612966 -1.5691598822648167 M40.904014026336085 19.35999462107889 C37.70998995602107 15.241502657737037, 31.771229315973073 10.155281605831115, 19.249911442212277 0.07679351407042745 M43.85568934450244 13.949149618589257 C37.05959432473966 8.615014685191206, 32.4243756475564 4.713783599121463, 24.655504771130083 -1.7683698361791684 M41.407666373572695 13.43231986901996 C35.25000308400576 8.867074971845806, 28.147770415189342 2.45076221862384, 24.09123551714599 -1.6095289023645236 M40.980032265436336 8.506245712487484 C40.08966809349831 7.464139449200614, 35.86527011624699 5.389838433731867, 30.99281724565386 -0.9287435451900716 M42.12727034061073 8.435372455528464 C39.399454442829466 6.350404187417523, 37.9226588852808 3.91848584166799, 31.38546457704812 -0.6494098130991812 M42.78202535198273 2.784398183193047 C41.0058068395608 1.6857876234763025, 38.99608551676198 0.9363288425182266, 37.808927260618795 -1.253042619187036 M42.16586364512535 3.242646470446128 C40.54648081600866 1.965505441862871, 39.17081366964412 0.9175158062881055, 37.89552632765859 -0.6294775415916242" stroke="#fa5252" stroke-width="0.5" fill="none"></path><path d="M-1.2484625317156315 -0.5348684452474117 C12.621491125479226 -0.723779940341774, 21.371964649617443 0.7905050280343857, 40.39362480863929 0.3975128270685673 M-0.19745628349483013 0.5877394210547209 C13.923615809137118 -0.995168603498314, 26.10653368118801 0.8337685097867507, 41.90625991113484 0.806545389816165 M41.802019622176886 1.0235571004450321 C41.73311421184124 9.349248010325391, 41.848885624690666 19.09281993216864, 40.375041868537664 24.2749424315989 M41.764646427705884 0.9820867907255888 C41.85583777748841 6.469720519941621, 41.899876013629616 15.493866624035583, 40.87277431972325 24.318093610927463 M39.67006387934089 26.28242591395974 C24.871897289835033 26.49335182049981, 10.494045489147535 23.833465341122064, 0.9810278676450253 24.090730343014002 M41.53174372203648 25.4301126729697 C28.657397761402535 25.026043715707782, 17.31132824425003 24.38011586927605, -0.0004310440272092819 24.087605012580752 M1.226153638213873 24.556801471859217 C1.3155435466228664 13.319184447373118, 0.12587214941369892 5.07293476297491, -0.6405900456011295 -1.9220912121236324 M-0.17417953722178936 25.0740900170058 C-0.7666865930832136 18.039823590403103, -1.190593455818962 13.737748249615834, 0.22933180816471577 0.07571191899478436" stroke="#000000" stroke-width="1" fill="none"></path></g><g transform="translate(567.1054687499995 389.1494140624998) rotate(0 63.5 25)"><text x="0" y="18" font-family="Virgil, Segoe UI Emoji" font-size="20px" fill="#000000" text-anchor="start" style="white-space: pre;" direction="ltr">= waiting for</text><text x="0" y="43" font-family="Virgil, Segoe UI Emoji" font-size="20px" fill="#000000" text-anchor="start" style="white-space: pre;" direction="ltr">  mutex</text></g><g transform="translate(89.60546874999949 205.17871093749977) rotate(0 8.50390625 89.09375)"><path d="M0 0 C0 0, 0 0, 0 0 M0 0 C0 0, 0 0, 0 0 M0.3801184781221797 6.2791957229870485 C1.3923953309753623 4.252329637727886, 2.349514016751 4.081112835482504, 4.252176458718724 0.9491932507452779 M-0.4602438404830048 6.749714332123391 C1.6638400962091864 4.020575168755989, 3.51081721612821 2.1021775016204507, 4.908795975478834 0.6298867780563646 M0.13161247159350986 11.645794883787215 C2.234317609570274 7.493025307368394, 8.344446455543915 2.74971375735567, 11.041380898606908 0.5959675516083598 M0.6957895391713487 11.437023933648645 C3.48348225661211 7.751389961875609, 7.7699748715879835 3.671766897501288, 10.03724899287237 0.5447458396747471 M1.3924618819216033 19.687819118519002 C4.78274592216586 12.212028764726998, 12.219791433451906 6.929156891331113, 16.540295402988274 -0.3626370162772963 M0.40688690072388844 18.99790172362762 C5.877963207195054 11.077585956769576, 11.365170278114684 4.5711182973688125, 14.660597404002626 0.7352539475006035 M1.351017128880999 24.908185401647447 C4.266871277120615 16.562796232117748, 11.166049147758393 13.462549090852729, 19.098760205300593 2.1913858029931497 M0.19829123301424723 23.676466017677544 C4.813650641248319 18.631804283073297, 9.159165882886665 13.222743805176432, 20.225169119404697 3.0760785221993636 M-0.04484709626535022 32.32631164952015 C5.158166117536896 25.054808178939645, 9.75212179345085 16.911175140052517, 18.240703208607645 8.72213874383644 M0.5017559668560878 31.402771584455124 C5.201813707083012 24.640196332900413, 11.662387438577333 16.95709184058282, 18.747084163364978 8.237205835048117 M-0.9060395379644355 36.88609668035184 C6.430515786003192 29.052401427659735, 10.824464596223908 25.111496940816856, 20.57729900543395 13.717985633798987 M0.4339724554586688 36.60503120701884 C4.531117460433706 32.14999260238437, 9.685999853515215 24.619357760997033, 19.52800785106424 13.384673053437025 M-1.745812690663243 41.996283062357236 C3.6427015026512066 37.230729880078506, 11.98577130842435 30.84452184589746, 18.974201351332525 21.77126279109552 M0.15655392703125415 43.13528579342716 C4.389076681481085 36.32248574080707, 10.635663324962689 30.4802590497044, 18.633850285711745 20.684974210424567 M-1.8229398857802934 50.169585854419395 C4.449032300359292 42.72870159847947, 6.950566644645621 37.46782909672443, 20.14472025185637 25.689150283940762 M-0.9046416021884269 49.34603311740689 C5.1373035275059475 43.44499517780686, 8.604856294910443 37.721848616375524, 19.05044344551675 25.853431464069217 M-0.9243020887720732 54.11472554453026 C6.838175319125908 47.633124943311365, 14.173462149922182 36.04952264067494, 20.306644875586976 33.13280067121776 M0.7204018749993892 53.619760756793724 C6.83505175492724 48.24930490907016, 10.97868340123899 40.92081982964884, 18.90286409671699 33.23082383809777 M1.0116398689429076 59.14910469157289 C3.5607483595912237 53.36869168287217, 9.080501031354824 50.991339564436, 19.399656757067856 37.70937194091847 M-0.5151138751675575 61.21912273531447 C5.0471851097354445 56.04714823379513, 8.752470913087238 50.79952929199626, 20.23534699651223 39.31292016034594 M-1.887741507082346 66.290840863762 C6.77093336372826 60.97299436936171, 9.07402440205499 55.0740039363026, 17.461857564880493 45.384704151925945 M-0.394888124480012 67.8164724610276 C4.423796527726546 60.65472544240848, 10.714319618258536 55.95323458985791, 19.950312661140206 45.600655704540515 M-1.772417461294829 74.89789537931232 C4.694197372535521 67.71074389063183, 9.639718131266019 62.9267415402131, 20.847182304577892 49.5753523724549 M-0.7201982697287193 72.57049146699158 C4.255455983912264 66.99904668934516, 8.806364340861506 63.48401610131093, 18.58828056881017 50.12966512873997 M-1.4128800751130512 81.3072020471069 C5.655421307367652 72.07798117149684, 12.013743550117342 66.04087784273425, 17.88222223171307 57.78771542072006 M-1.0905769196759394 79.20281815193323 C5.8061014636681065 72.77201910891795, 12.65305438584764 63.47530494077505, 20.547192072731388 56.54691121600278 M0.017270936006497095 85.92670010513768 C4.85557512639114 77.30234618295329, 12.93201776857625 70.65493682515624, 18.5230477648675 62.25716460560449 M-0.12389869212191229 85.52758071868823 C3.584626249419591 81.13074510567441, 7.308706164812232 76.15201390473996, 18.301733314141586 63.18731361505576 M-0.682144009354694 91.64801086228773 C5.612163903535692 84.58072320702445, 8.701014990889055 79.13486137418283, 20.57262168858471 67.04007666510012 M-0.517352445828898 92.30157381598339 C6.165303286537574 83.31750877799396, 13.397791732392456 74.47114163516278, 19.183248425240542 68.60328177873458 M-0.5204711556436195 98.93847063677177 C6.616234433800666 88.6978906634931, 16.096972749819095 79.70352853719116, 18.05732692144617 74.42651040809001 M-0.26752807758764163 98.75379147687718 C6.685925800512524 91.46021355569872, 11.767748364932402 84.75902025904256, 20.31876729726597 74.41489160576607 M1.3405995026927258 104.4802594968045 C3.038892073138303 100.28283207176761, 8.02779835851354 92.7647891507513, 19.4443797190049 80.03223965278889 M-0.45109360918888797 103.66205585942808 C5.846495106058715 97.92924050088624, 8.89438949963676 92.48776640444382, 19.41091878342715 80.8394183792087 M-0.7561428657641684 111.809530001269 C4.435631019956054 101.13356895558653, 11.15643497081232 93.73972407787892, 19.2986525868139 87.43788196741147 M-1.0054722743948972 110.42964598736287 C5.445085111122147 103.12651302499047, 12.425159352591793 96.16100226496518, 18.957253611933325 87.76796550712092 M-0.746016726470792 114.40844013815722 C5.930084776197792 108.94797167993224, 8.47183847594924 103.91563305644914, 17.939497193454663 94.82802741084082 M0.05107068399409087 114.6148306885173 C4.081820837140324 111.57420676828629, 8.96756204642522 106.50836342628828, 18.469567299022238 93.84209326322956 M-0.46592041084565494 122.11782996635219 C7.939002512135628 116.7687680342812, 13.236945190459219 106.52199525913448, 19.658157573470703 98.08327147106887 M-0.44154421778418396 122.78104523661813 C4.826401398950649 116.35151665869337, 9.42540737449341 110.29598862355934, 19.253813351893655 99.9833517253703 M0.5630810866642477 128.22925455406863 C4.735718476036139 120.81464018750462, 12.019360979785546 116.53514366908811, 21.09429789544349 105.19289170697868 M-0.0052975015204665965 128.02642428972382 C6.168404634546839 121.04071958001119, 11.674778108014301 113.5955395429119, 19.349131036785295 106.24345741726995 M0.7925790216119282 132.1241127195213 C4.973304383441127 127.85008899878467, 10.773025308778747 119.24789866908887, 17.453415664926055 111.34688068678498 M-0.3047478140054949 133.06043063089288 C5.602028839359761 126.53425651704794, 10.959078736593002 120.15544731425192, 18.30775858190644 111.33382624698699 M0.303643812578855 141.91277577159323 C5.360547710513899 133.5043216800101, 9.323225458593837 125.46218722382913, 18.163664637471385 117.57507472870249 M-0.9277090140015503 141.28048390885212 C6.882994094204773 133.78926631424002, 13.049453561974936 125.96570071987871, 19.414356090466327 117.70220224757988 M-0.9757617558914404 145.52662044827636 C6.756572227444519 135.47001738346356, 15.548609060208161 129.68506502830283, 18.532677731660968 125.38628264161426 M-0.6053369693088513 146.3014935764372 C6.423971156476241 139.97888647949577, 10.334251421768894 132.96406576809767, 19.905328453702694 124.60928631777543 M1.1057452347825318 153.13070555845377 C4.992381412208426 148.94747048594078, 8.165300935747902 143.42033502509298, 17.96498023203833 127.86031866351226 M-0.27310178868965806 152.80603553237495 C5.105004152476751 147.00587346616936, 10.087025468960379 141.8203764924611, 19.748738553815315 129.65826916040936 M1.1403810401537555 160.21580492034013 C7.473291834740866 153.76170969286989, 9.65367460648982 146.3037164042787, 20.338517557184957 136.06067910327948 M-0.2908746189347369 158.0738850597238 C4.2669629160348554 153.6856689534474, 11.250994274324603 146.11186018377606, 18.58333503204193 135.64500792420841 M-0.181981834224743 166.23753610215022 C6.292617845168008 157.76491721014818, 14.806410604705396 150.36625789114663, 20.22206846265383 142.1265752791307 M-0.22360473183481133 165.05864556654228 C4.308443869379899 158.73472283318802, 8.624053535164382 153.7852846678461, 18.498465491591766 142.0875591422311 M-0.4169917197714881 169.25548916276705 C4.7759274034243315 166.32094382700166, 9.210754686822852 159.18427841280754, 18.532067953997995 149.91206225928062 M-0.6219966111521558 171.46437732655716 C4.078370480694699 164.67333021162415, 9.615509950663409 158.88906569121818, 20.25339941067412 148.3028074725359 M-1.1484045819429411 177.0252595901826 C9.088361213300562 168.83034524861813, 14.888983082817367 159.46406274359165, 18.18943019979892 153.6251676026123 M-0.24259674968698164 177.27513041760415 C4.445768096416912 170.2384557162699, 10.029395377114222 164.94338959506322, 19.496651055526712 154.4830944388496 M3.0126798638043795 178.39228662238884 C8.317392782682838 175.4808375599458, 13.871579688186458 169.98736677466303, 18.33696173460011 160.9199242971177 M3.5154702347604427 180.58628304251897 C8.127483815191148 174.1166408640674, 11.082196848108529 168.40196016349182, 19.545892683349294 161.22575136900792 M9.221108725707863 180.401234005241 C11.8438697235602 175.6187004958817, 15.429827171842994 173.41728639887785, 18.78923207145439 167.2414928775115 M8.091773828346168 181.07640345882464 C11.353130411578505 174.68722578913903, 16.835695035784006 170.97535635970658, 20.239215846511286 166.4082986490635 M13.45198118202238 180.18492720222292 C13.67835845882632 179.25994134115462, 15.870319781994658 177.62361430973752, 18.53556676506787 172.14362658079278 M13.10297788660823 180.4468542657998 C14.516416103470478 178.05061017499435, 16.499767560385 176.63548723058545, 19.170868881230945 172.81207588858467 M0.0743251366200468 178.25210985555017 C0.0743251366200468 178.25210985555017, 0.0743251366200468 178.25210985555017, 0.0743251366200468 178.25210985555017 M0.0743251366200468 178.25210985555017 C0.0743251366200468 178.25210985555017, 0.0743251366200468 178.25210985555017, 0.0743251366200468 178.25210985555017 M7.090623456255136 178.21746551460757 C5.277723662040636 176.63005904957586, 2.9552464049592038 174.40003032530714, -0.5404416204537029 172.2459388415817 M6.622046333287446 178.3311627412325 C4.6551911343918375 176.56609515696388, 2.9633820430719235 175.53362194032246, -0.7089263055580433 172.62170416997037 M12.706451298492983 178.4024946354673 C7.127355666864217 174.25710698374476, 1.829631474320603 171.29308942857813, -0.3101521185857765 166.42035529780935 M12.712829265194967 177.47332530695653 C8.624246521691513 174.88953831793592, 3.5626646896937513 171.3649569541583, -0.5032034254891391 167.640719765609 M18.672745899674908 176.96844474669723 C10.781496521631869 173.64041927562738, 5.330654440665903 166.72232664656477, -1.3714510321642308 161.86045764591864 M17.0680718379146 177.746809514949 C11.298016329041754 171.77245441859367, 5.863980651604862 167.51118824877014, -0.22207573317243146 161.3555152790653 M17.64971773897345 172.57605922032843 C10.48496032203294 168.42995375960993, 7.292311635689382 162.59879476195738, 0.2927598368199682 155.25318617173372 M17.425830155732584 171.29852860045384 C10.785152913273976 166.39060278165644, 4.467749774133692 161.77723270340374, 0.14614282099624631 157.90321534485457 M18.935602191942024 167.77436025590913 C11.805638520022134 163.4214841593089, 4.173557506756673 157.6361424136097, 0.9522137783139328 152.02426781644527 M17.626034183534074 167.6170263957353 C13.90227657240028 163.18722370259357, 9.563270170949224 160.28959220834844, 0.8259134228944163 151.37981136096124 M16.976668574697598 162.2896819438958 C11.151282794733941 157.00614846671334, 8.921451396639076 153.00739483868387, 1.1867959386573972 145.7396894495003 M18.10231896009229 160.55943533109365 C11.811991318565267 157.5420955475845, 5.921009237135689 151.0911365778295, 0.9098775665180625 146.61294791167603 M16.460680774248218 155.31243824070694 C13.896168411152802 152.68076955492614, 10.354594661989246 150.9266363499363, 1.6881764548584073 140.1484587773173 M17.53957972007153 156.8434520777911 C13.927241942807788 152.57944630089025, 9.875439238109 149.2296765561912, 0.674727361531481 141.9472747932612 M15.904220606710808 152.6236507367991 C9.320667404564038 144.71073572440605, 2.9711141194985604 138.28250883234205, -0.3981566069661113 136.9651911403528 M17.023795252244966 151.611365316128 C13.212146092877255 146.40509704851723, 7.686312592022404 142.8383343810309, 0.48573847170784745 135.464533811017 M19.31536445909346 144.2184208885907 C15.637273585225433 143.6812065914779, 10.064210751171899 140.9601067754217, 0.18977939019193002 129.4935817450253 M18.26720454127694 146.49102796736648 C12.063014711180156 141.16606176530624, 4.310967262844951 134.0942339933562, 1.0219467567115004 131.0445310112057 M15.781006647513088 139.4324577865383 C12.56369242021576 136.45295872873302, 8.196468527507083 131.37092519053928, 0.41778501244944977 125.75293343179125 M17.758130125940617 141.15988496180682 C10.98155264128859 133.84102446557642, 3.7238357007792207 128.74722481109012, -0.5740283696843917 125.9291644491275 M19.129536058977763 136.5655503870604 C10.801824923223265 130.1086164065166, 4.126682343010298 124.2591371629876, 0.6181553968145153 122.1016289070692 M16.986154740900318 135.40594547071134 C10.984353667024411 130.19846594407113, 4.443912284279413 123.83412662623488, -0.47080729781551156 120.7833964210447 M15.51815950960443 130.00809528061347 C14.346203410549665 127.0572256541729, 9.849497127679523 121.4874993902693, 0.07700360940407336 114.36365851131563 M16.591944674929238 128.69181067438024 C13.634421464091586 126.32933218648077, 8.570902950716647 121.03900230503763, 0.0015731360913378012 115.25928123225754 M19.095578386401137 123.86456892361605 C12.303006562601517 122.68302815984192, 8.202298125925823 117.33171449221554, 0.6969372872261701 111.45209245094905 M16.592426412691673 124.21564599407577 C13.412697961117651 121.52791882296886, 8.331397822304869 117.2944173310214, 0.5768362917004524 110.05693742902825 M15.589312005484828 119.08005540652456 C11.764659118749767 114.67600603997056, 10.244326499110329 109.6352795243832, -1.4156180036022477 102.49560856642594 M16.53060999296082 118.47520886009815 C11.108738286961458 113.53674388585611, 3.9458389014662867 106.87178838566862, 0.202289082785029 104.48857556665709 M17.968374253863566 115.0637186857576 C10.835995552163638 108.68065573910887, 6.070718217808059 105.10384828817358, -0.28774212607311966 98.46196456416484 M17.70076565040099 113.3288209437097 C10.116167105507035 107.17537967702036, 4.51361287758394 102.78420490539501, -0.7360013809906221 98.53947044140634 M18.785306527877076 109.47138938076213 C10.391722384166645 101.52166089536266, 2.8956135744744547 96.02970541388078, -0.49269701406949906 91.28452578462222 M18.052956754008157 108.21545495420114 C12.418003415996328 104.886849512113, 7.407536910579314 99.86492340178657, -0.26338443585330396 92.4319888585762 M18.065306473865064 104.54874186098512 C12.31152057288113 98.73545977377088, 7.894517300983129 93.8283618354972, -1.4872500305833398 87.48573743421657 M16.64466854777828 102.93541172586318 C11.343119694329618 98.48023549132911, 4.277355066517739 93.33258168950371, -0.5914492221387206 88.68656186442895 M19.19535672883559 97.4744713328451 C13.162507390592882 91.98745108869831, 5.040183379738991 88.33410764054997, -2.024350609497695 83.30365235340442 M18.09243689137567 98.43099730495811 C11.59921759977817 93.60389457256196, 5.466439100142917 88.81370250571267, 0.03179867392632474 81.68571251426484 M17.266257858905618 92.14288063679857 C14.76205704845193 87.80916072236191, 9.238723456673066 87.98341913224623, -0.4904536138045046 78.31540324860424 M17.476381198573534 93.00660974678618 C11.313356307296493 86.62803382068417, 5.845585041556735 82.09126569207291, -0.4528861379938576 77.7350281043461 M18.735305001083184 88.78735247926403 C11.208670482992098 84.844091834303, 9.184971046314596 77.0910686544611, 0.6818040226131785 70.56373046027255 M18.565381079036165 88.38971134760965 C11.314012648070708 81.58737469188863, 5.159019559087451 76.44939377115523, 0.2338345058739293 72.627187939973 M17.01361122148524 83.10687720069795 C13.020639827667782 76.47327837134033, 7.221294916387947 74.57243592210489, -1.3237200632365997 66.18045419482785 M17.966899696536764 81.29485641272872 C13.311924399134387 77.76346814369305, 7.357887656741374 73.51907207796367, 0.9350589651939814 67.70293556740778 M16.12878415711983 75.88952500751887 C13.247270473927767 74.4458930956965, 7.739548662290417 70.17968034027766, -2.119350305236889 62.513002292726625 M17.35216041073962 77.48466348840569 C10.409512585670624 70.47879728087482, 3.571200357987923 65.25772887226165, -0.792530846260501 61.41510654195069 M18.312249374103924 72.13897374018327 C9.362404169128034 65.63920771560664, 6.09798918468918 59.8898986416123, 1.549083433620364 57.74788246038739 M17.60597013541796 71.33384312994079 C11.84042870152921 66.87163635465411, 6.078454231596103 61.22742859333242, -0.4534928188252145 55.38960065986399 M19.661927009445545 66.69798110510968 C13.046463243382073 62.24447387907649, 8.674014349824681 57.019183469909564, -0.6104307805478939 50.037210038266636 M17.05189598023605 65.89017013359629 C13.388492610067654 61.58027015713793, 8.652080262263995 58.304012549812114, -0.46380128872696247 49.98940972644792 M17.72955512926167 59.374912442754535 C13.655896143183284 54.869642298693165, 6.470345303083654 53.79704469363949, -0.7734103107336097 47.12218023278287 M17.602088608967122 60.43851130467239 C12.465720821182487 56.24394867858665, 7.188100287235336 50.48202654737368, 0.07432960369855834 46.37558978796473 M19.18336637056032 56.5672129595364 C12.480776737009577 50.977459240783695, 10.57426726339836 46.75766470997847, -1.4115545908198364 41.45959588439258 M16.98245888127545 56.561797689431394 C13.47907545522138 51.91859546532893, 9.038419125818173 48.999049853108765, -0.4777307277754552 40.071288899714666 M15.395411299458477 50.387935495911734 C13.098557176253138 46.66636986560288, 7.549504325316747 42.991786566871845, 0.3699315162014791 35.845339699514284 M16.882501210934254 49.70505234317352 C11.971209641754951 45.70655257000579, 4.99224781025751 40.39550264438234, -0.06985267348470003 35.02271935796 M18.10423505296416 44.289212758299065 C13.199699323520264 42.09018367075868, 6.928113592904145 34.75341295378916, 1.174370656670055 31.196961047594975 M17.180470207607815 45.23636256216104 C14.072196824192263 41.98938932078016, 8.934408554018464 37.31276301914852, -0.05861348943320799 29.819244496991466 M19.00220069719434 40.18878508715487 C11.16005218887571 37.5475146502294, 9.042865593471324 32.12169718994183, -0.7972582730743731 24.89685304808164 M18.09320403506935 40.01090765169418 C12.205550921922931 35.00324218653764, 7.7129429888509975 30.346091524081455, -0.7556685566249932 24.474055776099803 M17.39816586915706 36.09347268889766 C12.552066584032218 29.95329382982728, 4.374154130609755 22.29032670790037, 2.1428086139762375 21.135429657392795 M18.40130105298315 34.43193115803521 C11.36750457294567 29.83515036002665, 6.002599901122947 25.19597358339123, 1.0238773596042368 19.20484986654728 M15.804806134969276 29.225703403983943 C13.77154667569385 24.658871747747185, 9.343363817953968 22.395344303819087, -0.48884686606115935 14.693712465984929 M17.59894317512242 28.014768636484376 C10.460506474961596 23.08901019575276, 5.451723185303088 18.217562968386705, 0.8660030480276859 14.653915448634136 M19.601291631639025 25.646984938832208 C12.800131855259156 18.70576750138611, 9.50490682119088 15.325127927796368, -1.6841483261785184 8.566802930276555 M18.119072511151455 23.447819883303925 C11.646044562507726 18.79644657622231, 6.096375562078048 14.123414386649506, 0.9829474933096494 7.949105443622631 M16.62061042528327 19.384432633898953 C13.098462947426299 13.126829675508674, 6.35889718141663 8.899469955995043, -1.3562014502588828 5.090410140724158 M17.48321472484346 18.1565767037941 C10.56474905818645 12.895866722396477, 5.170078101540497 7.236526982062054, 0.363033234223334 2.2678647818130013 M16.81224515291005 14.05424169560269 C12.769184363404495 9.14237707036133, 9.04146445680659 4.876941521679704, 2.0780922289285617 0.2203820827367602 M18.526655675862727 12.364595144217168 C14.187315430063494 8.789191851464457, 9.218111149777307 5.014600443863245, 1.7505525856558042 -0.4457383365419807 M16.31139191104644 6.567363390865589 C16.09402580772909 4.952459217126246, 13.704682062795586 3.013399654585798, 7.176579956508327 -1.6493513605932946 M17.42859136932143 7.002413782923337 C14.331312541549481 5.752993758893238, 11.73931324363159 3.235171444275191, 7.508230957279999 -0.7238931112366969 M17.904161463612294 2.416307086520216 C15.559001601306024 1.2785606119343642, 14.48256184612561 -0.7084229148850905, 12.483087617510492 -1.8587906668104934 M17.85721518223134 2.472358546614966 C16.590435871921887 1.8695978887883984, 15.672962767140682 1.1424892695617317, 12.96332030908906 -1.5465354778014826" stroke="#fa5252" stroke-width="0.5" fill="none"></path><path d="M-1.5289044702294632 -1.447682446417457 C5.618251921865158 0.9821643381610919, 11.300091554909887 -0.36566904971856273, 15.331566838234721 -1.0871515717721194 M-0.35681878418617996 -0.18781270109393522 C5.772240732674983 0.26018805088067887, 13.247123280454982 0.2574837350385497, 17.6449165389924 0.12250370223264329 M17.234181080013514 -0.9622741676867008 C14.5169849437417 46.94943735325942, 16.48235404908075 97.7048035067739, 17.054971013218164 178.57609155401585 M16.307452214881778 0.9086770582944155 C18.536925301054726 69.4388184017851, 17.93264822671772 137.00822251688223, 16.80278749577701 177.42552115209398 M17.990363215202525 178.90713604102928 C11.817794140291515 177.84616364386585, 4.780538208216601 178.1926559802303, -0.20830837286630421 177.9527833706335 M17.407818449270415 177.90514598228688 C11.857345869849814 178.26137722416632, 5.796100089887475 177.75402272530218, -0.7702781272535503 178.57170684387162 M0.5386809445917606 176.8553763888776 C0.21885031737969274 109.05606386711587, -1.7914656969101632 40.34332589979749, 1.0808530189096928 1.8560757897794247 M-0.5111967194825411 178.2106538582593 C0.14030946937738897 137.54591368219116, -0.05565385373891352 94.91030444179194, -0.5526389349251986 -0.43402777425944805" stroke="#000000" stroke-width="1" fill="none"></path></g></svg>
