<svg version="1.1" xmlns="http://www.w3.org/2000/svg" viewBox="0 0 821.1296452702702 467.81609722515486" width="821.1296452702702" height="467.81609722515486">
  <!-- svg-source:excalidraw -->
  
  <defs>
    <style>
      @font-face {
        font-family: "Virgil";
        src: url("https://excalidraw.com/Virgil.woff2");
      }
      @font-face {
        font-family: "Cascadia";
        src: url("https://excalidraw.com/Cascadia.woff2");
      }
    </style>
  </defs>
  <rect x="0" y="0" width="821.1296452702702" height="467.81609722515486" fill="#ffffff"></rect><g transform="translate(49.44700168918911 88.28948479729729) rotate(0 63 12.5)"><text x="63" y="18" font-family="Virgil, Segoe UI Emoji" font-size="20px" fill="#000000" text-anchor="middle" style="white-space: pre;" direction="ltr">Raspberry Pi</text></g><g transform="translate(369.12573902027026 93.41015625) rotate(0 47 12.5)"><text x="47" y="18" font-family="Virgil, Segoe UI Emoji" font-size="20px" fill="#000000" text-anchor="middle" style="white-space: pre;" direction="ltr">Mosquitto</text></g><g transform="translate(602.4024493243242 292.864653716216) rotate(0 45.5 12.5)"><text x="45.5" y="18" font-family="Virgil, Segoe UI Emoji" font-size="20px" fill="#000000" text-anchor="middle" style="white-space: pre;" direction="ltr">InfluxDB</text></g><g transform="translate(523.0124577702702 88.16015625) rotate(0 54 12.5)"><text x="54" y="18" font-family="Virgil, Segoe UI Emoji" font-size="20px" fill="#000000" text-anchor="middle" style="white-space: pre;" direction="ltr">homie-influx</text></g><g transform="translate(678.5710515202702 91.74609375) rotate(0 42.5 12.5)"><text x="42.5" y="18" font-family="Virgil, Segoe UI Emoji" font-size="20px" fill="#000000" text-anchor="middle" style="white-space: pre;" direction="ltr">Grafana</text></g><g transform="translate(315.70777027027026 10) rotate(0 247.7109375 178.56304546734236)"><path d="M0.5510661025112936 -0.4287558523436297 C132.79494084503514 0.2696417771765358, 265.8471673517247 0.7280091868142742, 494.98900627622504 0.026962335054616593 M0.02102282941066956 -0.043400205069541814 C182.0864674265276 -1.7711066081613998, 364.599501587583 -1.9456034318328097, 495.27054950568703 -0.2562543434335873 M496.2282341703379 1.1133819461632983 C495.64757923960934 102.64957609304702, 495.2227352073377 204.55185279836826, 496.3114444846141 357.5565989651389 M495.53787081682987 -0.5229345907055035 C494.3528185410572 112.97933562617327, 494.40924511647614 224.51594103897088, 495.1370140078725 357.14393157678523 M495.5665184805744 356.81106691652076 C364.1995661806081 359.2185308863143, 231.91304404812703 358.7955570994001, 0.0035514681119410666 357.381784291192 M495.35749370540947 357.46592754333136 C353.7944225561472 358.7157323504232, 212.8228971235399 358.3574120459073, -0.04975157731477079 356.9396144483835 M1.0558210595613613 358.23968426441104 C-0.8559450643354484 243.5188784084147, -1.7061205128946235 129.92895864093109, -1.2261789422996778 -0.9324777426912687 M-0.38528600269118557 357.6314545816704 C-2.74378833192816 226.52234895013072, -1.6555836007483355 97.55227337444117, 0.0023965291746714306 -0.4470143661076471" stroke="#000000" stroke-width="1" fill="none"></path></g><g transform="translate(41.60064752252248 72.10726351351354) rotate(0 71.44174056869366 55.347638654279194)"><path d="M0.8546817880123854 0.3445891458541155 C50.368046760875494 -1.7749165469811612, 98.28137320529622 0.6585712855650729, 142.64524470821758 0.08932754583656788 M-0.6828696271404624 -0.7997716972604394 C42.5851042023466 -1.9559903157125, 84.96237769156266 -1.1495423031220917, 143.16846925851692 0.6615950455889106 M143.71785413280864 0.018861981108784676 C141.30888387871838 30.61528561725245, 140.86964634371853 63.77759861191662, 142.53692131296535 109.90599263410766 M141.9755597793757 -0.2718725809827447 C142.28113119981543 35.395688119487275, 142.4441794373776 71.53816241706423, 142.2024669432341 111.4591113370632 M143.65697031275172 111.79126132230957 C114.08831374400705 113.15117936786169, 85.1377582952575 110.36071013864034, 1.5931037645787 111.40709728698928 M143.3411843561827 110.4873517793392 C97.37216461447778 109.35195406459601, 54.404351270783096 108.64589940689834, -0.9673204263672233 111.1709761363243 M1.2649868708103895 108.87651819687088 C-0.9595044447590668 70.54989746374517, 2.170857171852414 33.955792065702454, -0.8126172441989183 -1.8469947259873152 M-0.9562046369537711 109.74124691307296 C0.3340375455998641 78.136085615562, -0.1412599352217454 47.40592336437671, 0.1271497467532754 -0.354574472643435" stroke="#000000" stroke-width="1" fill="none"></path></g><g transform="translate(366.21167652027026 81.5859375) rotate(0 50.638671875 24.06640625)"><path d="M-0.2015626449137926 -1.6304326336830854 C23.80584531869645 0.41573899223734767, 45.64235293745806 -1.4911528901822386, 102.50262874178588 1.731838496401906 M0.40143020544201136 -0.5625531086698174 C39.36305211407343 -0.8120868925992182, 76.80778349688698 -0.5853727285805872, 101.07621716056019 -0.5815988490357995 M100.88763135485351 0.1929738838225603 C100.78365663129247 13.80019633004049, 101.43415794211782 26.86545901368518, 100.6809931974858 49.69529208727181 M101.68353198561817 -0.8876784751191735 C102.16894401017817 10.836574929078779, 102.27557192150744 20.58722508468054, 100.56051410827786 48.0491769304499 M102.16665804199874 48.22300157137215 C64.03089209382051 46.633916581249466, 25.641584199231147 46.7182775979998, -1.918888272717595 49.47700014896691 M101.68768824730068 47.872041701339185 C64.73502411665649 48.6001248087161, 27.58901682347569 49.5123953844779, 0.2748306253924966 48.481930821202695 M0.9374583344906569 48.18407669849694 C-1.3748761481872498 31.913836180394718, -1.1375637716880738 15.381543126281755, 1.510784624144435 -0.9154079239815474 M0.9548230627551675 48.396874754689634 C1.0008548590656574 32.28380869029861, -0.5170079675201122 18.259334201530145, -0.08268265333026648 0.8256410947069526" stroke="#000000" stroke-width="1" fill="none"></path></g><g transform="translate(515.4864567937077 78.8203125) rotate(0 60.4541015625 24.62890625)"><path d="M0 0 C0 0, 0 0, 0 0 M0 0 C0 0, 0 0, 0 0 M0.2999627232877661 5.880754111011617 C0.31078677331289717 4.855371126152646, 2.831457379000164 2.9135679510228107, 4.303663689228243 -0.11070282423521938 M-0.4146807323815176 6.1265054990100785 C1.5333630640583007 4.508900906191853, 2.441866606730394 2.7321872934393454, 4.781688111233062 0.20617177037869033 M-0.6844129300583495 13.283631746887743 C2.0810565497452105 8.627302304995908, 5.861600866672708 6.7873790334614394, 9.686735644889009 -0.6850746651098369 M0.9241297722886908 11.248416740864098 C2.86871242349796 8.495635038881671, 7.634844800958585 4.3302154357674505, 10.443624509078395 0.697288620759523 M-1.5305729071190814 17.875517335627848 C7.473051456022225 11.484797826868848, 13.900061733734475 5.577855781009742, 17.075087407141407 -1.4178045404213497 M-0.4806441255426268 18.987732812669748 C3.3101912830349685 12.843945626707809, 9.082528741577589 9.55355476046984, 16.544515854216595 -0.6372357740136811 M0.7826220488361333 23.909276555939673 C7.658434210974215 16.962784528413735, 13.513061048216535 7.451747870842805, 20.422126375416184 -1.7405104903340813 M1.2522228725440119 24.010637758947073 C5.286160101519576 18.790553226614172, 7.930995625100467 13.372713850154698, 20.939855595396722 -0.43333280978952615 M1.994340571626033 29.9542284344772 C10.504217571341112 19.596598821882644, 19.097554917537686 7.130008727555879, 25.9531503363069 -1.5435398953023611 M0.69643864040723 30.93010657164102 C6.068644389724081 21.834475579485833, 13.05172532178589 14.249004815669371, 25.87207511221281 0.8743178587418736 M-1.6692289152276238 36.97166680898641 C7.983264558683967 26.496777480733066, 17.70269052671887 15.448047919362207, 32.88048486732582 -1.4191366228029842 M-0.6642095214780888 36.26282249279444 C9.147080227038774 24.396108206912423, 19.673566781595945 14.556860231616206, 30.98785667163024 -0.47477104409940196 M-0.35494486320307317 40.577182392213274 C10.624886085967107 33.010257455415946, 18.113951123888324 21.306550202583036, 37.23167255502318 -1.098909344421653 M-0.36253587513705554 42.15144532695018 C10.073877400042159 30.493506505857596, 19.159209756597935 20.91710090442469, 36.886794862152385 -0.6900219106021801 M0.7616103142499142 48.992291512572095 C13.967306279429677 30.987650147922754, 28.846471176436083 15.17357297098394, 44.410445226911236 0.1959918223648316 M-0.07238333206631609 49.284990181819424 C14.869700172325127 31.76118517526835, 29.623080796351665 13.715623352263663, 42.21361882574462 -0.8112188914463871 M4.005279560605633 52.43013073169498 C17.198477930489652 35.6123327297342, 31.489800858037007 22.3067841011971, 49.26075171954024 1.4800519559707688 M3.451775865661549 52.25327208583115 C18.76847051013336 33.451244720207654, 34.90314506221411 14.106518630709893, 47.25347002591032 -0.014581253920848525 M6.016886712414319 50.85831012799623 C20.803352366950378 35.97937588719282, 34.80579131224142 24.302963770257325, 52.62773011042243 -0.3467853110806338 M8.721645681549901 52.278509271696535 C26.60603050858606 30.961982721797256, 43.53759001065974 10.300611458569435, 53.024124479614855 0.005809976294518293 M14.314208731226206 49.64873665489014 C27.801579732714288 36.07888343677949, 37.9182446569838 21.745461362736982, 57.421735486108076 -0.7739411503750837 M12.607328516602099 50.833896534626746 C26.408301351889307 36.15095735506144, 38.56802888635741 21.99182710837897, 58.87127052536161 -0.2680613430891192 M16.60447570359153 51.265114140791 C26.99052927562328 40.75161605753203, 39.45597122253295 30.274813537647816, 65.17931217410941 -0.030378179389380477 M19.181075209321502 52.299855232332945 C33.36255234928629 34.94552763472953, 47.48177754310366 19.339662756567662, 63.56073105511595 -0.5595731127516856 M22.721106957022563 49.93160496822202 C35.40218412215604 39.02344088385411, 45.75813445413043 27.20520070248655, 68.1272215109767 -1.359423819709228 M24.18527115167351 50.601444964135226 C35.677708070324016 38.45593593529234, 46.963406327812294 25.22211489754279, 68.87374128238126 -0.10353834998200995 M28.687738828069527 53.35800671559749 C43.61174819375583 36.181185569662354, 57.254586936461386 22.276996358021492, 73.74341407422217 0.6310530611885952 M28.62771405716147 51.90229021274475 C46.62269926391624 32.46398609909596, 62.110645406060414 13.204631368719959, 74.69917097412291 -0.0276318304599954 M33.2791968942447 50.38957551544062 C48.087273390806615 35.81171841757243, 60.926187536276515 22.064828923845642, 80.8210574503961 1.693818791718357 M33.87383619275078 52.2231537024816 C47.298112804981514 37.775060146212006, 58.57421815131513 23.987001821027974, 78.62880221884427 -0.6584634464744994 M38.0855237420983 52.73220269616569 C53.385035222864374 34.83894078855244, 69.59062867254278 18.256468959654434, 84.02950846701071 -0.40790174559671755 M39.24198214694479 52.13586304105694 C51.62124040956357 39.8900033468454, 62.56947066483946 27.022560639992328, 85.04955165851072 0.09699515129457836 M44.07295119914261 50.60223814029593 C61.29404352362039 30.01179180449634, 79.81252616636706 11.96676714771126, 89.97834096061626 -0.17524847234234642 M45.0956310617089 52.381884077790865 C56.22673824530409 39.63912178756266, 66.22971054619532 27.149857068707835, 90.73874825662563 -0.5546628044416053 M51.64792810192786 50.451666926245615 C63.69521505926373 37.72127851849729, 77.37106665508895 20.553977455576888, 93.77831800872505 -0.7239027559953115 M50.438674400546475 52.566247545394525 C60.9545651831727 40.42950004744502, 70.83332213885981 29.531173656797126, 95.95635553015441 -0.6747058393629572 M57.218092527966306 50.61793268653797 C66.94112040323935 40.97224451636364, 73.95069239108201 29.527201243220826, 99.10541969788724 -0.0589107681413239 M56.00763818042289 50.776122418188024 C67.47419924928128 37.28966807955063, 80.30463093643067 22.440567066991463, 100.04024931760037 -0.8983375957583135 M61.2562995638082 51.04911424958726 C72.91984707004573 37.910312836658804, 82.81997989015161 24.771730280650907, 106.76181535561514 0.5751398737428204 M61.86696073984152 52.274742553882504 C78.33078329024205 31.837548682657378, 95.7695093701058 13.247222346530016, 106.49844001092893 -0.8161234743075951 M64.86159353696578 52.95374899791672 C77.93576260572556 34.70825154856533, 91.59806620505856 20.769889045566124, 110.73989131845899 -1.5807032519285897 M66.50121497076773 51.119980051798066 C76.44372351783886 41.030929486123775, 84.7524416693591 31.46758902967533, 110.60435032364346 -0.2800639922996382 M69.82323578398932 52.52600950994063 C82.03140117126121 41.311237544426454, 92.40387563441868 29.890868501282256, 118.12716413494053 1.604775567590444 M72.41038608670492 50.858271894645874 C88.33750723047433 31.260528293112774, 105.0745120008645 11.21921868439967, 115.83297849371883 0.9696881548084306 M79.18167688239106 52.595526918182195 C87.72026346405534 39.08739364937425, 97.28898811688371 27.732242480263878, 119.79454444959102 -0.1407014997313567 M77.20209385461845 52.14319330674601 C87.35806601295049 38.1261880166323, 98.59768632372969 25.87760484937367, 122.08041216763941 0.9799164142822079 M81.29258441872122 52.35256755105571 C96.60877748832431 35.44654881962711, 106.16284561507209 23.24688344617927, 121.77248282900813 6.722851650634183 M83.18687036301168 51.42938439580963 C95.79296046323512 37.124220652439334, 108.64174308443332 20.88163502580552, 121.57122422645601 5.768847857446744 M85.73175619150159 51.752565871307155 C97.59467731899765 39.812942895830346, 107.71310186708251 30.185871446601677, 119.6846503416662 12.140993455319176 M87.8143232248595 51.3458330913796 C99.27872166964141 38.78669954651791, 110.18963114369777 26.187289868197944, 120.82340336559609 12.888211575231026 M94.63944312425392 53.4677532166825 C101.69188226533001 44.978929380216016, 106.35942372046851 36.995783939531314, 122.90743506507746 16.98241754684681 M92.54870849063681 51.61625388549877 C101.34719633805241 41.48092721903305, 110.05119502367941 31.537739247554896, 121.33910060202501 17.909551541955118 M96.06467217852841 50.83878654059606 C104.40343496091559 44.52823550917495, 110.95885693413183 36.265436044073454, 119.88244208579216 24.72645275363142 M98.74450356134693 52.97946657337832 C107.02153828916538 43.48070696110606, 113.47915946425502 34.51898260909121, 122.44837927424614 25.080476615330227 M101.87015955683736 50.27928135057103 C109.01640987711176 44.77096996620582, 115.73592520498916 39.682027190490906, 122.02140670233207 29.867596038418952 M103.08257039145528 52.56267919183832 C110.07622863537878 44.759911600351366, 116.36684636046701 35.72582623053288, 121.74537824523436 31.697943474899176 M109.79633847073102 51.000988350021686 C111.55658401952509 48.429678589375044, 117.2118671046613 40.24277094920114, 123.05051733821892 35.86714123895538 M108.16543325696522 51.57541466108992 C111.9834466315724 46.39481607164765, 116.61514283899264 42.627795181743444, 121.96388481546455 37.02863536270481 M114.0947558566728 51.06588160393768 C116.6173758868322 50.821064803361644, 118.15527985900736 46.93271018615983, 120.82507194543055 43.172724238536034 M114.41769914471408 51.76133864450277 C116.21693030443024 49.85135041893238, 117.41066696453503 47.21782603806298, 121.09906499494596 43.79121739695285" stroke="#fab005" stroke-width="0.5" fill="none"></path><path d="M0.09018907137215137 1.5166642051190138 C41.20722726133226 1.3528452065334025, 83.60097023950037 -2.4565152380123436, 122.25239077396688 1.2820032816380262 M-0.26077079866081476 0.3327778438106179 C33.25515347423515 -0.4342721305246413, 67.9032789418943 -0.22130953291607502, 121.25732144620267 0.2904827753081918 M120.95946732349691 -1.4258743543177843 C120.29967139746184 13.066879987320137, 119.60539738918776 30.021668554421925, 119.99279520101842 49.601913986727595 M121.1722653796896 0.5490961233153939 C120.53808662121406 9.18540089203816, 121.78158449952713 20.225652537286805, 121.73384421970692 49.7790950993076 M122.78890678472814 48.7041712384671 C73.75459821475394 48.5412851497912, 27.374557909550262 51.67859905216928, 0.41827538795769215 47.829064605757594 M120.93056458141652 48.66767518315464 C78.6135973251539 47.7281321156287, 36.78594796287324 47.46089108469723, -0.5616905400529504 49.8937536040321 M-1.4900350254029036 47.77710127644241 C0.7840432482433244 37.69742871511335, -1.299226884298332 23.78621127768565, -0.08072677068412304 -0.7619476933032274 M0.5830660155043006 48.43744690809399 C-0.17284675548544326 34.96416548803609, 0.3047304837895354 19.26134705778531, -0.8933514365926385 -0.9671957632526755" stroke="#000000" stroke-width="1" fill="none"></path></g><g transform="translate(675.0515202702702 81.6484375) rotate(0 45.615234375 23.208984375)"><path d="M-0.5536412615329027 -0.8173354547470808 C29.63451966582034 -1.7189936867360303, 64.00608933035619 -0.4396119943265149, 89.8017208557576 0.9103970248252153 M-0.5901373168453574 -0.5184214422479272 C34.74342679098663 -0.5902869084386111, 69.94105130073513 -0.5820910015610934, 91.8664098540321 -0.4869672665372491 M89.74975752644241 0.5885276515036821 C92.10857804565417 10.588212112195833, 90.57601012735354 24.085182415783493, 90.46852105669677 46.440865309908986 M90.41010315809399 0.13251310493797064 C91.88176361946604 17.413031501656587, 91.01268066195986 32.712530878294636, 90.26327298674732 46.91128078009933 M90.2511066775769 47.63137081451714 C57.925513330179456 44.32219441642792, 25.20459336840213 46.51677920331986, -0.35160386748611927 46.1476813275367 M90.38566349539906 46.82352390792221 C60.05431399011104 46.175918669451676, 27.752369125020778 46.37937557791611, -0.9513054927811027 45.95052671339363 M-1.2925747651606798 44.541479678824544 C-0.10791170679924106 33.10526853052615, -1.1397281297385415 15.879844201685774, -1.1770254988223314 -0.19785365276038647 M-0.6781962951645255 47.20460486318916 C-0.4830760654060214 28.47997905892953, -0.5459246631709902 11.525982183808082, -0.3848390122875571 -0.5639621326699853" stroke="#000000" stroke-width="1" fill="none"></path></g><g transform="translate(594.7618243243242 248.04824746621603) rotate(0 50.607421875 13.1328125)"><path d="M37.26947230581621 0.19053781720466745 C46.304244575125004 -0.6867398022988581, 59.53494824951131 0.25042884072869276, 69.05974895059003 1.2765607027145265 C78.58454965166875 2.30269256470036, 89.16054135460394 4.103932725021799, 94.41827651228854 6.34732898911967 C99.67601166997315 8.59072525321754, 101.93704331960313 12.180867672153978, 100.60615989669768 14.736938287301745 C99.27527647379222 17.29300890244951, 93.39711648579616 19.85588538011555, 86.43297597485576 21.683752680006272 C79.46883546391537 23.511619979896995, 68.72220732612877 25.173793059269, 58.821316831055285 25.70414208664608 C48.92042633598181 26.23449111402316, 35.926160398938194 25.906919406232625, 27.0276330044149 24.86584684426876 C18.129105609891603 23.824774282304894, 9.804693026450977 21.802503816564645, 5.430152463915505 19.45770671486289 C1.0556119013800318 17.112909613161136, -1.3199339449018908 13.662425771799686, 0.7803896292020625 10.797064234058233 C2.8807132033060157 7.93170269631678, 10.926000005345955 3.879248805673762, 18.032093908539224 2.265537488414168 C25.138187811732493 0.6518261711545739, 38.46148204755729 1.3711963030754541, 43.41695304836167 1.1147963305006687 C48.37242404916605 0.8583963579258833, 47.7871172037151 0.7975853599911046, 47.764919913365496 0.727137652965455 M32.65170847056939 -0.2863958206698065 C41.39623156601951 -1.435721201230754, 54.591280567916975 -1.5563656189435444, 64.28035579454898 -0.677482456682208 C73.96943102118098 0.20140070557912837, 84.5247693445516 2.8465377788731754, 90.78615983036141 4.986903152898211 C97.04755031617123 7.127268526923247, 101.75536832681232 9.642533452619867, 101.84869870940784 12.164709787468007 C101.94202909200337 14.686886122316148, 97.4600993014628 17.99413614558956, 91.34614212593455 20.119961161987057 C85.23218495040629 22.245786178384552, 75.03197310834815 23.948880306450388, 65.16495565623833 24.91965988585298 C55.29793820412852 25.89043946525557, 41.53775296084546 26.533829923764372, 32.14403741327567 25.944638638402616 C22.750321865705878 25.35544735304086, 14.05964879032673 23.47596717159753, 8.802662370819583 21.384512173682435 C3.545675951312435 19.293057175767338, -0.07784358264282665 16.13629906550141, 0.6021188962327813 13.395908650912023 C1.282081375108389 10.655518236322637, 7.5305785636263565 6.941913713974235, 12.88243724407323 4.942169686146116 C18.234295924520104 2.9424256583179966, 29.66476224983916 2.1853150515247033, 32.713270978914025 1.3974444839433087 C35.761779707988886 0.6095739163619142, 31.16729574851761 0.22768956129370999, 31.173489618522414 0.2149462806577489" stroke="#000000" stroke-width="1" fill="none"></path></g><g><g transform="translate(596.6817235007579 266.24592434650117) rotate(0 0.8699306707922005 35.4541097592562)"><path d="M-0.24806957356631754 -0.9663856197148561 C0.1341604358237229 11.20196429602801, 1.674701531371098 59.635454059764704, 1.987930915150787 71.8746051382273 M1.8225551709719001 1.1406579845957459 C2.1084688815195105 13.034946477394545, 1.4054721415881029 58.363579844813756, 1.2497545922175004 69.94532082555811" stroke="#000000" stroke-width="1" fill="none"></path></g></g><g><g transform="translate(696.052038644289 259.0057990433072) rotate(0 1.1122810486796766 39.996675992012)"><path d="M1.191397137567401 1.1312275160104035 C1.6558563926474488 13.994939921771472, 1.6952926842650946 65.02821434425803, 1.8668201919086187 78.18354624159625 M0.35774190545082085 0.6795180165767669 C0.8044739309356843 14.202130633195225, 1.0039672260514074 66.3770209113756, 1.2775730308331459 79.31383396744718" stroke="#000000" stroke-width="1" fill="none"></path></g></g><g transform="translate(597.4988914695946 324.67356418918894) rotate(0 50.607421875 13.1328125)"><path d="M26.878667043965418 2.197317373261498 C35.31321247214942 1.0057390381090159, 48.97990658428421 0.5821360651820265, 59.0116970358997 0.7230906957281196 C69.0434874875152 0.8640453262742126, 80.221578001755 1.1419240222081892, 87.06940975365836 3.0430451565380565 C93.91724150556172 4.944166290867924, 98.86175414770385 9.39510876292904, 100.09868754731988 12.129817501707324 C101.33562094693592 14.864526240485608, 99.55046248023304 17.43314913359264, 94.49101015135457 19.451297589207762 C89.43155782247611 21.469446044822885, 79.1786895110109 23.170117782065574, 69.74197357404911 24.238708235398057 C60.30525763708732 25.30729868873054, 47.67364485537637 26.440374909463838, 37.87071452958382 25.862840309202653 C28.067784203791277 25.28530570894147, 17.20719223756901 22.811607078115067, 10.924391619293836 20.773500633830945 C4.641591001018661 18.735394189546824, 0.47175169818806734 16.328087991290396, 0.1739108199327717 13.634201643497919 C-0.12393005832252396 10.940315295705442, 4.283936904535901 6.579037458129818, 9.137346349762062 4.6101825470760875 C13.990755794988223 2.641327636022357, 25.613453546823358 2.419205680712353, 29.294367491289737 1.8210721771755374 C32.975281435756116 1.2229386736387218, 31.001363085574006 0.8434294809347588, 31.222830016560327 1.021381525855194 M65.74826766479029 -0.5527092192180607 C75.2256402876959 0.10815356561916956, 87.89266572197621 4.025789603520895, 94.00300466033437 6.387209177625657 C100.11334359869252 8.748628751730418, 103.15152992920511 11.016031165223353, 102.4103012949392 13.61580822541051 C101.6690726606733 16.215585285597665, 96.3784412809555 19.737284300248135, 89.55563285473889 21.985871538748594 C82.73282442852228 24.234458777249053, 71.44470968847247 26.717592387152152, 61.473450737639574 27.10733165641326 C51.50219178680668 27.497070925674365, 39.06854857125954 25.404494050558366, 29.728079149741482 24.324307154315225 C20.387609728223424 23.244120258072083, 10.38075568857704 22.812582388109693, 5.43063420853121 20.626210278954407 C0.48051272848537874 18.43983816979912, -1.3991939336136408 13.85631471203042, 0.027350269466495547 11.206074499383515 C1.4538944725466318 8.55583428673661, 6.499416145882372 6.8155289370916705, 13.989899427012027 4.724769003072982 C21.480382708141683 2.6340090690542937, 35.99602464146092 -0.5902076832276061, 44.97024995624442 -1.3384851047286155 C53.944475271027926 -2.086762526229625, 64.37972021406038 -0.11037331627773828, 67.83525131571307 0.23510447406692592 C71.29078241736575 0.5805822644115901, 66.07144034060623 0.20370056058975639, 65.70343656616053 0.7343816373393697" stroke="#000000" stroke-width="1" fill="none"></path></g><g transform="translate(598.8462837837837 322.3946368243244) rotate(0 48.93581081081078 8.407939189189165)"><path d="M0 0 L97.87162162162156 0 L97.87162162162156 16.81587837837833 L0 16.81587837837833" stroke="none" stroke-width="0" fill="#fff"></path><path d="M0 0 C28.701296887690862 0, 57.402593775381725 0, 97.87162162162156 0 M0 0 C36.05118616060918 0, 72.10237232121835 0, 97.87162162162156 0 M97.87162162162156 0 C97.87162162162156 3.6977702884587065, 97.87162162162156 7.395540576917413, 97.87162162162156 16.81587837837833 M97.87162162162156 0 C97.87162162162156 6.239914103204247, 97.87162162162156 12.479828206408493, 97.87162162162156 16.81587837837833 M97.87162162162156 16.81587837837833 C77.8021785260423 16.81587837837833, 57.73273543046305 16.81587837837833, 0 16.81587837837833 M97.87162162162156 16.81587837837833 C73.03964279718201 16.81587837837833, 48.20766397274246 16.81587837837833, 0 16.81587837837833 M0 16.81587837837833 C0 11.055145310446417, 0 5.294412242514506, 0 0 M0 16.81587837837833 C0 11.86071702604402, 0 6.90555567370971, 0 0" stroke="#fff" stroke-width="1" fill="none"></path></g><g><g transform="translate(665.2213527848257 237.5499990082876) rotate(0 20.21259095373449 -53.85174926915715)"><path d="M-1.0015315186232328 0.6720645379275083 C5.912719460585704 -16.937564838368914, 34.29966375608738 -88.82406376073371, 41.42671342609221 -106.82808972821665 M0.6735257047601046 -0.020705524999648395 C7.472289385599636 -17.837714490972928, 33.91612949087094 -90.14658002350714, 40.70300586931179 -108.37556307624189" stroke="#000000" stroke-width="1" fill="none"></path></g><g transform="translate(665.2213527848257 237.5499990082876) rotate(0 20.21259095373449 -53.85174926915715)"><path d="M0.9186192540403568 -28.6050819144823 C1.0956628588498403 -19.205133789287192, -0.013766293598116208 -11.152392169957167, -2.2446567468345164 1.7741735510528087 M-0.3525049328852332 -29.04070899963904 C-1.0197579674088022 -20.530922617402382, 0.019840220508149264 -12.605381541297714, -0.6894418975338339 1.5501641442999243" stroke="#000000" stroke-width="1" fill="none"></path></g><g transform="translate(665.2213527848257 237.5499990082876) rotate(0 20.21259095373449 -53.85174926915715)"><path d="M20.008214628584362 -21.07465358522852 C14.625347974093913 -14.05626319379502, 7.882567214746901 -8.225755712848521, -2.2446567468345164 1.7741735510528087 M18.737090441658772 -21.51028067038526 C12.497898384804728 -15.18488934457529, 7.9020833022692685 -9.482395688085253, -0.6894418975338339 1.5501641442999243" stroke="#000000" stroke-width="1" fill="none"></path></g></g><g><g transform="translate(571.3859293914422 130.6695523648649) rotate(0 21.029554242175948 57.861968473091565)"><path d="M-0.2721049915999174 0.41995048038661476 C6.966816698853226 19.43184299339473, 35.42924895407781 95.5911255369395, 42.331213475951856 114.54353356813608 M1.7859011584706606 -0.4051794627495111 C9.053347658403517 18.77779144550606, 35.506546840035924 96.84737862064168, 41.923728352023225 116.12911640893265" stroke="#000000" stroke-width="1" fill="none"></path></g><g transform="translate(571.3859293914422 130.6695523648649) rotate(0 21.029554242175948 57.861968473091565)"><path d="M23.897749949606222 94.40716007583603 C27.34055129785583 97.34213244437703, 30.55627296471233 102.63588627493743, 43.12380871882842 117.20850246253951 M23.77247677872525 93.34592848037198 C27.160719480591837 99.21101080924073, 32.67294135201804 104.78289247857346, 42.29522294232802 116.54448501154377" stroke="#000000" stroke-width="1" fill="none"></path></g><g transform="translate(571.3859293914422 130.6695523648649) rotate(0 21.029554242175948 57.861968473091565)"><path d="M43.34444677829225 87.85384146317786 C42.76539338098473 92.10872719409221, 41.9334741682209 98.76649058100278, 43.12380871882842 117.20850246253951 M43.21917360741128 86.79260986771381 C41.646151137335494 94.38858821653565, 42.25372776900677 101.61328029481962, 42.29522294232802 116.54448501154377" stroke="#000000" stroke-width="1" fill="none"></path></g></g><g><g transform="translate(469.5547930743243 109.83439458621683) rotate(0 22.098322519569365 -0.3398112024449347)"><path d="M-0.6687175322324037 0.33600160963833337 C6.748069574156992 0.41540351646788926, 37.41689783741828 0.4204569393221542, 44.86536257137116 0.41061896272885856 M1.181067034006119 -0.5332014906406404 C8.402125506991737 -0.7506626175825993, 36.33954745588001 -0.9298102946009232, 43.882509005037505 -1.0938815289647572" stroke="#000000" stroke-width="1" fill="none"></path></g><g transform="translate(469.5547930743243 109.83439458621683) rotate(0 22.098322519569365 -0.3398112024449347)"><path d="M21.022969510143295 -7.410759938301551 C15.439293950335063 -6.411087179394425, 8.234925290539932 -3.868268593180159, -2.3237548775970938 2.0283035106956957 M21.31945554792662 -7.733230099434065 C12.908855342858143 -3.7774555301999584, 5.536724961324401 -1.9201359582947948, 0.2659909894689918 -0.3489473422989249" stroke="#000000" stroke-width="1" fill="none"></path></g><g transform="translate(469.5547930743243 109.83439458621683) rotate(0 22.098322519569365 -0.3398112024449347)"><path d="M20.98758760540993 7.958970315182835 C15.424028526997652 3.880886384678707, 8.23134957657025 1.3457511106482292, -2.3237548775970938 2.0283035106956957 M21.284073643193256 7.636500154050321 C12.99071182096407 6.132431397891781, 5.631150977740903 2.5296036232859604, 0.2659909894689918 -0.3489473422989249" stroke="#000000" stroke-width="1" fill="none"></path></g></g><g transform="translate(67.8115146396396 252.1538569819818) rotate(0 39.47423986486487 20.07143862612611)"><path d="M-1.7393234986811876 1.1153951603919268 L80.18826700842664 1.7717299778014421 L78.12623818314358 41.721181991921185 L-1.6519114393740892 40.725787225590466" stroke="none" stroke-width="0" fill="#fff"></path><path d="M-0.625644413754344 -0.4814963359385729 C23.399981522753706 -0.6507020652102624, 43.93101097793851 -0.08661318419448483, 80.59463899305746 1.7538000922650099 M0.7441152622923255 -0.8121738871559501 C29.887300564652246 -0.2986026376293503, 59.857419727790976 0.7199601263000168, 79.18306215296224 -0.4718481441959739 M77.4249607818453 -1.7831333298236132 C77.10014134994705 9.99030565956392, 79.14688945165832 18.27540045644657, 79.55049561432287 40.051642447189806 M79.32044108400777 0.9465323546901345 C79.02630020684393 11.280695878000392, 78.61130790418775 23.239600955570904, 78.08135406861737 41.120089697131334 M78.9156532185404 39.574355631546496 C63.878522263087476 39.03309222194671, 45.78295205287381 40.293733379573816, -0.8305990975350142 38.29384013958406 M78.16432778726056 40.344462322482286 C51.51810972035487 39.74719112154167, 23.43289533844674 39.360806604587246, -0.39601212833076715 40.241430597790895 M-0.14593770913779736 39.583719461636065 C0.9685964819698645 31.26870406845545, -1.3051700952739405 21.175671631207454, 1.6860218364745378 1.9600684624165297 M0.38475364353507757 40.58600433398169 C0.20465148097007857 31.34046906822492, 0.4299275041195689 22.677988345009652, -0.7362627694383264 -0.1401435574516654" stroke="#000000" stroke-width="1" fill="none"></path></g><g transform="translate(73.19932432432432 261.67490146396403) rotate(0 39.47423986486487 20.07143862612611)"><path d="M-0.05762550048530102 -1.6405339259654284 L80.73533945253774 1.505679665133357 L79.6115953820078 41.39852836676073 L-0.46505155973136425 39.6390374595685" stroke="none" stroke-width="0" fill="#fff"></path><path d="M-0.0861389059573412 1.988870533183217 C31.109494245028667 1.4922827040264148, 61.05469824257229 0.9240005170413989, 79.77375610268399 0.9157988745719194 M0.5576975801959634 0.6198936393484473 C18.757726274944005 0.27546395660229384, 36.53287494192105 -0.13937098979167284, 79.23993471639886 0.8236615052446723 M80.65740068352505 -0.6766393464058638 C81.02256993751878 15.489278177845767, 78.45131335955018 30.277725685617906, 79.89291073477551 40.771921816693066 M79.04385140913263 -0.313663543201983 C78.40108523909358 13.225974535086376, 79.76637346689013 26.32158089798167, 78.97122854369417 40.250876129084645 M77.83961989081189 38.36959284864497 C63.25954841070131 40.03446610072245, 45.52218742558585 39.55082060196985, -0.5231930036097765 41.09340000473094 M78.97395962851778 40.083071649485646 C59.58334372174019 41.39299974210765, 42.722254525472856 40.717615250425595, -0.7332534631714225 39.26495650451761 M-0.509024741128087 41.00959825836253 C1.6226514964673533 29.181806908448756, 0.49990032011008395 17.26817151861799, -0.5334672350436449 1.0030972082167864 M0.7590634981170297 40.89699485939127 C-0.2223187524873249 26.75261720945407, 0.1589206319254406 14.501793293342551, 0.5057784775272012 0.4328887155279517" stroke="#000000" stroke-width="1" fill="none"></path></g><g transform="translate(77.01055743243234 271.72205799549556) rotate(0 39.47423986486487 20.07143862612611)"><path d="M1.5334942061454058 -0.7011751551181078 L80.52256702354833 -1.2322400826960802 L77.48744790724203 38.675773947910784 L1.456396134570241 41.840689092354296" stroke="none" stroke-width="0" fill="#fff"></path><path d="M-0.2570801991969347 -1.5182954352349043 C22.161552994445557 -1.2851511732621255, 47.82493525730192 1.5561144455389915, 77.90508569872662 -1.6732705514878035 M-0.5110356649383903 -0.20258224103599787 C28.984151550842775 -0.9534343065250731, 59.83958447127482 -1.1025383950699186, 79.72158885377183 0.7505266359075904 M80.06752361452862 1.3673631269484758 C78.74030244370941 14.852807377103948, 80.5572580697203 27.85525182562368, 79.68446715271756 38.991772297249554 M79.63378954308763 0.5900005986914039 C78.63967048679476 9.255762859903436, 79.32643183623438 19.974105954550527, 78.37031260507837 39.43760320585352 M80.13409073746487 38.77183163486552 C55.75907869195618 39.925309452503065, 37.803986614098854 41.0510408610991, 1.9291395526379347 41.63822263799739 M79.31067338960901 39.59303328435999 C48.57283714386231 40.84929985905094, 17.07738771604774 40.870005111936756, -0.692893042229116 39.50283581059557 M0.27971833758056164 38.42675060354304 C0.45175103982749953 26.27776805983115, -0.13691390911277757 12.542880441046016, -1.5506685990840197 -0.3239463847130537 M-0.11328817810863256 39.609231770449696 C0.0918569565365035 30.15515672071772, -0.7617659866264146 21.319763578639556, -0.9139336189255118 -0.4897191533818841" stroke="#000000" stroke-width="1" fill="none"></path></g><g transform="translate(80.92384572072064 284.81327421171136) rotate(0 39.47423986486487 20.07143862612611)"><path d="M-0.33729362674057484 -1.5006563942879438 L80.76367105639264 1.100529344752431 L78.60048027432248 41.86116528831553 L-0.5182111877948046 41.57063120924067" stroke="none" stroke-width="0" fill="#fff"></path><path d="M-0.20207270793616772 1.7483152132481337 C29.288311950154874 2.6171743192549126, 58.224651884735174 2.505150071608581, 80.92136697939321 1.2404285054653883 M0.21677288319915533 -0.1561550935730338 C26.781485936525392 -1.073287244844274, 52.44797415922419 0.17917558927552268, 79.94190408478215 -0.41295726504176855 M79.37250785997793 0.26187521032989025 C79.58230625681979 11.053629521126673, 78.28008203797442 23.992659756606074, 80.47846948078558 38.27815046854448 M78.56306292305425 -0.45467503275722265 C79.1157528551129 10.674158213955543, 78.24453992562567 23.942930768834813, 78.59789215217069 40.929920899161516 M80.40487586429998 41.840689092354296 C59.20344343769162 40.99037826062183, 42.11068601413501 38.57026761771183, -0.3578979056328535 40.053074448780535 M79.38974343429044 40.383160101660906 C51.5012168188338 39.72055962453138, 22.772753946968464 39.17781638870489, -0.6530889282003045 40.887224095353304 M-0.2028080504387617 38.39547452278566 C-0.6971213305515523 25.52431961966052, -0.2175653064769979 12.659205289655496, -0.3335369508713484 -0.1621555108577013 M0.3272770633921027 40.13400425244254 C-0.3789260809709695 27.74658298389471, 0.07530997940996614 12.945695261794643, 0.16071888711303473 0.06139983329921961" stroke="#000000" stroke-width="1" fill="none"></path></g><g transform="translate(87.08586711711695 297.24992961711723) rotate(0 39.47423986486487 20.07143862612611)"><path d="M0.7696988563984632 -1.8665027897804976 L76.99231423533246 1.935419948771596 L79.60482688343808 38.67633390747142 L0.48620408587157726 41.700306359158276" stroke="none" stroke-width="0" fill="#fff"></path><path d="M0.4805656988173723 1.3868476133793592 C23.64685217265671 -0.13707568152981486, 45.68707243861031 -1.6545488427503654, 80.43717341593191 0.7329266648739576 M-0.8737013647332788 -0.43857704009860754 C19.591560416473822 -0.11874209176587736, 40.05984248424098 -0.08671153914022123, 78.86740197430089 0.29566769395023584 M78.93073373011038 -0.6171476263552904 C80.50231104452781 13.03771034801549, 77.36005234081917 25.81420948144389, 79.07127939632818 39.805583625511645 M78.77448000202611 0.8591440180316567 C79.05370914891024 9.744706882484476, 78.8684436376359 17.8240420629163, 78.90230773578122 39.37455736328047 M79.04596458843633 41.83449187822771 C51.79371332541082 37.83582585680956, 23.531240581062065 37.969738956575334, -1.1292466204613447 38.27926096268129 M79.3677735198541 39.87342034507674 C48.86967933070068 40.35705681447664, 21.581331502326066 40.07898871903101, 0.25668477918952703 40.573853509911714 M-0.9825185816735029 40.98842129059267 C-0.4603504297251882 29.122790520732472, 1.915010953236085 19.534440558367397, -1.3711439054459333 1.5125402193516493 M-0.17038941476494074 39.27543713379782 C0.15950825201660895 27.73300049395482, -0.34557194126456475 17.30749290837207, 0.07025989796966314 -0.4844651063904166" stroke="#000000" stroke-width="1" fill="none"></path></g><g transform="translate(97.90558136261257 304.3268581081081) rotate(0 31.5 12.5)"><text x="31.5" y="18" font-family="Virgil, Segoe UI Emoji" font-size="20px" fill="#000000" text-anchor="middle" style="white-space: pre;" direction="ltr">Sensor</text></g><g><g transform="translate(93.953409926581 254.67517789262922) rotate(0 1.1245046578237066 -34.39124965906433)"><path d="M-0.37206630818545816 -0.8127624202519654 C0.18087298472353464 -12.563299529910445, 1.9488557065342187 -58.601915484966625, 2.62107562383286 -70.15743268190538 M1.6334601506777107 1.374933363776654 C2.084533217986461 -10.190179695193082, 1.3476957556855498 -56.86390290105894, 1.644266469326087 -68.55212987833312" stroke="#000000" stroke-width="1" fill="none"></path></g><g transform="translate(93.953409926581 254.67517789262922) rotate(0 1.1245046578237066 -34.39124965906433)"><path d="M-10.799672044421184 -29.499191393338858 C-6.951941610246749 -20.818747553632882, -4.737420239319307 -15.30919817047431, -0.4374506644904613 -0.981025619059801 M-9.685591647940326 -29.724372865826606 C-5.276606960726108 -17.937807335504942, -2.1119161867892355 -7.777408548958352, 0.09989736471325161 -0.6543079266324638" stroke="#000000" stroke-width="1" fill="none"></path></g><g transform="translate(93.953409926581 254.67517789262922) rotate(0 1.1245046578237066 -34.39124965906433)"><path d="M9.703593170864037 -28.641218260009797 C8.588018149378382 -20.23193532188961, 5.841706385555912 -14.929975388696842, -0.4374506644904613 -0.981025619059801 M10.817673567344896 -28.866399732497545 C7.259152617734157 -17.582944485898608, 2.461266718391478 -7.755745157390219, 0.09989736471325161 -0.6543079266324638" stroke="#000000" stroke-width="1" fill="none"></path></g></g><g><g transform="translate(174.0569326587143 145.59418619991084) rotate(0 90.91749583304366 -18.120209957124246)"><path d="M0.26865593902766705 1.0908328045159579 C30.86435349408683 -5.135161990990707, 152.36938400734945 -30.777956516397346, 182.8844300884096 -37.33125271876436 M-1.0494384223222732 0.6179160815477371 C29.412743271702496 -5.432206705158421, 151.1085127991138 -29.59204925808047, 181.72129568942765 -35.95182597545069" stroke="#000000" stroke-width="1" fill="none"></path></g><g transform="translate(174.0569326587143 145.59418619991084) rotate(0 90.91749583304366 -18.120209957124246)"><path d="M157.9451593676762 -20.984172368268155 C161.82941199387187 -24.046194955628557, 166.54037252421864 -28.63444198517121, 179.90642169416824 -37.73445114214998 M156.00696743505014 -19.446952161225163 C162.91157223171143 -25.241444890208697, 168.65295936100696 -27.311254009339155, 182.63975687903294 -36.911742538223976" stroke="#000000" stroke-width="1" fill="none"></path></g><g transform="translate(174.0569326587143 145.59418619991084) rotate(0 90.91749583304366 -18.120209957124246)"><path d="M153.87313075812654 -41.09731696052047 C158.74907602373304 -39.29060820199653, 164.44758654704566 -39.001007430072775, 179.90642169416824 -37.73445114214998 M151.93493882550047 -39.56009675347748 C160.01964597943746 -40.44792516592327, 166.75879785234247 -37.58943233005136, 182.63975687903294 -36.911742538223976" stroke="#000000" stroke-width="1" fill="none"></path></g></g><g transform="translate(337.68987597216363 23.020414885099967) rotate(0 17.5 12.5)"><text x="17.5" y="18" font-family="Virgil, Segoe UI Emoji" font-size="20px" fill="#000000" text-anchor="middle" style="white-space: pre;" direction="ltr">VPS</text></g><g transform="translate(10 11.490005630630549) rotate(0 109.04244087837836 177.15723536036046)"><path d="M1.1775257511480572 -1.3130884841656667 C42.33003964203355 0.5679015097955471, 87.25989760275738 -1.152158431960804, 219.54889626662626 0.9662107407154045 M0.14646616149397976 0.08887352994991961 C61.27149213423321 1.9027971211411847, 122.82601713482431 1.6503161980003713, 218.94493609440497 0.4310087946759022 M217.771453263623 1.1257583127700235 C217.2371388580217 130.8440358521105, 216.7274193220094 263.03144028126695, 217.85355591021045 354.057117687529 M217.56880840724588 -0.4677705416880782 C220.50720425710088 123.30982297236984, 220.51176857166203 247.4134374992397, 218.55356960359154 354.38611543027383 M218.66913978044806 353.66175102138214 C143.81596829144257 354.1401762348558, 67.06129269610665 353.0694262405089, -0.7658089357646112 355.73139366028545 M218.8515525539038 354.48827309630934 C154.33343701348988 352.9406561566151, 91.60196572396511 353.5059951894394, 0.65621750750466 354.8561587754609 M-0.8452120467611375 355.08511102058634 C-2.3109503477925424 218.71861964227386, -0.9434339076686933 82.32262523712026, -0.5672652062920094 -0.7703002864651716 M0.29200167529450777 353.7426392166418 C0.5341068132147475 265.2102183366631, 0.14271758188336842 176.9481495128039, -0.0655114471798813 0.0891229772449139" stroke="#000000" stroke-width="1" fill="none"></path></g><g transform="translate(35.14428490990991 21.13795045045049) rotate(0 27 12.5)"><text x="27" y="18" font-family="Virgil, Segoe UI Emoji" font-size="20px" fill="#000000" text-anchor="middle" style="white-space: pre;" direction="ltr">House</text></g><g transform="translate(242.34448902027026 83.99609375) rotate(0 33.5 12.5)"><text x="33.5" y="18" font-family="Virgil, Segoe UI Emoji" font-size="20px" fill="#000000" text-anchor="middle" style="white-space: pre;" direction="ltr">MQTT</text></g><g transform="translate(112.58150337837836 210.815209740991) rotate(0 47.500000000000014 12.5)"><text x="47.5" y="18" font-family="Virgil, Segoe UI Emoji" font-size="20px" fill="#000000" text-anchor="middle" style="white-space: pre;" direction="ltr">Bluetooth</text></g><g transform="translate(59.240515631598385 124.9385986328125) rotate(0 55.26908874511719 22.06640625)"><path d="M0 0 C0 0, 0 0, 0 0 M0 0 C0 0, 0 0, 0 0 M-0.760752782938058 5.682553084244125 C1.148319309747254 5.0070121193666095, 2.8365354108073495 2.2046866758809376, 4.992497834148353 1.0023066144285018 M0.1182133712200572 6.2577804506319685 C1.2984460288509567 4.9874549542145505, 2.081726514339138 3.072285686596631, 5.157627556803173 -0.02085111477996765 M-1.1006117514241829 12.550325596749364 C4.6902736367183815 7.86966949832283, 8.558178371430394 4.0635034289847916, 9.492101640951764 -0.6630787198350071 M-0.6498391530383719 11.794422278225005 C3.6198515657645016 8.810864813244548, 6.97246601104883 5.619470561903918, 11.060443685901296 -0.8242269609973072 M-1.3762914641341428 17.195051661600047 C4.023108229762581 10.075271584116248, 12.51187543531448 4.968737018002722, 15.57731448067673 -0.4147379168379137 M0.14551361738236146 18.24814154477852 C3.714702251115405 13.722817047797852, 6.540349571538749 10.408652025429276, 16.462424296423276 0.7211779846739939 M0.46539731344201307 23.15407434636271 C8.879729229873286 14.60512617960729, 15.452500693098283 8.779996253784976, 23.025728969180847 0.7602931237011674 M1.0872691760025237 23.53075200477159 C5.1379609773279515 19.90924454511387, 9.863664586313163 13.986778324590842, 22.14094478105929 -0.6572516919881579 M0.8451570058753148 29.714326081562987 C8.426337788831601 22.474760067145567, 16.470253575348234 12.700686657542537, 27.571052263167115 0.20037157405286443 M0.48091782355209745 29.52475615753626 C6.740502562233533 22.521279688686572, 15.268438796545826 14.051533810844308, 26.99779878431222 0.6816937694337906 M0.18686890778127108 36.66968127135311 C6.547457810585779 26.879743444350915, 14.451660202653994 16.826094463299068, 31.832287186241544 1.0305997581466322 M0.3700918312090913 37.02341805566226 C8.150205638707963 26.14685773263242, 16.731524869368563 17.411674925301387, 30.900646356350578 -0.20389990869320584 M0.8909768137753957 42.4624518198853 C14.746178079549049 26.65419001022793, 27.520546033511412 10.238474289032297, 36.03076294604813 1.7933558208030185 M0.24764222015151915 42.05828300173931 C9.576391952171614 31.65916361999212, 21.708802776159644 19.47079351945128, 37.417130181380855 1.1261725668889007 M4.240546047463695 47.178677551089024 C14.783667144564467 33.52475918846174, 28.046811851658898 18.046580454823857, 43.488607366192866 -1.839382914048528 M1.5866977905478876 45.26946796813438 C12.91067901341636 32.61128630333853, 25.714753030049714 20.424581804256565, 42.93834780957155 0.5815594185470587 M9.339145403461682 45.807545369116504 C22.98416570752879 30.01190363989866, 39.17788333947308 11.808721757781832, 47.63027465431976 0.7216366984125422 M8.403547063576209 45.54008075743719 C18.283881229106225 32.82054900835692, 30.156144471676882 18.774913953883335, 47.305379425129175 -0.29597156046068207 M11.392670060422834 46.255517999011055 C27.99452547821442 27.742313858081193, 43.00083774529378 12.900502127990514, 53.481017634034814 0.6952669821156867 M13.16446119445246 46.38534874312855 C23.2336579374467 34.51688103260215, 32.50166354341469 25.227780786318394, 52.932760078222216 -0.2452096477673642 M17.239636725991133 45.32278608559322 C35.08070354145474 27.793071077115805, 48.013719848869954 8.394970040103992, 56.66841551298202 -0.282363918118552 M17.940989117383126 46.30407096846652 C32.79671297187152 30.821179445247793, 46.378722024893534 15.061192666730623, 57.43500745305718 -0.1228245501149452 M23.56936072377259 46.18913945279245 C36.410514122261 32.1840618382968, 48.15830684287105 17.301083459172645, 64.92084611476739 -0.4455286783607235 M24.253134632536714 46.63948940581803 C36.21242687746664 30.775698129906914, 49.685955063140305 16.346642859251826, 64.75009409980257 -0.8160430451364746 M27.923483761411205 44.20164374542931 C37.50912519985362 36.269558582352296, 48.7871203983656 23.90838585165557, 69.06901364703491 -0.11122415379028183 M29.695884174119726 45.741965598441155 C39.4888224118545 35.652190386399404, 49.6751122978047 22.851956558952903, 69.76597520266488 0.9200276604260935 M34.194446162512975 44.586963787433234 C47.716372944351264 31.089771274872838, 60.6126557845367 15.128937623204635, 72.54442093339058 0.0331519795222448 M35.06267904230066 45.05630401870283 C46.79319704768499 32.81884651959675, 58.838015219571275 18.540219304486588, 73.4440608118126 0.549723288939731 M39.6270146347219 44.23904022362478 C51.25669205940694 33.799712392146354, 58.26922689434441 25.916560916854987, 78.38089718147842 0.717477866397374 M38.971943171286014 45.28442870986111 C47.91139308560223 36.50259466905615, 56.854311831678864 27.378982388955173, 79.44574361145226 -0.08050086633754461 M44.316754501643985 45.43141287793338 C51.88630007262704 37.16148553221272, 60.48342644744473 26.08985300669255, 86.7130702149044 -2.198769169235419 M44.99055536124429 46.47270664428294 C55.66195107884069 31.211689140926836, 68.52547585254297 18.15010074330784, 85.25587115175233 -0.654746583038758 M50.21155747092322 45.60489739517961 C58.07956978374446 32.39591305222064, 70.74065266033645 21.796564383719854, 89.77789424131254 0.0611640174443977 M50.26037704638198 46.17462436522637 C58.422873797267584 34.91881381226397, 68.7782947672982 24.30211155804161, 90.80927361691931 -0.22499606790587734 M53.954054837175114 47.83461817951568 C62.866405981250026 37.296688767761, 72.77515630706947 26.82436126048628, 97.41312208430887 -1.0963702496337078 M55.965665497877104 46.29282092528113 C65.82544608147242 33.84342200548613, 75.04683028094048 22.72327540617426, 95.61423605712176 -1.1237885985719345 M61.16344039501517 46.84413713509383 C69.72204566321463 35.70494888890783, 79.22246023784045 21.092945659139094, 100.05883295153731 -1.8477438256491965 M61.23989673690765 45.46821662703695 C70.19289877229352 34.798789199626256, 80.36985315232712 24.495904414453616, 101.37902615656608 -0.8015438817788905 M64.71729335208738 47.019582406734585 C77.832418433672 32.6504714990683, 90.05234706618928 18.857947859048526, 106.25590466660393 -0.23972938667261445 M65.07258844768012 45.469141763751864 C75.80383133542337 35.25429664408252, 86.97475403089982 22.680387775255497, 107.13536646542084 0.26076130484020865 M69.59399153199774 44.87668131836742 C84.86758036042315 31.00605593230846, 96.42721313186239 15.51577433203078, 109.6475414371527 1.5981762121165772 M70.776713180363 46.03336955779284 C86.44397074748173 28.78334915448072, 101.85820018506502 9.233550449828911, 111.86496216789253 0.7142697545434018 M75.87423914239027 46.848437014812866 C90.30484093630851 30.751214666281072, 104.1481121455187 14.725900165933322, 112.57321482587506 5.958461516652804 M76.61522611916281 47.03079280241791 C89.07452734569567 31.340320291288847, 103.39030309555548 14.61496459740933, 111.71844205323507 7.221953411702614 M80.23953900687096 46.997451820000386 C91.31683906159881 35.19127428555359, 97.87664703542029 26.84743243272714, 111.43984433032008 12.21140886952886 M80.92453731424806 46.550747219994044 C88.69267533066771 39.76494003160648, 94.60155313079873 31.289705623090633, 111.01153909556004 13.48942176734814 M86.97372033308378 44.803603878750515 C92.14257177429461 38.813351651790086, 98.84104410313708 34.0037661707825, 110.53849874510325 17.158705174896987 M86.7410394498252 47.06468810377927 C95.15463108202857 38.04125684350937, 102.04942703026474 28.538713301745055, 111.66679181604542 18.993532624069722 M93.46141094463476 46.87637051499273 C98.67493786010903 39.305822143859196, 100.75674686612436 36.17739552546565, 108.9186322778686 23.764603577577745 M92.92458007606277 45.51351367614056 C96.00741851322776 42.01589046395388, 99.7444878183097 35.93289294110284, 111.71278039889773 24.08855377512542 M97.18956504916791 44.74250487354754 C100.54724502717795 44.0537715417756, 106.7752355212489 37.20970474665768, 113.2304977522221 31.622956401500552 M96.78498937716726 45.470241730335935 C101.7665536066963 41.43334714270798, 105.82176836465999 36.24674293672874, 111.75153989428549 30.84819594288215 M102.01099433047197 45.11459916045599 C104.12499047014055 42.56025689793119, 107.57600888619551 42.17096520543322, 112.04852101293751 38.003912683271615 M103.18676449028275 45.51598338668876 C105.64571764935785 44.04733945764355, 107.4310497029026 40.94699241999964, 111.36356917930195 37.09395126073881 M108.38059870601552 46.02676546197441 C109.09378671017578 45.583534093363504, 109.20549327745768 45.06208239002375, 111.03676350430482 43.43735176075801 M107.97038579062479 46.23912663605121 C109.00534438540836 45.09330510174794, 109.84604632017083 44.29258865081493, 110.75243495494954 43.41394583259329" stroke="#fab005" stroke-width="0.5" fill="none"></path><path d="M1.1391070857644081 1.8381369337439537 C30.928804019501804 1.2151215231339563, 60.024508338493106 0.08838130592509397, 109.24391040951015 0.4337463602423668 M0.9961960427463055 -0.6208205930888653 C41.105538280018386 -1.8018989836027404, 81.91289000825726 -0.2766624962141295, 109.66877568885685 -0.8943542949855328 M110.7332349792123 -0.37994954735040665 C110.32069454079408 15.599054609201266, 112.33650717621583 32.883745716436536, 108.83999905735256 43.3616788610816 M111.19353784248234 0.8995633609592915 C110.9984754434004 15.46345337004459, 109.52024937776471 28.59477578269434, 110.9342746846378 44.14048354700208 M108.95230946689846 44.69745805114508 C74.18635611659982 43.76615250911284, 37.664398432805115 43.74709356631804, -0.15356530994176865 43.38173630088568 M111.32576657459141 43.845503497868776 C72.2579749016407 43.45599120273961, 35.118417329031786 43.36134701385869, -0.8146802075207233 44.704515267163515 M0.7282153144478798 43.814256213605404 C-0.6589852569243522 28.669121532366262, 1.6038824322083383 11.383873020560713, -1.939480446279049 -0.6606223359704018 M-0.8640757687389851 44.33137970045209 C-0.6243034314698889 31.983009396595293, -0.42759510989853877 22.038253136927956, 0.28427673503756523 0.3222769983112812" stroke="#000000" stroke-width="1" fill="none"></path></g><g transform="translate(64.39917652027026 136.1328125) rotate(0 49.5 12.5)"><text x="49.5" y="18" font-family="Virgil, Segoe UI Emoji" font-size="20px" fill="#000000" text-anchor="middle" style="white-space: pre;" direction="ltr">mijia-homie</text></g><g transform="translate(364.7578157991978 217.51226421734236) rotate(0 60.4541015625 24.62890625)"><path d="M1.1993139497935772 0.0836704857647419 C25.77138737055247 0.21795445515726874, 53.01076959868441 1.2014905793867, 120.36448736116287 -1.7036361806094646 M0.8154052440077066 0.42653349600732327 C34.128317086097006 -1.1444997751748813, 69.6195679327029 0.31053334831831325, 120.5718125645071 0.091254448518157 M120.8209969513118 -1.529210101813078 C120.86864626437233 20.119553782926232, 120.64760518103645 37.670161692323745, 121.87821061536667 48.48937999084592 M121.28697055019435 -0.5176184419542551 C121.02201701062219 12.236058105183474, 120.40871305125253 23.741174700538977, 120.48435115255413 49.49925056658685 M120.21072728559372 49.40156852081418 C78.35817943150866 46.41815744557698, 38.20394624417166 47.80097793259938, -0.9827189929783344 48.42930244281888 M121.67239427007732 49.5285765286535 C90.78580795372724 48.441150043347264, 61.212448337206276 49.104561004975224, 0.16041856445372105 48.82233724556863 M0.15256256982684135 49.60562061145902 C1.1277646961920254 38.55400300077599, 0.08007108600068025 26.62712980537617, 1.4876311533153057 1.4434016831219196 M-0.5248445924371481 48.484490966424346 C0.7588269485211641 38.43350294052652, -1.215381704452011 26.465864142533974, 0.39841567911207676 -0.07675358094274998" stroke="#000000" stroke-width="1" fill="none"></path></g><g><g transform="translate(415.28052087732266 133.2529258384361) rotate(0 2.934891123948603 39.10166129230055)"><path d="M-0.09210429713129997 -1.1665268249809742 C0.9364214288691679 11.719860245039067, 4.00273516451319 64.6344627233843, 5.0810190387070175 77.79642123505474 M-1.599597782464698 0.8354426465649158 C-0.07763876246598866 13.89036430569676, 6.20794514023078 66.31520058713542, 7.469380030361936 79.36984940958209" stroke="#000000" stroke-width="1" fill="none"></path></g><g transform="translate(415.28052087732266 133.2529258384361) rotate(0 2.934891123948603 39.10166129230055)"><path d="M10.017028659077262 25.278303219686006 C9.445059893399296 21.684078236235813, 6.938709639602944 16.154963238243706, -1.597403161227703 0.5520043775439263 M12.166540281342243 26.353821572596882 C9.13442241265308 19.886404649643794, 6.131467605254459 12.5338042054598, -0.5377683695405722 -1.8169660929590463" stroke="#000000" stroke-width="1" fill="none"></path></g><g transform="translate(415.28052087732266 133.2529258384361) rotate(0 2.934891123948603 39.10166129230055)"><path d="M-10.461650878288761 26.59879055082769 C-6.7556544625969845 22.744096644219645, -4.978778506455639 16.93879460319497, -1.597403161227703 0.5520043775439263 M-8.31213925602378 27.674308903738567 C-6.006468130237547 21.036298588705222, -3.6648182276871903 13.33907227171676, -0.5377683695405722 -1.8169660929590463" stroke="#000000" stroke-width="1" fill="none"></path></g></g><g transform="translate(381.0618319124789 226.8116416587486) rotate(0 41.5 12.5)"><text x="0" y="18" font-family="Virgil, Segoe UI Emoji" font-size="20px" fill="#000000" text-anchor="start" style="white-space: pre;" direction="ltr">OpenHAB</text></g><g transform="translate(332.8745760531039 409.5462607993736) rotate(0 84.04067993164062 24.134918212890625)"><path d="M-1.9593838565051556 -1.4181373603641987 C56.65852974051467 -0.9304005024239985, 111.2584875575052 0.4720477941229375, 169.78746627643704 -0.5373305566608906 M-0.38373597897589207 0.680558854714036 C37.21512494967175 -2.1010513332274794, 76.24700551638091 -2.142432990351045, 168.87709627114236 0.992143863812089 M168.84415553882718 0.9100542776286602 C168.839070345472 12.441302744196935, 167.6283201232659 25.719205721263258, 167.64977108314633 47.047830533236265 M168.79047069512308 -0.5110361631959677 C168.0818720760504 15.98488868822443, 168.11521902705823 31.49252656759893, 168.32099250517786 47.57709341682494 M167.82508217170835 49.48938651010394 C108.4369661818053 45.40584588735748, 47.167857302497964 49.02949321954895, 1.2598976977169514 48.79160292074084 M168.07276109419763 49.19865399040282 C133.81695804048576 48.00549073257269, 97.80655255452291 48.60271610059561, 0.8250598665326834 48.734653824940324 M-1.982302200049162 48.560337852686644 C-1.0963583492865485 37.0749060609971, -1.8216425680746955 28.257759639180605, -1.8531011454761028 0.9546067230403423 M-0.05889847315847874 49.18163859285414 C-0.7991772859754189 33.99805586282399, -0.43843394214531034 19.39076135606044, 0.3327187653630972 0.6675228420644999" stroke="#000000" stroke-width="1" fill="none"></path></g><g transform="translate(359.02197595544766 419.60442730327986) rotate(0 60.5 12.5)"><text x="0" y="18" font-family="Virgil, Segoe UI Emoji" font-size="20px" fill="#000000" text-anchor="start" style="white-space: pre;" direction="ltr">Google Home</text></g><g><g transform="translate(419.2966499911956 267.8397178306236) rotate(0 0.8260911935645368 67.10580572978597)"><path d="M-0.2971778936684132 -0.27410526797175405 C-0.07236382235825733 21.973431383321685, 1.7225343381493947 111.69253900324306, 1.9493602807974413 134.25511700585486 M1.7476649828162043 -1.4636144789960235 C1.7500694800349257 20.90137120466369, 0.651167633139681 113.25032147934972, 0.9302349282862588 135.6752259385679" stroke="#000000" stroke-width="1" fill="none"></path></g><g transform="translate(419.2966499911956 267.8397178306236) rotate(0 0.8260911935645368 67.10580572978597)"><path d="M9.986637658566998 27.511639702852843 C6.131675150285336 16.203970618875438, 3.7824286226355346 8.279212383174183, -1.3219856336712836 -0.768522946536541 M9.469039310828613 28.52179602326083 C7.08720285877931 16.902706681200904, 2.2629823321579323 5.651228717202748, -0.5847987417131663 -0.02006123624742029" stroke="#000000" stroke-width="1" fill="none"></path></g><g transform="translate(419.2966499911956 267.8397178306236) rotate(0 0.8260911935645368 67.10580572978597)"><path d="M-10.531576787526465 27.862179757570036 C-7.2065996000498505 16.482620751906474, -2.3736574338506022 8.43515959659467, -1.3219856336712836 -0.768522946536541 M-11.04917513526485 28.872336077978023 C-5.259945508014068 16.961888673957326, -1.913568876299582 5.570821488758661, -0.5847987417131663 -0.02006123624742029" stroke="#000000" stroke-width="1" fill="none"></path></g><g transform="translate(419.2966499911956 267.8397178306236) rotate(0 0.8260911935645368 67.10580572978597)"><path d="M-9.744095175627125 107.24314114021189 C-5.902192754656798 115.66584424024009, -0.9152572197250031 127.41955570870036, -0.0945728117166118 135.18080826000312 M-10.26169352336551 108.25329746061988 C-4.372950131562566 118.86579400472884, -0.8513876568408811 130.00092484466248, 0.6426140802415057 135.92926997029224" stroke="#000000" stroke-width="1" fill="none"></path></g><g transform="translate(419.2966499911956 267.8397178306236) rotate(0 0.8260911935645368 67.10580572978597)"><path d="M10.777089435553657 107.27451851544201 C7.435562175863096 115.63541793640223, 5.239269341385132 127.37814607928061, -0.0945728117166118 135.18080826000312 M10.259491087815272 108.28467483585 C7.976496540030832 119.03646734618859, 3.3262791013340394 130.15910334191614, 0.6426140802415057 135.92926997029224" stroke="#000000" stroke-width="1" fill="none"></path></g></g><g transform="translate(567.0521273226352 428.47836111257743) rotate(0 19.5712890625 7.974609375)"><path d="M0 0 C0 0, 0 0, 0 0 M0 0 C0 0, 0 0, 0 0 M-1.028707414087827 5.6445528537529635 C1.6690476559235248 5.602171251029855, 2.617883871781628 3.4453932752798795, 4.315544665934986 0.5959237869677357 M-0.5274980410607406 6.72219824423372 C1.5935048777735032 3.64801129733596, 4.126315696467853 2.0462988209703847, 4.748137291105932 0.6745334137079531 M-0.40926891182552705 11.560535863458693 C4.960578731657503 7.013589684468391, 5.849084650810643 4.644169088329919, 10.851882342946661 -1.0888127242133259 M-0.2797804540861739 12.497879399776041 C3.1030781425243417 8.825246439873672, 5.866295924273267 4.32943146714112, 10.62518131132139 -0.17431030766221267 M2.927984302700356 18.13039656764205 C6.811347036495308 11.584543062855019, 10.834006008106485 6.362585774780818, 17.46215986786731 -1.043052840332968 M1.267024986282781 15.963233774884898 C7.0784422104385225 11.81839200690303, 10.923926355370815 5.6767101606822905, 14.799859029709776 1.033188457314389 M7.037958966735147 18.856758630245032 C11.022698149558178 11.812308465102543, 14.847748823955868 10.643977644566677, 21.63565281992581 0.39449243379528554 M7.164624784308813 17.142438728704157 C10.71152985014472 10.974923019080656, 15.631033808835028 5.140246446115054, 20.643165912756587 0.058996468239975286 M13.574214369965523 17.200584421951408 C16.09152935710683 10.643189676209307, 19.366485043624966 6.856517472121951, 28.14218052351138 1.132626652159983 M11.833630519894689 17.477557652715678 C16.351925277109927 10.715076645135024, 21.465324425003608 6.943762451412706, 26.63612932772598 0.5353548949596227 M17.969871712222968 16.11550697039423 C20.183717670568054 14.116103605737033, 24.336516844778394 7.534062569366142, 31.121131544417537 0.8366132715030794 M17.64692169365314 16.99516058627126 C20.044585394553216 12.038077837088881, 25.8109163847216 7.249011955425139, 31.20359926619271 -0.36398891906596376 M24.083069559301 17.048039732315456 C27.20135325885712 11.718988699913298, 29.030056825864662 8.586405614409731, 35.01343958247577 -1.4227271805423776 M23.419973297158936 16.728369872831617 C27.536357370167153 11.98891005019906, 30.34718449082395 6.55272325228777, 37.40204897876953 1.1414413155150136 M29.073491611031102 17.850253235348116 C28.631148180310152 12.334383091709945, 34.36846164419214 9.300102859527321, 40.62293764549857 0.17772541321110324 M27.099883581024812 17.817036801748525 C29.581385896479784 13.07130944156296, 33.98644415815768 10.124084211710858, 40.79342914905017 1.973093352608796 M34.09513381949782 17.900554590401832 C34.95659508801487 13.170546088737682, 37.692534822245676 10.014062802127116, 41.57444528914141 7.983329984364618 M33.000438231669065 16.649834508550946 C36.118698849215654 13.383314231764134, 38.65052045895875 10.847069302136187, 40.45923119573938 7.483827375066984 M37.76414479056948 16.86849363007896 C38.98253551370907 16.141974871579556, 39.560421641350345 15.79684416946212, 40.747480699965664 14.35578416870783 M38.09800892847234 17.22429433883481 C38.543231971807835 16.420526148409568, 39.23987583677684 15.841388647192105, 40.50384836884767 13.97952877232681" stroke="#fab005" stroke-width="0.5" fill="none"></path><path d="M-0.7363643757998943 -1.0447842366993427 C12.657918354162778 2.276134266005429, 27.203068546283653 -1.2121988400355252, 38.142668832093534 1.3785221092402935 M0.12951490841805935 -0.18585575185716152 C9.639518988192517 -0.5630718815328504, 18.878013897434748 0.6521249067781543, 38.619726812467036 -0.5557072814553976 M40.614784420379934 1.5310217819009269 C37.476611898502874 3.3291879698532285, 37.609033580369854 6.92296456852564, 39.3457727487949 15.587372700876585 M38.78006440790237 0.5831744778228313 C39.29330917884063 6.447061777529962, 39.95609516219402 11.354955117556893, 39.60245697967808 16.638756663040475 M40.04659866169101 17.924545358866453 C25.114401268384647 18.111983991272684, 12.24347172786149 17.44323859275126, -1.8704115264117718 17.314427327364683 M38.58831987343734 15.349157566204667 C27.879207155211446 15.698895820661164, 15.886744446140824 15.396083423181153, -0.893136465921998 15.358872229233384 M0.06149728396485443 14.7400817674883 C1.6004661573818157 12.708846848574467, -1.2261539037316833 7.507587279116706, -1.2191168504483358 1.4378557583848306 M-0.7679733443041187 15.87705647088842 C0.0590209166964632 12.948376374654252, -0.5229572707458283 7.9283523536443665, -0.28754921875333816 0.31673968261129637" stroke="#000000" stroke-width="1" fill="none"></path></g><g transform="translate(623.3929476351352 427.47445486257743) rotate(0 58 12.5)"><text x="0" y="18" font-family="Virgil, Segoe UI Emoji" font-size="20px" fill="#000000" text-anchor="start" style="white-space: pre;" direction="ltr">= rust code</text></g></svg>
