<svg version="1.1" xmlns="http://www.w3.org/2000/svg" viewBox="0 0 807.1461852477478 475.5859413490639" width="807.1461852477478" height="475.5859413490639">
  <!-- svg-source:excalidraw -->
  
  <defs>
    <style>
      @font-face {
        font-family: "Virgil";
        src: url("https://excalidraw.com/Virgil.woff2");
      }
      @font-face {
        font-family: "Cascadia";
        src: url("https://excalidraw.com/Cascadia.woff2");
      }
    </style>
  </defs>
  <rect x="0" y="0" width="807.1461852477478" height="475.5859413490639" fill="#ffffff"></rect><g transform="translate(173.02509149774778 301.3074714729378) rotate(0 39.47423986486487 20.07143862612611)"><path d="M-1.4132226333022118 -1.6697321310639381 L79.30878114237174 0.10948964208364487 L80.12299274935111 39.06084739551079 L1.3367852345108986 40.10293232783806" stroke="none" stroke-width="0" fill="#fff"></path><path d="M0.67289849370718 1.4831897392868996 C24.383968441600828 -1.4806326644021603, 48.88430688314682 -1.6724177615243527, 79.51023678018436 0.5745824947953224 M0.8296713419258595 -0.9346538968384266 C21.709980324711466 -0.6465337189312432, 44.71720047082715 -1.5958357962246392, 79.12863794623598 0.4172689728438854 M79.67507175638065 1.3237184658646584 C80.03427018796849 12.173040660200705, 78.38694014226841 25.909485962446908, 77.18742732240543 40.38212330028546 M78.67389074622378 -0.68482281640172 C79.5297564208241 13.885917730061253, 79.28963779804425 26.4593247499129, 78.09940890132174 40.64491916954648 M79.19949130250797 40.72250682994854 C54.04703895946041 38.90807777673537, 28.85914807881519 38.35629206926161, -0.935645617544651 39.59327275440228 M78.3904807931064 40.976207507254 C62.680556396077506 40.0658273804911, 47.02942792800369 39.416276584935986, -0.48017899319529533 39.42269672215116 M0.761537991464138 40.343263217659114 C1.1529882457415384 25.554318183980833, 0.05975060726802761 13.172515789462711, 1.8267957791686058 1.2590562477707863 M-0.5028583221137524 40.6688104993118 C-0.7877860171755782 27.936806820750135, -0.2352486951312056 15.61542859995214, -0.2696848325431347 0.0434483103454113" stroke="#000000" stroke-width="1" fill="none"></path></g><g transform="translate(184.81415399774778 310.6277839729378) rotate(0 39.47423986486487 20.07143862612611)"><path d="M-0.027453504502773285 -1.208115853369236 L77.98812174333915 -1.4403610602021217 L79.27974271311149 38.538348072619556 L-0.22803004831075668 40.90441524371636" stroke="none" stroke-width="0" fill="#fff"></path><path d="M1.7403878793120384 -1.7366777285933495 C21.471436976661245 -1.0310395362942693, 42.444635427037795 2.681830823126507, 80.07408694459781 -1.8141311034560204 M-0.2777790240943432 -0.6712720580399036 C15.12212769168184 -1.100772894183457, 31.1978957661006 -0.4029764302170873, 79.28820494471773 0.8758526854217052 M80.24972514345035 0.4173657074570656 C77.67783502054569 13.168050301548341, 79.69066885424014 27.856883394174773, 78.00038484765872 38.65482480213177 M79.2357709771274 -0.16419686749577522 C78.66432127885054 9.273326900706103, 79.44098350934217 16.006363821984152, 78.27022544203982 40.130156171919225 M79.78301767541751 40.124053546638606 C55.092759938276615 38.594337048337536, 33.24181952291306 41.60882789115675, 1.2140657529234886 40.31083662197125 M79.06810275374636 40.46586955845487 C56.13582638072675 39.65474893560767, 34.725358631974714 38.76289238443732, 0.9178294725716114 40.68934775650632 M1.0040838345885277 40.273656675071834 C0.9416605214443349 25.591545716370906, 0.3391531686153554 11.195727787455134, -0.7006550207734108 -1.3185077533125877 M-0.2748022489249706 39.16351939499509 C-0.2077328547040111 31.332372887217076, -0.18260413251315416 23.665636016890232, -0.3152608089148998 0.04549286887049675" stroke="#000000" stroke-width="1" fill="none"></path></g><g transform="translate(501.5029967711853 91.93179898648646) rotate(0 60.4541015625 24.62890625)"><path d="M0 0 C0 0, 0 0, 0 0 M0 0 C0 0, 0 0, 0 0 M0.2999627232877661 5.880754111011617 C0.31078677331289717 4.855371126152646, 2.831457379000164 2.9135679510228107, 4.303663689228243 -0.11070282423521938 M-0.4146807323815176 6.1265054990100785 C1.5333630640583007 4.508900906191853, 2.441866606730394 2.7321872934393454, 4.781688111233062 0.20617177037869033 M-0.6844129300583495 13.283631746887743 C2.0810565497452105 8.627302304995908, 5.861600866672708 6.7873790334614394, 9.686735644889009 -0.6850746651098369 M0.9241297722886908 11.248416740864098 C2.86871242349796 8.495635038881671, 7.634844800958585 4.3302154357674505, 10.443624509078395 0.697288620759523 M-1.5305729071190814 17.875517335627848 C7.473051456022225 11.484797826868848, 13.900061733734475 5.577855781009742, 17.075087407141407 -1.4178045404213497 M-0.4806441255426268 18.987732812669748 C3.3101912830349685 12.843945626707809, 9.082528741577589 9.55355476046984, 16.544515854216595 -0.6372357740136811 M0.7826220488361333 23.909276555939673 C7.658434210974215 16.962784528413735, 13.513061048216535 7.451747870842805, 20.422126375416184 -1.7405104903340813 M1.2522228725440119 24.010637758947073 C5.286160101519576 18.790553226614172, 7.930995625100467 13.372713850154698, 20.939855595396722 -0.43333280978952615 M1.994340571626033 29.9542284344772 C10.504217571341112 19.596598821882644, 19.097554917537686 7.130008727555879, 25.9531503363069 -1.5435398953023611 M0.69643864040723 30.93010657164102 C6.068644389724081 21.834475579485833, 13.05172532178589 14.249004815669371, 25.87207511221281 0.8743178587418736 M-1.6692289152276238 36.97166680898641 C7.983264558683967 26.496777480733066, 17.70269052671887 15.448047919362207, 32.88048486732582 -1.4191366228029842 M-0.6642095214780888 36.26282249279444 C9.147080227038774 24.396108206912423, 19.673566781595945 14.556860231616206, 30.98785667163024 -0.47477104409940196 M-0.35494486320307317 40.577182392213274 C10.624886085967107 33.010257455415946, 18.113951123888324 21.306550202583036, 37.23167255502318 -1.098909344421653 M-0.36253587513705554 42.15144532695018 C10.073877400042159 30.493506505857596, 19.159209756597935 20.91710090442469, 36.886794862152385 -0.6900219106021801 M0.7616103142499142 48.992291512572095 C13.967306279429677 30.987650147922754, 28.846471176436083 15.17357297098394, 44.410445226911236 0.1959918223648316 M-0.07238333206631609 49.284990181819424 C14.869700172325127 31.76118517526835, 29.623080796351665 13.715623352263663, 42.21361882574462 -0.8112188914463871 M4.005279560605633 52.43013073169498 C17.198477930489652 35.6123327297342, 31.489800858037007 22.3067841011971, 49.26075171954024 1.4800519559707688 M3.451775865661549 52.25327208583115 C18.76847051013336 33.451244720207654, 34.90314506221411 14.106518630709893, 47.25347002591032 -0.014581253920848525 M6.016886712414319 50.85831012799623 C20.803352366950378 35.97937588719282, 34.80579131224142 24.302963770257325, 52.62773011042243 -0.3467853110806338 M8.721645681549901 52.278509271696535 C26.60603050858606 30.961982721797256, 43.53759001065974 10.300611458569435, 53.024124479614855 0.005809976294518293 M14.314208731226206 49.64873665489014 C27.801579732714288 36.07888343677949, 37.9182446569838 21.745461362736982, 57.421735486108076 -0.7739411503750837 M12.607328516602099 50.833896534626746 C26.408301351889307 36.15095735506144, 38.56802888635741 21.99182710837897, 58.87127052536161 -0.2680613430891192 M16.60447570359153 51.265114140791 C26.99052927562328 40.75161605753203, 39.45597122253295 30.274813537647816, 65.17931217410941 -0.030378179389380477 M19.181075209321502 52.299855232332945 C33.36255234928629 34.94552763472953, 47.48177754310366 19.339662756567662, 63.56073105511595 -0.5595731127516856 M22.721106957022563 49.93160496822202 C35.40218412215604 39.02344088385411, 45.75813445413043 27.20520070248655, 68.1272215109767 -1.359423819709228 M24.18527115167351 50.601444964135226 C35.677708070324016 38.45593593529234, 46.963406327812294 25.22211489754279, 68.87374128238126 -0.10353834998200995 M28.687738828069527 53.35800671559749 C43.61174819375583 36.181185569662354, 57.254586936461386 22.276996358021492, 73.74341407422217 0.6310530611885952 M28.62771405716147 51.90229021274475 C46.62269926391624 32.46398609909596, 62.110645406060414 13.204631368719959, 74.69917097412291 -0.0276318304599954 M33.2791968942447 50.38957551544062 C48.087273390806615 35.81171841757243, 60.926187536276515 22.064828923845642, 80.8210574503961 1.693818791718357 M33.87383619275078 52.2231537024816 C47.298112804981514 37.775060146212006, 58.57421815131513 23.987001821027974, 78.62880221884427 -0.6584634464744994 M38.0855237420983 52.73220269616569 C53.385035222864374 34.83894078855244, 69.59062867254278 18.256468959654434, 84.02950846701071 -0.40790174559671755 M39.24198214694479 52.13586304105694 C51.62124040956357 39.8900033468454, 62.56947066483946 27.022560639992328, 85.04955165851072 0.09699515129457836 M44.07295119914261 50.60223814029593 C61.29404352362039 30.01179180449634, 79.81252616636706 11.96676714771126, 89.97834096061626 -0.17524847234234642 M45.0956310617089 52.381884077790865 C56.22673824530409 39.63912178756266, 66.22971054619532 27.149857068707835, 90.73874825662563 -0.5546628044416053 M51.64792810192786 50.451666926245615 C63.69521505926373 37.72127851849729, 77.37106665508895 20.553977455576888, 93.77831800872505 -0.7239027559953115 M50.438674400546475 52.566247545394525 C60.9545651831727 40.42950004744502, 70.83332213885981 29.531173656797126, 95.95635553015441 -0.6747058393629572 M57.218092527966306 50.61793268653797 C66.94112040323935 40.97224451636364, 73.95069239108201 29.527201243220826, 99.10541969788724 -0.0589107681413239 M56.00763818042289 50.776122418188024 C67.47419924928128 37.28966807955063, 80.30463093643067 22.440567066991463, 100.04024931760037 -0.8983375957583135 M61.2562995638082 51.04911424958726 C72.91984707004573 37.910312836658804, 82.81997989015161 24.771730280650907, 106.76181535561514 0.5751398737428204 M61.86696073984152 52.274742553882504 C78.33078329024205 31.837548682657378, 95.7695093701058 13.247222346530016, 106.49844001092893 -0.8161234743075951 M64.86159353696578 52.95374899791672 C77.93576260572556 34.70825154856533, 91.59806620505856 20.769889045566124, 110.73989131845899 -1.5807032519285897 M66.50121497076773 51.119980051798066 C76.44372351783886 41.030929486123775, 84.7524416693591 31.46758902967533, 110.60435032364346 -0.2800639922996382 M69.82323578398932 52.52600950994063 C82.03140117126121 41.311237544426454, 92.40387563441868 29.890868501282256, 118.12716413494053 1.604775567590444 M72.41038608670492 50.858271894645874 C88.33750723047433 31.260528293112774, 105.0745120008645 11.21921868439967, 115.83297849371883 0.9696881548084306 M79.18167688239106 52.595526918182195 C87.72026346405534 39.08739364937425, 97.28898811688371 27.732242480263878, 119.79454444959102 -0.1407014997313567 M77.20209385461845 52.14319330674601 C87.35806601295049 38.1261880166323, 98.59768632372969 25.87760484937367, 122.08041216763941 0.9799164142822079 M81.29258441872122 52.35256755105571 C96.60877748832431 35.44654881962711, 106.16284561507209 23.24688344617927, 121.77248282900813 6.722851650634183 M83.18687036301168 51.42938439580963 C95.79296046323512 37.124220652439334, 108.64174308443332 20.88163502580552, 121.57122422645601 5.768847857446744 M85.73175619150159 51.752565871307155 C97.59467731899765 39.812942895830346, 107.71310186708251 30.185871446601677, 119.6846503416662 12.140993455319176 M87.8143232248595 51.3458330913796 C99.27872166964141 38.78669954651791, 110.18963114369777 26.187289868197944, 120.82340336559609 12.888211575231026 M94.63944312425392 53.4677532166825 C101.69188226533001 44.978929380216016, 106.35942372046851 36.995783939531314, 122.90743506507746 16.98241754684681 M92.54870849063681 51.61625388549877 C101.34719633805241 41.48092721903305, 110.05119502367941 31.537739247554896, 121.33910060202501 17.909551541955118 M96.06467217852841 50.83878654059606 C104.40343496091559 44.52823550917495, 110.95885693413183 36.265436044073454, 119.88244208579216 24.72645275363142 M98.74450356134693 52.97946657337832 C107.02153828916538 43.48070696110606, 113.47915946425502 34.51898260909121, 122.44837927424614 25.080476615330227 M101.87015955683736 50.27928135057103 C109.01640987711176 44.77096996620582, 115.73592520498916 39.682027190490906, 122.02140670233207 29.867596038418952 M103.08257039145528 52.56267919183832 C110.07622863537878 44.759911600351366, 116.36684636046701 35.72582623053288, 121.74537824523436 31.697943474899176 M109.79633847073102 51.000988350021686 C111.55658401952509 48.429678589375044, 117.2118671046613 40.24277094920114, 123.05051733821892 35.86714123895538 M108.16543325696522 51.57541466108992 C111.9834466315724 46.39481607164765, 116.61514283899264 42.627795181743444, 121.96388481546455 37.02863536270481 M114.0947558566728 51.06588160393768 C116.6173758868322 50.821064803361644, 118.15527985900736 46.93271018615983, 120.82507194543055 43.172724238536034 M114.41769914471408 51.76133864450277 C116.21693030443024 49.85135041893238, 117.41066696453503 47.21782603806298, 121.09906499494596 43.79121739695285" stroke="#fab005" stroke-width="0.5" fill="none"></path><path d="M0.09018907137215137 1.5166642051190138 C41.20722726133226 1.3528452065334025, 83.60097023950037 -2.4565152380123436, 122.25239077396688 1.2820032816380262 M-0.26077079866081476 0.3327778438106179 C33.25515347423515 -0.4342721305246413, 67.9032789418943 -0.22130953291607502, 121.25732144620267 0.2904827753081918 M120.95946732349691 -1.4258743543177843 C120.29967139746184 13.066879987320137, 119.60539738918776 30.021668554421925, 119.99279520101842 49.601913986727595 M121.1722653796896 0.5490961233153939 C120.53808662121406 9.18540089203816, 121.78158449952713 20.225652537286805, 121.73384421970692 49.7790950993076 M122.78890678472814 48.7041712384671 C73.75459821475394 48.5412851497912, 27.374557909550262 51.67859905216928, 0.41827538795769215 47.829064605757594 M120.93056458141652 48.66767518315464 C78.6135973251539 47.7281321156287, 36.78594796287324 47.46089108469723, -0.5616905400529504 49.8937536040321 M-1.4900350254029036 47.77710127644241 C0.7840432482433244 37.69742871511335, -1.299226884298332 23.78621127768565, -0.08072677068412304 -0.7619476933032274 M0.5830660155043006 48.43744690809399 C-0.17284675548544326 34.96416548803609, 0.3047304837895354 19.26134705778531, -0.8933514365926385 -0.9671957632526755" stroke="#000000" stroke-width="1" fill="none"></path></g><g transform="translate(18.63151041666663 20.358002533783747) rotate(0 63 25)"><text x="63" y="18" font-family="Virgil, Segoe UI Emoji" font-size="20px" fill="#000000" text-anchor="middle" style="white-space: pre;" direction="ltr">Raspberry Pi</text><text x="63" y="43" font-family="Virgil, Segoe UI Emoji" font-size="20px" fill="#000000" text-anchor="middle" style="white-space: pre;" direction="ltr">Zero W</text></g><g transform="translate(355.1422789977478 106.52164273648646) rotate(0 47 12.5)"><text x="47" y="18" font-family="Virgil, Segoe UI Emoji" font-size="20px" fill="#000000" text-anchor="middle" style="white-space: pre;" direction="ltr">Mosquitto</text></g><g transform="translate(588.4189893018017 305.9761402027025) rotate(0 45.5 12.5)"><text x="45.5" y="18" font-family="Virgil, Segoe UI Emoji" font-size="20px" fill="#000000" text-anchor="middle" style="white-space: pre;" direction="ltr">InfluxDB</text></g><g transform="translate(509.0289977477478 101.27164273648646) rotate(0 54 12.5)"><text x="54" y="18" font-family="Virgil, Segoe UI Emoji" font-size="20px" fill="#000000" text-anchor="middle" style="white-space: pre;" direction="ltr">homie-influx</text></g><g transform="translate(664.5875914977478 104.85758023648646) rotate(0 42.5 12.5)"><text x="42.5" y="18" font-family="Virgil, Segoe UI Emoji" font-size="20px" fill="#000000" text-anchor="middle" style="white-space: pre;" direction="ltr">Grafana</text></g><g transform="translate(301.7243102477478 23.111486486486456) rotate(0 247.7109375 178.56304546734236)"><path d="M0.5510661025112936 -0.4287558523436297 C132.79494084503514 0.2696417771765358, 265.8471673517247 0.7280091868142742, 494.98900627622504 0.026962335054616593 M0.02102282941066956 -0.043400205069541814 C182.0864674265276 -1.7711066081613998, 364.599501587583 -1.9456034318328097, 495.27054950568703 -0.2562543434335873 M496.2282341703379 1.1133819461632983 C495.64757923960934 102.64957609304702, 495.2227352073377 204.55185279836826, 496.3114444846141 357.5565989651389 M495.53787081682987 -0.5229345907055035 C494.3528185410572 112.97933562617327, 494.40924511647614 224.51594103897088, 495.1370140078725 357.14393157678523 M495.5665184805744 356.81106691652076 C364.1995661806081 359.2185308863143, 231.91304404812703 358.7955570994001, 0.0035514681119410666 357.381784291192 M495.35749370540947 357.46592754333136 C353.7944225561472 358.7157323504232, 212.8228971235399 358.3574120459073, -0.04975157731477079 356.9396144483835 M1.0558210595613613 358.23968426441104 C-0.8559450643354484 243.5188784084147, -1.7061205128946235 129.92895864093109, -1.2261789422996778 -0.9324777426912687 M-0.38528600269118557 357.6314545816704 C-2.74378833192816 226.52234895013072, -1.6555836007483355 97.55227337444117, 0.0023965291746714306 -0.4470143661076471" stroke="#000000" stroke-width="1" fill="none"></path></g><g transform="translate(10 10) rotate(0 71.44174056869366 67.8652167792792)"><path d="M0.8546817880123854 0.3445891458541155 C50.368046760875494 -1.7749165469811612, 98.28137320529622 0.6585712855650729, 142.64524470821758 0.08932754583656788 M-0.6828696271404624 -0.7997716972604394 C42.5851042023466 -1.9559903157125, 84.96237769156266 -1.1495423031220917, 143.16846925851692 0.6615950455889106 M143.71785413280864 0.018861981108784676 C141.2950229562704 37.761434833399846, 140.85578542127055 78.06989704421142, 142.53692131296535 134.9411488841077 M141.9755597793757 -0.2718725809827447 C142.0456972134466 43.45635700169941, 142.20874545100878 87.6595001814885, 142.2024669432341 136.49426758706323 M143.65697031275172 136.8264175723096 C114.08831374400705 138.18633561786172, 85.1377582952575 135.39586638864037, 1.5931037645787 136.4422535369893 M143.3411843561827 135.52250802933924 C97.37216461447778 134.38711031459604, 54.404351270783096 133.68105565689837, -0.9673204263672233 136.20613238632433 M1.2649868708103895 133.9116744468709 C-0.8777294360730853 86.92760856066593, 2.2526321805383955 41.67605800954398, -0.8126172441989183 -1.8469947259873152 M-0.9562046369537711 134.77640316307298 C0.40986044632238783 96.01421409580132, -0.06543703449922167 58.127024074855356, 0.1271497467532754 -0.354574472643435" stroke="#000000" stroke-width="1" fill="none"></path></g><g transform="translate(352.2282164977478 94.69742398648646) rotate(0 50.638671875 24.06640625)"><path d="M-0.2015626449137926 -1.6304326336830854 C23.80584531869645 0.41573899223734767, 45.64235293745806 -1.4911528901822386, 102.50262874178588 1.731838496401906 M0.40143020544201136 -0.5625531086698174 C39.36305211407343 -0.8120868925992182, 76.80778349688698 -0.5853727285805872, 101.07621716056019 -0.5815988490357995 M100.88763135485351 0.1929738838225603 C100.78365663129247 13.80019633004049, 101.43415794211782 26.86545901368518, 100.6809931974858 49.69529208727181 M101.68353198561817 -0.8876784751191735 C102.16894401017817 10.836574929078779, 102.27557192150744 20.58722508468054, 100.56051410827786 48.0491769304499 M102.16665804199874 48.22300157137215 C64.03089209382051 46.633916581249466, 25.641584199231147 46.7182775979998, -1.918888272717595 49.47700014896691 M101.68768824730068 47.872041701339185 C64.73502411665649 48.6001248087161, 27.58901682347569 49.5123953844779, 0.2748306253924966 48.481930821202695 M0.9374583344906569 48.18407669849694 C-1.3748761481872498 31.913836180394718, -1.1375637716880738 15.381543126281755, 1.510784624144435 -0.9154079239815474 M0.9548230627551675 48.396874754689634 C1.0008548590656574 32.28380869029861, -0.5170079675201122 18.259334201530145, -0.08268265333026648 0.8256410947069526" stroke="#000000" stroke-width="1" fill="none"></path></g><g transform="translate(661.0680602477478 94.75992398648646) rotate(0 45.615234375 23.208984375)"><path d="M-0.5536412615329027 -0.8173354547470808 C29.63451966582034 -1.7189936867360303, 64.00608933035619 -0.4396119943265149, 89.8017208557576 0.9103970248252153 M-0.5901373168453574 -0.5184214422479272 C34.74342679098663 -0.5902869084386111, 69.94105130073513 -0.5820910015610934, 91.8664098540321 -0.4869672665372491 M89.74975752644241 0.5885276515036821 C92.10857804565417 10.588212112195833, 90.57601012735354 24.085182415783493, 90.46852105669677 46.440865309908986 M90.41010315809399 0.13251310493797064 C91.88176361946604 17.413031501656587, 91.01268066195986 32.712530878294636, 90.26327298674732 46.91128078009933 M90.2511066775769 47.63137081451714 C57.925513330179456 44.32219441642792, 25.20459336840213 46.51677920331986, -0.35160386748611927 46.1476813275367 M90.38566349539906 46.82352390792221 C60.05431399011104 46.175918669451676, 27.752369125020778 46.37937557791611, -0.9513054927811027 45.95052671339363 M-1.2925747651606798 44.541479678824544 C-0.10791170679924106 33.10526853052615, -1.1397281297385415 15.879844201685774, -1.1770254988223314 -0.19785365276038647 M-0.6781962951645255 47.20460486318916 C-0.4830760654060214 28.47997905892953, -0.5459246631709902 11.525982183808082, -0.3848390122875571 -0.5639621326699853" stroke="#000000" stroke-width="1" fill="none"></path></g><g transform="translate(580.7783643018017 261.1597339527025) rotate(0 50.607421875 13.1328125)"><path d="M37.26947230581621 0.19053781720466745 C46.304244575125004 -0.6867398022988581, 59.53494824951131 0.25042884072869276, 69.05974895059003 1.2765607027145265 C78.58454965166875 2.30269256470036, 89.16054135460394 4.103932725021799, 94.41827651228854 6.34732898911967 C99.67601166997315 8.59072525321754, 101.93704331960313 12.180867672153978, 100.60615989669768 14.736938287301745 C99.27527647379222 17.29300890244951, 93.39711648579616 19.85588538011555, 86.43297597485576 21.683752680006272 C79.46883546391537 23.511619979896995, 68.72220732612877 25.173793059269, 58.821316831055285 25.70414208664608 C48.92042633598181 26.23449111402316, 35.926160398938194 25.906919406232625, 27.0276330044149 24.86584684426876 C18.129105609891603 23.824774282304894, 9.804693026450977 21.802503816564645, 5.430152463915505 19.45770671486289 C1.0556119013800318 17.112909613161136, -1.3199339449018908 13.662425771799686, 0.7803896292020625 10.797064234058233 C2.8807132033060157 7.93170269631678, 10.926000005345955 3.879248805673762, 18.032093908539224 2.265537488414168 C25.138187811732493 0.6518261711545739, 38.46148204755729 1.3711963030754541, 43.41695304836167 1.1147963305006687 C48.37242404916605 0.8583963579258833, 47.7871172037151 0.7975853599911046, 47.764919913365496 0.727137652965455 M32.65170847056939 -0.2863958206698065 C41.39623156601951 -1.435721201230754, 54.591280567916975 -1.5563656189435444, 64.28035579454898 -0.677482456682208 C73.96943102118098 0.20140070557912837, 84.5247693445516 2.8465377788731754, 90.78615983036141 4.986903152898211 C97.04755031617123 7.127268526923247, 101.75536832681232 9.642533452619867, 101.84869870940784 12.164709787468007 C101.94202909200337 14.686886122316148, 97.4600993014628 17.99413614558956, 91.34614212593455 20.119961161987057 C85.23218495040629 22.245786178384552, 75.03197310834815 23.948880306450388, 65.16495565623833 24.91965988585298 C55.29793820412852 25.89043946525557, 41.53775296084546 26.533829923764372, 32.14403741327567 25.944638638402616 C22.750321865705878 25.35544735304086, 14.05964879032673 23.47596717159753, 8.802662370819583 21.384512173682435 C3.545675951312435 19.293057175767338, -0.07784358264282665 16.13629906550141, 0.6021188962327813 13.395908650912023 C1.282081375108389 10.655518236322637, 7.5305785636263565 6.941913713974235, 12.88243724407323 4.942169686146116 C18.234295924520104 2.9424256583179966, 29.66476224983916 2.1853150515247033, 32.713270978914025 1.3974444839433087 C35.761779707988886 0.6095739163619142, 31.16729574851761 0.22768956129370999, 31.173489618522414 0.2149462806577489" stroke="#000000" stroke-width="1" fill="none"></path></g><g><g transform="translate(582.6982634782355 279.3574108329876) rotate(0 0.8699306707922005 35.4541097592562)"><path d="M-0.24806957356631754 -0.9663856197148561 C0.1341604358237229 11.20196429602801, 1.674701531371098 59.635454059764704, 1.987930915150787 71.8746051382273 M1.8225551709719001 1.1406579845957459 C2.1084688815195105 13.034946477394545, 1.4054721415881029 58.363579844813756, 1.2497545922175004 69.94532082555811" stroke="#000000" stroke-width="1" fill="none"></path></g></g><g><g transform="translate(682.0685786217666 272.11728552979366) rotate(0 1.1122810486796766 39.996675992012)"><path d="M1.191397137567401 1.1312275160104035 C1.6558563926474488 13.994939921771472, 1.6952926842650946 65.02821434425803, 1.8668201919086187 78.18354624159625 M0.35774190545082085 0.6795180165767669 C0.8044739309356843 14.202130633195225, 1.0039672260514074 66.3770209113756, 1.2775730308331459 79.31383396744718" stroke="#000000" stroke-width="1" fill="none"></path></g></g><g transform="translate(583.5154314470722 337.7850506756754) rotate(0 50.607421875 13.1328125)"><path d="M26.878667043965418 2.197317373261498 C35.31321247214942 1.0057390381090159, 48.97990658428421 0.5821360651820265, 59.0116970358997 0.7230906957281196 C69.0434874875152 0.8640453262742126, 80.221578001755 1.1419240222081892, 87.06940975365836 3.0430451565380565 C93.91724150556172 4.944166290867924, 98.86175414770385 9.39510876292904, 100.09868754731988 12.129817501707324 C101.33562094693592 14.864526240485608, 99.55046248023304 17.43314913359264, 94.49101015135457 19.451297589207762 C89.43155782247611 21.469446044822885, 79.1786895110109 23.170117782065574, 69.74197357404911 24.238708235398057 C60.30525763708732 25.30729868873054, 47.67364485537637 26.440374909463838, 37.87071452958382 25.862840309202653 C28.067784203791277 25.28530570894147, 17.20719223756901 22.811607078115067, 10.924391619293836 20.773500633830945 C4.641591001018661 18.735394189546824, 0.47175169818806734 16.328087991290396, 0.1739108199327717 13.634201643497919 C-0.12393005832252396 10.940315295705442, 4.283936904535901 6.579037458129818, 9.137346349762062 4.6101825470760875 C13.990755794988223 2.641327636022357, 25.613453546823358 2.419205680712353, 29.294367491289737 1.8210721771755374 C32.975281435756116 1.2229386736387218, 31.001363085574006 0.8434294809347588, 31.222830016560327 1.021381525855194 M65.74826766479029 -0.5527092192180607 C75.2256402876959 0.10815356561916956, 87.89266572197621 4.025789603520895, 94.00300466033437 6.387209177625657 C100.11334359869252 8.748628751730418, 103.15152992920511 11.016031165223353, 102.4103012949392 13.61580822541051 C101.6690726606733 16.215585285597665, 96.3784412809555 19.737284300248135, 89.55563285473889 21.985871538748594 C82.73282442852228 24.234458777249053, 71.44470968847247 26.717592387152152, 61.473450737639574 27.10733165641326 C51.50219178680668 27.497070925674365, 39.06854857125954 25.404494050558366, 29.728079149741482 24.324307154315225 C20.387609728223424 23.244120258072083, 10.38075568857704 22.812582388109693, 5.43063420853121 20.626210278954407 C0.48051272848537874 18.43983816979912, -1.3991939336136408 13.85631471203042, 0.027350269466495547 11.206074499383515 C1.4538944725466318 8.55583428673661, 6.499416145882372 6.8155289370916705, 13.989899427012027 4.724769003072982 C21.480382708141683 2.6340090690542937, 35.99602464146092 -0.5902076832276061, 44.97024995624442 -1.3384851047286155 C53.944475271027926 -2.086762526229625, 64.37972021406038 -0.11037331627773828, 67.83525131571307 0.23510447406692592 C71.29078241736575 0.5805822644115901, 66.07144034060623 0.20370056058975639, 65.70343656616053 0.7343816373393697" stroke="#000000" stroke-width="1" fill="none"></path></g><g transform="translate(584.8628237612613 335.50612331081084) rotate(0 48.93581081081078 8.407939189189165)"><path d="M0 0 L97.87162162162156 0 L97.87162162162156 16.81587837837833 L0 16.81587837837833" stroke="none" stroke-width="0" fill="#fff"></path><path d="M0 0 C28.701296887690862 0, 57.402593775381725 0, 97.87162162162156 0 M0 0 C36.05118616060918 0, 72.10237232121835 0, 97.87162162162156 0 M97.87162162162156 0 C97.87162162162156 3.6977702884587065, 97.87162162162156 7.395540576917413, 97.87162162162156 16.81587837837833 M97.87162162162156 0 C97.87162162162156 6.239914103204247, 97.87162162162156 12.479828206408493, 97.87162162162156 16.81587837837833 M97.87162162162156 16.81587837837833 C77.8021785260423 16.81587837837833, 57.73273543046305 16.81587837837833, 0 16.81587837837833 M97.87162162162156 16.81587837837833 C73.03964279718201 16.81587837837833, 48.20766397274246 16.81587837837833, 0 16.81587837837833 M0 16.81587837837833 C0 11.055145310446417, 0 5.294412242514506, 0 0 M0 16.81587837837833 C0 11.86071702604402, 0 6.90555567370971, 0 0" stroke="#fff" stroke-width="1" fill="none"></path></g><g><g transform="translate(651.2378927623032 250.66148549477407) rotate(0 20.21259095373449 -53.85174926915715)"><path d="M-1.0015315186232328 0.6720645379275083 C5.912719460585704 -16.937564838368914, 34.29966375608738 -88.82406376073371, 41.42671342609221 -106.82808972821665 M0.6735257047601046 -0.020705524999648395 C7.472289385599636 -17.837714490972928, 33.91612949087094 -90.14658002350714, 40.70300586931179 -108.37556307624189" stroke="#000000" stroke-width="1" fill="none"></path></g><g transform="translate(651.2378927623032 250.66148549477407) rotate(0 20.21259095373449 -53.85174926915715)"><path d="M0.9186192540403568 -28.6050819144823 C1.0956628588498403 -19.205133789287192, -0.013766293598116208 -11.152392169957167, -2.2446567468345164 1.7741735510528087 M-0.3525049328852332 -29.04070899963904 C-1.0197579674088022 -20.530922617402382, 0.019840220508149264 -12.605381541297714, -0.6894418975338339 1.5501641442999243" stroke="#000000" stroke-width="1" fill="none"></path></g><g transform="translate(651.2378927623032 250.66148549477407) rotate(0 20.21259095373449 -53.85174926915715)"><path d="M20.008214628584362 -21.07465358522852 C14.625347974093913 -14.05626319379502, 7.882567214746901 -8.225755712848521, -2.2446567468345164 1.7741735510528087 M18.737090441658772 -21.51028067038526 C12.497898384804728 -15.18488934457529, 7.9020833022692685 -9.482395688085253, -0.6894418975338339 1.5501641442999243" stroke="#000000" stroke-width="1" fill="none"></path></g></g><g><g transform="translate(557.4024693689198 143.78103885135135) rotate(0 21.029554242175948 57.861968473091565)"><path d="M-0.2721049915999174 0.41995048038661476 C6.966816698853226 19.43184299339473, 35.42924895407781 95.5911255369395, 42.331213475951856 114.54353356813608 M1.7859011584706606 -0.4051794627495111 C9.053347658403517 18.77779144550606, 35.506546840035924 96.84737862064168, 41.923728352023225 116.12911640893265" stroke="#000000" stroke-width="1" fill="none"></path></g><g transform="translate(557.4024693689198 143.78103885135135) rotate(0 21.029554242175948 57.861968473091565)"><path d="M23.897749949606222 94.40716007583603 C27.34055129785583 97.34213244437703, 30.55627296471233 102.63588627493743, 43.12380871882842 117.20850246253951 M23.77247677872525 93.34592848037198 C27.160719480591837 99.21101080924073, 32.67294135201804 104.78289247857346, 42.29522294232802 116.54448501154377" stroke="#000000" stroke-width="1" fill="none"></path></g><g transform="translate(557.4024693689198 143.78103885135135) rotate(0 21.029554242175948 57.861968473091565)"><path d="M43.34444677829225 87.85384146317786 C42.76539338098473 92.10872719409221, 41.9334741682209 98.76649058100278, 43.12380871882842 117.20850246253951 M43.21917360741128 86.79260986771381 C41.646151137335494 94.38858821653565, 42.25372776900677 101.61328029481962, 42.29522294232802 116.54448501154377" stroke="#000000" stroke-width="1" fill="none"></path></g></g><g><g transform="translate(455.57133305180184 122.94588107270329) rotate(0 22.098322519569365 -0.3398112024449347)"><path d="M-0.6687175322324037 0.33600160963833337 C6.748069574156992 0.41540351646788926, 37.41689783741828 0.4204569393221542, 44.86536257137116 0.41061896272885856 M1.181067034006119 -0.5332014906406404 C8.402125506991737 -0.7506626175825993, 36.33954745588001 -0.9298102946009232, 43.882509005037505 -1.0938815289647572" stroke="#000000" stroke-width="1" fill="none"></path></g><g transform="translate(455.57133305180184 122.94588107270329) rotate(0 22.098322519569365 -0.3398112024449347)"><path d="M21.022969510143295 -7.410759938301551 C15.439293950335063 -6.411087179394425, 8.234925290539932 -3.868268593180159, -2.3237548775970938 2.0283035106956957 M21.31945554792662 -7.733230099434065 C12.908855342858143 -3.7774555301999584, 5.536724961324401 -1.9201359582947948, 0.2659909894689918 -0.3489473422989249" stroke="#000000" stroke-width="1" fill="none"></path></g><g transform="translate(455.57133305180184 122.94588107270329) rotate(0 22.098322519569365 -0.3398112024449347)"><path d="M20.98758760540993 7.958970315182835 C15.424028526997652 3.880886384678707, 8.23134957657025 1.3457511106482292, -2.3237548775970938 2.0283035106956957 M21.284073643193256 7.636500154050321 C12.99071182096407 6.132431397891781, 5.631150977740903 2.5296036232859604, 0.2659909894689918 -0.3489473422989249" stroke="#000000" stroke-width="1" fill="none"></path></g></g><g transform="translate(36.21086711711712 215.08174971846825) rotate(0 39.47423986486487 20.07143862612611)"><path d="M-1.7393234986811876 1.1153951603919268 L80.18826700842664 1.7717299778014421 L78.12623818314358 41.721181991921185 L-1.6519114393740892 40.725787225590466" stroke="none" stroke-width="0" fill="#fff"></path><path d="M-0.625644413754344 -0.4814963359385729 C23.399981522753706 -0.6507020652102624, 43.93101097793851 -0.08661318419448483, 80.59463899305746 1.7538000922650099 M0.7441152622923255 -0.8121738871559501 C29.887300564652246 -0.2986026376293503, 59.857419727790976 0.7199601263000168, 79.18306215296224 -0.4718481441959739 M77.4249607818453 -1.7831333298236132 C77.10014134994705 9.99030565956392, 79.14688945165832 18.27540045644657, 79.55049561432287 40.051642447189806 M79.32044108400777 0.9465323546901345 C79.02630020684393 11.280695878000392, 78.61130790418775 23.239600955570904, 78.08135406861737 41.120089697131334 M78.9156532185404 39.574355631546496 C63.878522263087476 39.03309222194671, 45.78295205287381 40.293733379573816, -0.8305990975350142 38.29384013958406 M78.16432778726056 40.344462322482286 C51.51810972035487 39.74719112154167, 23.43289533844674 39.360806604587246, -0.39601212833076715 40.241430597790895 M-0.14593770913779736 39.583719461636065 C0.9685964819698645 31.26870406845545, -1.3051700952739405 21.175671631207454, 1.6860218364745378 1.9600684624165297 M0.38475364353507757 40.58600433398169 C0.20465148097007857 31.34046906822492, 0.4299275041195689 22.677988345009652, -0.7362627694383264 -0.1401435574516654" stroke="#000000" stroke-width="1" fill="none"></path></g><g transform="translate(41.598676801801844 224.6027942004505) rotate(0 39.47423986486487 20.07143862612611)"><path d="M-0.05762550048530102 -1.6405339259654284 L80.73533945253774 1.505679665133357 L79.6115953820078 41.39852836676073 L-0.46505155973136425 39.6390374595685" stroke="none" stroke-width="0" fill="#fff"></path><path d="M-0.0861389059573412 1.988870533183217 C31.109494245028667 1.4922827040264148, 61.05469824257229 0.9240005170413989, 79.77375610268399 0.9157988745719194 M0.5576975801959634 0.6198936393484473 C18.757726274944005 0.27546395660229384, 36.53287494192105 -0.13937098979167284, 79.23993471639886 0.8236615052446723 M80.65740068352505 -0.6766393464058638 C81.02256993751878 15.489278177845767, 78.45131335955018 30.277725685617906, 79.89291073477551 40.771921816693066 M79.04385140913263 -0.313663543201983 C78.40108523909358 13.225974535086376, 79.76637346689013 26.32158089798167, 78.97122854369417 40.250876129084645 M77.83961989081189 38.36959284864497 C63.25954841070131 40.03446610072245, 45.52218742558585 39.55082060196985, -0.5231930036097765 41.09340000473094 M78.97395962851778 40.083071649485646 C59.58334372174019 41.39299974210765, 42.722254525472856 40.717615250425595, -0.7332534631714225 39.26495650451761 M-0.509024741128087 41.00959825836253 C1.6226514964673533 29.181806908448756, 0.49990032011008395 17.26817151861799, -0.5334672350436449 1.0030972082167864 M0.7590634981170297 40.89699485939127 C-0.2223187524873249 26.75261720945407, 0.1589206319254406 14.501793293342551, 0.5057784775272012 0.4328887155279517" stroke="#000000" stroke-width="1" fill="none"></path></g><g transform="translate(45.40990990990986 234.64995073198202) rotate(0 39.47423986486487 20.07143862612611)"><path d="M1.5334942061454058 -0.7011751551181078 L80.52256702354833 -1.2322400826960802 L77.48744790724203 38.675773947910784 L1.456396134570241 41.840689092354296" stroke="none" stroke-width="0" fill="#fff"></path><path d="M-0.2570801991969347 -1.5182954352349043 C22.161552994445557 -1.2851511732621255, 47.82493525730192 1.5561144455389915, 77.90508569872662 -1.6732705514878035 M-0.5110356649383903 -0.20258224103599787 C28.984151550842775 -0.9534343065250731, 59.83958447127482 -1.1025383950699186, 79.72158885377183 0.7505266359075904 M80.06752361452862 1.3673631269484758 C78.74030244370941 14.852807377103948, 80.5572580697203 27.85525182562368, 79.68446715271756 38.991772297249554 M79.63378954308763 0.5900005986914039 C78.63967048679476 9.255762859903436, 79.32643183623438 19.974105954550527, 78.37031260507837 39.43760320585352 M80.13409073746487 38.77183163486552 C55.75907869195618 39.925309452503065, 37.803986614098854 41.0510408610991, 1.9291395526379347 41.63822263799739 M79.31067338960901 39.59303328435999 C48.57283714386231 40.84929985905094, 17.07738771604774 40.870005111936756, -0.692893042229116 39.50283581059557 M0.27971833758056164 38.42675060354304 C0.45175103982749953 26.27776805983115, -0.13691390911277757 12.542880441046016, -1.5506685990840197 -0.3239463847130537 M-0.11328817810863256 39.609231770449696 C0.0918569565365035 30.15515672071772, -0.7617659866264146 21.319763578639556, -0.9139336189255118 -0.4897191533818841" stroke="#000000" stroke-width="1" fill="none"></path></g><g transform="translate(49.323198198198156 247.74116694819782) rotate(0 39.47423986486487 20.07143862612611)"><path d="M-0.33729362674057484 -1.5006563942879438 L80.76367105639264 1.100529344752431 L78.60048027432248 41.86116528831553 L-0.5182111877948046 41.57063120924067" stroke="none" stroke-width="0" fill="#fff"></path><path d="M-0.20207270793616772 1.7483152132481337 C29.288311950154874 2.6171743192549126, 58.224651884735174 2.505150071608581, 80.92136697939321 1.2404285054653883 M0.21677288319915533 -0.1561550935730338 C26.781485936525392 -1.073287244844274, 52.44797415922419 0.17917558927552268, 79.94190408478215 -0.41295726504176855 M79.37250785997793 0.26187521032989025 C79.58230625681979 11.053629521126673, 78.28008203797442 23.992659756606074, 80.47846948078558 38.27815046854448 M78.56306292305425 -0.45467503275722265 C79.1157528551129 10.674158213955543, 78.24453992562567 23.942930768834813, 78.59789215217069 40.929920899161516 M80.40487586429998 41.840689092354296 C59.20344343769162 40.99037826062183, 42.11068601413501 38.57026761771183, -0.3578979056328535 40.053074448780535 M79.38974343429044 40.383160101660906 C51.5012168188338 39.72055962453138, 22.772753946968464 39.17781638870489, -0.6530889282003045 40.887224095353304 M-0.2028080504387617 38.39547452278566 C-0.6971213305515523 25.52431961966052, -0.2175653064769979 12.659205289655496, -0.3335369508713484 -0.1621555108577013 M0.3272770633921027 40.13400425244254 C-0.3789260809709695 27.74658298389471, 0.07530997940996614 12.945695261794643, 0.16071888711303473 0.06139983329921961" stroke="#000000" stroke-width="1" fill="none"></path></g><g transform="translate(55.48521959459447 260.1778223536037) rotate(0 39.47423986486487 20.07143862612611)"><path d="M0.7696988563984632 -1.8665027897804976 L76.99231423533246 1.935419948771596 L79.60482688343808 38.67633390747142 L0.48620408587157726 41.700306359158276" stroke="none" stroke-width="0" fill="#fff"></path><path d="M0.4805656988173723 1.3868476133793592 C23.64685217265671 -0.13707568152981486, 45.68707243861031 -1.6545488427503654, 80.43717341593191 0.7329266648739576 M-0.8737013647332788 -0.43857704009860754 C19.591560416473822 -0.11874209176587736, 40.05984248424098 -0.08671153914022123, 78.86740197430089 0.29566769395023584 M78.93073373011038 -0.6171476263552904 C80.50231104452781 13.03771034801549, 77.36005234081917 25.81420948144389, 79.07127939632818 39.805583625511645 M78.77448000202611 0.8591440180316567 C79.05370914891024 9.744706882484476, 78.8684436376359 17.8240420629163, 78.90230773578122 39.37455736328047 M79.04596458843633 41.83449187822771 C51.79371332541082 37.83582585680956, 23.531240581062065 37.969738956575334, -1.1292466204613447 38.27926096268129 M79.3677735198541 39.87342034507674 C48.86967933070068 40.35705681447664, 21.581331502326066 40.07898871903101, 0.25668477918952703 40.573853509911714 M-0.9825185816735029 40.98842129059267 C-0.4603504297251882 29.122790520732472, 1.915010953236085 19.534440558367397, -1.3711439054459333 1.5125402193516493 M-0.17038941476494074 39.27543713379782 C0.15950825201660895 27.73300049395482, -0.34557194126456475 17.30749290837207, 0.07025989796966314 -0.4844651063904166" stroke="#000000" stroke-width="1" fill="none"></path></g><g transform="translate(77.30493384009009 267.2547508445946) rotate(0 20.5 12.5)"><text x="20.5" y="18" font-family="Virgil, Segoe UI Emoji" font-size="20px" fill="#000000" text-anchor="middle" style="white-space: pre;" direction="ltr">mijia</text></g><g><g transform="translate(62.352762404058524 217.60307062911568) rotate(0 1.1245046578237066 -34.39124965906433)"><path d="M-0.37206630818545816 -0.8127624202519654 C0.18087298472353464 -12.563299529910445, 1.9488557065342187 -58.601915484966625, 2.62107562383286 -70.15743268190538 M1.6334601506777107 1.374933363776654 C2.084533217986461 -10.190179695193082, 1.3476957556855498 -56.86390290105894, 1.644266469326087 -68.55212987833312" stroke="#000000" stroke-width="1" fill="none"></path></g><g transform="translate(62.352762404058524 217.60307062911568) rotate(0 1.1245046578237066 -34.39124965906433)"><path d="M-10.799672044421184 -29.499191393338858 C-6.951941610246749 -20.818747553632882, -4.737420239319307 -15.30919817047431, -0.4374506644904613 -0.981025619059801 M-9.685591647940326 -29.724372865826606 C-5.276606960726108 -17.937807335504942, -2.1119161867892355 -7.777408548958352, 0.09989736471325161 -0.6543079266324638" stroke="#000000" stroke-width="1" fill="none"></path></g><g transform="translate(62.352762404058524 217.60307062911568) rotate(0 1.1245046578237066 -34.39124965906433)"><path d="M9.703593170864037 -28.641218260009797 C8.588018149378382 -20.23193532188961, 5.841706385555912 -14.929975388696842, -0.4374506644904613 -0.981025619059801 M10.817673567344896 -28.866399732497545 C7.259152617734157 -17.582944485898608, 2.461266718391478 -7.755745157390219, 0.09989736471325161 -0.6543079266324638" stroke="#000000" stroke-width="1" fill="none"></path></g></g><g><g transform="translate(142.4562851361918 116.29766172103655) rotate(0 99.72608958304366 -1.2018802221971328)"><path d="M0.26865593902766705 1.0908328045159579 C33.8005514107535 0.5042812539849971, 167.0503735906828 -2.5807402915188202, 200.5016175884096 -3.4945932489101326 M-1.0494384223222732 0.6179160815477371 C32.34894118836916 0.20723653981728302, 165.78950238244715 -1.3948330332019458, 199.33848318942765 -2.1151665055964624" stroke="#000000" stroke-width="1" fill="none"></path></g><g transform="translate(142.4562851361918 116.29766172103655) rotate(0 99.72608958304366 -1.2018802221971328)"><path d="M173.13395599726465 7.913449548147289 C177.60816021955588 6.043807626350922, 182.90805506666288 2.6533779426191098, 197.52360919416824 -3.8977916722957526 M171.19576406463858 9.450669755190281 C178.74017014828598 4.8534802286071095, 185.07658325272266 3.993878112106107, 200.25694437903294 -3.0750830683697497" stroke="#000000" stroke-width="1" fill="none"></path></g><g transform="translate(142.4562851361918 116.29766172103655) rotate(0 99.72608958304366 -1.2018802221971328)"><path d="M172.80481506925383 -12.60511932581045 C177.36306883042838 -9.499326669131037, 182.74278706590243 -7.913584893844677, 197.52360919416824 -3.8977916722957526 M170.86662313662777 -11.067899118767459 C178.6776912898839 -10.639194983562925, 185.09475343811116 -6.471154474040681, 200.25694437903294 -3.0750830683697497" stroke="#000000" stroke-width="1" fill="none"></path></g></g><g transform="translate(325.36266594964115 40.75690137158642) rotate(0 73.5 12.5)"><text x="73.5" y="18" font-family="Virgil, Segoe UI Emoji" font-size="20px" fill="#000000" text-anchor="middle" style="white-space: pre;" direction="ltr">Raspberry Pi 4</text></g><g transform="translate(218.96649774774778 89.00211148648646) rotate(0 33.5 12.5)"><text x="33.5" y="18" font-family="Virgil, Segoe UI Emoji" font-size="20px" fill="#000000" text-anchor="middle" style="white-space: pre;" direction="ltr">MQTT</text></g><g transform="translate(70.27773085585588 159.37591497747746) rotate(0 47.500000000000014 12.5)"><text x="47.5" y="18" font-family="Virgil, Segoe UI Emoji" font-size="20px" fill="#000000" text-anchor="middle" style="white-space: pre;" direction="ltr">Bluetooth</text></g><g transform="translate(27.639868109075906 87.86649136929896) rotate(0 55.26908874511719 22.06640625)"><path d="M0 0 C0 0, 0 0, 0 0 M0 0 C0 0, 0 0, 0 0 M-0.760752782938058 5.682553084244125 C1.148319309747254 5.0070121193666095, 2.8365354108073495 2.2046866758809376, 4.992497834148353 1.0023066144285018 M0.1182133712200572 6.2577804506319685 C1.2984460288509567 4.9874549542145505, 2.081726514339138 3.072285686596631, 5.157627556803173 -0.02085111477996765 M-1.1006117514241829 12.550325596749364 C4.6902736367183815 7.86966949832283, 8.558178371430394 4.0635034289847916, 9.492101640951764 -0.6630787198350071 M-0.6498391530383719 11.794422278225005 C3.6198515657645016 8.810864813244548, 6.97246601104883 5.619470561903918, 11.060443685901296 -0.8242269609973072 M-1.3762914641341428 17.195051661600047 C4.023108229762581 10.075271584116248, 12.51187543531448 4.968737018002722, 15.57731448067673 -0.4147379168379137 M0.14551361738236146 18.24814154477852 C3.714702251115405 13.722817047797852, 6.540349571538749 10.408652025429276, 16.462424296423276 0.7211779846739939 M0.46539731344201307 23.15407434636271 C8.879729229873286 14.60512617960729, 15.452500693098283 8.779996253784976, 23.025728969180847 0.7602931237011674 M1.0872691760025237 23.53075200477159 C5.1379609773279515 19.90924454511387, 9.863664586313163 13.986778324590842, 22.14094478105929 -0.6572516919881579 M0.8451570058753148 29.714326081562987 C8.426337788831601 22.474760067145567, 16.470253575348234 12.700686657542537, 27.571052263167115 0.20037157405286443 M0.48091782355209745 29.52475615753626 C6.740502562233533 22.521279688686572, 15.268438796545826 14.051533810844308, 26.99779878431222 0.6816937694337906 M0.18686890778127108 36.66968127135311 C6.547457810585779 26.879743444350915, 14.451660202653994 16.826094463299068, 31.832287186241544 1.0305997581466322 M0.3700918312090913 37.02341805566226 C8.150205638707963 26.14685773263242, 16.731524869368563 17.411674925301387, 30.900646356350578 -0.20389990869320584 M0.8909768137753957 42.4624518198853 C14.746178079549049 26.65419001022793, 27.520546033511412 10.238474289032297, 36.03076294604813 1.7933558208030185 M0.24764222015151915 42.05828300173931 C9.576391952171614 31.65916361999212, 21.708802776159644 19.47079351945128, 37.417130181380855 1.1261725668889007 M4.240546047463695 47.178677551089024 C14.783667144564467 33.52475918846174, 28.046811851658898 18.046580454823857, 43.488607366192866 -1.839382914048528 M1.5866977905478876 45.26946796813438 C12.91067901341636 32.61128630333853, 25.714753030049714 20.424581804256565, 42.93834780957155 0.5815594185470587 M9.339145403461682 45.807545369116504 C22.98416570752879 30.01190363989866, 39.17788333947308 11.808721757781832, 47.63027465431976 0.7216366984125422 M8.403547063576209 45.54008075743719 C18.283881229106225 32.82054900835692, 30.156144471676882 18.774913953883335, 47.305379425129175 -0.29597156046068207 M11.392670060422834 46.255517999011055 C27.99452547821442 27.742313858081193, 43.00083774529378 12.900502127990514, 53.481017634034814 0.6952669821156867 M13.16446119445246 46.38534874312855 C23.2336579374467 34.51688103260215, 32.50166354341469 25.227780786318394, 52.932760078222216 -0.2452096477673642 M17.239636725991133 45.32278608559322 C35.08070354145474 27.793071077115805, 48.013719848869954 8.394970040103992, 56.66841551298202 -0.282363918118552 M17.940989117383126 46.30407096846652 C32.79671297187152 30.821179445247793, 46.378722024893534 15.061192666730623, 57.43500745305718 -0.1228245501149452 M23.56936072377259 46.18913945279245 C36.410514122261 32.1840618382968, 48.15830684287105 17.301083459172645, 64.92084611476739 -0.4455286783607235 M24.253134632536714 46.63948940581803 C36.21242687746664 30.775698129906914, 49.685955063140305 16.346642859251826, 64.75009409980257 -0.8160430451364746 M27.923483761411205 44.20164374542931 C37.50912519985362 36.269558582352296, 48.7871203983656 23.90838585165557, 69.06901364703491 -0.11122415379028183 M29.695884174119726 45.741965598441155 C39.4888224118545 35.652190386399404, 49.6751122978047 22.851956558952903, 69.76597520266488 0.9200276604260935 M34.194446162512975 44.586963787433234 C47.716372944351264 31.089771274872838, 60.6126557845367 15.128937623204635, 72.54442093339058 0.0331519795222448 M35.06267904230066 45.05630401870283 C46.79319704768499 32.81884651959675, 58.838015219571275 18.540219304486588, 73.4440608118126 0.549723288939731 M39.6270146347219 44.23904022362478 C51.25669205940694 33.799712392146354, 58.26922689434441 25.916560916854987, 78.38089718147842 0.717477866397374 M38.971943171286014 45.28442870986111 C47.91139308560223 36.50259466905615, 56.854311831678864 27.378982388955173, 79.44574361145226 -0.08050086633754461 M44.316754501643985 45.43141287793338 C51.88630007262704 37.16148553221272, 60.48342644744473 26.08985300669255, 86.7130702149044 -2.198769169235419 M44.99055536124429 46.47270664428294 C55.66195107884069 31.211689140926836, 68.52547585254297 18.15010074330784, 85.25587115175233 -0.654746583038758 M50.21155747092322 45.60489739517961 C58.07956978374446 32.39591305222064, 70.74065266033645 21.796564383719854, 89.77789424131254 0.0611640174443977 M50.26037704638198 46.17462436522637 C58.422873797267584 34.91881381226397, 68.7782947672982 24.30211155804161, 90.80927361691931 -0.22499606790587734 M53.954054837175114 47.83461817951568 C62.866405981250026 37.296688767761, 72.77515630706947 26.82436126048628, 97.41312208430887 -1.0963702496337078 M55.965665497877104 46.29282092528113 C65.82544608147242 33.84342200548613, 75.04683028094048 22.72327540617426, 95.61423605712176 -1.1237885985719345 M61.16344039501517 46.84413713509383 C69.72204566321463 35.70494888890783, 79.22246023784045 21.092945659139094, 100.05883295153731 -1.8477438256491965 M61.23989673690765 45.46821662703695 C70.19289877229352 34.798789199626256, 80.36985315232712 24.495904414453616, 101.37902615656608 -0.8015438817788905 M64.71729335208738 47.019582406734585 C77.832418433672 32.6504714990683, 90.05234706618928 18.857947859048526, 106.25590466660393 -0.23972938667261445 M65.07258844768012 45.469141763751864 C75.80383133542337 35.25429664408252, 86.97475403089982 22.680387775255497, 107.13536646542084 0.26076130484020865 M69.59399153199774 44.87668131836742 C84.86758036042315 31.00605593230846, 96.42721313186239 15.51577433203078, 109.6475414371527 1.5981762121165772 M70.776713180363 46.03336955779284 C86.44397074748173 28.78334915448072, 101.85820018506502 9.233550449828911, 111.86496216789253 0.7142697545434018 M75.87423914239027 46.848437014812866 C90.30484093630851 30.751214666281072, 104.1481121455187 14.725900165933322, 112.57321482587506 5.958461516652804 M76.61522611916281 47.03079280241791 C89.07452734569567 31.340320291288847, 103.39030309555548 14.61496459740933, 111.71844205323507 7.221953411702614 M80.23953900687096 46.997451820000386 C91.31683906159881 35.19127428555359, 97.87664703542029 26.84743243272714, 111.43984433032008 12.21140886952886 M80.92453731424806 46.550747219994044 C88.69267533066771 39.76494003160648, 94.60155313079873 31.289705623090633, 111.01153909556004 13.48942176734814 M86.97372033308378 44.803603878750515 C92.14257177429461 38.813351651790086, 98.84104410313708 34.0037661707825, 110.53849874510325 17.158705174896987 M86.7410394498252 47.06468810377927 C95.15463108202857 38.04125684350937, 102.04942703026474 28.538713301745055, 111.66679181604542 18.993532624069722 M93.46141094463476 46.87637051499273 C98.67493786010903 39.305822143859196, 100.75674686612436 36.17739552546565, 108.9186322778686 23.764603577577745 M92.92458007606277 45.51351367614056 C96.00741851322776 42.01589046395388, 99.7444878183097 35.93289294110284, 111.71278039889773 24.08855377512542 M97.18956504916791 44.74250487354754 C100.54724502717795 44.0537715417756, 106.7752355212489 37.20970474665768, 113.2304977522221 31.622956401500552 M96.78498937716726 45.470241730335935 C101.7665536066963 41.43334714270798, 105.82176836465999 36.24674293672874, 111.75153989428549 30.84819594288215 M102.01099433047197 45.11459916045599 C104.12499047014055 42.56025689793119, 107.57600888619551 42.17096520543322, 112.04852101293751 38.003912683271615 M103.18676449028275 45.51598338668876 C105.64571764935785 44.04733945764355, 107.4310497029026 40.94699241999964, 111.36356917930195 37.09395126073881 M108.38059870601552 46.02676546197441 C109.09378671017578 45.583534093363504, 109.20549327745768 45.06208239002375, 111.03676350430482 43.43735176075801 M107.97038579062479 46.23912663605121 C109.00534438540836 45.09330510174794, 109.84604632017083 44.29258865081493, 110.75243495494954 43.41394583259329" stroke="#fab005" stroke-width="0.5" fill="none"></path><path d="M1.1391070857644081 1.8381369337439537 C30.928804019501804 1.2151215231339563, 60.024508338493106 0.08838130592509397, 109.24391040951015 0.4337463602423668 M0.9961960427463055 -0.6208205930888653 C41.105538280018386 -1.8018989836027404, 81.91289000825726 -0.2766624962141295, 109.66877568885685 -0.8943542949855328 M110.7332349792123 -0.37994954735040665 C110.32069454079408 15.599054609201266, 112.33650717621583 32.883745716436536, 108.83999905735256 43.3616788610816 M111.19353784248234 0.8995633609592915 C110.9984754434004 15.46345337004459, 109.52024937776471 28.59477578269434, 110.9342746846378 44.14048354700208 M108.95230946689846 44.69745805114508 C74.18635611659982 43.76615250911284, 37.664398432805115 43.74709356631804, -0.15356530994176865 43.38173630088568 M111.32576657459141 43.845503497868776 C72.2579749016407 43.45599120273961, 35.118417329031786 43.36134701385869, -0.8146802075207233 44.704515267163515 M0.7282153144478798 43.814256213605404 C-0.6589852569243522 28.669121532366262, 1.6038824322083383 11.383873020560713, -1.939480446279049 -0.6606223359704018 M-0.8640757687389851 44.33137970045209 C-0.6243034314698889 31.983009396595293, -0.42759510989853877 22.038253136927956, 0.28427673503756523 0.3222769983112812" stroke="#000000" stroke-width="1" fill="none"></path></g><g transform="translate(32.79852899774778 99.06070523648646) rotate(0 49.5 12.5)"><text x="49.5" y="18" font-family="Virgil, Segoe UI Emoji" font-size="20px" fill="#000000" text-anchor="middle" style="white-space: pre;" direction="ltr">mijia-homie</text></g><g transform="translate(553.0686673001128 441.5898475990639) rotate(0 19.5712890625 7.974609375)"><path d="M0 0 C0 0, 0 0, 0 0 M0 0 C0 0, 0 0, 0 0 M-1.028707414087827 5.6445528537529635 C1.6690476559235248 5.602171251029855, 2.617883871781628 3.4453932752798795, 4.315544665934986 0.5959237869677357 M-0.5274980410607406 6.72219824423372 C1.5935048777735032 3.64801129733596, 4.126315696467853 2.0462988209703847, 4.748137291105932 0.6745334137079531 M-0.40926891182552705 11.560535863458693 C4.960578731657503 7.013589684468391, 5.849084650810643 4.644169088329919, 10.851882342946661 -1.0888127242133259 M-0.2797804540861739 12.497879399776041 C3.1030781425243417 8.825246439873672, 5.866295924273267 4.32943146714112, 10.62518131132139 -0.17431030766221267 M2.927984302700356 18.13039656764205 C6.811347036495308 11.584543062855019, 10.834006008106485 6.362585774780818, 17.46215986786731 -1.043052840332968 M1.267024986282781 15.963233774884898 C7.0784422104385225 11.81839200690303, 10.923926355370815 5.6767101606822905, 14.799859029709776 1.033188457314389 M7.037958966735147 18.856758630245032 C11.022698149558178 11.812308465102543, 14.847748823955868 10.643977644566677, 21.63565281992581 0.39449243379528554 M7.164624784308813 17.142438728704157 C10.71152985014472 10.974923019080656, 15.631033808835028 5.140246446115054, 20.643165912756587 0.058996468239975286 M13.574214369965523 17.200584421951408 C16.09152935710683 10.643189676209307, 19.366485043624966 6.856517472121951, 28.14218052351138 1.132626652159983 M11.833630519894689 17.477557652715678 C16.351925277109927 10.715076645135024, 21.465324425003608 6.943762451412706, 26.63612932772598 0.5353548949596227 M17.969871712222968 16.11550697039423 C20.183717670568054 14.116103605737033, 24.336516844778394 7.534062569366142, 31.121131544417537 0.8366132715030794 M17.64692169365314 16.99516058627126 C20.044585394553216 12.038077837088881, 25.8109163847216 7.249011955425139, 31.20359926619271 -0.36398891906596376 M24.083069559301 17.048039732315456 C27.20135325885712 11.718988699913298, 29.030056825864662 8.586405614409731, 35.01343958247577 -1.4227271805423776 M23.419973297158936 16.728369872831617 C27.536357370167153 11.98891005019906, 30.34718449082395 6.55272325228777, 37.40204897876953 1.1414413155150136 M29.073491611031102 17.850253235348116 C28.631148180310152 12.334383091709945, 34.36846164419214 9.300102859527321, 40.62293764549857 0.17772541321110324 M27.099883581024812 17.817036801748525 C29.581385896479784 13.07130944156296, 33.98644415815768 10.124084211710858, 40.79342914905017 1.973093352608796 M34.09513381949782 17.900554590401832 C34.95659508801487 13.170546088737682, 37.692534822245676 10.014062802127116, 41.57444528914141 7.983329984364618 M33.000438231669065 16.649834508550946 C36.118698849215654 13.383314231764134, 38.65052045895875 10.847069302136187, 40.45923119573938 7.483827375066984 M37.76414479056948 16.86849363007896 C38.98253551370907 16.141974871579556, 39.560421641350345 15.79684416946212, 40.747480699965664 14.35578416870783 M38.09800892847234 17.22429433883481 C38.543231971807835 16.420526148409568, 39.23987583677684 15.841388647192105, 40.50384836884767 13.97952877232681" stroke="#fab005" stroke-width="0.5" fill="none"></path><path d="M-0.7363643757998943 -1.0447842366993427 C12.657918354162778 2.276134266005429, 27.203068546283653 -1.2121988400355252, 38.142668832093534 1.3785221092402935 M0.12951490841805935 -0.18585575185716152 C9.639518988192517 -0.5630718815328504, 18.878013897434748 0.6521249067781543, 38.619726812467036 -0.5557072814553976 M40.614784420379934 1.5310217819009269 C37.476611898502874 3.3291879698532285, 37.609033580369854 6.92296456852564, 39.3457727487949 15.587372700876585 M38.78006440790237 0.5831744778228313 C39.29330917884063 6.447061777529962, 39.95609516219402 11.354955117556893, 39.60245697967808 16.638756663040475 M40.04659866169101 17.924545358866453 C25.114401268384647 18.111983991272684, 12.24347172786149 17.44323859275126, -1.8704115264117718 17.314427327364683 M38.58831987343734 15.349157566204667 C27.879207155211446 15.698895820661164, 15.886744446140824 15.396083423181153, -0.893136465921998 15.358872229233384 M0.06149728396485443 14.7400817674883 C1.6004661573818157 12.708846848574467, -1.2261539037316833 7.507587279116706, -1.2191168504483358 1.4378557583848306 M-0.7679733443041187 15.87705647088842 C0.0590209166964632 12.948376374654252, -0.5229572707458283 7.9283523536443665, -0.28754921875333816 0.31673968261129637" stroke="#000000" stroke-width="1" fill="none"></path></g><g transform="translate(609.4094876126127 440.5859413490639) rotate(0 58 12.5)"><text x="0" y="18" font-family="Virgil, Segoe UI Emoji" font-size="20px" fill="#000000" text-anchor="start" style="white-space: pre;" direction="ltr">= rust code</text></g><g transform="translate(315.1989926174955 198.9921913490639) rotate(0 55.26908874511719 22.06640625)"><path d="M0 0 C0 0, 0 0, 0 0 M0 0 C0 0, 0 0, 0 0 M-0.35433174740987516 6.432359065164916 C1.5497579613224688 3.761633984056092, 3.649933279732262 3.3120191335026608, 5.323631050767845 1.1338060539064223 M-0.627324026045377 6.422077050854556 C1.1716559248971627 4.42498628166603, 2.942565279769192 2.335749915444188, 4.894803954245991 0.42102984747264915 M-0.8290893367398872 12.008804822384894 C4.687833222076161 7.298377513531282, 6.823147791709449 6.057045191899515, 11.560594804537427 1.1704207236960293 M-0.6036739191878928 11.436425474702894 C2.2160446678834753 8.611288753352806, 5.951177579870947 5.3076836146334125, 11.297189097058904 -0.08648497209998351 M-1.2228306187829237 16.903517610300952 C8.21485110842243 10.592217983668448, 12.17339171359035 3.2449330985165066, 17.225386589303096 1.6740175864589384 M-0.9119653394958238 18.681414077897244 C6.1220684701799 12.081009683615225, 11.138161906238608 6.060785610860524, 16.365285124167283 -0.2838059843587706 M0.5539944770000194 23.82775645488417 C9.217212770071429 13.268046879808198, 14.994091137860963 7.727572106632564, 19.655675066912437 0.8883767252951387 M1.2540898883900855 24.133359664767145 C8.514741776840513 16.273306825397725, 14.431462100780388 7.779007562247521, 21.813706169182325 -0.7922856049448725 M0.22971507260104573 29.716764999319068 C9.197589226870534 23.715638716434487, 13.109152868629423 13.143099020145154, 26.826411778714867 -0.3404534203919827 M0.40805657678743756 30.439513580639115 C9.55468231757798 18.70404258878549, 19.942537274829533 8.503813878435608, 26.182777932521315 0.8101569706585945 M-1.422666443614336 38.788734054007875 C10.440388174445584 24.5224266766998, 22.209035597236515 8.760618891260503, 31.690095642066396 1.3025708795770292 M-1.139587300000759 37.302075424977886 C8.045205376056385 25.640077654001686, 19.06848264108791 16.847987795282954, 32.23981866747776 -1.0172694883064146 M0.9557898167193883 43.05091692935281 C12.406262444122893 25.056173870336963, 26.878222838764405 12.946605425197358, 36.91092695836102 0.19039417627272215 M-0.30883251767149034 42.466213547248174 C9.389996874485934 31.429192621298228, 18.226523257416364 22.02616404090974, 37.02244176138316 1.121450858293148 M3.716020270958225 47.79491985553334 C14.347740150695516 31.46051849290089, 26.097923875410252 17.433356591215468, 41.86327964495473 -2.0338148001254552 M2.53092042706875 45.840355466691946 C11.54728077265538 36.268452451397245, 20.08221130029102 26.262747259840708, 42.212027967531014 0.3964642796992308 M6.638839807467686 47.356121142951686 C19.6548429537149 32.31197199326373, 33.89425891022403 16.62792939596959, 47.13322900324154 -0.16898649854695336 M7.373743258522975 45.88060703277393 C21.086937176662413 31.59403479810538, 34.32622221288245 17.248687764687787, 48.01025317325282 0.6647241160448836 M12.71676469865125 45.62779992290117 C26.4524416556428 27.38374400920406, 40.397671046987824 11.348113827414807, 53.51702395057744 -1.2438271888123147 M13.734002835032161 46.72988116584994 C26.311193794053395 30.162598500168595, 40.50506612437302 14.466012487686015, 53.51256063184208 -0.6926858634279363 M17.1843077459029 46.53758824645233 C34.85468819226127 28.265143446062968, 48.34675562290343 12.004566702840485, 58.522614788356435 -0.22914231985099676 M19.051656293927792 45.31934995605302 C33.41330606918005 28.956916993408605, 49.77937038936206 11.441537292025544, 58.58468873063029 0.1421251814138138 M23.236155366578643 46.03334234378462 C33.5588569048876 36.521430491066965, 41.38894356740609 23.398640099538838, 63.36812543393452 0.17448683851645086 M23.785428138503377 45.97931592262511 C38.25651062457115 28.905042044618458, 53.02106754175669 13.310259178646021, 64.23614322291095 0.2611785198120842 M30.528695362072483 44.37081926596859 C42.90323143260877 32.33245172361222, 51.65235384189886 20.559451334656895, 69.4833811887057 1.8243798373605742 M29.289338006090418 45.351888655699284 C40.766663081416425 30.199240729377998, 54.71558848986106 15.691117122177364, 68.49672499601557 0.9433024918999209 M34.178489149740415 46.3260002431837 C47.175277652804226 32.725394529372984, 60.52873039093343 18.24964103605093, 73.50838097002598 -0.651919593139155 M34.18617289998241 45.22830817451748 C43.836445786828776 34.77058268728137, 53.359945003506866 23.548230699163863, 74.79000230323764 0.49145586691929566 M41.26379953097644 45.482767326500486 C56.15289675351811 28.99811643778173, 68.73650106945064 13.172223591898685, 79.79482507928935 0.4310330980877808 M40.244014957510856 45.461621569212745 C48.793339792772244 34.414157932364986, 60.43633691390248 22.08039863533529, 79.80983853190867 -0.8545955149967739 M45.82306292313656 44.4452267460984 C58.94883276226521 28.531096961457912, 74.65170964329704 9.433172010720682, 83.40458743385182 -1.971093358779143 M44.749713681969254 44.80400635902703 C52.58662362048601 36.47308106389503, 61.08910548424112 25.999211268108784, 85.89386443532214 -0.08095538460631246 M49.35641712761477 47.125385553048 C60.0117708764358 37.03863437171724, 66.81523935976128 26.405963323892838, 90.61124333510736 -1.3447294126693947 M50.3854137106891 45.81944713409339 C60.05572866806299 34.74840330399136, 67.90656434556887 24.788329563620284, 90.90000590080956 -0.48692040177628826 M55.16811453277658 47.7101845577515 C66.365068427447 33.66493199147261, 79.87325981629085 18.01306492667078, 93.89854170041204 -1.406081333403506 M54.94596801797341 46.47576849387654 C68.36989715475276 31.276090324323924, 83.0785022608496 13.812413493120744, 96.57995618166447 -0.8476567972647331 M60.148345026987485 47.17562707061114 C75.45441042142123 29.05292346380077, 89.94129395808031 11.170222004313857, 100.46193283115977 0.18654543008906188 M60.49576082812517 45.283763787841224 C72.1947118354596 33.19679751927365, 83.92105668512716 19.67688031048882, 100.4557036652183 -0.501523730938608 M66.55505891164148 45.80090764269745 C76.49791927877347 31.297355271160946, 90.59257004333459 15.291326884333461, 107.20704064470661 0.04506960798776305 M66.52553052847588 46.43632385612047 C75.16930270364233 35.118937539982745, 84.29569131708774 26.14690484572896, 106.19300410476458 -0.5127499335559591 M72.35638010409457 44.135445004189904 C83.58244865597939 30.347092581125544, 95.52155835901081 16.887818170554695, 113.25119044244654 1.3393107513631364 M71.66978287231905 45.40046996795624 C80.52554921847887 35.41637695332186, 87.69248487365073 27.520087434867207, 111.47790838763483 -0.7587570649837474 M75.73213390574075 47.286558706159035 C88.61233115798372 31.50510452027121, 97.2492797626492 22.0553420778979, 113.017349880821 4.801698812399607 M75.58331874698617 45.830030463481584 C85.22233843629895 34.27001046236998, 96.02278084842185 23.309161584243927, 110.48570350620795 5.699549866024952 M82.07231923393604 45.1317924787843 C90.48407471576792 35.939561169537114, 100.09806993832863 28.011897766260322, 111.10530955112907 11.88308253993997 M81.31470640577075 46.40296411193845 C92.19859153745041 32.386219072784684, 104.75520577471877 20.54615996865324, 110.12709313772055 12.398590897375435 M88.4786363900744 44.606590873136234 C95.36019096198231 36.97314438198609, 99.92502980457493 30.80583464253673, 109.60838434173621 19.606340244386466 M87.18280923600426 45.73403675345988 C92.76610020533381 40.01345864620306, 96.86591475336607 35.30814551733508, 110.73989900647558 18.95072187853244 M90.76295929151186 45.91662261939432 C101.43668494862577 38.55103881527664, 104.80344876937161 29.6872724193194, 112.48764955403647 23.797541476809656 M93.15025799098024 45.21214465728785 C98.49384166165608 39.14934970552476, 103.85870954769703 32.00886748919476, 111.83829699980458 24.90039614962903 M95.94886323964242 46.82545726862906 C103.57690517285059 41.17743906334904, 104.37855633722022 36.21415547438484, 111.91435410538583 32.05297996738896 M96.69997855803017 45.91299116355537 C102.69424216381941 39.50908685863175, 108.7776862983387 34.22747663327386, 111.83023037100105 31.316197479907125 M102.02549133939169 46.4997167240613 C106.66386089050367 43.24563037127907, 108.83151866124946 40.25514282182212, 112.07538536575981 36.37308776869699 M103.18863156256698 45.641429618351985 C106.41651645391636 42.77700690525644, 108.73628932522706 40.12347080872143, 111.54887889189074 37.3790876340799 M107.85090068877595 46.573775290661125 C108.92722756145554 46.006965658963445, 109.16581951778186 45.10691145695336, 110.81506671921245 43.51183856774673 M108.08113907799977 46.41106151338723 C108.57593357720098 45.626736508042086, 109.48227010023513 44.848899794085106, 110.95494034231535 43.35149936799511" stroke="#fab005" stroke-width="0.5" fill="none"></path><path d="M1.4922802075743675 1.857899822294712 C37.06889334652187 -2.2327800702204685, 78.48164997912171 -1.2434128235926607, 109.9930467233062 1.992749609053135 M-0.2722802571952343 0.7597049288451672 C32.96859658324667 1.0059987428229022, 66.93794708701866 -0.6237232563454937, 110.66155012324454 -0.6796319670975208 M109.08366294950248 1.1286043301224709 C109.265401616584 11.653647120497771, 111.99160672713393 23.268938018783228, 110.21662398427726 42.42352644354105 M110.46266229823233 0.8061668686568737 C111.06244843918977 11.491059883436538, 111.03790598828492 21.952056871604874, 111.28490896895529 43.60802183672786 M109.2794692143798 45.025628723204136 C80.38896420104248 41.62452045211241, 47.509895650107524 43.22263708838865, -1.7778849974274635 43.84610167890787 M109.76934023573996 43.58970079943538 C75.82617724213577 43.5626100423129, 43.04337267748667 44.99826432488278, -0.6927262954413891 43.54180524870753 M-0.9049201384186745 42.73281089216471 C0.43015556184254816 33.34823658129608, 0.24170307961903742 21.573929909587605, 1.3746931180357933 1.8115007057785988 M-0.5845462493598461 43.50080965086818 C0.8334734925054363 33.7647108000383, 0.08596198642480887 21.712674906972097, 0.49848075583577156 0.16456494852900505" stroke="#000000" stroke-width="1" fill="none"></path></g><g transform="translate(319.25999725616737 207.9285927162514) rotate(0 49.5 12.5)"><text x="49.5" y="18" font-family="Virgil, Segoe UI Emoji" font-size="20px" fill="#000000" text-anchor="middle" style="white-space: pre;" direction="ltr">mijia-homie</text></g><g><g transform="translate(345.1712063626127 193.1718788490639) rotate(0 11.59150533825158 -23.796598507463898)"><path d="M-0.4821881040930748 -0.5019726768136025 C3.349268890917301 -8.158293614288171, 19.60843203216791 -39.36201063940922, 23.665198780596256 -47.09122433811426 M1.4655244119185955 -1.8111122774798423 C5.051500431122259 -9.189616380802665, 18.95436693322845 -38.418401546251644, 22.547535020532088 -45.71858639565296" stroke="#000000" stroke-width="1" fill="none"></path></g><g transform="translate(345.1712063626127 193.1718788490639) rotate(0 11.59150533825158 -23.796598507463898)"><path d="M19.06660297310289 -20.105632720227355 C20.573783275784212 -29.092604352150225, 21.872755844273726 -36.21182162286959, 22.01000928473659 -44.62337898013182 M19.77064177563723 -19.44859558501374 C20.03027184325847 -24.871684458992682, 21.183297715767036 -32.38110990954761, 21.905700027616696 -45.73552941453643" stroke="#000000" stroke-width="1" fill="none"></path></g><g transform="translate(345.1712063626127 193.1718788490639) rotate(0 11.59150533825158 -23.796598507463898)"><path d="M2.875442589714229 -27.923634087629125 C10.077551975750255 -34.05943374578344, 17.146591051905663 -38.392538917137024, 22.01000928473659 -44.62337898013182 M3.579481392248571 -27.26659695241551 C7.635997134605763 -30.67021759802747, 12.64021567912266 -36.32007098191454, 21.905700027616696 -45.73552941453643" stroke="#000000" stroke-width="1" fill="none"></path></g></g><g><g transform="translate(313.60330856449167 217.56164165281268) rotate(0 -89.31797376822507 14.641221725729054)"><path d="M0.7211647018790244 -0.6586755976080895 C-29.0339360945371 4.031776505174029, -148.46893893726033 23.65353903503114, -178.55093640115692 28.31495518810623 M-0.3593625589739531 1.6099157683085652 C-30.247060689476978 6.504454162582669, -149.85449138405596 25.511379763297306, -179.35711223832914 29.94111904906616" stroke="#000000" stroke-width="1" fill="none"></path></g><g transform="translate(313.60330856449167 217.56164165281268) rotate(0 -89.31797376822507 14.641221725729054)"><path d="M-154.1727234342335 15.926128535245747 C-160.6125824515981 18.36603962761317, -170.1279300540481 25.9862975232056, -177.58872853420326 31.590900909477327 M-152.9112806574641 15.030405970935911 C-160.8518605773437 19.2841941950801, -171.15804750062094 24.62636240818295, -180.08596765078255 29.36150451036677" stroke="#000000" stroke-width="1" fill="none"></path></g><g transform="translate(313.60330856449167 217.56164165281268) rotate(0 -89.31797376822507 14.641221725729054)"><path d="M-151.0234250496079 36.20424289705054 C-158.43184400816926 32.61400328525414, -168.88664526380694 34.18518411976045, -177.58872853420326 31.590900909477327 M-149.7619822728385 35.308520332740706 C-158.8359964595037 32.8221257901689, -170.18463010706364 31.452051684699974, -180.08596765078255 29.36150451036677" stroke="#000000" stroke-width="1" fill="none"></path></g></g><g transform="translate(550.7820462063628 411.6445350990639) rotate(0 19.5712890625 7.974609375)"><path d="M0 0 C0 0, 0 0, 0 0 M0 0 C0 0, 0 0, 0 0 M-0.7741296626301357 6.367193467964523 C2.0136477934888686 3.7330102673271757, 4.23955382123629 1.9251777899275524, 4.271333631458229 0.8850785594281966 M0.09682239669842024 6.494049316694133 C0.9768287033049997 4.250810991849284, 3.1154114874634775 2.5105466356921733, 5.062902460577434 0.3040289725956732 M1.1460613080393185 10.505578959405003 C3.3532504975598436 6.056447352643964, 7.061681851221992 4.363912240174271, 11.269537945044172 -0.4352438752457737 M0.828807578338276 11.550792560398161 C2.920858584001629 8.157137184437923, 5.767564279792634 6.029443686622793, 10.82511260355724 -0.4909027908846973 M2.905104273767069 17.688519928961355 C6.8600619818745034 11.469296982505615, 14.303426136153897 2.47259886793665, 16.56679670466431 -1.1183038123953173 M0.7625049928434642 16.27863046562608 C5.2272741632075395 10.949347831534372, 10.824610978426014 5.056257674318063, 15.875649321361859 0.5063567950320413 M7.789998566898845 16.56029813212067 C12.460687310597 11.133807809657824, 16.645160125091586 5.013941179085833, 19.309082119071746 -1.4998084926814315 M6.869541147890828 17.160225196152034 C11.334027286049094 11.01963652536322, 17.369799235342324 5.399403149119795, 21.6815721116009 -1.0353791178972003 M12.098140914900034 17.658834955740804 C15.389288759474123 13.671636404137631, 20.551763741351614 6.917780639715485, 27.770163545992585 -0.49889515768617976 M12.762164377582996 16.735402125019665 C16.17182718690973 11.282367741848667, 21.772269662929105 5.187168701053958, 26.084865285691233 0.46878183577328336 M17.88093865041462 19.227680419642304 C20.63614094173871 13.896913393813445, 26.36574006110496 7.733834643422126, 32.977246934032834 1.3825853915198927 M17.764853303626452 17.67190560798702 C20.168457772112397 14.554766423945434, 23.384014102900466 11.150200158946799, 31.295962331301368 0.09352694091044711 M24.10309772204862 15.827483722754632 C26.75202477388315 12.241686387202863, 28.917173863407164 5.179719691236919, 37.87236461583649 1.7475581747573337 M22.619291413689712 17.013172929921065 C27.928815951622934 11.427130636442188, 32.50300193611449 5.798771999130494, 37.5690293701378 -0.5480869467276612 M27.64415046244602 18.123669884898316 C31.822042229880292 11.285219304232708, 35.31997827882208 9.46862494565859, 39.49872948202854 1.5254665514011343 M27.110894829479264 17.341010946579825 C31.635677209715162 13.547843683998797, 33.73000631540621 10.06645084841881, 42.01331933188801 1.2921091181714495 M34.107787151701444 16.68955339166302 C35.69665136697102 13.10162389197437, 38.83340830028655 9.968265254330259, 41.58007144830274 8.363658860889782 M32.54500118277192 16.248047194359486 C34.96399756441585 14.268381475416769, 37.02425863303547 12.579300017598378, 40.51053363210606 8.303733230946172 M38.102690671036186 17.21668963813536 C38.950071002693136 16.059509618220165, 40.13018384861142 15.546968489026437, 40.41760524044365 14.137477581816418 M37.970836078027425 17.263630512443708 C38.89895344244106 16.0069686087239, 39.94335977835675 15.286422953522507, 40.868416973004045 14.070620004701121" stroke="#82c91e" stroke-width="0.5" fill="none"></path><path d="M-1.4155696257948875 1.0385932549834251 C17.21049533250264 0.6295399202229597, 32.34892753933532 1.0011002553822614, 40.529476083815155 -1.0486300364136696 M0.16465483233332634 0.053411561995744705 C15.063591666750312 0.6986662807015092, 30.25218227924347 -0.8436221418830245, 39.922148685902414 0.6505453176796436 M40.346303157343996 -1.1827137258354923 C40.130722664679254 5.246505141959642, 37.69197468129997 11.165404253783345, 40.0224443562082 15.202534148284759 M39.41635546912518 -0.016477986367681274 C39.54597245264892 4.2687050958258625, 38.35829019726813 6.7422399634109755, 39.909631921328454 16.291693193220272 M37.89330307394272 16.193229161202908 C24.953317230367286 14.858517457259804, 14.62384316657701 17.26659207464567, 1.2827610149979591 16.1061737164855 M39.04102216288453 15.741371471434832 C25.67344556944667 16.928700726364987, 13.589419238459978 16.265982311104672, -0.6874840445816517 16.406902749091387 M0.5170354449408479 16.429681489664652 C-0.8728033295217029 8.658409184077755, -1.380310119487258 2.6348620329503314, 0.6912611859603202 -1.0867612593792728 M0.331638885569555 16.25900470298875 C-0.22473145003372338 9.856179173209966, 0.06934917318227232 4.714928304417844, 0.4418272035436531 0.14562975567459946" stroke="#000000" stroke-width="1" fill="none"></path></g><g transform="translate(607.1228665188628 410.6406288490639) rotate(0 68.5 12.5)"><text x="0" y="18" font-family="Virgil, Segoe UI Emoji" font-size="20px" fill="#000000" text-anchor="start" style="white-space: pre;" direction="ltr">= python code</text></g><g transform="translate(339.0153988674955 275.1093788490639) rotate(0 66.35502624511713 22.06640625)"><path d="M0 0 C0 0, 0 0, 0 0 M0 0 C0 0, 0 0, 0 0 M0.050006135585730305 5.826309146036499 C0.7679301450822565 5.534290521695441, 2.1917670560818823 3.1771300612428726, 5.215243103685325 1.1392124336061293 M-0.2471367053361485 6.444235006024234 C1.3120622016969405 4.0748245904256395, 3.0761732943760167 2.336370943913974, 4.739215518119281 0.4116295751032644 M0.9315761753450738 12.293738675534307 C1.5660309195345825 10.422890174238715, 6.6328750679026705 5.210451000667009, 9.092293031466138 -0.6244672004983067 M0.0925222554336893 12.721970633089125 C3.9032595654312967 8.100646318819562, 8.142794732632348 2.635211718832092, 11.089216570508611 -0.7283140812918781 M0.21437517269046502 20.264277822245532 C5.601920844292483 12.42661285641601, 7.42950584362897 9.646786085387937, 14.418863743081172 0.009707607973830967 M-0.21935531408994002 17.659950445313626 C3.4971464521601625 13.057069832656662, 7.88723442560857 10.251758944418752, 14.738475288733323 -0.021372217040044994 M-1.5541641114094045 24.904535343586563 C6.239609084978659 16.256474719989175, 16.626327204588396 6.074443324562111, 22.8931433095577 0.7179174548178437 M0.21071511154987554 23.38950681099212 C7.532146480112468 16.15153877729065, 13.710271215685133 6.83975727524702, 22.11326504712727 -0.7856883244425532 M-1.5336711769411906 29.299113346029273 C10.044119183171013 18.78632723660868, 16.936227956212413 9.041305506793563, 28.044882828977318 0.4756137983885349 M0.8594098883261339 29.715214865047685 C9.185388273807087 18.872771435104163, 20.59017726169036 6.90458934114622, 26.740980914470168 -0.17370137628049243 M-0.7792686355393847 36.24432763997589 C10.564282305679887 24.997127235504806, 24.232879376044444 9.528976377603424, 32.498456218696035 1.6759653688653593 M-0.9237305094581565 36.92521170694505 C8.506909535293135 27.100301116222628, 19.370949221435552 14.554207685160556, 32.67800364405552 0.6097348966880922 M-0.260141598838473 40.82555653582864 C8.860373696217279 29.3953619268363, 22.04922716179495 17.86691210259855, 36.08993878010784 -1.7299582826811353 M-0.7696343574999815 43.10060318614893 C15.672617068790279 26.573926185670853, 28.03555381050502 8.692989431417878, 36.50100912321483 1.0465738345962485 M1.5465213505175512 43.91253126376698 C14.145369370781383 34.435985653857855, 26.34993873953303 21.79412508115349, 42.865579430568744 -0.020863426071500157 M2.4913603474941652 46.2357543219013 C17.75592788970191 28.886900443878957, 30.87995312346639 11.664562425873847, 41.680440605241586 0.14289920668592515 M9.0934101008942 47.91875513419314 C18.849666336520002 29.747893636094474, 33.849140302568756 15.852068499422828, 45.58332847147274 0.5824444897648142 M6.642387829827296 46.622708463666875 C21.8297402138327 31.262148340162415, 34.927634666912304 14.706304962092176, 48.4570364774673 -0.6583981469098283 M13.544915924694951 45.315632278400436 C24.097112732690242 33.67409120191438, 39.0443061709138 18.831956720610535, 52.71130982017583 -1.8706158049927346 M13.236877447840389 45.99031603180148 C27.405591537039165 29.22124533129559, 40.471554811973895 12.60524279524634, 52.21530249318546 -0.6402969569490544 M17.807426623313788 45.10891974745941 C31.141526736302424 33.281690974402906, 40.471984565341984 21.338688698228875, 56.92934877807201 -0.7727247592736042 M18.003848838864926 46.60568661643815 C27.265551105791545 36.465779054585724, 35.348702909735806 25.42349050517107, 57.36003953972758 1.1010311167012894 M24.24750361410672 44.82459877154951 C39.360098001652574 27.657278944894355, 52.12221854350571 12.05299174359893, 62.12744426251729 -0.7463386428983441 M23.941089006194417 45.88506023681884 C36.853258105022924 31.61220101372723, 49.11415284640255 18.122033939834875, 63.68981587038715 0.4935448432831535 M27.193409698467747 46.7965514017413 C41.287753630451746 29.387154732615684, 54.96335659546017 13.654837927368973, 67.90729657490566 -1.3560129047964082 M29.191680087160364 45.3064839830766 C39.26923274616546 31.97277067857018, 51.51456827646642 19.558153202976403, 68.27349487249568 -0.597989937070416 M35.933581293752866 46.37888386821422 C48.20229558557535 31.517869303827354, 59.04115560491249 16.982416668223117, 72.58077963259312 -0.896078814788325 M33.41747158505626 45.24713537445339 C49.092964700406725 29.176768543217875, 63.831606891621625 14.041088934173892, 73.82370729934665 0.4653230448825525 M39.21815620135608 44.233603222038816 C48.238020973320715 33.836857246835464, 58.08284575687418 25.7559431497681, 77.67146873697368 -0.10296682180357664 M39.675608137213615 45.89599900108225 C49.85767021317954 35.74202327023538, 57.83879183407001 25.912591462203697, 78.57337903827158 0.0091871292750767 M44.25744583863339 46.54294069339454 C59.96693930347227 29.441607415955694, 71.58839319154195 15.552720712782826, 86.91311280540333 -1.942883195662688 M44.79200174692592 46.09118988220513 C57.87238053741826 32.69612474874712, 69.14491596543512 19.102587085109807, 84.64920334256396 -1.1165639146508681 M49.22346300697878 45.29702833335195 C59.42137799837828 36.24148979657362, 68.33178967771678 27.37451449830683, 90.75116213927606 0.6758666147048729 M49.23785955152467 46.23263010795508 C59.213332867910886 34.964041042186295, 69.65970679256179 22.94073078453893, 89.94816859955529 -0.6252892467622502 M53.59233509475778 47.260931952313264 C68.0476084066874 30.362996718330177, 87.09223509025722 13.933264579106712, 97.34124065594793 1.115201339478574 M54.847097025312884 45.874081777796825 C70.55142694426101 27.039164237942774, 86.2018293487835 10.260747528180438, 96.5110305625391 0.04378240218289875 M61.926126990335874 46.48877986068072 C71.33037688914763 35.6879310290762, 78.51780115281976 22.695498093736415, 101.05067365681285 -0.7050594702710455 M59.973160892593555 46.862275741195106 C75.19698802046678 29.685263074508843, 88.74137171013187 13.994825115807608, 100.39884011884683 0.6382293723176176 M63.65466399510706 44.837891609524846 C75.12669536381348 38.16424664268792, 84.58002203020538 25.972153808304768, 105.45696005922687 -2.094872084364532 M64.64585204069817 46.47604033828294 C80.5689394957831 27.78778818456331, 96.19104401948046 10.5345764433047, 106.06641552177203 -1.0702395671161398 M71.41794502642733 44.93581092902511 C80.00443895934379 35.92511723262511, 90.2459746312199 23.12723256054427, 111.849300164584 -1.306291951731346 M70.28873872292024 47.01833433830231 C84.581543712685 31.21316810127715, 96.50349312216146 16.938018511199843, 112.23887015864618 -0.3731085759853343 M77.5676703856907 46.46798237025205 C87.27485800853204 34.20539105990876, 100.63570619390283 20.892079771446213, 117.57100886124971 -0.5664407619692398 M75.59568432659127 46.72892358138625 C85.81780239030189 35.38202013878213, 96.06768496187944 24.78779853403385, 115.62902575377228 -0.03302180482521777 M81.16571399025318 46.39007466338513 C90.5543287801044 33.36208225969601, 103.44336034338974 23.299488950111947, 123.80133853758952 -1.5633777046760144 M80.90431960500476 46.62170433677671 C93.22623795712722 32.88919110326126, 104.21129539495294 20.08743421310676, 122.09423528145334 0.8553453458289084 M88.48565114150873 47.21565735949488 C98.0139154472352 35.14784547522362, 108.39032403001075 22.76818931663001, 127.3373019949974 -0.9319707287811028 M86.07257044549218 45.39737994460673 C97.28992353721159 33.42536459637509, 109.08205250790469 20.167920324443077, 127.79320587902083 0.004414966110111607 M92.01123075681338 45.22852418876077 C102.39991711637424 34.67070163453729, 113.59672723762216 22.66621484829404, 130.9360856508294 -1.2868636041050507 M92.85213010134706 46.280784174118295 C105.74786102751335 32.108349836501645, 118.63498255511172 17.8561718158485, 132.9034120497683 -0.47426042473965424 M98.93790313756112 46.770369702253326 C104.86270664494988 35.17833653704401, 117.43794702517744 26.258956779987088, 133.848400219508 3.3293294610909783 M96.7649869599009 45.933557865444406 C105.6170180223186 37.686964089775685, 111.74911222757338 29.72774276819365, 135.5294463440557 3.1068075040809475 M102.17129220110796 44.453112630152035 C112.62158751656558 30.56345257159081, 128.22301570393813 18.59745270366185, 136.7851300314176 9.394218437654786 M103.47689677444718 45.29147228782706 C114.91317078925786 34.14216174247144, 124.74956719170947 21.673690536748776, 136.044668678205 8.584237512482218 M108.8287232488479 45.446572523527415 C115.91083565667981 37.16003980452457, 127.19486264836559 27.560412653099906, 137.6355101198763 15.891508734874726 M108.67391043231743 46.47710578139928 C114.2098060071202 38.85211833912023, 121.02124017548432 31.12255230236108, 136.18438342147175 14.554650048815013 M115.23769519813692 47.69079311255892 C119.58845632973889 38.65931533908737, 124.8743500565289 35.71400148630936, 135.37624078627812 21.881644903821332 M114.43584618680512 45.63716711540302 C122.04863363932715 37.38213648281679, 129.06743652142129 28.062555180269563, 136.32995396118747 20.570310953212363 M119.43740835036904 48.183718948317114 C123.79016689636063 39.37738750302712, 129.9474408965622 35.11567508501561, 135.69419594797904 27.695295674674092 M119.11281742524177 45.85517212997133 C122.31114814148088 41.47938888800502, 127.9994457662359 37.02049785905442, 136.50651105064566 26.95761649491626 M124.21346547599185 46.996486345487114 C126.98108327408028 41.88708842870968, 132.14131051639137 38.502187050930495, 135.50052314086952 31.495361977812806 M123.80671351230937 45.972447428847126 C126.58743687812895 42.307774445633406, 128.76376297776022 41.07085203078353, 136.15632336105355 33.62779048103557 M129.41139263762815 45.47786013053558 C131.88655986222219 43.55217439504304, 132.5517240381152 42.97862415500861, 136.16525793584663 40.08878860627309 M129.54163577045037 45.94412459170274 C131.5616018411774 43.28674116908253, 134.185724767674 40.437161658722296, 134.88806848271417 39.776696449751114" stroke="#82c91e" stroke-width="0.5" fill="none"></path><path d="M1.2333647832274437 -0.24854882806539536 C28.43379664747806 -0.03429974993421525, 60.52847747413102 -1.3421889730329701, 131.8492893800139 -1.89609345048666 M0.25093432143330574 0.8506299071013927 C51.670799445338154 1.6926704618491732, 101.99711674819808 0.9309370491065585, 133.24449523165816 0.08557127043604851 M131.03280111402267 1.398818887770176 C130.96241680505068 16.20010581353272, 131.54325143220217 33.60384787845542, 131.37027569860214 43.76730362325907 M132.9005268402397 0.38734911009669304 C132.81720450198418 13.806578371240176, 133.55419006621605 29.22627684014733, 132.56204505637282 43.66597257182002 M133.95179768651718 44.41518227010965 C102.18544227964773 45.12925559595154, 75.08237880393061 46.401795450001224, -1.2648125067353249 42.3682998791337 M132.90725513175124 43.30152116343379 C85.59548992673675 45.38671494439457, 37.07518666630234 45.149830469640236, -0.5844363383948803 44.80632184073329 M0.6776103600859642 45.06250420957804 C1.4761949504879885 26.487816513501457, -0.9699327026339597 7.941853487835033, -1.1751768961548805 1.0360457077622414 M-0.6721181087195873 44.319586496800184 C-0.24347124926891411 32.98014577912691, 0.006385103537177195 22.8460082535923, -0.5423000268638134 0.6354032568633556" stroke="#000000" stroke-width="1" fill="none"></path></g><g transform="translate(346.60765350616737 284.0457802162514) rotate(0 59 12.5)"><text x="59" y="18" font-family="Virgil, Segoe UI Emoji" font-size="20px" fill="#000000" text-anchor="middle" style="white-space: pre;" direction="ltr">miflora-mqtt</text></g><g><g transform="translate(446.0813626126127 270.5351600990639) rotate(0 -8.336159698008544 -60.994639040529705)"><path d="M0.29190070778131494 -0.060934688150882765 C-2.6473184650142985 -20.203635121881963, -13.774236765007176 -101.65293574482203, -16.55255048125982 -121.92834339290857 M-1.0139901499729604 -1.1385293447691947 C-4.116576536673431 -21.0400121798832, -14.380609232463561 -100.81831233200617, -16.964220103798432 -120.73269295421429" stroke="#000000" stroke-width="1" fill="none"></path></g><g transform="translate(446.0813626126127 270.5351600990639) rotate(0 -8.336159698008544 -60.994639040529705)"><path d="M-3.2673390506646545 -92.39153633881028 C-9.397349931781584 -102.46212704680852, -14.423648608592128 -114.74039295133335, -15.81640328931622 -122.46724108335562 M-2.994437929137698 -93.18149911109026 C-6.343748571789334 -102.10526339141093, -11.527413135858474 -108.44206042528097, -17.563340858547015 -120.89064542305655" stroke="#000000" stroke-width="1" fill="none"></path></g><g transform="translate(446.0813626126127 270.5351600990639) rotate(0 -8.336159698008544 -60.994639040529705)"><path d="M-23.618378642457124 -89.75426693294088 C-21.783232917001733 -100.90350430620906, -18.867937688120193 -114.21091285216275, -15.81640328931622 -122.46724108335562 M-23.345477520930167 -90.54422970522086 C-20.960604415791543 -100.15551166241889, -20.418241239633467 -107.23433849326062, -17.563340858547015 -120.89064542305655" stroke="#000000" stroke-width="1" fill="none"></path></g></g><g transform="translate(194.94696649774778 317.5379402229378) rotate(0 39.47423986486487 20.07143862612611)"><path d="M0.5796295776963234 -0.7006550207734108 L77.62997197641715 -1.6877601519227028 L77.0781862689434 39.20723163470757 L-0.5496044978499413 38.184161537737964" stroke="none" stroke-width="0" fill="#fff"></path><path d="M-1.7204206362366676 1.5754682198166847 C20.949372975739365 -1.1442965578368072, 38.02464601886774 -0.19621959441212455, 78.55035881234988 -1.6948028430342674 M-0.38537411019206047 -0.3936730809509754 C15.475219756964208 0.4651131414032754, 32.068681818700554 0.009600736961441925, 78.04086605368838 0.5802438072860241 M77.02598480417117 -0.7525516375899315 C80.75430718745038 15.29614764309528, 77.83186117495343 29.756384094190647, 77.99424246980533 38.15610344097149 M79.23345772086367 0.17261002585291862 C79.14341315201226 13.579350202808175, 79.29353805950585 25.187487321902104, 78.93908146678194 40.47932649910581 M77.16865996553287 38.46303970500958 C49.97091410789369 40.130062353572, 19.54144065015685 39.66149808164512, 1.6056360825896263 41.80221993610394 M78.88921097575411 39.18085409462583 C62.8230444502032 40.55010312556801, 46.32788088485737 39.813287315364455, -0.8453861884772778 40.50617326557767 M-0.4332642927765846 42.042200633735774 C-2.004732869803168 25.682366730022558, 0.40230414992644625 9.066589527969501, 0.41406746953725815 -0.5491779670119286 M0.6777108497917652 39.92330755055082 C-1.2175139869674187 31.35113181970641, -0.3030534471496087 21.98206201537567, 0.10602899268269539 0.12550578638911247" stroke="#000000" stroke-width="1" fill="none"></path></g><g transform="translate(201.92120636261268 325.1093788490639) rotate(0 32.5 12.5)"><text x="32.5" y="18" font-family="Virgil, Segoe UI Emoji" font-size="20px" fill="#000000" text-anchor="middle" style="white-space: pre;" direction="ltr">miflora</text></g><g><g transform="translate(333.50749013055315 294.70101832933346) rotate(0 -36.77259429488191 6.703717832836844)"><path d="M-0.7539237722754478 0.9455884918570516 C-13.291412015937109 2.793017138174908, -62.58013371121058 9.877818345684492, -74.59631610770427 11.67979563702188 M1.0511275179404764 0.3964185047429054 C-11.185452770253484 2.3617655324537177, -60.072769917537585 10.925502734767207, -72.46076409466282 13.011017160930779" stroke="#000000" stroke-width="1" fill="none"></path></g><g transform="translate(333.50749013055315 294.70101832933346) rotate(0 -36.77259429488191 6.703717832836844)"><path d="M-44.84128200343102 -3.709636044155184 C-56.17534126716247 4.2828581215744865, -65.22323836809446 9.133273533846893, -74.40787721372858 11.913646737554219 M-45.44580142652839 -2.4667083774016536 C-54.635269505281656 2.7730809363112385, -64.58721021566174 9.181417922273715, -72.54070777021066 12.049854791232493" stroke="#000000" stroke-width="1" fill="none"></path></g><g transform="translate(333.50749013055315 294.70101832933346) rotate(0 -36.77259429488191 6.703717832836844)"><path d="M-41.36267958548047 16.514590210603437 C-54.02286040224368 17.35852659914295, -64.29656288973621 15.082239243035103, -74.40787721372858 11.913646737554219 M-41.96719900857784 17.757517877356968 C-52.307045518466026 16.12284935652166, -63.44732780940096 15.622294176751065, -72.54070777021066 12.049854791232493" stroke="#000000" stroke-width="1" fill="none"></path></g></g><g transform="translate(179.54230011261268 265.5625038490638) rotate(0 47.5 12.5)"><text x="47.5" y="18" font-family="Virgil, Segoe UI Emoji" font-size="20px" fill="#000000" text-anchor="middle" style="white-space: pre;" direction="ltr">Bluetooth</text></g><g transform="translate(157.01886261261268 203.81250384906377) rotate(0 47.5 12.5)"><text x="47.5" y="18" font-family="Virgil, Segoe UI Emoji" font-size="20px" fill="#000000" text-anchor="middle" style="white-space: pre;" direction="ltr">Bluetooth</text></g></svg>
