<svg version="1.1" xmlns="http://www.w3.org/2000/svg" viewBox="0 0 781.4284733952702 381.66070171734236" width="1562.8569467905404" height="763.3214034346847">
  <!-- svg-source:excalidraw -->
  
  <defs>
    <style>
      @font-face {
        font-family: "Virgil";
        src: url("https://excalidraw.com/FG_Virgil.woff2");
      }
      @font-face {
        font-family: "Cascadia";
        src: url("https://excalidraw.com/Cascadia.woff2");
      }
    </style>
  </defs>
  <rect x="0" y="0" width="781.4284733952702" height="381.66070171734236" fill="#ffffff"></rect><g transform="translate(49.44700168918911 88.28948479729729) rotate(0 63 12.5)"><text x="63" y="18" font-family="Virgil, Segoe UI Emoji" font-size="20px" fill="#000000" text-anchor="middle" style="white-space: pre;" direction="ltr">Raspberry Pi</text></g><g transform="translate(369.12573902027026 93.41015625) rotate(0 47 12.5)"><text x="47" y="18" font-family="Virgil, Segoe UI Emoji" font-size="20px" fill="#000000" text-anchor="middle" style="white-space: pre;" direction="ltr">Mosquitto</text></g><g transform="translate(639.4187077702702 128.4140625) rotate(0 30.5 12.5)"><text x="30.5" y="18" font-family="Virgil, Segoe UI Emoji" font-size="20px" fill="#000000" text-anchor="middle" style="white-space: pre;" direction="ltr">HoDD</text></g><g transform="translate(315.70777027027026 10) rotate(0 90.701171875 178.56304546734236)"><path d="M1.3520943839102983 -1.0519942659884691 C47.93028214180121 0.7668928458299706, 96.49183972696262 1.891541953286178, 180.3402581531554 0.0661547165364027 M0.051581560634076595 -0.10648663248866796 C66.4883248673719 -1.57183009983124, 134.02327278684166 -1.9999750614267753, 181.0310519030317 -0.6287450036033988 M182.20870292033783 1.1133819461632983 C181.62804798960929 102.64957609304702, 181.2032039573376 204.55185279836826, 182.29191323461404 357.5565989651389 M181.5183395668298 -0.5229345907055035 C180.33328729105713 112.97933562617327, 180.38971386647606 224.51594103897088, 181.11748275787247 357.14393157678523 M181.7572406250983 356.3531488070248 C134.46931320457037 360.1693967930756, 84.92513158787548 359.1315893880806, 0.008713873103260994 357.75345950219616 M181.24437796976412 357.9599131710811 C129.0621782523845 358.9967735479182, 78.33139359695556 358.11759976247015, -0.12207034323364496 356.66855270340875 M1.0558210595613613 358.23968426441104 C-0.8559450643354484 243.5188784084147, -1.7061205128946235 129.92895864093109, -1.2261789422996778 -0.9324777426912687 M-0.38528600269118557 357.6314545816704 C-2.74378833192816 226.52234895013072, -1.6555836007483355 97.55227337444117, 0.0023965291746714306 -0.4470143661076471" stroke="#000000" stroke-width="1" fill="none"></path></g><g transform="translate(41.60064752252248 72.10726351351354) rotate(0 71.44174056869366 55.347638654279194)"><path d="M0.8546817880123854 0.3445891458541155 C50.368046760875494 -1.7749165469811612, 98.28137320529622 0.6585712855650729, 142.64524470821758 0.08932754583656788 M-0.6828696271404624 -0.7997716972604394 C42.5851042023466 -1.9559903157125, 84.96237769156266 -1.1495423031220917, 143.16846925851692 0.6615950455889106 M143.71785413280864 0.018861981108784676 C141.30888387871838 30.61528561725245, 140.86964634371853 63.77759861191662, 142.53692131296535 109.90599263410766 M141.9755597793757 -0.2718725809827447 C142.28113119981543 35.395688119487275, 142.4441794373776 71.53816241706423, 142.2024669432341 111.4591113370632 M143.65697031275172 111.79126132230957 C114.08831374400705 113.15117936786169, 85.1377582952575 110.36071013864034, 1.5931037645787 111.40709728698928 M143.3411843561827 110.4873517793392 C97.37216461447778 109.35195406459601, 54.404351270783096 108.64589940689834, -0.9673204263672233 111.1709761363243 M1.2649868708103895 108.87651819687088 C-0.9595044447590668 70.54989746374517, 2.170857171852414 33.955792065702454, -0.8126172441989183 -1.8469947259873152 M-0.9562046369537711 109.74124691307296 C0.3340375455998641 78.136085615562, -0.1412599352217454 47.40592336437671, 0.1271497467532754 -0.354574472643435" stroke="#000000" stroke-width="1" fill="none"></path></g><g transform="translate(366.21167652027026 81.5859375) rotate(0 50.638671875 24.06640625)"><path d="M-0.2015626449137926 -1.6304326336830854 C23.80584531869645 0.41573899223734767, 45.64235293745806 -1.4911528901822386, 102.50262874178588 1.731838496401906 M0.40143020544201136 -0.5625531086698174 C39.36305211407343 -0.8120868925992182, 76.80778349688698 -0.5853727285805872, 101.07621716056019 -0.5815988490357995 M100.88763135485351 0.1929738838225603 C100.78365663129247 13.80019633004049, 101.43415794211782 26.86545901368518, 100.6809931974858 49.69529208727181 M101.68353198561817 -0.8876784751191735 C102.16894401017817 10.836574929078779, 102.27557192150744 20.58722508468054, 100.56051410827786 48.0491769304499 M102.16665804199874 48.22300157137215 C64.03089209382051 46.633916581249466, 25.641584199231147 46.7182775979998, -1.918888272717595 49.47700014896691 M101.68768824730068 47.872041701339185 C64.73502411665649 48.6001248087161, 27.58901682347569 49.5123953844779, 0.2748306253924966 48.481930821202695 M0.9374583344906569 48.18407669849694 C-1.3748761481872498 31.913836180394718, -1.1375637716880738 15.381543126281755, 1.510784624144435 -0.9154079239815474 M0.9548230627551675 48.396874754689634 C1.0008548590656574 32.28380869029861, -0.5170079675201122 18.259334201530145, -0.08268265333026648 0.8256410947069526" stroke="#000000" stroke-width="1" fill="none"></path></g><g transform="translate(623.4499577702702 119.07421875) rotate(0 47.431640625 24.62890625)"><path d="M0.09018907137215137 1.5166642051190138 C32.09333325510488 1.4686558128205434, 65.37318222704562 -2.3407046317252025, 96.20746889896691 1.2820032816380262 M-0.26077079866081476 0.3327778438106179 C25.988089020904226 -0.3273982267843166, 53.36915003523245 -0.11443562917575034, 95.2123995712027 0.2904827753081918 M94.91454544849694 -1.4258743543177843 C94.25474952246186 13.066879987320137, 93.56047551418779 30.021668554421925, 93.94787332601845 49.601913986727595 M95.12734350468963 0.5490961233153939 C94.49316474621409 9.18540089203816, 95.73666262452716 20.225652537286805, 95.68892234470695 49.7790950993076 M96.74398490972817 48.7041712384671 C57.69100504000562 48.351032526745804, 21.29229343505358 51.48834642912389, 0.41827538795769215 47.829064605757594 M94.88564270641655 48.66767518315464 C61.56771298199419 47.90223601997295, 28.73910115155377 47.63499498904148, -0.5616905400529504 49.8937536040321 M-1.4900350254029036 47.77710127644241 C0.7840432482433244 37.69742871511335, -1.299226884298332 23.78621127768565, -0.08072677068412304 -0.7619476933032274 M0.5830660155043006 48.43744690809399 C-0.17284675548544326 34.96416548803609, 0.3047304837895354 19.26134705778531, -0.8933514365926385 -0.9671957632526755" stroke="#000000" stroke-width="1" fill="none"></path></g><g><g transform="translate(629.7305743243244 149.79118661633834) rotate(0 -80.51750081588489 -18.832922903632152)"><path d="M-0.6687175322324037 0.33600160963833337 C-27.601693370978566 -5.735924131521752, -134.3319168882595 -30.336181300626052, -161.23321509944222 -36.49734692520899 M1.181067034006119 -0.5332014906406404 C-25.947637438143826 -6.901990265572241, -135.40926726979782 -31.686448534549132, -162.21606866577588 -38.001847416902606" stroke="#000000" stroke-width="1" fill="none"></path></g><g transform="translate(629.7305743243244 149.79118661633834) rotate(0 -80.51750081588489 -18.832922903632152)"><path d="M-131.8812662474059 -41.781313857553776 C-140.31833668619652 -42.14054750589614, -150.37827537644947 -40.90847030372273, -163.87110601114057 -36.309545515845244 M-131.58478020962258 -42.10378401868629 C-143.03885811531202 -39.6316705988039, -153.48148373049662 -39.1837456939247, -161.28136014407448 -38.686796368839865" stroke="#000000" stroke-width="1" fill="none"></path></g><g transform="translate(629.7305743243244 149.79118661633834) rotate(0 -80.51750081588489 -18.832922903632152)"><path d="M-136.48888116205217 -21.784066867426144 C-143.3926931899748 -28.724447572460136, -151.93033737300664 -34.09919403427169, -163.87110601114057 -36.309545515845244 M-136.19239512426884 -22.10653702855866 C-145.8734201112199 -26.698920327913882, -154.67917533668205 -33.35508334714882, -161.28136014407448 -38.686796368839865" stroke="#000000" stroke-width="1" fill="none"></path></g></g><g transform="translate(67.8115146396396 252.1538569819818) rotate(0 39.47423986486487 20.07143862612611)"><path d="M-1.7393234986811876 1.1153951603919268 L80.18826700842664 1.7717299778014421 L78.12623818314358 41.721181991921185 L-1.6519114393740892 40.725787225590466" stroke="none" stroke-width="0" fill="#fff"></path><path d="M-0.625644413754344 -0.4814963359385729 C23.399981522753706 -0.6507020652102624, 43.93101097793851 -0.08661318419448483, 80.59463899305746 1.7538000922650099 M0.7441152622923255 -0.8121738871559501 C29.887300564652246 -0.2986026376293503, 59.857419727790976 0.7199601263000168, 79.18306215296224 -0.4718481441959739 M77.4249607818453 -1.7831333298236132 C77.10014134994705 9.99030565956392, 79.14688945165832 18.27540045644657, 79.55049561432287 40.051642447189806 M79.32044108400777 0.9465323546901345 C79.02630020684393 11.280695878000392, 78.61130790418775 23.239600955570904, 78.08135406861737 41.120089697131334 M78.9156532185404 39.574355631546496 C63.878522263087476 39.03309222194671, 45.78295205287381 40.293733379573816, -0.8305990975350142 38.29384013958406 M78.16432778726056 40.344462322482286 C51.51810972035487 39.74719112154167, 23.43289533844674 39.360806604587246, -0.39601212833076715 40.241430597790895 M-0.14593770913779736 39.583719461636065 C0.9685964819698645 31.26870406845545, -1.3051700952739405 21.175671631207454, 1.6860218364745378 1.9600684624165297 M0.38475364353507757 40.58600433398169 C0.20465148097007857 31.34046906822492, 0.4299275041195689 22.677988345009652, -0.7362627694383264 -0.1401435574516654" stroke="#000000" stroke-width="1" fill="none"></path></g><g transform="translate(73.19932432432432 261.67490146396403) rotate(0 39.47423986486487 20.07143862612611)"><path d="M-0.05762550048530102 -1.6405339259654284 L80.73533945253774 1.505679665133357 L79.6115953820078 41.39852836676073 L-0.46505155973136425 39.6390374595685" stroke="none" stroke-width="0" fill="#fff"></path><path d="M-0.0861389059573412 1.988870533183217 C31.109494245028667 1.4922827040264148, 61.05469824257229 0.9240005170413989, 79.77375610268399 0.9157988745719194 M0.5576975801959634 0.6198936393484473 C18.757726274944005 0.27546395660229384, 36.53287494192105 -0.13937098979167284, 79.23993471639886 0.8236615052446723 M80.65740068352505 -0.6766393464058638 C81.02256993751878 15.489278177845767, 78.45131335955018 30.277725685617906, 79.89291073477551 40.771921816693066 M79.04385140913263 -0.313663543201983 C78.40108523909358 13.225974535086376, 79.76637346689013 26.32158089798167, 78.97122854369417 40.250876129084645 M77.83961989081189 38.36959284864497 C63.25954841070131 40.03446610072245, 45.52218742558585 39.55082060196985, -0.5231930036097765 41.09340000473094 M78.97395962851778 40.083071649485646 C59.58334372174019 41.39299974210765, 42.722254525472856 40.717615250425595, -0.7332534631714225 39.26495650451761 M-0.509024741128087 41.00959825836253 C1.6226514964673533 29.181806908448756, 0.49990032011008395 17.26817151861799, -0.5334672350436449 1.0030972082167864 M0.7590634981170297 40.89699485939127 C-0.2223187524873249 26.75261720945407, 0.1589206319254406 14.501793293342551, 0.5057784775272012 0.4328887155279517" stroke="#000000" stroke-width="1" fill="none"></path></g><g transform="translate(77.01055743243234 271.72205799549556) rotate(0 39.47423986486487 20.07143862612611)"><path d="M1.5334942061454058 -0.7011751551181078 L80.52256702354833 -1.2322400826960802 L77.48744790724203 38.675773947910784 L1.456396134570241 41.840689092354296" stroke="none" stroke-width="0" fill="#fff"></path><path d="M-0.2570801991969347 -1.5182954352349043 C22.161552994445557 -1.2851511732621255, 47.82493525730192 1.5561144455389915, 77.90508569872662 -1.6732705514878035 M-0.5110356649383903 -0.20258224103599787 C28.984151550842775 -0.9534343065250731, 59.83958447127482 -1.1025383950699186, 79.72158885377183 0.7505266359075904 M80.06752361452862 1.3673631269484758 C78.74030244370941 14.852807377103948, 80.5572580697203 27.85525182562368, 79.68446715271756 38.991772297249554 M79.63378954308763 0.5900005986914039 C78.63967048679476 9.255762859903436, 79.32643183623438 19.974105954550527, 78.37031260507837 39.43760320585352 M80.13409073746487 38.77183163486552 C55.75907869195618 39.925309452503065, 37.803986614098854 41.0510408610991, 1.9291395526379347 41.63822263799739 M79.31067338960901 39.59303328435999 C48.57283714386231 40.84929985905094, 17.07738771604774 40.870005111936756, -0.692893042229116 39.50283581059557 M0.27971833758056164 38.42675060354304 C0.45175103982749953 26.27776805983115, -0.13691390911277757 12.542880441046016, -1.5506685990840197 -0.3239463847130537 M-0.11328817810863256 39.609231770449696 C0.0918569565365035 30.15515672071772, -0.7617659866264146 21.319763578639556, -0.9139336189255118 -0.4897191533818841" stroke="#000000" stroke-width="1" fill="none"></path></g><g transform="translate(80.92384572072064 284.81327421171136) rotate(0 39.47423986486487 20.07143862612611)"><path d="M-0.33729362674057484 -1.5006563942879438 L80.76367105639264 1.100529344752431 L78.60048027432248 41.86116528831553 L-0.5182111877948046 41.57063120924067" stroke="none" stroke-width="0" fill="#fff"></path><path d="M-0.20207270793616772 1.7483152132481337 C29.288311950154874 2.6171743192549126, 58.224651884735174 2.505150071608581, 80.92136697939321 1.2404285054653883 M0.21677288319915533 -0.1561550935730338 C26.781485936525392 -1.073287244844274, 52.44797415922419 0.17917558927552268, 79.94190408478215 -0.41295726504176855 M79.37250785997793 0.26187521032989025 C79.58230625681979 11.053629521126673, 78.28008203797442 23.992659756606074, 80.47846948078558 38.27815046854448 M78.56306292305425 -0.45467503275722265 C79.1157528551129 10.674158213955543, 78.24453992562567 23.942930768834813, 78.59789215217069 40.929920899161516 M80.40487586429998 41.840689092354296 C59.20344343769162 40.99037826062183, 42.11068601413501 38.57026761771183, -0.3578979056328535 40.053074448780535 M79.38974343429044 40.383160101660906 C51.5012168188338 39.72055962453138, 22.772753946968464 39.17781638870489, -0.6530889282003045 40.887224095353304 M-0.2028080504387617 38.39547452278566 C-0.6971213305515523 25.52431961966052, -0.2175653064769979 12.659205289655496, -0.3335369508713484 -0.1621555108577013 M0.3272770633921027 40.13400425244254 C-0.3789260809709695 27.74658298389471, 0.07530997940996614 12.945695261794643, 0.16071888711303473 0.06139983329921961" stroke="#000000" stroke-width="1" fill="none"></path></g><g transform="translate(87.08586711711695 297.24992961711723) rotate(0 39.47423986486487 20.07143862612611)"><path d="M0.7696988563984632 -1.8665027897804976 L76.99231423533246 1.935419948771596 L79.60482688343808 38.67633390747142 L0.48620408587157726 41.700306359158276" stroke="none" stroke-width="0" fill="#fff"></path><path d="M0.4805656988173723 1.3868476133793592 C23.64685217265671 -0.13707568152981486, 45.68707243861031 -1.6545488427503654, 80.43717341593191 0.7329266648739576 M-0.8737013647332788 -0.43857704009860754 C19.591560416473822 -0.11874209176587736, 40.05984248424098 -0.08671153914022123, 78.86740197430089 0.29566769395023584 M78.93073373011038 -0.6171476263552904 C80.50231104452781 13.03771034801549, 77.36005234081917 25.81420948144389, 79.07127939632818 39.805583625511645 M78.77448000202611 0.8591440180316567 C79.05370914891024 9.744706882484476, 78.8684436376359 17.8240420629163, 78.90230773578122 39.37455736328047 M79.04596458843633 41.83449187822771 C51.79371332541082 37.83582585680956, 23.531240581062065 37.969738956575334, -1.1292466204613447 38.27926096268129 M79.3677735198541 39.87342034507674 C48.86967933070068 40.35705681447664, 21.581331502326066 40.07898871903101, 0.25668477918952703 40.573853509911714 M-0.9825185816735029 40.98842129059267 C-0.4603504297251882 29.122790520732472, 1.915010953236085 19.534440558367397, -1.3711439054459333 1.5125402193516493 M-0.17038941476494074 39.27543713379782 C0.15950825201660895 27.73300049395482, -0.34557194126456475 17.30749290837207, 0.07025989796966314 -0.4844651063904166" stroke="#000000" stroke-width="1" fill="none"></path></g><g transform="translate(97.90558136261257 304.3268581081081) rotate(0 31.5 12.5)"><text x="31.5" y="18" font-family="Virgil, Segoe UI Emoji" font-size="20px" fill="#000000" text-anchor="middle" style="white-space: pre;" direction="ltr">Sensor</text></g><g><g transform="translate(93.953409926581 254.67517789262922) rotate(0 1.1245046578237066 -34.39124965906433)"><path d="M-0.37206630818545816 -0.8127624202519654 C0.18087298472353464 -12.563299529910445, 1.9488557065342187 -58.601915484966625, 2.62107562383286 -70.15743268190538 M1.6334601506777107 1.374933363776654 C2.084533217986461 -10.190179695193082, 1.3476957556855498 -56.86390290105894, 1.644266469326087 -68.55212987833312" stroke="#000000" stroke-width="1" fill="none"></path></g><g transform="translate(93.953409926581 254.67517789262922) rotate(0 1.1245046578237066 -34.39124965906433)"><path d="M-10.799672044421184 -29.499191393338858 C-6.951941610246749 -20.818747553632882, -4.737420239319307 -15.30919817047431, -0.4374506644904613 -0.981025619059801 M-9.685591647940326 -29.724372865826606 C-5.276606960726108 -17.937807335504942, -2.1119161867892355 -7.777408548958352, 0.09989736471325161 -0.6543079266324638" stroke="#000000" stroke-width="1" fill="none"></path></g><g transform="translate(93.953409926581 254.67517789262922) rotate(0 1.1245046578237066 -34.39124965906433)"><path d="M9.703593170864037 -28.641218260009797 C8.588018149378382 -20.23193532188961, 5.841706385555912 -14.929975388696842, -0.4374506644904613 -0.981025619059801 M10.817673567344896 -28.866399732497545 C7.259152617734157 -17.582944485898608, 2.461266718391478 -7.755745157390219, 0.09989736471325161 -0.6543079266324638" stroke="#000000" stroke-width="1" fill="none"></path></g></g><g><g transform="translate(173.24296781496435 146.97699565291248) rotate(0 91.32447825491863 -18.68972907288679)"><path d="M0.26865593902766705 1.0908328045159579 C31.00001430137849 -5.32500169624489, 153.04768804380774 -31.727155042668254, 183.69839493215954 -38.47029095028945 M-1.0494384223222732 0.6179160815477371 C29.548404078994153 -5.622046410412603, 151.7868168355721 -30.541247784351377, 182.5352605331776 -37.09086420697578" stroke="#000000" stroke-width="1" fill="none"></path></g><g transform="translate(173.24296781496435 146.97699565291248) rotate(0 91.32447825491863 -18.68972907288679)"><path d="M158.83904385480236 -21.99325665607335 C162.70388757115853 -25.08661680133505, 167.3954659579052 -29.706380312835982, 180.7203865379182 -38.87348937367507 M156.9008519221763 -20.456036449030357 C163.78469598573773 -26.281946980601795, 169.50650049169522 -28.383598573292637, 183.4537217227829 -38.05078076974907" stroke="#000000" stroke-width="1" fill="none"></path></g><g transform="translate(173.24296781496435 146.97699565291248) rotate(0 91.32447825491863 -18.68972907288679)"><path d="M154.66478481572778 -42.085433339064764 C159.54610981709814 -40.31537615754362, 165.25003116111387 -40.06237701324597, 180.7203865379182 -38.87348937367507 M152.72659288310172 -40.54821313202177 C160.81539862838991 -41.47314031541301, 167.56001728897152 -38.65162769711405, 183.4537217227829 -38.05078076974907" stroke="#000000" stroke-width="1" fill="none"></path></g></g><g transform="translate(350.9838823198199 21.201506193693717) rotate(0 55.5 12.5)"><text x="55.5" y="18" font-family="Virgil, Segoe UI Emoji" font-size="20px" fill="#000000" text-anchor="middle" style="white-space: pre;" direction="ltr">Your Server</text></g><g transform="translate(10 11.490005630630549) rotate(0 109.04244087837836 177.15723536036046)"><path d="M1.1775257511480572 -1.3130884841656667 C42.33003964203355 0.5679015097955471, 87.25989760275738 -1.152158431960804, 219.54889626662626 0.9662107407154045 M0.14646616149397976 0.08887352994991961 C61.27149213423321 1.9027971211411847, 122.82601713482431 1.6503161980003713, 218.94493609440497 0.4310087946759022 M217.771453263623 1.1257583127700235 C217.2371388580217 130.8440358521105, 216.7274193220094 263.03144028126695, 217.85355591021045 354.057117687529 M217.56880840724588 -0.4677705416880782 C220.50720425710088 123.30982297236984, 220.51176857166203 247.4134374992397, 218.55356960359154 354.38611543027383 M218.66913978044806 353.66175102138214 C143.81596829144257 354.1401762348558, 67.06129269610665 353.0694262405089, -0.7658089357646112 355.73139366028545 M218.8515525539038 354.48827309630934 C154.33343701348988 352.9406561566151, 91.60196572396511 353.5059951894394, 0.65621750750466 354.8561587754609 M-0.8452120467611375 355.08511102058634 C-2.3109503477925424 218.71861964227386, -0.9434339076686933 82.32262523712026, -0.5672652062920094 -0.7703002864651716 M0.29200167529450777 353.7426392166418 C0.5341068132147475 265.2102183366631, 0.14271758188336842 176.9481495128039, -0.0655114471798813 0.0891229772449139" stroke="#000000" stroke-width="1" fill="none"></path></g><g transform="translate(35.14428490990991 21.13795045045049) rotate(0 27 12.5)"><text x="27" y="18" font-family="Virgil, Segoe UI Emoji" font-size="20px" fill="#000000" text-anchor="middle" style="white-space: pre;" direction="ltr">House</text></g><g transform="translate(242.34448902027026 83.75) rotate(0 33.5 12.5)"><text x="33.5" y="18" font-family="Virgil, Segoe UI Emoji" font-size="20px" fill="#000000" text-anchor="middle" style="white-space: pre;" direction="ltr">MQTT</text></g><g transform="translate(112.58150337837836 210.815209740991) rotate(0 47.500000000000014 12.5)"><text x="47.5" y="18" font-family="Virgil, Segoe UI Emoji" font-size="20px" fill="#000000" text-anchor="middle" style="white-space: pre;" direction="ltr">Bluetooth</text></g><g transform="translate(58.426611823004635 126.56640625) rotate(0 55.67604064941406 22.06640625)"><path d="M0 0 C0 0, 0 0, 0 0 M0 0 C0 0, 0 0, 0 0 M-0.760752782938058 5.682553084244125 C1.148319309747254 5.0070121193666095, 2.8365354108073495 2.2046866758809376, 4.992497834148353 1.0023066144285018 M0.1182133712200572 6.2577804506319685 C1.2984460288509567 4.9874549542145505, 2.081726514339138 3.072285686596631, 5.157627556803173 -0.02085111477996765 M-1.1006117514241829 12.550325596749364 C4.6902736367183815 7.86966949832283, 8.558178371430394 4.0635034289847916, 9.492101640951764 -0.6630787198350071 M-0.6498391530383719 11.794422278225005 C3.6198515657645016 8.810864813244548, 6.97246601104883 5.619470561903918, 11.060443685901296 -0.8242269609973072 M-1.3762914641341428 17.195051661600047 C4.023108229762581 10.075271584116248, 12.51187543531448 4.968737018002722, 15.57731448067673 -0.4147379168379137 M0.14551361738236146 18.24814154477852 C3.714702251115405 13.722817047797852, 6.540349571538749 10.408652025429276, 16.462424296423276 0.7211779846739939 M0.46539731344201307 23.15407434636271 C8.879729229873286 14.60512617960729, 15.452500693098283 8.779996253784976, 23.025728969180847 0.7602931237011674 M1.0872691760025237 23.53075200477159 C5.1379609773279515 19.90924454511387, 9.863664586313163 13.986778324590842, 22.14094478105929 -0.6572516919881579 M0.8451570058753148 29.714326081562987 C8.426337788831601 22.474760067145567, 16.470253575348234 12.700686657542537, 27.571052263167115 0.20037157405286443 M0.48091782355209745 29.52475615753626 C6.740502562233533 22.521279688686572, 15.268438796545826 14.051533810844308, 26.99779878431222 0.6816937694337906 M0.18686890778127108 36.66968127135311 C6.547457810585779 26.879743444350915, 14.451660202653994 16.826094463299068, 31.832287186241544 1.0305997581466322 M0.3700918312090913 37.02341805566226 C8.150205638707963 26.14685773263242, 16.731524869368563 17.411674925301387, 30.900646356350578 -0.20389990869320584 M0.8909768137753957 42.4624518198853 C14.746178079549049 26.65419001022793, 27.520546033511412 10.238474289032297, 36.03076294604813 1.7933558208030185 M0.24764222015151915 42.05828300173931 C9.576391952171614 31.65916361999212, 21.708802776159644 19.47079351945128, 37.417130181380855 1.1261725668889007 M4.240546047463695 47.178677551089024 C14.783667144564467 33.52475918846174, 28.046811851658898 18.046580454823857, 43.488607366192866 -1.839382914048528 M1.5866977905478876 45.26946796813438 C12.91067901341636 32.61128630333853, 25.714753030049714 20.424581804256565, 42.93834780957155 0.5815594185470587 M9.339145403461682 45.807545369116504 C22.98416570752879 30.01190363989866, 39.17788333947308 11.808721757781832, 47.63027465431976 0.7216366984125422 M8.403547063576209 45.54008075743719 C18.283881229106225 32.82054900835692, 30.156144471676882 18.774913953883335, 47.305379425129175 -0.29597156046068207 M11.392670060422834 46.255517999011055 C27.99452547821442 27.742313858081193, 43.00083774529378 12.900502127990514, 53.481017634034814 0.6952669821156867 M13.16446119445246 46.38534874312855 C23.2336579374467 34.51688103260215, 32.50166354341469 25.227780786318394, 52.932760078222216 -0.2452096477673642 M17.239636725991133 45.32278608559322 C35.08070354145474 27.793071077115805, 48.013719848869954 8.394970040103992, 56.66841551298202 -0.282363918118552 M17.940989117383126 46.30407096846652 C32.79671297187152 30.821179445247793, 46.378722024893534 15.061192666730623, 57.43500745305718 -0.1228245501149452 M23.56936072377259 46.18913945279245 C36.410514122261 32.1840618382968, 48.15830684287105 17.301083459172645, 64.92084611476739 -0.4455286783607235 M24.253134632536714 46.63948940581803 C36.21242687746664 30.775698129906914, 49.685955063140305 16.346642859251826, 64.75009409980257 -0.8160430451364746 M27.923483761411205 44.20164374542931 C37.50912519985362 36.269558582352296, 48.7871203983656 23.90838585165557, 69.06901364703491 -0.11122415379028183 M29.695884174119726 45.741965598441155 C39.4888224118545 35.652190386399404, 49.6751122978047 22.851956558952903, 69.76597520266488 0.9200276604260935 M34.194446162512975 44.586963787433234 C47.716372944351264 31.089771274872838, 60.6126557845367 15.128937623204635, 72.54442093339058 0.0331519795222448 M35.06267904230066 45.05630401870283 C46.79319704768499 32.81884651959675, 58.838015219571275 18.540219304486588, 73.4440608118126 0.549723288939731 M39.6270146347219 44.23904022362478 C51.25669205940694 33.799712392146354, 58.26922689434441 25.916560916854987, 78.38089718147842 0.717477866397374 M38.971943171286014 45.28442870986111 C47.91139308560223 36.50259466905615, 56.854311831678864 27.378982388955173, 79.44574361145226 -0.08050086633754461 M44.316754501643985 45.43141287793338 C51.88630007262704 37.16148553221272, 60.48342644744473 26.08985300669255, 86.7130702149044 -2.198769169235419 M44.99055536124429 46.47270664428294 C55.66195107884069 31.211689140926836, 68.52547585254297 18.15010074330784, 85.25587115175233 -0.654746583038758 M50.21155747092322 45.60489739517961 C58.07956978374446 32.39591305222064, 70.74065266033645 21.796564383719854, 89.77789424131254 0.0611640174443977 M50.26037704638198 46.17462436522637 C58.422873797267584 34.91881381226397, 68.7782947672982 24.30211155804161, 90.80927361691931 -0.22499606790587734 M53.954054837175114 47.83461817951568 C62.866405981250026 37.296688767761, 72.77515630706947 26.82436126048628, 97.41312208430887 -1.0963702496337078 M55.965665497877104 46.29282092528113 C65.82544608147242 33.84342200548613, 75.04683028094048 22.72327540617426, 95.61423605712176 -1.1237885985719345 M61.16344039501517 46.84413713509383 C69.72204566321463 35.70494888890783, 79.22246023784045 21.092945659139094, 100.05883295153731 -1.8477438256491965 M61.23989673690765 45.46821662703695 C70.19289877229352 34.798789199626256, 80.36985315232712 24.495904414453616, 101.37902615656608 -0.8015438817788905 M64.71729335208738 47.019582406734585 C77.832418433672 32.6504714990683, 90.05234706618928 18.857947859048526, 106.25590466660393 -0.23972938667261445 M65.07258844768012 45.469141763751864 C75.80383133542337 35.25429664408252, 86.97475403089982 22.680387775255497, 107.13536646542084 0.26076130484020865 M69.59399153199774 44.87668131836742 C84.86758036042315 31.00605593230846, 96.42721313186239 15.51577433203078, 109.6475414371527 1.5981762121165772 M70.776713180363 46.03336955779284 C86.44397074748173 28.78334915448072, 101.85820018506502 9.233550449828911, 111.86496216789253 0.7142697545434018 M75.87423914239027 46.848437014812866 C91.5678924152756 29.351003379616245, 106.648301365131 11.902524707049466, 115.8535099708276 2.184913615538939 M76.61522611916281 47.03079280241791 C90.36337721392243 29.882122816464616, 105.94529482356421 11.70023752803187, 114.99873719818761 3.4484055105887492 M80.23953900687096 46.997451820000386 C92.20554065571163 34.14261469383977, 99.66314851761918 24.765972213752526, 114.72013947527262 8.437860968415002 M80.92453731424806 46.550747219994044 C89.38292046741694 38.97702721489007, 95.99854851124971 29.688769654224004, 114.29183424051257 9.715873866234283 M86.97372033308378 44.803603878750515 C92.90424423485311 37.988726228109016, 100.3472305870754 32.322675335872304, 113.8187938900558 13.385157273783129 M86.7410394498252 47.06468810377927 C96.21568637296333 36.84862321051842, 104.16064913832561 26.13800094002038, 114.94708696099796 15.219984722955864 M93.46141094463476 46.87637051499273 C99.41856923135514 38.398549774540896, 102.27409458668127 34.380064311749834, 112.19892742282113 19.99105567646388 M92.92458007606277 45.51351367614056 C96.71443361413073 41.200429078304964, 101.15551782654644 34.307555047844524, 114.99307554385027 20.315005874011554 M97.18956504916791 44.74250487354754 C101.40941608461155 43.041705905890986, 108.52058451993919 35.18165910919687, 116.51079289717464 27.849408500386694 M96.78498937716726 45.470241730335935 C102.77955669908579 40.314234593399256, 107.81810714392533 33.996432079545045, 115.03183503923802 27.07464804176829 M101.53283254285775 44.76694923413627 C104.52766040738823 41.148297695559464, 109.41660316346609 40.59680113118735, 115.75266200968395 34.69347672479174 M103.19850693592302 45.33557688796603 C106.6820239112794 43.254997988485314, 109.21124432046781 38.862839685156445, 114.78231357870023 33.40436470953694 M108.674349552774 45.673889340796144 C110.2790225621346 44.67661876142159, 110.53036233851888 43.503352428907135, 114.65072034892492 39.84770851305923 M107.75137049314486 46.151701982468936 C110.08002733140792 43.57360353028657, 111.97160668462344 41.77199151568728, 114.01098111287556 39.79504517468861" stroke="#fab005" stroke-width="0.5" fill="none"></path><path d="M1.1391070857644081 1.8381369337439537 C31.151323388246457 1.2209105289143338, 60.46954707598241 0.09417031170547152, 110.05781421810389 0.4337463602423668 M0.9961960427463055 -0.6208205930888653 C41.40548442986762 -1.8099260631162506, 82.51278230795573 -0.28468957572763975, 110.48267949745059 -0.8943542949855328 M111.54713878780603 -0.37994954735040665 C111.13459834938782 15.599054609201266, 113.15041098480957 32.883745716436536, 109.65390286594629 43.3616788610816 M112.00744165107608 0.8995633609592915 C111.81237925199413 15.46345337004459, 110.33415318635845 28.59477578269434, 111.74817849323153 44.14048354700208 M109.76621327549219 44.69745805114508 C74.73255802285036 43.75880833980641, 37.942898436712426 43.73974939701161, -0.15356530994176865 43.38173630088568 M112.13967038318515 43.845503497868776 C72.7951191622364 43.45226097820738, 35.378802041629456 43.35761678932646, -0.8146802075207233 44.704515267163515 M0.7282153144478798 43.814256213605404 C-0.6589852569243522 28.669121532366262, 1.6038824322083383 11.383873020560713, -1.939480446279049 -0.6606223359704018 M-0.8640757687389851 44.33137970045209 C-0.6243034314698889 31.983009396595293, -0.42759510989853877 22.038253136927956, 0.28427673503756523 0.3222769983112812" stroke="#000000" stroke-width="1" fill="none"></path></g><g transform="translate(64.39917652027026 136.1328125) rotate(0 49.5 12.5)"><text x="49.5" y="18" font-family="Virgil, Segoe UI Emoji" font-size="20px" fill="#000000" text-anchor="middle" style="white-space: pre;" direction="ltr">mijia-homie</text></g><g transform="translate(614.3796452702702 27.78125) rotate(0 64 12.5)"><text x="64" y="18" font-family="Virgil, Segoe UI Emoji" font-size="20px" fill="#000000" text-anchor="middle" style="white-space: pre;" direction="ltr">Your Browser</text></g><g transform="translate(590.0261296452702 14.534610782657637) rotate(0 90.701171875 178.56304546734236)"><path d="M-1.1042550802230835 0.5030225515365601 C63.34061858460771 1.318588894575368, 124.668915101001 0.4402510344679462, 179.94634687900538 1.5750402212142944 M-0.7105076909065247 -0.9167477488517761 C61.04252852059434 1.9826795700867657, 122.79037674381395 0.8100015763123516, 181.10705631971354 0.1804526448249817 M182.40768952837294 -0.47980501371935236 C181.04948757766866 128.45935584658667, 181.2523013969745 260.01897552778263, 180.69064222023246 356.6058584912659 M180.81268641053958 -0.04489253665299817 C181.64826862587756 106.71201893947848, 182.14258517063928 213.16628817952616, 181.56409161520196 357.3565218757778 M183.29412901401514 355.4925702122955 C121.98402612253554 359.9818084949169, 62.50265858261844 357.60566790043447, 1.8967329263687134 358.32117967884824 M181.07827633619303 358.0679590610771 C126.73001510195895 357.0260345958599, 69.59140962944363 357.498742344273, -0.5578950047492981 356.97631668131635 M0.30196351153084744 356.9933206829604 C0.5851406816633329 241.65740387014992, 0.0014196148607306114 126.34477621667261, -0.10575012306209075 -0.05433728964311601 M-0.40266495991889234 357.16397860494664 C-1.699446388884174 226.71688466908827, -1.403827655021917 95.55090345541866, 0.4704825726289515 0.255027194757516" stroke="#000000" stroke-width="1" fill="none"></path></g><g transform="translate(511.87964527027026 96.8203125) rotate(0 33.5 12.5)"><text x="33.5" y="18" font-family="Virgil, Segoe UI Emoji" font-size="20px" fill="#000000" text-anchor="middle" style="white-space: pre;" direction="ltr">MQTT</text></g></svg>